<svg width="34" height="34" viewBox="0 0 34 34" fill="none" xmlns="http://www.w3.org/2000/svg">
<path d="M8.5 9.91602H19.8333V12.7493H8.5V9.91602ZM8.5 15.5827H25.5V18.416H8.5V15.5827ZM8.5 21.2493H12.7358V24.0827H8.5V21.2493Z" fill="#BD171D"/>
<path d="M19.834 4.25L15.584 0V2.83333H5.66732C4.91587 2.83333 4.1952 3.13184 3.66385 3.6632C3.1325 4.19455 2.83398 4.91522 2.83398 5.66667V28.3333C2.83398 29.0848 3.1325 29.8054 3.66385 30.3368C4.1952 30.8682 4.91587 31.1667 5.66732 31.1667H11.334V28.3333H5.66732V5.66667H15.584V8.5L19.834 4.25ZM14.1673 29.75L18.4173 34V31.1667H28.334C29.0854 31.1667 29.8061 30.8682 30.3375 30.3368C30.8688 29.8054 31.1673 29.0848 31.1673 28.3333V5.66667C31.1673 4.91522 30.8688 4.19455 30.3375 3.6632C29.8061 3.13184 29.0854 2.83333 28.334 2.83333H22.6673V5.66667H28.334V28.3333H18.4173V25.5L14.1673 29.75Z" fill="#BD171D"/>
</svg>
