<svg width="34" height="34" viewBox="0 0 34 34" fill="none" xmlns="http://www.w3.org/2000/svg">
<g clip-path="url(#clip0_5146_19028)">
<path fill-rule="evenodd" clip-rule="evenodd" d="M5.73461 1.09573C8.06219 0.906609 11.7491 0.708984 17.0007 0.708984C22.2522 0.708984 25.9391 0.906609 28.2667 1.09573C30.7685 1.29903 32.703 3.23278 32.9063 5.73532C33.0954 8.06148 33.2923 11.7484 33.2923 17.0007C33.2923 22.2529 33.0954 25.9391 32.9063 28.2667C32.703 30.7685 30.7685 32.703 28.2667 32.9063C25.9391 33.0954 22.2522 33.2923 17.0007 33.2923C11.7491 33.2923 8.06219 33.0954 5.73461 32.9063C3.23278 32.703 1.29832 30.7685 1.09503 28.2667C0.907318 25.9391 0.708984 22.2522 0.708984 17.0007C0.708984 11.7491 0.906609 8.06219 1.09573 5.73461C1.29903 3.23278 3.23278 1.29832 5.73532 1.09503M3.66628 10.2715C3.58037 12.5135 3.53904 14.757 3.54232 17.0007C3.54232 22.1814 3.73711 25.7911 3.91915 28.0365C4.01053 29.1557 4.84636 29.9915 5.96411 30.0821C8.21023 30.2642 11.8199 30.459 17.0007 30.459C22.1814 30.459 25.7911 30.2642 28.0365 30.0821C29.1557 29.9908 29.9915 29.1549 30.0821 28.0372C30.2642 25.7911 30.459 22.1814 30.459 17.0007C30.459 14.3586 30.4087 12.1245 30.3343 10.2715H3.66628ZM5.13607 6.02148C5.13607 5.33723 5.6914 4.7819 6.37565 4.7819H7.79232C8.12108 4.7819 8.43637 4.9125 8.66884 5.14497C8.9013 5.37743 9.0319 5.69273 9.0319 6.02148C9.0319 6.35024 8.9013 6.66554 8.66884 6.898C8.43637 7.13047 8.12108 7.26107 7.79232 7.26107H6.37565C6.04689 7.26107 5.7316 7.13047 5.49913 6.898C5.26667 6.66554 5.13607 6.35024 5.13607 6.02148ZM12.0423 4.7819C11.7136 4.7819 11.3983 4.9125 11.1658 5.14497C10.9333 5.37743 10.8027 5.69273 10.8027 6.02148C10.8027 6.35024 10.9333 6.66554 11.1658 6.898C11.3983 7.13047 11.7136 7.26107 12.0423 7.26107H13.459C13.7877 7.26107 14.103 7.13047 14.3355 6.898C14.568 6.66554 14.6986 6.35024 14.6986 6.02148C14.6986 5.69273 14.568 5.37743 14.3355 5.14497C14.103 4.9125 13.7877 4.7819 13.459 4.7819H12.0423Z" fill="#BD171D"/>
<mask id="path-2-inside-1_5146_19028" fill="white">
<path d="M11.6357 20.6455C11.3307 20.874 11.2443 21.2944 11.4347 21.6244L12.5992 23.6412C12.7903 23.9719 13.1979 24.1064 13.5474 23.9565C13.852 23.8271 14.1919 23.847 14.4797 24.0124C14.767 24.1784 14.9541 24.4622 14.993 24.7914C15.0382 25.1699 15.359 25.4551 15.7405 25.4551H18.0703C18.4518 25.4551 18.7726 25.1699 18.8178 24.7914C18.8567 24.4621 19.0438 24.1784 19.3312 24.0123C19.6193 23.847 19.9588 23.8271 20.2635 23.9565C20.6144 24.1064 21.0208 23.9719 21.2116 23.6412L22.3761 21.6237C22.5665 21.2937 22.4801 20.8726 22.1747 20.6447C21.9094 20.4463 21.7569 20.142 21.7569 19.8105C21.7569 19.4791 21.909 19.1741 22.1751 18.9756C22.4801 18.747 22.5665 18.3266 22.3761 17.9966L21.2116 15.9799C21.0205 15.6499 20.6144 15.5154 20.2635 15.6646C19.9588 15.7947 19.6193 15.7748 19.3311 15.6087C19.0438 15.4426 18.8567 15.1589 18.8178 14.8297C18.7726 14.4512 18.4518 14.166 18.0703 14.166H15.7405C15.359 14.166 15.0382 14.4512 14.993 14.8297C14.9541 15.159 14.767 15.4427 14.4797 15.6088C14.1919 15.7749 13.852 15.7947 13.5474 15.6646C13.1979 15.5154 12.7903 15.6499 12.5992 15.9799L11.4347 17.9967C11.2443 18.3267 11.3307 18.7471 11.6357 18.9756C11.9014 19.1741 12.0539 19.4784 12.0539 19.8106C12.0539 20.1428 11.9014 20.447 11.6357 20.6455ZM13.027 18.2495L13.6142 17.2323C14.1695 17.3102 14.7328 17.2014 15.2326 16.9118C15.7324 16.623 16.1083 16.1886 16.3178 15.6712H17.493C17.7025 16.1886 18.0784 16.623 18.5782 16.9118C19.078 17.2014 19.6424 17.3102 20.1966 17.2323L20.7838 18.2495C20.4406 18.6897 20.2517 19.2329 20.2517 19.8105C20.2517 20.3882 20.4406 20.9314 20.7838 21.3716L20.1966 22.3888C19.6424 22.3116 19.078 22.4197 18.5782 22.7092C18.0784 22.9981 17.7025 23.4325 17.493 23.9499H16.3178C16.1083 23.4325 15.7324 22.9981 15.2326 22.7092C14.7329 22.4197 14.1677 22.3116 13.6146 22.3888L13.027 21.3709C13.3702 20.9314 13.5591 20.3882 13.5591 19.8113C13.5591 19.2336 13.3702 18.6897 13.027 18.2495Z"/>
</mask>
<path d="M11.6357 20.6455C11.3307 20.874 11.2443 21.2944 11.4347 21.6244L12.5992 23.6412C12.7903 23.9719 13.1979 24.1064 13.5474 23.9565C13.852 23.8271 14.1919 23.847 14.4797 24.0124C14.767 24.1784 14.9541 24.4622 14.993 24.7914C15.0382 25.1699 15.359 25.4551 15.7405 25.4551H18.0703C18.4518 25.4551 18.7726 25.1699 18.8178 24.7914C18.8567 24.4621 19.0438 24.1784 19.3312 24.0123C19.6193 23.847 19.9588 23.8271 20.2635 23.9565C20.6144 24.1064 21.0208 23.9719 21.2116 23.6412L22.3761 21.6237C22.5665 21.2937 22.4801 20.8726 22.1747 20.6447C21.9094 20.4463 21.7569 20.142 21.7569 19.8105C21.7569 19.4791 21.909 19.1741 22.1751 18.9756C22.4801 18.747 22.5665 18.3266 22.3761 17.9966L21.2116 15.9799C21.0205 15.6499 20.6144 15.5154 20.2635 15.6646C19.9588 15.7947 19.6193 15.7748 19.3311 15.6087C19.0438 15.4426 18.8567 15.1589 18.8178 14.8297C18.7726 14.4512 18.4518 14.166 18.0703 14.166H15.7405C15.359 14.166 15.0382 14.4512 14.993 14.8297C14.9541 15.159 14.767 15.4427 14.4797 15.6088C14.1919 15.7749 13.852 15.7947 13.5474 15.6646C13.1979 15.5154 12.7903 15.6499 12.5992 15.9799L11.4347 17.9967C11.2443 18.3267 11.3307 18.7471 11.6357 18.9756C11.9014 19.1741 12.0539 19.4784 12.0539 19.8106C12.0539 20.1428 11.9014 20.447 11.6357 20.6455ZM13.027 18.2495L13.6142 17.2323C14.1695 17.3102 14.7328 17.2014 15.2326 16.9118C15.7324 16.623 16.1083 16.1886 16.3178 15.6712H17.493C17.7025 16.1886 18.0784 16.623 18.5782 16.9118C19.078 17.2014 19.6424 17.3102 20.1966 17.2323L20.7838 18.2495C20.4406 18.6897 20.2517 19.2329 20.2517 19.8105C20.2517 20.3882 20.4406 20.9314 20.7838 21.3716L20.1966 22.3888C19.6424 22.3116 19.078 22.4197 18.5782 22.7092C18.0784 22.9981 17.7025 23.4325 17.493 23.9499H16.3178C16.1083 23.4325 15.7324 22.9981 15.2326 22.7092C14.7329 22.4197 14.1677 22.3116 13.6146 22.3888L13.027 21.3709C13.3702 20.9314 13.5591 20.3882 13.5591 19.8113C13.5591 19.2336 13.3702 18.6897 13.027 18.2495Z" fill="#BD171D"/>
<path d="M11.6357 20.6455L5.65148 12.6337L5.64512 12.6384L5.63877 12.6432L11.6357 20.6455ZM11.4347 21.6244L2.7725 26.6211L2.77478 26.625L11.4347 21.6244ZM12.5992 23.6412L3.93933 28.6418L3.94064 28.644L12.5992 23.6412ZM13.5474 23.9565L9.63895 14.7519L9.62188 14.7592L9.60484 14.7665L13.5474 23.9565ZM14.4797 24.0124L19.4838 15.3545L19.4732 15.3484L19.4626 15.3423L14.4797 24.0124ZM14.993 24.7914L5.06228 25.9663L5.06357 25.977L14.993 24.7914ZM18.8178 24.7914L28.7473 25.977L28.7485 25.9663L18.8178 24.7914ZM19.3312 24.0123L14.353 15.3395L14.3399 15.347L14.3268 15.3546L19.3312 24.0123ZM20.2635 23.9565L24.1922 14.7606L24.1819 14.7562L24.1717 14.7518L20.2635 23.9565ZM21.2116 23.6412L12.5509 18.642L12.5487 18.6456L21.2116 23.6412ZM22.3761 21.6237L31.0368 26.6229L31.0383 26.6203L22.3761 21.6237ZM22.1747 20.6447L16.1854 28.6527L16.1949 28.6598L22.1747 20.6447ZM22.1751 18.9756L28.154 26.9914L28.163 26.9847L28.172 26.9779L22.1751 18.9756ZM22.3761 17.9966L31.0383 13L31.036 12.9961L22.3761 17.9966ZM21.2116 15.9799L29.8715 10.9793L29.8654 10.9687L21.2116 15.9799ZM20.2635 15.6646L16.3511 6.4617L16.3437 6.46482L16.3364 6.46796L20.2635 15.6646ZM19.3311 15.6087L14.327 24.2666L14.3365 24.2721L19.3311 15.6087ZM18.8178 14.8297L28.7485 13.6548L28.7473 13.6442L18.8178 14.8297ZM14.993 14.8297L5.06355 13.6441L5.06229 13.6548L14.993 14.8297ZM14.4797 15.6088L19.4791 24.2693L19.484 24.2665L14.4797 15.6088ZM13.5474 15.6646L17.4744 6.46798L17.4736 6.46764L13.5474 15.6646ZM12.5992 15.9799L3.94543 10.9688L3.93933 10.9793L12.5992 15.9799ZM11.4347 17.9967L2.77478 12.9961L2.7725 13L11.4347 17.9967ZM11.6357 18.9756L5.63877 26.9779L5.64525 26.9828L5.65173 26.9876L11.6357 18.9756ZM13.027 18.2495L4.36659 13.2497L0.998084 19.0846L5.14054 24.398L13.027 18.2495ZM13.6142 17.2323L15.0037 7.3293L8.32548 6.39226L4.95383 12.2326L13.6142 17.2323ZM15.2326 16.9118L10.2288 8.25379L10.2193 8.2593L15.2326 16.9118ZM16.3178 15.6712V5.67122H9.57774L7.04855 11.9188L16.3178 15.6712ZM17.493 15.6712L26.7623 11.9188L24.2331 5.67122H17.493V15.6712ZM18.5782 16.9118L23.5916 8.25936L23.582 8.25382L18.5782 16.9118ZM20.1966 17.2323L28.857 12.2325L25.4843 6.39055L18.8044 7.32967L20.1966 17.2323ZM20.7838 18.2495L28.6703 24.398L32.8127 19.0846L29.4442 13.2497L20.7838 18.2495ZM20.7838 21.3716L29.4442 26.3714L32.8127 20.5365L28.6703 15.2231L20.7838 21.3716ZM20.1966 22.3888L18.8173 32.2932L25.4891 33.2223L28.857 27.3885L20.1966 22.3888ZM18.5782 22.7092L23.582 31.3673L23.5915 31.3618L18.5782 22.7092ZM17.493 23.9499V33.9499H24.2331L26.7623 27.7023L17.493 23.9499ZM16.3178 23.9499L7.04855 27.7023L9.57774 33.9499H16.3178V23.9499ZM15.2326 22.7092L10.2192 31.3617L10.2288 31.3673L15.2326 22.7092ZM13.6146 22.3888L4.95399 27.3882L8.32279 33.2241L14.9966 32.2929L13.6146 22.3888ZM13.027 21.3709L5.14555 15.216L0.995325 20.5304L4.36639 26.3702L13.027 21.3709ZM13.5591 19.8113H23.5591V19.8111L13.5591 19.8113ZM11.6357 20.6455L5.63877 12.6432C1.28887 15.903 0.0509939 21.9031 2.7725 26.6211L11.4347 21.6244L20.0969 16.6278C22.4377 20.6858 21.3725 25.8451 17.6326 28.6478L11.6357 20.6455ZM11.4347 21.6244L2.77478 26.625L3.93933 28.6418L12.5992 23.6412L21.2592 18.6406L20.0946 16.6239L11.4347 21.6244ZM12.5992 23.6412L3.94064 28.644C6.66953 33.367 12.4929 35.2902 17.4899 33.1465L13.5474 23.9565L9.60484 14.7665C13.9028 12.9226 18.9111 14.5768 21.2578 18.6383L12.5992 23.6412ZM13.5474 23.9565L17.4558 33.1611C14.8849 34.2527 11.9332 34.0828 9.49672 32.6824L14.4797 24.0124L19.4626 15.3423C16.4506 13.6112 12.8191 13.4016 9.63895 14.7519L13.5474 23.9565ZM14.4797 24.0124L9.4755 32.6702C7.0388 31.2618 5.39466 28.7756 5.06229 25.9663L14.993 24.7914L24.9238 23.6165C24.5135 20.1487 22.4953 17.0951 19.4838 15.3545L14.4797 24.0124ZM14.993 24.7914L5.06357 25.977C5.7086 31.3792 10.2898 35.4551 15.7405 35.4551V25.4551V15.4551C20.4282 15.4551 24.3678 18.9607 24.9225 23.6058L14.993 24.7914ZM15.7405 25.4551V35.4551H18.0703V25.4551V15.4551H15.7405V25.4551ZM18.0703 25.4551V35.4551C23.5211 35.4551 28.1022 31.379 28.7473 25.977L18.8178 24.7914L8.88831 23.6058C9.44293 18.9608 13.3825 15.4551 18.0703 15.4551V25.4551ZM18.8178 24.7914L28.7485 25.9663C28.4161 28.7757 26.7719 31.2618 24.3355 32.6701L19.3312 24.0123L14.3268 15.3546C11.3156 17.0951 9.29733 20.1485 8.88704 23.6165L18.8178 24.7914ZM19.3312 24.0123L24.3093 32.6852C21.8776 34.0809 18.9281 34.2535 16.3552 33.1611L20.2635 23.9565L24.1717 14.7518C20.9895 13.4007 17.3609 13.613 14.353 15.3395L19.3312 24.0123ZM20.2635 23.9565L16.3347 33.1524C21.3186 35.2817 27.1426 33.374 29.8744 28.6367L21.2116 23.6412L12.5487 18.6456C14.8991 14.5699 19.9102 12.9312 24.1922 14.7606L20.2635 23.9565ZM21.2116 23.6412L29.8723 28.6404L31.0368 26.6229L22.3761 21.6237L13.7154 16.6245L12.5509 18.642L21.2116 23.6412ZM22.3761 21.6237L31.0383 26.6203C33.7557 21.9094 32.5309 15.8948 28.1546 12.6297L22.1747 20.6447L16.1949 28.6598C12.4293 25.8504 11.3772 20.678 13.7139 16.6271L22.3761 21.6237ZM22.1747 20.6447L28.164 12.6367C30.4218 14.3253 31.7569 16.9881 31.7569 19.8105H21.7569H11.7569C11.7569 23.2959 13.397 26.5673 16.1854 28.6527L22.1747 20.6447ZM21.7569 19.8105H31.7569C31.7569 22.6201 30.4311 25.293 28.154 26.9914L22.1751 18.9756L16.1962 10.9598C13.387 13.0552 11.7569 16.3381 11.7569 19.8105H21.7569ZM22.1751 18.9756L28.172 26.9779C32.5219 23.7181 33.7598 17.718 31.0383 13L22.3761 17.9966L13.7139 22.9933C11.3731 18.9353 12.4383 13.776 16.1782 10.9733L22.1751 18.9756ZM22.3761 17.9966L31.036 12.9961L29.8715 10.9793L21.2116 15.9799L12.5516 20.9805L13.7162 22.9972L22.3761 17.9966ZM21.2116 15.9799L29.8654 10.9687C27.1329 6.25006 21.3274 4.34612 16.3511 6.4617L20.2635 15.6646L24.1758 24.8675C19.9014 26.6847 14.908 25.0497 12.5578 20.991L21.2116 15.9799ZM20.2635 15.6646L16.3364 6.46796C18.9206 5.36445 21.8861 5.53885 24.3258 6.94539L19.3311 15.6087L14.3365 24.2721C17.3524 26.0108 20.997 26.2249 24.1905 24.8612L20.2635 15.6646ZM19.3311 15.6087L24.3353 6.95088C26.772 8.35928 28.4162 10.8455 28.7485 13.6548L18.8178 14.8297L8.88703 16.0046C9.29731 19.4724 11.3155 22.526 14.327 24.2666L19.3311 15.6087ZM18.8178 14.8297L28.7473 13.6442C28.1023 8.24186 23.5209 4.16602 18.0703 4.16602V14.166V24.166C13.3827 24.166 9.44289 20.6605 8.88829 16.0151L18.8178 14.8297ZM18.0703 14.166V4.16602H15.7405V14.166V24.166H18.0703V14.166ZM15.7405 14.166V4.16602C10.2897 4.16602 5.70857 8.24205 5.06356 13.6441L14.993 14.8297L24.9225 16.0153C24.3679 20.6603 20.4283 24.166 15.7405 24.166V14.166ZM14.993 14.8297L5.06229 13.6548C5.39467 10.8454 7.03889 8.35931 9.47533 6.951L14.4797 15.6088L19.484 24.2665C22.4952 22.526 24.5135 19.4725 24.9238 16.0046L14.993 14.8297ZM14.4797 15.6088L9.48021 6.94818C11.9249 5.53693 14.8925 5.36545 17.4744 6.46798L13.5474 15.6646L9.62028 24.8613C12.8115 26.224 16.4589 26.0128 19.4791 24.2693L14.4797 15.6088ZM13.5474 15.6646L17.4736 6.46764C12.4893 4.33978 6.6769 6.25178 3.94544 10.9688L12.5992 15.9799L21.2531 20.9911C18.9038 25.0481 13.9065 26.6911 9.62107 24.8616L13.5474 15.6646ZM12.5992 15.9799L3.93933 10.9793L2.77478 12.9961L11.4347 17.9967L20.0946 22.9973L21.2592 20.9805L12.5992 15.9799ZM11.4347 17.9967L2.7725 13C0.0509939 17.718 1.28887 23.7181 5.63877 26.9779L11.6357 18.9756L17.6326 10.9733C21.3725 13.776 22.4377 18.9353 20.0969 22.9933L11.4347 17.9967ZM11.6357 18.9756L5.65173 26.9876C3.38715 25.2963 2.0539 22.6295 2.0539 19.8106H12.0539H22.0539C22.0539 16.3272 20.4156 13.0519 17.6197 10.9636L11.6357 18.9756ZM12.0539 19.8106H2.0539C2.0539 16.9912 3.38745 14.3247 5.65148 12.6337L11.6357 20.6455L17.6199 28.6573C20.4153 26.5693 22.0539 23.2943 22.0539 19.8106H12.0539ZM13.027 18.2495L21.6874 23.2492L22.2746 22.232L13.6142 17.2323L4.95383 12.2326L4.36659 13.2497L13.027 18.2495ZM13.6142 17.2323L12.2247 27.1353C15.0133 27.5266 17.8286 26.965 20.246 25.5644L15.2326 16.9118L10.2193 8.2593C11.6371 7.43783 13.3257 7.09384 15.0037 7.3293L13.6142 17.2323ZM15.2326 16.9118L20.2364 25.5699C22.6452 24.1778 24.5334 22.0265 25.5871 19.4237L16.3178 15.6712L7.04855 11.9188C7.68332 10.3508 8.81965 9.0682 10.2288 8.25379L15.2326 16.9118ZM16.3178 15.6712V25.6712H17.493V15.6712V5.67122H16.3178V15.6712ZM17.493 15.6712L8.22376 19.4237C9.27745 22.0265 11.1656 24.1778 13.5743 25.5699L18.5782 16.9118L23.582 8.25382C24.9912 9.06823 26.1275 10.3508 26.7623 11.9188L17.493 15.6712ZM18.5782 16.9118L13.5648 25.5643C15.9825 26.9652 18.7999 27.527 21.5888 27.1349L20.1966 17.2323L18.8044 7.32967C20.4849 7.09342 22.1734 7.43761 23.5916 8.25936L18.5782 16.9118ZM20.1966 17.2323L11.5362 22.232L12.1234 23.2492L20.7838 18.2495L29.4442 13.2497L28.857 12.2325L20.1966 17.2323ZM20.7838 18.2495L12.8974 12.101C11.1759 14.309 10.2517 17.0191 10.2517 19.8105H20.2517H30.2517C30.2517 21.4466 29.7053 23.0704 28.6703 24.398L20.7838 18.2495ZM20.2517 19.8105H10.2517C10.2517 22.602 11.1759 25.312 12.8974 27.5201L20.7838 21.3716L28.6703 15.2231C29.7053 16.5507 30.2517 18.1744 30.2517 19.8105H20.2517ZM20.7838 21.3716L12.1234 16.3719L11.5362 17.3891L20.1966 22.3888L28.857 27.3885L29.4442 26.3714L20.7838 21.3716ZM20.1966 22.3888L21.5758 12.4844C18.8046 12.0985 15.9906 12.6512 13.5649 14.0567L18.5782 22.7092L23.5915 31.3618C22.1653 32.1881 20.4802 32.5248 18.8173 32.2932L20.1966 22.3888ZM18.5782 22.7092L13.5743 14.0512C11.1656 15.4433 9.27745 17.5946 8.22376 20.1974L17.493 23.9499L26.7623 27.7023C26.1275 29.2703 24.9912 30.5529 23.582 31.3673L18.5782 22.7092ZM17.493 23.9499V13.9499H16.3178V23.9499V33.9499H17.493V23.9499ZM16.3178 23.9499L25.5871 20.1974C24.5334 17.5946 22.6452 15.4433 20.2365 14.0512L15.2326 22.7092L10.2288 31.3673C8.81963 30.5529 7.68331 29.2703 7.04855 27.7023L16.3178 23.9499ZM15.2326 22.7092L20.2461 14.0568C17.8207 12.6514 15.005 12.0979 12.2326 12.4848L13.6146 22.3888L14.9966 32.2929C13.3303 32.5254 11.6451 32.1879 10.2192 31.3617L15.2326 22.7092ZM13.6146 22.3888L22.2752 17.3894L21.6876 16.3715L13.027 21.3709L4.36639 26.3702L4.95399 27.3882L13.6146 22.3888ZM13.027 21.3709L20.9085 27.5258C22.6347 25.3152 23.5591 22.6021 23.5591 19.8113H13.5591H3.55912C3.55912 18.1744 4.10572 16.5475 5.14555 15.216L13.027 21.3709ZM13.5591 19.8113L23.5591 19.8111C23.5591 17.0228 22.6368 14.3114 20.9134 12.101L13.027 18.2495L5.14054 24.398C4.10369 23.068 3.55914 21.4444 3.55912 19.8114L13.5591 19.8113Z" fill="#BD171D" mask="url(#path-2-inside-1_5146_19028)"/>
<path d="M16.9062 22.0684C18.1513 22.0684 19.1641 21.0556 19.1641 19.8105C19.1641 18.5655 18.1513 17.5527 16.9062 17.5527M16.9062 22.0684V20.5635M16.9062 22.0684V20.5635M16.9062 22.0684C15.6612 22.0684 14.6484 21.0556 14.6484 19.8105C14.6484 18.5655 15.6612 17.5527 16.9062 17.5527M16.9062 20.5635C17.2951 20.5635 17.6165 20.2668 17.6553 19.8877L17.6592 19.8105C17.6592 19.3953 17.3211 19.0576 16.9062 19.0576M16.9062 20.5635L16.8291 20.5596C16.4503 20.5209 16.1533 20.1998 16.1533 19.8105C16.1533 19.3953 16.4914 19.0576 16.9062 19.0576M16.9062 19.0576V17.5527M16.9062 19.0576V17.5527" fill="#BD171D" stroke="#BD171D" stroke-width="10"/>
</g>
<defs>
<clipPath id="clip0_5146_19028">
<rect width="34" height="34" fill="white"/>
</clipPath>
</defs>
</svg>
