<svg width="34" height="34" viewBox="0 0 34 34" fill="none" xmlns="http://www.w3.org/2000/svg">
<path d="M9.91815 21.9173C9.71918 22.1165 9.60742 22.3866 9.60742 22.6682C9.60742 22.9497 9.71918 23.2198 9.91815 23.419C10.1174 23.618 10.3874 23.7297 10.669 23.7297C10.9506 23.7297 11.2206 23.618 11.4198 23.419L14.9615 19.8773C15.1605 19.6781 15.2722 19.4081 15.2722 19.1265C15.2722 18.8449 15.1605 18.5749 14.9615 18.3757L11.4198 14.834C11.2184 14.6463 10.952 14.5441 10.6767 14.549C10.4015 14.5539 10.1389 14.6654 9.94419 14.86C9.74952 15.0547 9.63801 15.3173 9.63316 15.5926C9.6283 15.8678 9.73047 16.1342 9.91815 16.3357L12.454 18.8715C12.4883 18.9045 12.5155 18.9441 12.5342 18.988C12.5528 19.0318 12.5624 19.0789 12.5624 19.1265C12.5624 19.1741 12.5528 19.2212 12.5342 19.265C12.5155 19.3088 12.4883 19.3485 12.454 19.3815L9.91815 21.9173ZM17.7807 22.314H23.4473C23.7291 22.314 23.9994 22.202 24.1986 22.0028C24.3979 21.8035 24.5098 21.5333 24.5098 21.2515C24.5098 20.9697 24.3979 20.6994 24.1986 20.5002C23.9994 20.3009 23.7291 20.189 23.4473 20.189H17.7807C17.4989 20.189 17.2286 20.3009 17.0294 20.5002C16.8301 20.6994 16.7182 20.9697 16.7182 21.2515C16.7182 21.5333 16.8301 21.8035 17.0294 22.0028C17.2286 22.202 17.4989 22.314 17.7807 22.314Z" fill="#BD171D"/>
<path d="M34 6.72852C34 5.60135 33.5522 4.52034 32.7552 3.72331C31.9582 2.92628 30.8772 2.47852 29.75 2.47852H4.25C3.12283 2.47852 2.04183 2.92628 1.2448 3.72331C0.447767 4.52034 0 5.60135 0 6.72852L0 27.2702C0 28.3974 0.447767 29.4784 1.2448 30.2754C2.04183 31.0724 3.12283 31.5202 4.25 31.5202H29.75C30.8772 31.5202 31.9582 31.0724 32.7552 30.2754C33.5522 29.4784 34 28.3974 34 27.2702V6.72852ZM14.875 4.60352C15.2507 4.60352 15.6111 4.75277 15.8767 5.01845C16.1424 5.28412 16.2917 5.64446 16.2917 6.02018C16.2917 6.39591 16.1424 6.75624 15.8767 7.02192C15.6111 7.28759 15.2507 7.43685 14.875 7.43685C14.4993 7.43685 14.1389 7.28759 13.8733 7.02192C13.6076 6.75624 13.4583 6.39591 13.4583 6.02018C13.4583 5.64446 13.6076 5.28412 13.8733 5.01845C14.1389 4.75277 14.4993 4.60352 14.875 4.60352ZM9.91667 4.60352C10.2924 4.60352 10.6527 4.75277 10.9184 5.01845C11.1841 5.28412 11.3333 5.64446 11.3333 6.02018C11.3333 6.39591 11.1841 6.75624 10.9184 7.02192C10.6527 7.28759 10.2924 7.43685 9.91667 7.43685C9.54094 7.43685 9.18061 7.28759 8.91493 7.02192C8.64926 6.75624 8.5 6.39591 8.5 6.02018C8.5 5.64446 8.64926 5.28412 8.91493 5.01845C9.18061 4.75277 9.54094 4.60352 9.91667 4.60352ZM4.95833 4.60352C5.33406 4.60352 5.69439 4.75277 5.96007 5.01845C6.22574 5.28412 6.375 5.64446 6.375 6.02018C6.375 6.39591 6.22574 6.75624 5.96007 7.02192C5.69439 7.28759 5.33406 7.43685 4.95833 7.43685C4.58261 7.43685 4.22228 7.28759 3.9566 7.02192C3.69092 6.75624 3.54167 6.39591 3.54167 6.02018C3.54167 5.64446 3.69092 5.28412 3.9566 5.01845C4.22228 4.75277 4.58261 4.60352 4.95833 4.60352ZM31.1667 27.2702C31.1667 27.6459 31.0174 28.0062 30.7517 28.2719C30.4861 28.5376 30.1257 28.6868 29.75 28.6868H4.25C3.87428 28.6868 3.51394 28.5376 3.24827 28.2719C2.98259 28.0062 2.83333 27.6459 2.83333 27.2702V9.91602C2.83333 9.82208 2.87065 9.732 2.93707 9.66558C3.00349 9.59916 3.09357 9.56185 3.1875 9.56185H30.8125C30.9064 9.56185 30.9965 9.59916 31.0629 9.66558C31.1294 9.732 31.1667 9.82208 31.1667 9.91602V27.2702Z" fill="#BD171D"/>
</svg>
