<svg width="34" height="34" viewBox="0 0 34 34" fill="none" xmlns="http://www.w3.org/2000/svg">
<path d="M30.0106 5.66602H3.99069C3.35186 5.66602 2.83398 6.18389 2.83398 6.82272V27.176C2.83398 27.8148 3.35186 28.3327 3.99069 28.3327H30.0106C30.6494 28.3327 31.1673 27.8148 31.1673 27.176V6.82272C31.1673 6.18389 30.6494 5.66602 30.0106 5.66602Z" stroke="#BD171D" stroke-width="2.83333"/>
<path d="M11.334 13.4207C9.91732 11.3325 7.43673 12.7053 7.61453 14.8515C7.79232 16.9992 10.6257 16.9992 10.802 19.1469C10.9798 21.2931 8.50065 22.6659 7.08398 20.577M18.4173 12.7492H15.584V21.9575H18.4173M15.584 17.7075H18.4173" stroke="#BD171D" stroke-width="2.83333" stroke-linecap="round" stroke-linejoin="round"/>
<path d="M26.916 14.875C26.916 13.7014 25.9646 12.75 24.791 12.75C23.6174 12.75 22.666 13.7014 22.666 14.875V19.8333C22.666 21.0069 23.6174 21.9583 24.791 21.9583C25.9646 21.9583 26.916 21.0069 26.916 19.8333V14.875Z" stroke="#BD171D" stroke-width="2.83333" stroke-linecap="round" stroke-linejoin="round"/>
</svg>
