<svg width="34" height="34" viewBox="0 0 34 34" fill="none" xmlns="http://www.w3.org/2000/svg">
<path d="M7.43815 5.66602C6.21705 5.66602 5.04596 6.1511 4.18251 7.01454C3.31906 7.87799 2.83398 9.04908 2.83398 10.2702V23.7285C2.83398 24.9496 3.31906 26.1207 4.18251 26.9842C5.04596 27.8476 6.21705 28.3327 7.43815 28.3327H26.5632C27.1678 28.3327 27.7665 28.2136 28.3251 27.9822C28.8837 27.7508 29.3913 27.4117 29.8188 26.9842C30.2463 26.5566 30.5855 26.0491 30.8168 25.4905C31.0482 24.9319 31.1673 24.3331 31.1673 23.7285V10.2702C31.1673 9.66555 31.0482 9.06685 30.8168 8.50824C30.5855 7.94964 30.2463 7.44208 29.8188 7.01454C29.3913 6.58701 28.8837 6.24787 28.3251 6.01649C27.7665 5.78511 27.1678 5.66602 26.5632 5.66602H7.43815ZM4.95898 10.2702C4.95898 8.90168 6.06965 7.79102 7.43815 7.79102H26.5632C27.9317 7.79102 29.0423 8.90168 29.0423 10.2702V23.7285C29.0423 24.386 28.7811 25.0166 28.3162 25.4816C27.8513 25.9465 27.2207 26.2077 26.5632 26.2077H7.43815C6.78064 26.2077 6.15005 25.9465 5.68512 25.4816C5.22018 25.0166 4.95898 24.386 4.95898 23.7285V10.2702ZM7.08398 10.9785C7.08398 10.6967 7.19593 10.4265 7.39518 10.2272C7.59444 10.028 7.86469 9.91602 8.14648 9.91602H15.9382C16.2199 9.91602 16.4902 10.028 16.6895 10.2272C16.8887 10.4265 17.0007 10.6967 17.0007 10.9785C17.0007 11.2603 16.8887 11.5306 16.6895 11.7298C16.4902 11.9291 16.2199 12.041 15.9382 12.041H8.14648C7.86469 12.041 7.59444 11.9291 7.39518 11.7298C7.19593 11.5306 7.08398 11.2603 7.08398 10.9785ZM8.50065 18.416C8.12493 18.416 7.76459 18.5653 7.49892 18.8309C7.23324 19.0966 7.08398 19.457 7.08398 19.8327V22.666C7.08398 23.0417 7.23324 23.4021 7.49892 23.6678C7.76459 23.9334 8.12493 24.0827 8.50065 24.0827H18.4173C18.793 24.0827 19.1534 23.9334 19.4191 23.6678C19.6847 23.4021 19.834 23.0417 19.834 22.666V19.8327C19.834 19.457 19.6847 19.0966 19.4191 18.8309C19.1534 18.5653 18.793 18.416 18.4173 18.416H8.50065ZM7.08398 14.5202C7.08398 14.2384 7.19593 13.9681 7.39518 13.7689C7.59444 13.5696 7.86469 13.4577 8.14648 13.4577H23.0215C23.3033 13.4577 23.5735 13.5696 23.7728 13.7689C23.972 13.9681 24.084 14.2384 24.084 14.5202C24.084 14.802 23.972 15.0722 23.7728 15.2715C23.5735 15.4707 23.3033 15.5827 23.0215 15.5827H8.14648C7.86469 15.5827 7.59444 15.4707 7.39518 15.2715C7.19593 15.0722 7.08398 14.802 7.08398 14.5202Z" fill="#BD171D"/>
</svg>
