<svg width="34" height="34" viewBox="0 0 34 34" fill="none" xmlns="http://www.w3.org/2000/svg">
<g clip-path="url(#clip0_5177_18666)">
<path d="M33 4C33.5523 4 34 3.55228 34 3C34 2.44772 33.5584 2 33.0062 2C30.1487 2 21.9908 2 18.9946 2C18.4423 2 18 1.55228 18 1C18 0.447715 17.5523 0 17 0C16.4477 0 16 0.447715 16 1C16 1.55228 15.5597 2 15.0074 2C12.1328 2 3.90133 2 0.994684 2C0.442399 2 0 2.44772 0 3C0 3.55228 0.447715 4 1 4C1.55228 4 2 4.44772 2 5V25C2 25.5523 1.55228 26 1 26C0.447715 26 0 26.4477 0 27C0 27.5523 0.447715 28 1 28H9.22518C9.90773 28 10.3897 28.6687 10.1739 29.3162L9.50719 31.3162C9.37108 31.7246 8.98894 32 8.55851 32H8C7.44772 32 7 32.4477 7 33C7 33.5523 7.44772 34 8 34H9.99998C10.4304 34 10.8125 33.7246 10.9487 33.3162L12.4928 28.6838C12.6289 28.2754 13.0111 28 13.4415 28H15C15.5523 28 16 28.4477 16 29V33C16 33.5523 16.4477 34 17 34C17.5523 34 18 33.5523 18 33V29C18 28.4477 18.4477 28 19 28H20.5585C20.9889 28 21.3711 28.2754 21.5072 28.6838L23.0513 33.3162C23.1875 33.7246 23.5696 34 24 34H26C26.5523 34 27 33.5523 27 33C27 32.4477 26.5523 32 26 32H25.4415C25.0111 32 24.6289 31.7246 24.4928 31.3162L23.8261 29.3162C23.6103 28.6687 24.0923 28 24.7748 28H33C33.5523 28 34 27.5523 34 27C34 26.4477 33.5523 26 33 26C32.4477 26 32 25.5523 32 25V5C32 4.44772 32.4477 4 33 4ZM30 25C30 25.5523 29.5523 26 29 26H5C4.44772 26 4 25.5523 4 25V5C4 4.44772 4.44772 4 5 4H29C29.5523 4 30 4.44772 30 5V25Z" fill="#BD171D"/>
<path d="M18.5858 14H14.5858L6.29297 22.2929L7.7071 23.7071L15.4142 16H19.4142L26 9.4142V11H28V6H23V8H24.5858L18.5858 14Z" fill="#BD171D"/>
<path d="M26.5356 15.0508L25.1214 16.465L23.7071 15.0508L22.293 16.465L23.7071 17.8792L22.293 19.2934L23.7071 20.7076L25.1214 19.2934L26.5356 20.7076L27.9498 19.2934L26.5356 17.8792L27.9498 16.465L26.5356 15.0508Z" fill="#BD171D"/>
<path d="M15.5861 11.7076L17.0003 10.2934L18.4145 11.7076L19.8287 10.2934L18.4145 8.87918L19.8287 7.46498L18.4145 6.05078L17.0003 7.46498L15.5861 6.05078L14.1719 7.46498L15.5861 8.87918L14.1719 10.2934L15.5861 11.7076Z" fill="#BD171D"/>
<path d="M9 15.4668C10.6543 15.4668 12 14.1211 12 12.4668C12 10.8125 10.6543 9.4668 9 9.4668C7.34573 9.4668 6 10.8125 6 12.4668C6 14.1211 7.3458 15.4668 9 15.4668ZM9 11.4668C9.5514 11.4668 10 11.9154 10 12.4668C10 13.0182 9.5514 13.4668 9 13.4668C8.4486 13.4668 8 13.0182 8 12.4668C8 11.9154 8.4486 11.4668 9 11.4668Z" fill="#BD171D"/>
</g>
<defs>
<clipPath id="clip0_5177_18666">
<rect width="34" height="34" fill="white"/>
</clipPath>
</defs>
</svg>
