<svg width="34" height="34" viewBox="0 0 34 34" fill="none" xmlns="http://www.w3.org/2000/svg">
<g clip-path="url(#clip0_5177_18685)">
<path d="M21.2674 20.1837C18.1378 14.6377 9.53125 18.0229 9.53125 18.0229V30.8432C9.53125 30.8432 18.1378 27.4581 21.2674 33.0039V20.1837Z" stroke="#BD171D" stroke-width="1.99219" stroke-miterlimit="10" stroke-linecap="round" stroke-linejoin="round"/>
<path d="M21.2676 20.1836C24.3972 14.6378 33.0038 18.0229 33.0038 18.0229V30.8432C33.0038 30.8432 24.3972 27.458 21.2676 33.0039V20.1836Z" stroke="#BD171D" stroke-width="1.99219" stroke-miterlimit="10" stroke-linecap="round" stroke-linejoin="round"/>
<path d="M16.9996 25.7377C15.9313 25.519 14.8236 25.5097 13.7988 25.6028" stroke="#BD171D" stroke-width="1.99219" stroke-miterlimit="10" stroke-linecap="round" stroke-linejoin="round"/>
<path d="M25.5352 25.7377C26.6035 25.519 27.7112 25.5097 28.7359 25.6028" stroke="#BD171D" stroke-width="1.99219" stroke-miterlimit="10" stroke-linecap="round" stroke-linejoin="round"/>
<path d="M16.9996 21.4643C15.9313 21.2456 14.8236 21.2363 13.7988 21.3293" stroke="#BD171D" stroke-width="1.99219" stroke-miterlimit="10" stroke-linecap="round" stroke-linejoin="round"/>
<path d="M25.5352 21.4643C26.6035 21.2456 27.7112 21.2363 28.7359 21.3293" stroke="#BD171D" stroke-width="1.99219" stroke-miterlimit="10" stroke-linecap="round" stroke-linejoin="round"/>
<path d="M12.7324 13.8V7.39844L18.6005 10.5992L12.7324 13.8Z" stroke="#BD171D" stroke-width="1.99219" stroke-miterlimit="10" stroke-linecap="round" stroke-linejoin="round"/>
<path d="M9.53149 20.2008H0.996094V0.996094H28.7362V16.716" stroke="#BD171D" stroke-width="1.99219" stroke-miterlimit="10" stroke-linecap="round" stroke-linejoin="round"/>
</g>
<defs>
<clipPath id="clip0_5177_18685">
<rect width="34" height="34" fill="white"/>
</clipPath>
</defs>
</svg>
