<svg width="34" height="34" viewBox="0 0 34 34" fill="none" xmlns="http://www.w3.org/2000/svg">
<path d="M16.9988 18.4938C18.099 18.4938 18.9909 17.6019 18.9909 16.5018C18.9909 15.4016 18.099 14.5098 16.9988 14.5098C15.8987 14.5098 15.0068 15.4016 15.0068 16.5018C15.0068 17.6019 15.8987 18.4938 16.9988 18.4938Z" stroke="#BD171D" stroke-width="1.99201" stroke-miterlimit="10"/>
<path d="M16.9994 23.4735C20.5749 23.4735 23.4735 20.5749 23.4735 16.9994C23.4735 13.4239 20.5749 10.5254 16.9994 10.5254C13.4239 10.5254 10.5254 13.4239 10.5254 16.9994C10.5254 20.5749 13.4239 23.4735 16.9994 23.4735Z" stroke="#BD171D" stroke-width="1.99201" stroke-miterlimit="10"/>
<path d="M32.8019 16.9991C32.8019 16.9991 25.8366 27.4571 16.9986 27.4571C8.16065 27.4571 1.19531 16.9991 1.19531 16.9991C1.19531 16.9991 8.16065 6.54102 16.9986 6.54102C25.8366 6.54102 32.8019 16.9991 32.8019 16.9991Z" stroke="#BD171D" stroke-width="1.99201" stroke-miterlimit="10"/>
<path d="M20.4847 22.4564V20.4862C20.4847 19.386 19.5929 18.4941 18.4927 18.4941H15.5047C14.4045 18.4941 13.5127 19.386 13.5127 20.4862V22.4564" stroke="#BD171D" stroke-width="1.99201" stroke-miterlimit="10"/>
<path d="M16.999 1.5625V3.55451" stroke="#BD171D" stroke-width="1.99201" stroke-miterlimit="10"/>
<path d="M16.999 30.4453V32.4373" stroke="#BD171D" stroke-width="1.99201" stroke-miterlimit="10"/>
<path d="M21.7699 2.31836L21.1543 4.21283" stroke="#BD171D" stroke-width="1.99201" stroke-miterlimit="10"/>
<path d="M12.8441 29.7871L12.2285 31.6816" stroke="#BD171D" stroke-width="1.99201" stroke-miterlimit="10"/>
<path d="M26.0732 4.50977L24.9023 6.12137" stroke="#BD171D" stroke-width="1.99201" stroke-miterlimit="10"/>
<path d="M9.09571 27.8789L7.9248 29.4905" stroke="#BD171D" stroke-width="1.99201" stroke-miterlimit="10"/>
<path d="M12.2285 2.31836L12.8441 4.21283" stroke="#BD171D" stroke-width="1.99201" stroke-miterlimit="10"/>
<path d="M21.1543 29.7871L21.7699 31.6816" stroke="#BD171D" stroke-width="1.99201" stroke-miterlimit="10"/>
<path d="M7.9248 4.50977L9.09571 6.12137" stroke="#BD171D" stroke-width="1.99201" stroke-miterlimit="10"/>
<path d="M24.9023 27.8789L26.0732 29.4905" stroke="#BD171D" stroke-width="1.99201" stroke-miterlimit="10"/>
</svg>
