<svg width="34" height="34" viewBox="0 0 34 34" fill="none" xmlns="http://www.w3.org/2000/svg">
<path d="M12 23C9.23853 23 7 20.7614 7 18V6C7 3.2386 9.2386 1 12 1C14.7614 1 17 3.2386 17 6V18C17 20.7614 14.7614 23 12 23Z" stroke="#BD171D" stroke-width="2" stroke-miterlimit="10"/>
<path d="M7 12H3V18C3 20.4853 4.00733 22.7353 5.636 24.364C7.26467 25.9927 9.51467 27 12 27C16.8627 27 20.824 23.144 20.994 18.3233" stroke="#BD171D" stroke-width="2" stroke-miterlimit="10"/>
<path d="M10 27V33" stroke="#BD171D" stroke-width="2" stroke-miterlimit="10"/>
<path d="M14 27V33" stroke="#BD171D" stroke-width="2" stroke-miterlimit="10"/>
<path d="M6 33H18" stroke="#BD171D" stroke-width="2" stroke-miterlimit="10"/>
<path d="M14 7H17" stroke="#BD171D" stroke-width="2" stroke-miterlimit="10"/>
<path d="M14 12H17" stroke="#BD171D" stroke-width="2" stroke-miterlimit="10"/>
<path d="M14 17H17" stroke="#BD171D" stroke-width="2" stroke-miterlimit="10"/>
<path d="M7 7H10" stroke="#BD171D" stroke-width="2" stroke-miterlimit="10"/>
<path d="M7 12H10" stroke="#BD171D" stroke-width="2" stroke-miterlimit="10"/>
<path d="M7 17H10" stroke="#BD171D" stroke-width="2" stroke-miterlimit="10"/>
<path d="M24 19C27.866 19 31 15.866 31 12C31 8.13401 27.866 5 24 5C20.134 5 17 8.13401 17 12C17 15.866 20.134 19 24 19Z" stroke="#BD171D" stroke-width="2" stroke-miterlimit="10"/>
<path d="M12 23C9.23853 23 7 20.7614 7 18V6C7 3.2386 9.2386 1 12 1C14.7614 1 17 3.2386 17 6V18C17 20.7614 14.7614 23 12 23Z" stroke="#BD171D" stroke-width="2" stroke-miterlimit="10"/>
<path d="M7 12H3V18C3 20.4853 4.00733 22.7353 5.636 24.364C7.26467 25.9927 9.51467 27 12 27C16.8627 27 20.824 23.144 20.994 18.3233" stroke="#BD171D" stroke-width="2" stroke-miterlimit="10"/>
<path d="M10 27V33" stroke="#BD171D" stroke-width="2" stroke-miterlimit="10"/>
<path d="M14 27V33" stroke="#BD171D" stroke-width="2" stroke-miterlimit="10"/>
<path d="M6 33H18" stroke="#BD171D" stroke-width="2" stroke-miterlimit="10"/>
<path d="M14 7H17" stroke="#BD171D" stroke-width="2" stroke-miterlimit="10"/>
<path d="M14 12H17" stroke="#BD171D" stroke-width="2" stroke-miterlimit="10"/>
<path d="M14 17H17" stroke="#BD171D" stroke-width="2" stroke-miterlimit="10"/>
<path d="M7 7H10" stroke="#BD171D" stroke-width="2" stroke-miterlimit="10"/>
<path d="M7 12H10" stroke="#BD171D" stroke-width="2" stroke-miterlimit="10"/>
<path d="M7 17H10" stroke="#BD171D" stroke-width="2" stroke-miterlimit="10"/>
<path d="M24 19C27.866 19 31 15.866 31 12C31 8.13401 27.866 5 24 5C20.134 5 17 8.13401 17 12C17 15.866 20.134 19 24 19Z" stroke="#BD171D" stroke-width="2" stroke-miterlimit="10"/>
<path d="M24 8V14.8" stroke="#BD171D" stroke-width="2" stroke-miterlimit="10"/>
<path d="M21 12.8008L24 14.8008L27 12.8008" stroke="#BD171D" stroke-width="2" stroke-miterlimit="10"/>
</svg>
