<svg width="34" height="34" viewBox="0 0 34 34" fill="none" xmlns="http://www.w3.org/2000/svg">
<g clip-path="url(#clip0_5220_42998)">
<path d="M33.9819 14.8489L33.9802 13.3675C33.9783 11.9666 32.8247 10.824 31.4085 10.8203C31.4062 10.8203 31.404 10.8203 31.4017 10.8203C30.7113 10.8203 30.0639 11.0872 29.5784 11.5721C29.0987 12.0512 28.835 12.6869 28.8359 13.3618L28.8553 30.649C28.8555 30.8449 28.9135 31.0364 29.022 31.1995L30.5884 33.5546C30.7725 33.8313 31.0825 33.998 31.415 33.9989C31.4159 33.9989 31.4168 33.9989 31.4178 33.9989C31.7491 33.9989 32.0589 33.8342 32.244 33.5592L33.8298 31.2042C33.9407 31.0395 33.9998 30.8453 33.9996 30.6467L33.9819 14.8489ZM30.8282 13.3595C30.8279 13.2178 30.8841 13.0836 30.9862 12.9816C31.0955 12.8725 31.243 12.8125 31.4019 12.8125C31.4024 12.8125 31.4029 12.8125 31.4035 12.8125C31.7254 12.8134 31.9876 13.0635 31.9881 13.37L31.9888 14.037H30.8289L30.8282 13.3595ZM30.8311 16.0292H31.991L32.0032 26.8531H30.8433L30.8311 16.0292ZM31.4229 31.2119L30.8472 30.3464L30.8455 28.8453H32.0054L32.0071 30.3443L31.4229 31.2119Z" fill="#BD171D"/>
<path d="M23.5558 0H2.98828C1.34054 0 0 1.34054 0 2.98828V31.0117C0 32.6595 1.34054 34 2.98828 34H23.5558C25.2036 34 26.5441 32.6595 26.5441 31.0117V2.98828C26.5441 1.34054 25.2036 0 23.5558 0ZM24.5519 31.0117C24.5519 31.561 24.1051 32.0078 23.5558 32.0078H2.98828C2.43904 32.0078 1.99219 31.561 1.99219 31.0117V2.98828C1.99219 2.43904 2.43904 1.99219 2.98828 1.99219H23.5558C24.1051 1.99219 24.5519 2.43904 24.5519 2.98828V31.0117Z" fill="#BD171D"/>
<path d="M20.8853 5.62305H5.66016C5.11005 5.62305 4.66406 6.06903 4.66406 6.61914C4.66406 7.16925 5.11005 7.61523 5.66016 7.61523H20.8853C21.4354 7.61523 21.8814 7.16925 21.8814 6.61914C21.8814 6.06903 21.4354 5.62305 20.8853 5.62305Z" fill="#BD171D"/>
<path d="M20.8853 9.91992H5.66016C5.11005 9.91992 4.66406 10.3659 4.66406 10.916C4.66406 11.4661 5.11005 11.9121 5.66016 11.9121H20.8853C21.4354 11.9121 21.8814 11.4661 21.8814 10.916C21.8814 10.3659 21.4354 9.91992 20.8853 9.91992Z" fill="#BD171D"/>
<path d="M20.8853 14.2168H5.66016C5.11005 14.2168 4.66406 14.6628 4.66406 15.2129C4.66406 15.763 5.11005 16.209 5.66016 16.209H20.8853C21.4354 16.209 21.8814 15.763 21.8814 15.2129C21.8814 14.6628 21.4354 14.2168 20.8853 14.2168Z" fill="#BD171D"/>
<path d="M15.0526 18.5137H5.66016C5.11005 18.5137 4.66406 18.9597 4.66406 19.5098C4.66406 20.0599 5.11005 20.5059 5.66016 20.5059H15.0526C15.6027 20.5059 16.0487 20.0599 16.0487 19.5098C16.0487 18.9597 15.6027 18.5137 15.0526 18.5137Z" fill="#BD171D"/>
<path d="M18.4644 21.6211C16.0339 21.6211 14.0566 23.5695 14.0566 25.9644C14.0566 28.3593 16.034 30.3076 18.4644 30.3076C20.8948 30.3076 22.8721 28.3593 22.8721 25.9644C22.8721 23.5695 20.8948 21.6211 18.4644 21.6211ZM18.4644 28.3155C17.1324 28.3155 16.0488 27.2608 16.0488 25.9645C16.0488 24.6681 17.1324 23.6133 18.4644 23.6133C19.7963 23.6133 20.8799 24.6681 20.8799 25.9645C20.8799 27.2608 19.7963 28.3155 18.4644 28.3155Z" fill="#BD171D"/>
</g>
<defs>
<clipPath id="clip0_5220_42998">
<rect width="34" height="34" fill="white"/>
</clipPath>
</defs>
</svg>
