<svg width="34" height="34" viewBox="0 0 34 34" fill="none" xmlns="http://www.w3.org/2000/svg">
<path d="M33.7518 16.3414C33.6755 16.2546 31.8483 14.1923 28.8893 12.1118C21.0101 6.5718 13.306 6.34954 5.11058 12.1118C2.15165 14.1923 0.324478 16.2546 0.248177 16.3414C-0.0827256 16.7175 -0.0827256 17.2809 0.248177 17.6571C0.324478 17.7439 2.15165 19.8062 5.11064 21.8867C12.9899 27.4267 20.694 27.6489 28.8894 21.8867C31.8484 19.8062 33.6755 17.7439 33.7519 17.6571C34.0827 17.2809 34.0827 16.7175 33.7518 16.3414ZM24.2347 16.9992C24.2347 20.9672 20.9626 24.1484 17 24.1484C13.0308 24.1484 9.76532 20.9605 9.76532 16.9992C9.76532 13.0313 13.0374 9.85008 17 9.85008C20.9691 9.85008 24.2347 13.038 24.2347 16.9992ZM2.37371 16.9992C4.34013 15.0342 6.80061 13.1645 9.37459 11.8581C7.25902 14.9282 7.21804 19.0108 9.37459 22.1404C6.78773 20.8274 4.32838 18.9524 2.37371 16.9992ZM24.6253 22.1404C26.7409 19.0703 26.7819 14.9877 24.6253 11.8581C27.2122 13.1711 29.6715 15.0461 31.6262 16.9992C29.664 18.96 27.2045 20.8314 24.6253 22.1404Z" fill="#BD171D"/>
<path d="M17.9963 16.0039H18.5799L17.0003 17.5835L15.7107 16.294C15.3221 15.9052 14.6909 15.905 14.302 16.294L12.3269 18.2692C11.9379 18.6582 11.9379 19.2888 12.3269 19.6778C12.7159 20.0669 13.3466 20.0668 13.7356 19.6778L15.0064 18.407L16.2959 19.6965C16.685 20.0855 17.3156 20.0855 17.7046 19.6965L19.9885 17.4126V17.6641C19.9885 18.2142 20.4345 18.6602 20.9846 18.6602C21.5347 18.6602 21.9807 18.2142 21.9807 17.6641V15.0078C21.9807 14.4577 21.5347 14.0117 20.9846 14.0117H17.9963C17.4462 14.0117 17.0003 14.4577 17.0003 15.0078C17.0003 15.5579 17.4462 16.0039 17.9963 16.0039Z" fill="#BD171D"/>
<path d="M17 5.97656C17.5501 5.97656 17.9961 5.53058 17.9961 4.98047V2.98828C17.9961 2.43817 17.5501 1.99219 17 1.99219C16.4499 1.99219 16.0039 2.43817 16.0039 2.98828V4.98047C16.0039 5.53058 16.4499 5.97656 17 5.97656Z" fill="#BD171D"/>
<path d="M23.508 7.72089C23.9823 7.99482 24.5924 7.83491 24.8687 7.35632L25.8648 5.63109C26.1399 5.15469 25.9766 4.54541 25.5002 4.27042C25.0238 3.99523 24.4145 4.15846 24.1395 4.63499L23.1434 6.36023C22.8683 6.83662 23.0315 7.44584 23.508 7.72089Z" fill="#BD171D"/>
<path d="M17 27.957C16.4499 27.957 16.0039 28.403 16.0039 28.9531V31.0117C16.0039 31.5618 16.4499 32.0078 17 32.0078C17.5501 32.0078 17.9961 31.5618 17.9961 31.0117V28.9531C17.9961 28.403 17.5501 27.957 17 27.957Z" fill="#BD171D"/>
<path d="M24.8355 26.5861C24.5603 26.1097 23.9512 25.9464 23.4748 26.2216C22.9983 26.4966 22.8351 27.1058 23.1102 27.5822L24.1395 29.3651C24.4154 29.843 25.0252 30.0039 25.5002 29.7296C25.9766 29.4546 26.1399 28.8454 25.8648 28.369L24.8355 26.5861Z" fill="#BD171D"/>
<path d="M9.1317 7.35629C9.40762 7.83422 10.0174 7.99518 10.4924 7.72086C10.9688 7.44581 11.1321 6.83659 10.8569 6.3602L9.86085 4.63496C9.58573 4.15843 8.97658 3.99527 8.50018 4.27039C8.02372 4.54545 7.86049 5.15466 8.13561 5.63106L9.1317 7.35629Z" fill="#BD171D"/>
<path d="M10.5256 26.2216C10.0492 25.9463 9.4399 26.1098 9.16491 26.5862L8.13561 28.369C7.86049 28.8454 8.02372 29.4546 8.50018 29.7296C8.97472 30.0037 9.58466 29.8434 9.86085 29.3651L10.8901 27.5823C11.1653 27.1059 11.002 26.4966 10.5256 26.2216Z" fill="#BD171D"/>
</svg>
