<svg width="34" height="34" viewBox="0 0 34 34" fill="none" xmlns="http://www.w3.org/2000/svg">
<g clip-path="url(#clip0_5220_42918)">
<path d="M2.80792 11.0951L3.47936 10.7969C3.91618 11.0564 4.38334 11.2501 4.87429 11.3753L5.13805 12.0602C5.21694 12.2654 5.41403 12.4006 5.63384 12.4006H6.76693C6.98673 12.4006 7.18376 12.2653 7.26272 12.0602L7.52629 11.3754C8.01756 11.2501 8.48499 11.0564 8.92168 10.797L9.59278 11.095C9.79359 11.1842 10.0286 11.1405 10.1841 10.9852L10.9853 10.184C11.1406 10.0285 11.1843 9.79353 11.0951 9.59272L10.7969 8.92128C11.0564 8.48446 11.2501 8.01729 11.3753 7.52635L12.0602 7.26259C12.2654 7.18369 12.4006 6.9866 12.4006 6.7668V5.63377C12.4006 5.41397 12.2653 5.21694 12.0602 5.13798L11.3754 4.87442C11.2501 4.38321 11.0564 3.91578 10.7969 3.47902L11.095 2.80786C11.1842 2.60704 11.1406 2.37196 10.9851 2.21657L10.1839 1.41545C10.0285 1.26006 9.79366 1.2165 9.59272 1.30561L8.92128 1.60384C8.48446 1.34439 8.01729 1.15069 7.52629 1.02545L7.26259 0.340465C7.18369 0.135336 6.9866 0 6.7668 0H5.63377C5.41397 0 5.21694 0.135336 5.13798 0.340398L4.87429 1.02538C4.38328 1.15062 3.91611 1.34433 3.47929 1.60378L2.80786 1.30555C2.60704 1.2163 2.37196 1.25993 2.21657 1.41545L1.41538 2.21671C1.25999 2.3721 1.21636 2.60711 1.30555 2.80792L1.60371 3.47922C1.34426 3.91591 1.15055 4.38321 1.02531 4.87435L0.340465 5.13798C0.135336 5.21694 0 5.41397 0 5.63377V6.76686C0 6.98667 0.135336 7.18369 0.340465 7.26265L1.02525 7.52622C1.15049 8.01749 1.3442 8.48493 1.60364 8.92161L1.30561 9.59272C1.21643 9.79353 1.26006 10.0285 1.41545 10.184L2.21664 10.9852C2.3721 11.1406 2.60704 11.1841 2.80792 11.0951ZM2.64536 8.58175C2.32787 8.10907 2.11145 7.58698 2.00202 7.02996C1.96689 6.85073 1.84204 6.70205 1.67151 6.63651L1.0625 6.40209V5.99854L1.67171 5.76406C1.84218 5.69852 1.96702 5.54984 2.00221 5.37067C2.11152 4.81392 2.32794 4.2919 2.64549 3.81902C2.74729 3.66748 2.76409 3.47418 2.68998 3.3073L2.42476 2.71004L2.71011 2.42469L3.30743 2.68998C3.47424 2.76403 3.66755 2.74716 3.81916 2.64556C4.29217 2.328 4.81412 2.11159 5.37067 2.00221C5.54984 1.96709 5.69845 1.84224 5.76406 1.67178L5.99854 1.0625H6.40203L6.63657 1.67184C6.70218 1.84224 6.8508 1.96709 7.02996 2.00228C7.58652 2.11159 8.10847 2.328 8.58148 2.64563C8.73315 2.74729 8.92639 2.76416 9.09321 2.69005L9.6906 2.42476L9.97595 2.71011L9.71078 3.30716C9.63668 3.47411 9.65348 3.66735 9.75528 3.81896C10.0728 4.29177 10.2892 4.81386 10.3986 5.37074C10.4338 5.54997 10.5586 5.69865 10.7291 5.7642L11.3382 5.99861V6.40216L10.7289 6.63671C10.5585 6.70232 10.4336 6.85093 10.3984 7.0301C10.2891 7.58658 10.0727 8.10853 9.75508 8.58155C9.65334 8.73315 9.63654 8.9264 9.71065 9.09327L9.97595 9.69066L9.6906 9.97601L9.09354 9.71085C8.92659 9.63674 8.73328 9.65361 8.58175 9.75534C8.10907 10.0728 7.58698 10.2892 7.02996 10.3987C6.85073 10.4338 6.70205 10.5587 6.63651 10.7292L6.40209 11.3383H5.99854L5.764 10.7289C5.69839 10.5585 5.54977 10.4337 5.37061 10.3985C4.81412 10.2892 4.29217 10.0728 3.81916 9.75514C3.66762 9.65348 3.47438 9.63667 3.30743 9.71072L2.71004 9.97601L2.42469 9.69066L2.68985 9.09361C2.76396 8.92666 2.74716 8.73342 2.64536 8.58175ZM6.20029 9.23439C7.87326 9.23439 9.23432 7.87332 9.23432 6.20035C9.23432 4.52745 7.87326 3.16638 6.20029 3.16638C4.52738 3.16638 3.16632 4.52745 3.16632 6.20035C3.16632 7.87332 4.52738 9.23439 6.20029 9.23439ZM6.20029 4.22882C7.28742 4.22882 8.17182 5.11321 8.17182 6.20029C8.17182 7.28742 7.28742 8.17182 6.20029 8.17182C5.11321 8.17182 4.22882 7.28742 4.22882 6.20029C4.22882 5.11321 5.11321 4.22882 6.20029 4.22882ZM33.4688 11.8893H28.7951C28.5017 11.8893 28.2638 12.1272 28.2638 12.4206V33.4686C28.2638 33.762 28.5017 33.9999 28.7951 33.9999H33.4688C33.7621 33.9999 34 33.762 34 33.4686V12.4206C34 12.1272 33.7621 11.8893 33.4688 11.8893ZM32.9375 32.9374H29.3263V12.9518H32.9375V32.9374ZM7.43411 25.9051H2.76057C2.46719 25.9051 2.22932 26.1429 2.22932 26.4363V33.4686C2.22932 33.762 2.46719 33.9999 2.76057 33.9999H7.43411C7.7275 33.9999 7.96536 33.762 7.96536 33.4686V26.4363C7.96536 26.1429 7.7275 25.9051 7.43411 25.9051ZM6.90286 32.9374H3.29182V26.9676H6.90286V32.9374ZM24.7906 21.2074H20.117C19.8236 21.2074 19.5857 21.4452 19.5857 21.7386V33.4688C19.5857 33.7621 19.8236 34 20.117 34H24.7906C25.084 34 25.3219 33.7621 25.3219 33.4688V21.7386C25.3219 21.4452 25.084 21.2074 24.7906 21.2074ZM24.2594 32.9375H20.6482V22.2699H24.2594V32.9375ZM16.1124 18.0199H11.4387C11.1454 18.0199 10.9075 18.2578 10.9075 18.5512V33.4687C10.9075 33.7621 11.1454 33.9999 11.4387 33.9999H16.1124C16.4058 33.9999 16.6437 33.7621 16.6437 33.4687V18.5512C16.6437 18.2578 16.4058 18.0199 16.1124 18.0199ZM15.5812 32.9374H11.97V19.0824H15.5812V32.9374ZM11.2395 12.7382C11.2395 13.1338 11.3306 13.5084 11.4928 13.8424L6.72636 17.5538C6.28535 17.1833 5.71705 16.9595 5.09734 16.9595C3.69889 16.9595 2.56129 18.0972 2.56129 19.4956C2.56129 20.894 3.69896 22.0317 5.09734 22.0317C6.49573 22.0317 7.63346 20.894 7.63346 19.4956C7.63346 19.1 7.54229 18.7254 7.38013 18.3914L12.1466 14.68C12.5876 15.0505 13.1559 15.2743 13.7756 15.2743C14.8077 15.2743 15.6971 14.6543 16.0926 13.7675L19.918 14.5707C19.9237 15.9643 21.0589 17.0964 22.4539 17.0964C23.8523 17.0964 24.99 15.9587 24.99 14.5603C24.99 14.1033 24.8679 13.6746 24.6555 13.3039L29.6388 8.84691C30.058 9.15337 30.574 9.33486 31.1319 9.33486C32.5304 9.33486 33.668 8.19719 33.668 6.7988C33.668 5.40042 32.5303 4.26275 31.1319 4.26275C29.7335 4.26275 28.5959 5.40042 28.5959 6.7988C28.5959 7.25575 28.718 7.68446 28.9303 8.05514L23.9471 12.5121C23.5279 12.2057 23.0118 12.0242 22.4539 12.0242C21.4219 12.0242 20.5325 12.6442 20.137 13.5311L16.3116 12.7279C16.3059 11.3342 15.1707 10.2022 13.7757 10.2022C12.3772 10.2021 11.2395 11.3398 11.2395 12.7382ZM31.1319 5.32512C31.9445 5.32512 32.6055 5.98612 32.6055 6.79867C32.6055 7.61122 31.9445 8.27223 31.1319 8.27223C30.3194 8.27223 29.6584 7.61122 29.6584 6.79867C29.6584 5.98612 30.3193 5.32512 31.1319 5.32512ZM22.4538 13.0867C23.2664 13.0867 23.9274 13.7477 23.9274 14.5602C23.9274 15.3728 23.2664 16.0338 22.4538 16.0338C21.6413 16.0338 20.9803 15.3728 20.9803 14.5602C20.9803 13.7477 21.6413 13.0867 22.4538 13.0867ZM5.09734 20.9692C4.2848 20.9692 3.62379 20.3082 3.62379 19.4956C3.62379 18.6831 4.2848 18.022 5.09734 18.022C5.90989 18.022 6.57096 18.6831 6.57096 19.4956C6.57096 20.3082 5.90989 20.9692 5.09734 20.9692ZM13.7756 11.2646C14.5881 11.2646 15.2491 11.9256 15.2491 12.7382C15.2491 13.5507 14.5881 14.2117 13.7756 14.2117C12.963 14.2117 12.302 13.5507 12.302 12.7382C12.302 11.9256 12.963 11.2646 13.7756 11.2646Z" fill="#BD171D" stroke="#BD171D" stroke-width="0.5"/>
</g>
<defs>
<clipPath id="clip0_5220_42918">
<rect width="34" height="34" fill="white"/>
</clipPath>
</defs>
</svg>
