<svg width="34" height="34" viewBox="0 0 34 34" fill="none" xmlns="http://www.w3.org/2000/svg">
<g clip-path="url(#clip0_5220_42894)">
<path d="M32.0078 22.0865V2.98828C32.0078 1.34054 30.6673 0 29.0195 0H7.03906C5.39132 0 4.05078 1.34054 4.05078 2.98828V4.05078H2.98828C1.34054 4.05078 0 5.39132 0 7.03906C0 8.6868 1.34054 10.0273 2.98828 10.0273H4.05078V14.0117H2.98828C1.34054 14.0117 0 15.3523 0 17C0 18.6477 1.34054 19.9883 2.98828 19.9883H4.05078V23.9727H2.98828C1.34054 23.9727 0 25.3132 0 26.9609C0 28.6087 1.34054 29.9492 2.98828 29.9492H4.05078V30.9453C4.05078 31.7392 4.35605 32.4957 4.91034 33.0756C5.48024 33.6717 6.23628 34 7.03906 34H27.0273C30.8721 34 34 30.8423 34 26.9609C34 25.0655 33.2394 23.3446 32.0078 22.0865ZM2.98828 8.03516C2.43904 8.03516 1.99219 7.58831 1.99219 7.03906C1.99219 6.48982 2.43904 6.04297 2.98828 6.04297H5.04688C5.59612 6.04297 6.04297 6.48982 6.04297 7.03906C6.04297 7.58831 5.59612 8.03516 5.04688 8.03516H2.98828ZM2.98828 17.9961C2.43904 17.9961 1.99219 17.5492 1.99219 17C1.99219 16.4508 2.43904 16.0039 2.98828 16.0039H5.04688C5.59612 16.0039 6.04297 16.4508 6.04297 17C6.04297 17.5492 5.59612 17.9961 5.04688 17.9961H2.98828ZM5.04688 27.957H2.98828C2.43904 27.957 1.99219 27.5102 1.99219 26.9609C1.99219 26.4117 2.43904 25.9648 2.98828 25.9648H5.04688C5.59612 25.9648 6.04297 26.4117 6.04297 26.9609C6.04297 27.5102 5.59612 27.957 5.04688 27.957ZM7.03906 32.0078C6.50848 32.0078 6.04297 31.5113 6.04297 30.9453V29.7779C7.20236 29.3667 8.03516 28.2595 8.03516 26.9609C8.03516 25.6624 7.20236 24.5552 6.04297 24.144V19.817C7.20236 19.4058 8.03516 18.2986 8.03516 17C8.03516 15.7014 7.20236 14.5942 6.04297 14.183V9.85602C7.20236 9.44483 8.03516 8.33764 8.03516 7.03906C8.03516 5.74049 7.20236 4.6333 6.04297 4.22211V2.98828C6.04297 2.43904 6.48982 1.99219 7.03906 1.99219H29.0195C29.5688 1.99219 30.0156 2.43904 30.0156 2.98828V20.662C29.1094 20.2303 28.0962 19.9883 27.0273 19.9883C23.1826 19.9883 20.0547 23.1162 20.0547 26.9609C20.0547 28.9385 20.867 30.7279 22.1721 32.0078H7.03906ZM27.0273 32.0078C24.2811 32.0078 22.0469 29.7438 22.0469 26.9609C22.0469 24.2147 24.2811 21.9805 27.0273 21.9805C29.7736 21.9805 32.0078 24.2147 32.0078 26.9609C32.0078 29.7438 29.7736 32.0078 27.0273 32.0078Z" fill="#BD171D"/>
<path d="M27.0273 8.03516H21.0508C20.5007 8.03516 20.0547 8.48114 20.0547 9.03125C20.0547 9.58136 20.5007 10.0273 21.0508 10.0273H27.0273C27.5775 10.0273 28.0234 9.58136 28.0234 9.03125C28.0234 8.48114 27.5775 8.03516 27.0273 8.03516Z" fill="#BD171D"/>
<path d="M27.0273 16.0039H21.0508C20.5007 16.0039 20.0547 16.4499 20.0547 17C20.0547 17.5501 20.5007 17.9961 21.0508 17.9961H27.0273C27.5775 17.9961 28.0234 17.5501 28.0234 17C28.0234 16.4499 27.5775 16.0039 27.0273 16.0039Z" fill="#BD171D"/>
<path d="M29.0195 25.9648H28.0234V24.9688C28.0234 24.4186 27.5775 23.9727 27.0273 23.9727C26.4772 23.9727 26.0312 24.4186 26.0312 24.9688V26.9609C26.0312 27.511 26.4772 27.957 27.0273 27.957H29.0195C29.5696 27.957 30.0156 27.511 30.0156 26.9609C30.0156 26.4108 29.5696 25.9648 29.0195 25.9648Z" fill="#BD171D"/>
<path d="M17.7051 6.33472C17.3161 5.94571 16.6854 5.94571 16.2965 6.33478L13.0164 9.61479L11.4485 8.04687C11.0595 7.65786 10.4288 7.65786 10.0398 8.04687C9.65079 8.43588 9.65079 9.06654 10.0398 9.45555L12.3121 11.7278C12.5065 11.9223 12.7615 12.0196 13.0164 12.0196C13.2713 12.0196 13.5263 11.9223 13.7207 11.7278L17.7051 7.74339C18.0941 7.35438 18.0941 6.72372 17.7051 6.33472Z" fill="#BD171D"/>
<path d="M17.7051 14.3035C17.3161 13.9145 16.6854 13.9145 16.2965 14.3035L13.0164 17.5835L11.4485 16.0156C11.0595 15.6266 10.4288 15.6266 10.0398 16.0156C9.65079 16.4046 9.65079 17.0353 10.0398 17.4243L12.3121 19.6966C12.5065 19.8911 12.7615 19.9883 13.0164 19.9883C13.2713 19.9883 13.5263 19.8911 13.7207 19.6965L17.7051 15.7121C18.0941 15.3231 18.0941 14.6925 17.7051 14.3035Z" fill="#BD171D"/>
<path d="M17.7051 22.2722C17.3161 21.8832 16.6854 21.8832 16.2965 22.2723L13.0164 25.5523L11.4485 23.9844C11.0595 23.5954 10.4288 23.5954 10.0398 23.9844C9.65079 24.3734 9.65079 25.004 10.0398 25.393L12.3121 27.6653C12.5065 27.8598 12.7615 27.9571 13.0164 27.9571C13.2713 27.9571 13.5263 27.8598 13.7207 27.6653L17.7051 23.6809C18.0941 23.2919 18.0941 22.6612 17.7051 22.2722Z" fill="#BD171D"/>
</g>
<defs>
<clipPath id="clip0_5220_42894">
<rect width="34" height="34" fill="white"/>
</clipPath>
</defs>
</svg>
