<svg width="34" height="34" viewBox="0 0 34 34" fill="none" xmlns="http://www.w3.org/2000/svg">
<g clip-path="url(#clip0_5220_42827)">
<mask id="mask0_5220_42827" style="mask-type:luminance" maskUnits="userSpaceOnUse" x="0" y="0" width="34" height="34">
<path d="M0 3.8147e-06H34V34H0V3.8147e-06Z" fill="white"/>
</mask>
<g mask="url(#mask0_5220_42827)">
<path d="M33.0024 21.8683L28.407 24.6438L31.1232 28.1248C31.7871 28.9756 31.7126 30.1879 30.9495 30.951C30.1864 31.714 28.9741 31.7886 28.1233 31.1247L24.6422 28.4085L21.8669 33.0039L18.0723 18.0746L33.0024 21.8683Z" stroke="#BD171D" stroke-width="1.99219" stroke-miterlimit="10" stroke-linecap="round" stroke-linejoin="round"/>
<path d="M28.3555 16.668V20.5195" stroke="#BD171D" stroke-width="1.99219" stroke-miterlimit="10" stroke-linecap="round" stroke-linejoin="round"/>
<path d="M28.3555 8.83203V12.6836" stroke="#BD171D" stroke-width="1.99219" stroke-miterlimit="10" stroke-linecap="round" stroke-linejoin="round"/>
<path d="M0.996094 4.84766V0.996094" stroke="#BD171D" stroke-width="1.99219" stroke-miterlimit="10" stroke-linecap="round" stroke-linejoin="round"/>
<path d="M4.84766 0.996094H0.996094" stroke="#BD171D" stroke-width="1.99219" stroke-miterlimit="10" stroke-linecap="round" stroke-linejoin="round"/>
<path d="M28.3555 4.84766V0.996094" stroke="#BD171D" stroke-width="1.99219" stroke-miterlimit="10" stroke-linecap="round" stroke-linejoin="round"/>
<path d="M24.5039 0.996094H28.3555" stroke="#BD171D" stroke-width="1.99219" stroke-miterlimit="10" stroke-linecap="round" stroke-linejoin="round"/>
<path d="M12.6836 0.996094H8.83203" stroke="#BD171D" stroke-width="1.99219" stroke-miterlimit="10" stroke-linecap="round" stroke-linejoin="round"/>
<path d="M20.5195 0.996094H16.668" stroke="#BD171D" stroke-width="1.99219" stroke-miterlimit="10" stroke-linecap="round" stroke-linejoin="round"/>
<path d="M4.84766 28.3555H0.996094" stroke="#BD171D" stroke-width="1.99219" stroke-miterlimit="10" stroke-linecap="round" stroke-linejoin="round"/>
<path d="M0.996094 24.5039V28.3555" stroke="#BD171D" stroke-width="1.99219" stroke-miterlimit="10" stroke-linecap="round" stroke-linejoin="round"/>
<path d="M0.996094 12.6836V8.83203" stroke="#BD171D" stroke-width="1.99219" stroke-miterlimit="10" stroke-linecap="round" stroke-linejoin="round"/>
<path d="M0.996094 20.5195V16.668" stroke="#BD171D" stroke-width="1.99219" stroke-miterlimit="10" stroke-linecap="round" stroke-linejoin="round"/>
<path d="M16.668 28.3555H20.5195" stroke="#BD171D" stroke-width="1.99219" stroke-miterlimit="10" stroke-linecap="round" stroke-linejoin="round"/>
<path d="M8.83203 28.3555H12.6836" stroke="#BD171D" stroke-width="1.99219" stroke-miterlimit="10" stroke-linecap="round" stroke-linejoin="round"/>
<path d="M20.8738 18.7857C21.8911 17.4635 22.4961 15.808 22.4961 14.0117C22.4961 9.68402 18.9879 6.17578 14.6602 6.17578C10.3325 6.17578 6.82422 9.68402 6.82422 14.0117C6.82422 18.3394 10.3325 21.8477 14.6602 21.8477C16.1556 21.8477 17.5535 21.4286 18.7421 20.7015" stroke="#BD171D" stroke-width="1.99219" stroke-miterlimit="10" stroke-linecap="round" stroke-linejoin="round"/>
<path d="M14.6602 11.23V16.791" stroke="#BD171D" stroke-width="1.99219" stroke-miterlimit="10" stroke-linecap="round" stroke-linejoin="round"/>
<path d="M11.8789 14.0117H17.4399" stroke="#BD171D" stroke-width="1.99219" stroke-miterlimit="10" stroke-linecap="round" stroke-linejoin="round"/>
</g>
</g>
<defs>
<clipPath id="clip0_5220_42827">
<rect width="34" height="34" fill="white"/>
</clipPath>
</defs>
</svg>
