<svg width="34" height="34" viewBox="0 0 34 34" fill="none" xmlns="http://www.w3.org/2000/svg">
<g clip-path="url(#clip0_5177_19138)">
<path d="M26.6577 4.73542L22.2696 0.347437C22.0472 0.125043 21.7455 0 21.431 0H8.18022C7.52519 0 6.99414 0.53105 6.99414 1.18608V18.8249C6.99414 19.48 7.52519 20.011 8.18022 20.011C8.72156 20.011 12.6105 20.011 13.1557 20.011V24.0002H9.53524C8.48735 24.0002 7.95431 25.2664 8.6875 26.0157L16.1519 33.6437C16.6173 34.1193 17.3827 34.1183 17.8472 33.6437L25.3116 26.0157C26.0443 25.2668 25.5125 24.0001 24.4639 24.0001H20.8434V20.011C21.3897 20.011 25.2761 20.011 25.8189 20.011C26.4739 20.011 27.005 19.4799 27.005 18.8249V5.57406C27.005 5.2595 26.8801 4.95781 26.6577 4.73542ZM21.6439 26.3721L16.9996 31.1182L12.3553 26.3721H14.3418C14.9968 26.3721 15.5279 25.8411 15.5279 25.1861V20.0108H18.4716V25.1861C18.4715 25.8411 19.0026 26.3721 19.6575 26.3721H21.6439ZM13.3766 17.6389V13.0007H20.6226V17.6389C19.7783 17.6389 14.2296 17.6389 13.3766 17.6389ZM24.6329 17.6389H22.9947V11.8146C22.9947 11.1596 22.4636 10.6286 21.8086 10.6286H12.1906C11.5355 10.6286 11.0045 11.1596 11.0045 11.8146V17.6389H9.36623V2.37209H20.9397L24.6329 6.0654L24.6329 17.6389Z" fill="#BD171D"/>
<path d="M19.8433 4.2793H14.1568C13.5018 4.2793 12.9707 4.81035 12.9707 5.46538C12.9707 6.12041 13.5018 6.65146 14.1568 6.65146H19.8433C20.4983 6.65146 21.0294 6.12041 21.0294 5.46538C21.0294 4.81035 20.4984 4.2793 19.8433 4.2793Z" fill="#BD171D"/>
</g>
<defs>
<clipPath id="clip0_5177_19138">
<rect width="34" height="34" fill="white"/>
</clipPath>
</defs>
</svg>
