<svg width="34" height="34" viewBox="0 0 34 34" fill="none" xmlns="http://www.w3.org/2000/svg">
<g clip-path="url(#clip0_5177_19194)">
<path d="M16.9992 32.9965C21.6587 32.9965 25.4359 29.2192 25.4359 24.5598C25.4359 19.9003 21.6587 16.123 16.9992 16.123C12.3397 16.123 8.5625 19.9003 8.5625 24.5598C8.5625 29.2192 12.3397 32.9965 16.9992 32.9965Z" stroke="#BD171D" stroke-width="1.99292" stroke-miterlimit="10"/>
<path d="M18.7931 21.3726C18.4545 21.1902 17.4311 20.7187 16.4734 21.0897C15.3848 21.5115 15.0779 22.956 15.8376 23.5518C16.2737 23.894 16.9301 24.1752 17.8146 24.4879C19.7943 25.1877 19.0625 27.9797 17.0487 27.9931C16.2629 27.9983 15.8954 27.9484 15.2051 27.4968" stroke="#BD171D" stroke-width="1.99292" stroke-miterlimit="10" stroke-linecap="square" stroke-linejoin="round"/>
<path d="M17.0488 28.0137V29.0115" stroke="#BD171D" stroke-width="1.99292" stroke-miterlimit="10" stroke-linecap="square" stroke-linejoin="round"/>
<path d="M17.0488 20.043V20.8401" stroke="#BD171D" stroke-width="1.99292" stroke-miterlimit="10" stroke-linecap="square" stroke-linejoin="round"/>
<path d="M7.96312 12.6701V6.58203H3.97727V12.6701H2.05078L5.9702 17.6525L9.88961 12.6701H7.96312Z" stroke="#BD171D" stroke-width="1.99292" stroke-miterlimit="10"/>
<path d="M30.0217 12.6701V6.58203H26.0359V12.6701H24.1094L28.0288 17.6525L31.9482 12.6701H30.0217Z" stroke="#BD171D" stroke-width="1.99292" stroke-miterlimit="10"/>
<path d="M18.9924 7.09007V1.00195H15.0066V7.09007H13.0801L16.9995 12.0724L20.9189 7.09007H18.9924Z" stroke="#BD171D" stroke-width="1.99292" stroke-miterlimit="10"/>
</g>
<defs>
<clipPath id="clip0_5177_19194">
<rect width="34" height="34" fill="white"/>
</clipPath>
</defs>
</svg>
