<svg width="34" height="34" viewBox="0 0 34 34" fill="none" xmlns="http://www.w3.org/2000/svg">
<g clip-path="url(#clip0_5177_19050)">
<path d="M34 10.957C34 10.5595 33.9229 10.1729 33.7709 9.80814C33.7708 9.80787 33.7706 9.80754 33.7705 9.80727L30.4499 1.83879C29.9843 0.72177 28.9016 0 27.6915 0H6.30853C5.09841 0 4.01565 0.72177 3.55014 1.83879L0.229102 9.80807C0.0770977 10.1729 0 10.5595 0 10.957V15.0742C0 15.839 0.289133 16.5373 0.76334 17.0664C0.289133 17.5955 0 18.2938 0 19.0586V23.043C0 23.8078 0.289133 24.506 0.76334 25.0352C0.289133 25.5643 0 26.2625 0 27.0273V31.0117C0 32.6595 1.34054 34 2.98828 34H31.0117C32.6595 34 34 32.6595 34 31.0117V27.0273C34 26.2625 33.7109 25.5643 33.2367 25.0352C33.7109 24.506 34 23.8078 34 23.043V19.0586C34 18.2938 33.7109 17.5955 33.2367 17.0664C33.7109 16.5373 34 15.839 34 15.0742V10.957ZM5.38907 2.60512C5.54426 2.23278 5.90518 1.99219 6.30853 1.99219H27.6915C28.0948 1.99219 28.4557 2.23278 28.6109 2.60512L30.8462 7.96875H3.15383L5.38907 2.60512ZM32.0078 31.0117C32.0078 31.561 31.561 32.0078 31.0117 32.0078H2.98828C2.43904 32.0078 1.99219 31.561 1.99219 31.0117V27.0273C1.99219 26.4781 2.43904 26.0312 2.98828 26.0312H31.0117C31.561 26.0312 32.0078 26.4781 32.0078 27.0273V31.0117ZM32.0078 23.043C32.0078 23.5922 31.561 24.0391 31.0117 24.0391H2.98828C2.43904 24.0391 1.99219 23.5922 1.99219 23.043V19.0586C1.99219 18.5093 2.43904 18.0625 2.98828 18.0625H31.0117C31.561 18.0625 32.0078 18.5093 32.0078 19.0586V23.043ZM32.0078 15.0742C32.0078 15.6235 31.561 16.0703 31.0117 16.0703H2.98828C2.43904 16.0703 1.99219 15.6235 1.99219 15.0742V10.957C1.99219 10.4031 2.4395 9.96094 2.98828 9.96094H31.0117C31.5622 9.96094 32.0078 10.4048 32.0078 10.957V15.0742Z" fill="#BD171D"/>
<path d="M29.0195 28.0234H10.957C10.4069 28.0234 9.96094 28.4694 9.96094 29.0195C9.96094 29.5696 10.4069 30.0156 10.957 30.0156H29.0195C29.5696 30.0156 30.0156 29.5696 30.0156 29.0195C30.0156 28.4694 29.5696 28.0234 29.0195 28.0234Z" fill="#BD171D"/>
<path d="M29.0195 11.9531H10.957C10.4069 11.9531 9.96094 12.3991 9.96094 12.9492C9.96094 13.4993 10.4069 13.9453 10.957 13.9453H29.0195C29.5696 13.9453 30.0156 13.4993 30.0156 12.9492C30.0156 12.3991 29.5696 11.9531 29.0195 11.9531Z" fill="#BD171D"/>
<path d="M4.98047 11.9531C4.43036 11.9531 3.98438 12.3991 3.98438 12.9492C3.98438 13.4993 4.43036 14.0781 4.98047 14.0781C5.53058 14.0781 5.97656 13.4993 5.97656 12.9492C5.97656 12.3991 5.53058 11.9531 4.98047 11.9531Z" fill="#BD171D"/>
<path d="M29.0195 20.0547H10.957C10.4069 20.0547 9.96094 20.5007 9.96094 21.0508C9.96094 21.6009 10.4069 22.0469 10.957 22.0469H29.0195C29.5696 22.0469 30.0156 21.6009 30.0156 21.0508C30.0156 20.5007 29.5696 20.0547 29.0195 20.0547Z" fill="#BD171D"/>
<path d="M4.98047 22.0469C5.5306 22.0469 5.97656 21.6009 5.97656 21.0508C5.97656 20.5007 5.5306 20.0547 4.98047 20.0547C4.43034 20.0547 3.98438 20.5007 3.98438 21.0508C3.98438 21.6009 4.43034 22.0469 4.98047 22.0469Z" fill="#BD171D"/>
<path d="M4.98047 30.0156C5.5306 30.0156 5.97656 29.5697 5.97656 29.0195C5.97656 28.4694 5.5306 28.0234 4.98047 28.0234C4.43034 28.0234 3.98438 28.4694 3.98438 29.0195C3.98438 29.5697 4.43034 30.0156 4.98047 30.0156Z" fill="#BD171D"/>
</g>
<defs>
<clipPath id="clip0_5177_19050">
<rect width="34" height="34" fill="white"/>
</clipPath>
</defs>
</svg>
