<svg width="34" height="34" viewBox="0 0 34 34" fill="none" xmlns="http://www.w3.org/2000/svg">
<g clip-path="url(#clip0_5177_19163)">
<path d="M15.6055 0.996094H0.996094V33.0039H22.2461V7.63672L15.6055 0.996094Z" stroke="#BD171D" stroke-width="1.99219" stroke-miterlimit="10" stroke-linecap="round" stroke-linejoin="round"/>
<path d="M11.6211 4.98047H4.98047" stroke="#BD171D" stroke-width="1.99219" stroke-miterlimit="10" stroke-linecap="round" stroke-linejoin="round"/>
<path d="M11.6211 8.96484H4.98047" stroke="#BD171D" stroke-width="1.99219" stroke-miterlimit="10" stroke-linecap="round" stroke-linejoin="round"/>
<path d="M18.2617 12.9492H4.98047" stroke="#BD171D" stroke-width="1.99219" stroke-miterlimit="10" stroke-linecap="round" stroke-linejoin="round"/>
<path d="M18.2617 16.9336H4.98047" stroke="#BD171D" stroke-width="1.99219" stroke-miterlimit="10" stroke-linecap="round" stroke-linejoin="round"/>
<path d="M18.2617 20.918H4.98047" stroke="#BD171D" stroke-width="1.99219" stroke-miterlimit="10" stroke-linecap="round" stroke-linejoin="round"/>
<path d="M18.2617 29.0195H12.9492" stroke="#BD171D" stroke-width="1.99219" stroke-miterlimit="10" stroke-linecap="round" stroke-linejoin="round"/>
<path d="M10.293 24.9023H4.98047" stroke="#BD171D" stroke-width="1.99219" stroke-miterlimit="10" stroke-linecap="round" stroke-linejoin="round"/>
<path d="M15.6055 0.996094L22.2461 7.63672H15.6055V0.996094Z" stroke="#BD171D" stroke-width="1.99219" stroke-miterlimit="10" stroke-linecap="round" stroke-linejoin="round"/>
<path d="M22.2461 23.043H29.0195" stroke="#BD171D" stroke-width="1.99219" stroke-miterlimit="10" stroke-linecap="round" stroke-linejoin="round"/>
<path d="M31.0117 25.0352C32.112 25.0352 33.0039 24.1432 33.0039 23.043C33.0039 21.9427 32.112 21.0508 31.0117 21.0508C29.9115 21.0508 29.0195 21.9427 29.0195 23.043C29.0195 24.1432 29.9115 25.0352 31.0117 25.0352Z" stroke="#BD171D" stroke-width="1.99219" stroke-miterlimit="10" stroke-linecap="round" stroke-linejoin="round"/>
<path d="M27.7443 29.4814L25.6992 27.0273H22.2461" stroke="#BD171D" stroke-width="1.99219" stroke-miterlimit="10" stroke-linecap="round" stroke-linejoin="round"/>
<path d="M27.7443 16.6055L25.6992 19.0595H22.2461" stroke="#BD171D" stroke-width="1.99219" stroke-miterlimit="10" stroke-linecap="round" stroke-linejoin="round"/>
<path d="M29.0195 33.0039C30.1198 33.0039 31.0117 32.112 31.0117 31.0117C31.0117 29.9115 30.1198 29.0195 29.0195 29.0195C27.9193 29.0195 27.0273 29.9115 27.0273 31.0117C27.0273 32.112 27.9193 33.0039 29.0195 33.0039Z" stroke="#BD171D" stroke-width="1.99219" stroke-miterlimit="10" stroke-linecap="round" stroke-linejoin="round"/>
<path d="M29.0195 17.0664C30.1198 17.0664 31.0117 16.1745 31.0117 15.0742C31.0117 13.974 30.1198 13.082 29.0195 13.082C27.9193 13.082 27.0273 13.974 27.0273 15.0742C27.0273 16.1745 27.9193 17.0664 29.0195 17.0664Z" stroke="#BD171D" stroke-width="1.99219" stroke-miterlimit="10" stroke-linecap="round" stroke-linejoin="round"/>
</g>
<defs>
<clipPath id="clip0_5177_19163">
<rect width="34" height="34" fill="white"/>
</clipPath>
</defs>
</svg>
