<svg width="34" height="34" viewBox="0 0 34 34" fill="none" xmlns="http://www.w3.org/2000/svg">
<g clip-path="url(#clip0_5177_21541)">
<path d="M19.0176 7.98438H15.3809" stroke="#BD171D" stroke-width="1.5" stroke-miterlimit="10" stroke-linecap="round" stroke-linejoin="round"/>
<path d="M13.2094 17.5568L13.1934 12.6082C13.1922 12.0429 13.6502 11.584 14.2155 11.584H19.0187" stroke="#BD171D" stroke-width="1.5" stroke-miterlimit="10" stroke-linecap="round" stroke-linejoin="round"/>
<path d="M5.04076 8.00586C2.89398 8.22387 1.21875 10.0369 1.21875 12.2412V17.5566" stroke="#BD171D" stroke-width="1.5" stroke-miterlimit="10" stroke-linecap="round" stroke-linejoin="round"/>
<path d="M12.9958 7.98438H10.7773" stroke="#BD171D" stroke-width="1.5" stroke-miterlimit="10" stroke-linecap="round" stroke-linejoin="round"/>
<path d="M9.5357 8.97266V9.88667C9.5357 10.7929 8.80105 11.5276 7.89481 11.5276C6.98856 11.5276 6.25391 10.7929 6.25391 9.88667V9.0046" stroke="#BD171D" stroke-width="1.5" stroke-miterlimit="10" stroke-linecap="round" stroke-linejoin="round"/>
<path d="M7.89511 9.28339C5.85611 9.28339 4.20312 7.63041 4.20312 5.59141V3.9098C4.20312 2.02552 5.7306 0.498047 7.61488 0.498047H8.17541C10.0597 0.498047 11.5872 2.02552 11.5872 3.9098V5.59141C11.5871 7.63041 9.93418 9.28339 7.89511 9.28339Z" stroke="#BD171D" stroke-width="1.5" stroke-miterlimit="10" stroke-linecap="round" stroke-linejoin="round"/>
<path d="M4.56641 14.0605V17.5572" stroke="#BD171D" stroke-width="1.5" stroke-miterlimit="10" stroke-linecap="round" stroke-linejoin="round"/>
<path d="M21.7303 7.98438H18.3672V11.5843H19.4151C20.4092 11.5843 21.215 10.7784 21.215 9.78432H21.7303C22.2273 9.78432 22.6303 9.38136 22.6303 8.88431C22.6303 8.38726 22.2274 7.98438 21.7303 7.98438Z" stroke="#BD171D" stroke-width="1.5" stroke-miterlimit="10" stroke-linecap="round" stroke-linejoin="round"/>
<path d="M8.94097 6.22852C8.94097 6.80552 8.47327 7.27322 7.89627 7.27322C7.31926 7.27322 6.85156 6.80552 6.85156 6.22852" stroke="#BD171D" stroke-width="1.5" stroke-miterlimit="10" stroke-linecap="round" stroke-linejoin="round"/>
<path d="M12.7461 28.834C14.1318 29.0031 15.2051 30.1837 15.2051 31.6151V33.5021" stroke="#BD171D" stroke-width="1.5" stroke-miterlimit="10" stroke-linecap="round" stroke-linejoin="round"/>
<path d="M6.41797 33.5025V31.6155C6.41797 30.1648 7.52051 28.9716 8.93337 28.8281" stroke="#BD171D" stroke-width="1.5" stroke-miterlimit="10" stroke-linecap="round" stroke-linejoin="round"/>
<path d="M10.8126 29.6686C9.47068 29.6686 8.38281 28.5808 8.38281 27.2388V26.1321C8.38281 24.892 9.38807 23.8867 10.6282 23.8867H10.9971C12.2372 23.8867 13.2425 24.892 13.2425 26.1321V27.2388C13.2424 28.5808 12.1546 29.6686 10.8126 29.6686Z" stroke="#BD171D" stroke-width="1.5" stroke-miterlimit="10" stroke-linecap="round" stroke-linejoin="round"/>
<path d="M21.4785 28.8281C22.8914 28.9716 23.9939 30.1648 23.9939 31.6155V33.5025" stroke="#BD171D" stroke-width="1.5" stroke-miterlimit="10" stroke-linecap="round" stroke-linejoin="round"/>
<path d="M15.2051 33.5018V31.6148C15.2051 30.1727 16.2944 28.9852 17.695 28.8301" stroke="#BD171D" stroke-width="1.5" stroke-miterlimit="10" stroke-linecap="round" stroke-linejoin="round"/>
<path d="M20.8865 24.1761C20.5608 23.9922 20.1849 23.8867 19.7842 23.8867H19.4153C18.1752 23.8867 17.1699 24.892 17.1699 26.1321V27.2388C17.1699 28.5808 18.2578 29.6686 19.5997 29.6686C20.9417 29.6686 22.0295 28.5808 22.0295 27.2388V26.274" stroke="#BD171D" stroke-width="1.5" stroke-miterlimit="10" stroke-linecap="round" stroke-linejoin="round"/>
<path d="M30.3438 28.8359C31.7184 29.0152 32.7799 30.1907 32.7799 31.6141V33.5012" stroke="#BD171D" stroke-width="1.5" stroke-miterlimit="10" stroke-linecap="round" stroke-linejoin="round"/>
<path d="M23.9922 33.5019V31.6149C23.9922 30.1725 25.082 28.9848 26.4831 28.8301" stroke="#BD171D" stroke-width="1.5" stroke-miterlimit="10" stroke-linecap="round" stroke-linejoin="round"/>
<path d="M28.3868 29.6686C27.0449 29.6686 25.957 28.5808 25.957 27.2388V26.1321C25.957 24.892 26.9623 23.8867 28.2024 23.8867H28.5713C29.8114 23.8867 30.8167 24.892 30.8167 26.1321V27.2388C30.8166 28.5808 29.7288 29.6686 28.3868 29.6686Z" stroke="#BD171D" stroke-width="1.5" stroke-miterlimit="10" stroke-linecap="round" stroke-linejoin="round"/>
<path d="M28.4004 10.9121V21.5469" stroke="#BD171D" stroke-width="1.5" stroke-miterlimit="10" stroke-linecap="round" stroke-linejoin="round"/>
<path d="M29.5161 20.6621L28.386 21.7922L27.2559 20.6621" stroke="#BD171D" stroke-width="1.5" stroke-miterlimit="10" stroke-linecap="round" stroke-linejoin="round"/>
<path d="M19.6127 21.5481V14.0605H15.5098" stroke="#BD171D" stroke-width="1.5" stroke-miterlimit="10" stroke-linecap="round" stroke-linejoin="round"/>
<path d="M20.729 20.6621L19.5988 21.7922L18.4688 20.6621" stroke="#BD171D" stroke-width="1.5" stroke-miterlimit="10" stroke-linecap="round" stroke-linejoin="round"/>
<path d="M10.8262 19.1152V21.5472" stroke="#BD171D" stroke-width="1.5" stroke-miterlimit="10" stroke-linecap="round" stroke-linejoin="round"/>
<path d="M11.9419 20.6621L10.8118 21.7922L9.68164 20.6621" stroke="#BD171D" stroke-width="1.5" stroke-miterlimit="10" stroke-linecap="round" stroke-linejoin="round"/>
<path d="M19.6133 14.0605H28.4006" stroke="#BD171D" stroke-width="1.5" stroke-miterlimit="10" stroke-linecap="round" stroke-linejoin="round"/>
<path d="M28.4425 10.9123C30.4526 10.9123 32.0822 9.2827 32.0822 7.27254C32.0822 5.26237 30.4526 3.63281 28.4425 3.63281C26.4323 3.63281 24.8027 5.26237 24.8027 7.27254C24.8027 9.2827 26.4323 10.9123 28.4425 10.9123Z" stroke="#BD171D" stroke-width="1.5" stroke-miterlimit="10" stroke-linecap="round" stroke-linejoin="round"/>
<path d="M27.0156 7.11423L28.0735 8.17215L29.8706 6.375" stroke="#BD171D" stroke-width="1.5" stroke-miterlimit="10" stroke-linecap="round" stroke-linejoin="round"/>
</g>
<defs>
<clipPath id="clip0_5177_21541">
<rect width="34" height="34" fill="white"/>
</clipPath>
</defs>
</svg>
