<svg width="34" height="34" viewBox="0 0 34 34" fill="none" xmlns="http://www.w3.org/2000/svg">
<path d="M19.9763 12.394C19.9763 12.6138 19.7977 12.7925 19.5779 12.7925H12.0939C11.8741 12.7925 11.6955 12.6138 11.6955 12.394C11.6955 12.1742 11.8741 11.9956 12.0939 11.9956H19.5779C19.7977 11.9956 19.9763 12.1742 19.9763 12.394ZM7.69582 16.1314C9.19527 16.1314 10.4158 14.9115 10.4158 13.4114C10.4158 13.3576 10.4145 13.3038 10.4112 13.2513C10.3986 13.0315 10.2086 12.8642 9.99016 12.8768C9.77035 12.8894 9.60301 13.078 9.61563 13.2978C9.61762 13.335 9.61895 13.3729 9.61895 13.4107C9.61895 14.4712 8.75633 15.3338 7.69582 15.3338C6.63531 15.3338 5.7727 14.4712 5.7727 13.4107C5.7727 12.3502 6.63531 11.4876 7.69582 11.4876C8.00992 11.4876 8.30941 11.5606 8.58566 11.7054C8.7809 11.8077 9.02129 11.732 9.12355 11.5374C9.22582 11.3421 9.15012 11.1018 8.95555 10.9995C8.56973 10.7976 8.1341 10.6907 7.69582 10.6907C6.19637 10.6907 4.97582 11.9106 4.97582 13.4107C4.97648 14.9108 6.19637 16.1314 7.69582 16.1314ZM10.0532 11.0898L7.77418 13.3689L7.05965 12.6543C6.90426 12.4989 6.65191 12.4989 6.49586 12.6543C6.34047 12.8097 6.34047 13.0621 6.49586 13.2181L7.49195 14.2142C7.56633 14.2886 7.66793 14.3311 7.77352 14.3311C7.8791 14.3311 7.9807 14.2893 8.05508 14.2142L10.6157 11.6536C10.7711 11.4982 10.7711 11.2459 10.6157 11.0898C10.461 10.9338 10.2086 10.9338 10.0532 11.0898ZM12.0939 14.853H17.5977C17.8175 14.853 17.9961 14.6744 17.9961 14.4546C17.9961 14.2348 17.8175 14.0562 17.5977 14.0562H12.0939C11.8741 14.0562 11.6955 14.2348 11.6955 14.4546C11.6955 14.6744 11.8734 14.853 12.0939 14.853ZM19.5779 18.3699H12.0939C11.8741 18.3699 11.6955 18.5486 11.6955 18.7684C11.6955 18.9882 11.8741 19.1668 12.0939 19.1668H19.5779C19.7977 19.1668 19.9763 18.9882 19.9763 18.7684C19.9763 18.5486 19.7977 18.3699 19.5779 18.3699ZM7.69582 22.5057C9.19527 22.5057 10.4158 21.2858 10.4158 19.7857C10.4158 19.7319 10.4145 19.6781 10.4112 19.6257C10.3986 19.4059 10.2086 19.2385 9.99016 19.2511C9.77035 19.2638 9.60301 19.4523 9.61563 19.6721C9.61762 19.7093 9.61895 19.7472 9.61895 19.785C9.61895 20.8455 8.75633 21.7082 7.69582 21.7082C6.63531 21.7082 5.7727 20.8455 5.7727 19.785C5.7727 18.7245 6.63531 17.8619 7.69582 17.8619C8.00992 17.8619 8.30941 17.935 8.58566 18.0797C8.7809 18.182 9.02129 18.1063 9.12355 17.9117C9.22582 17.7165 9.15012 17.4761 8.95555 17.3738C8.56973 17.172 8.1341 17.065 7.69582 17.065C6.19637 17.065 4.97582 18.2849 4.97582 19.785C4.97582 21.2852 6.19637 22.5057 7.69582 22.5057ZM10.0532 17.4641L7.77418 19.7432L7.05965 19.0287C6.90426 18.8733 6.65191 18.8733 6.49586 19.0287C6.34047 19.1841 6.34047 19.4364 6.49586 19.5925L7.49195 20.5886C7.56633 20.6629 7.66793 20.7054 7.77352 20.7054C7.8791 20.7054 7.9807 20.6636 8.05508 20.5886L10.6157 18.0279C10.7711 17.8725 10.7711 17.6202 10.6157 17.4641C10.461 17.3087 10.2086 17.3087 10.0532 17.4641ZM17.5977 20.4305H12.0939C11.8741 20.4305 11.6955 20.6091 11.6955 20.8289C11.6955 21.0487 11.8741 21.2274 12.0939 21.2274H17.5977C17.8175 21.2274 17.9961 21.0487 17.9961 20.8289C17.9961 20.6091 17.8175 20.4305 17.5977 20.4305ZM9.99016 25.6255C9.77035 25.6381 9.60301 25.8267 9.61563 26.0465C9.61762 26.0837 9.61895 26.1215 9.61895 26.1594C9.61895 27.2199 8.75633 28.0825 7.69582 28.0825C6.63531 28.0825 5.7727 27.2199 5.7727 26.1594C5.7727 25.0989 6.63531 24.2362 7.69582 24.2362C8.01059 24.2362 8.31008 24.3093 8.58566 24.4541C8.7809 24.5563 9.02129 24.4806 9.12355 24.2861C9.22582 24.0908 9.15012 23.8504 8.95555 23.7482C8.56973 23.5463 8.1341 23.4394 7.69582 23.4394C6.19637 23.4394 4.97582 24.6593 4.97582 26.1594C4.97582 27.6595 6.1957 28.8794 7.69582 28.8794C9.19594 28.8794 10.4158 27.6595 10.4158 26.1594C10.4158 26.1056 10.4145 26.0518 10.4112 25.9993C10.3986 25.7802 10.2086 25.6135 9.99016 25.6255ZM10.0532 23.8385L7.77418 26.1175L7.05965 25.403C6.90426 25.2476 6.65191 25.2476 6.49586 25.403C6.34047 25.5584 6.34047 25.8107 6.49586 25.9668L7.49195 26.9629C7.56633 27.0373 7.66793 27.0798 7.77352 27.0798C7.8791 27.0798 7.9807 27.0379 8.05508 26.9629L10.6157 24.4023C10.7711 24.2469 10.7711 23.9945 10.6157 23.8385C10.461 23.6831 10.2086 23.6831 10.0532 23.8385ZM32.7854 31.6711C32.4919 32.1791 31.9872 32.4706 31.4009 32.4706H15.0915H15.0902H4.4532C2.54668 32.4706 0.996094 30.92 0.996094 29.0135V8.68523C0.996094 6.77871 2.54668 5.22813 4.4532 5.22813H6.6466V5.16238C6.6466 4.44918 7.22699 3.86879 7.9402 3.86879H10.0327C10.2259 2.5473 11.3674 1.5293 12.742 1.5293C14.1166 1.5293 15.2575 2.5473 15.4514 3.86879H17.5439C18.2571 3.86879 18.8375 4.44918 18.8375 5.16238V5.22813H21.0309C22.9374 5.22813 24.488 6.77871 24.488 8.68523V15.7389C24.5398 15.804 24.5882 15.873 24.6307 15.9481L32.7854 30.0727C33.0783 30.58 33.0783 31.1631 32.7854 31.6711ZM18.8368 6.025V7.06625H21.0302C21.9227 7.06625 22.6492 7.79273 22.6492 8.68523V15.2595C22.8331 15.1871 23.0343 15.1486 23.2455 15.1486C23.4002 15.1486 23.549 15.1691 23.6898 15.2083V8.68523C23.6898 7.21832 22.4964 6.025 21.0295 6.025H18.8368ZM21.8523 15.9634V8.68523C21.8523 8.23168 21.4837 7.86313 21.0302 7.86313H18.8368V8.17391C18.8368 8.88711 18.2564 9.4675 17.5432 9.4675H7.9402C7.22699 9.4675 6.6466 8.88711 6.6466 8.17391V7.86313H4.4532C3.99965 7.86313 3.63109 8.23168 3.63109 8.68523V29.0129C3.63109 29.4664 3.99965 29.835 4.4532 29.835H13.8437L15.1333 27.6011H12.0939C11.8741 27.6011 11.6955 27.4224 11.6955 27.2026C11.6955 26.9828 11.8741 26.8042 12.0939 26.8042H15.5935L16.3233 25.5405H12.0939C11.8741 25.5405 11.6955 25.3618 11.6955 25.142C11.6955 24.9222 11.8741 24.7436 12.0939 24.7436H16.7835L21.8523 15.9634ZM7.44348 8.17391C7.44348 8.4475 7.6666 8.67063 7.9402 8.67063H17.5432C17.8168 8.67063 18.0399 8.4475 18.0399 8.17391V5.16305C18.0399 4.88945 17.8168 4.66633 17.5432 4.66633H15.0815C14.8617 4.66633 14.6831 4.4877 14.6831 4.26789C14.6831 3.19742 13.8125 2.32684 12.742 2.32684C11.6716 2.32684 10.801 3.19742 10.801 4.26789C10.801 4.4877 10.6223 4.66633 10.4025 4.66633H7.94086C7.66727 4.66633 7.44414 4.88945 7.44414 5.16305L7.44348 8.17391ZM4.4532 31.6737H13.7082L13.7069 31.6711C13.517 31.3424 13.4512 30.9831 13.5064 30.6325H4.4532C3.5607 30.6325 2.83422 29.906 2.83422 29.0135V8.68523C2.83422 7.79273 3.5607 7.06625 4.4532 7.06625H6.6466V6.025H4.4532C2.98629 6.025 1.79297 7.21832 1.79297 8.68523V29.0129C1.79297 30.4798 2.98629 31.6737 4.4532 31.6737ZM32.0948 30.4711L23.9401 16.3465C23.7907 16.0882 23.5443 15.9454 23.2455 15.9454C22.9473 15.9454 22.7003 16.0875 22.5509 16.3465L14.3962 30.4711C14.2468 30.7295 14.2468 31.0143 14.3962 31.2727C14.5456 31.531 14.792 31.6731 15.0902 31.6737H15.0915H31.4002C31.699 31.6737 31.9454 31.5316 32.0948 31.2727C32.2442 31.0143 32.2442 30.7295 32.0948 30.4711ZM24.2947 20.3641C24.553 20.637 24.6845 20.9883 24.6646 21.3529L24.4076 26.0458C24.3698 26.7404 23.7947 27.1037 23.2462 27.1037C22.6977 27.1037 22.1226 26.7404 22.0847 26.0458L21.8277 21.3529C21.8078 20.9883 21.9393 20.637 22.1976 20.3641C22.4699 20.0766 22.8517 19.9119 23.2462 19.9119C23.6406 19.9125 24.0225 20.0772 24.2947 20.3641ZM23.7157 20.912C23.5935 20.7831 23.4221 20.7087 23.2455 20.7087C23.0689 20.7087 22.8975 20.7825 22.7754 20.912C22.6684 21.0242 22.6146 21.1656 22.6226 21.3097L22.8796 26.0027C22.8955 26.2922 23.1871 26.3068 23.2455 26.3068C23.3039 26.3068 23.5955 26.2922 23.6114 26.0027L23.8684 21.3097C23.877 21.1656 23.8226 21.0248 23.7157 20.912ZM24.5604 29.5215C24.5604 30.246 23.9707 30.8357 23.2462 30.8357C22.5217 30.8357 21.932 30.246 21.932 29.5215C21.932 28.797 22.5217 28.2073 23.2462 28.2073C23.9707 28.2073 24.5604 28.797 24.5604 29.5215ZM23.7635 29.5215C23.7635 29.236 23.5311 29.0042 23.2462 29.0042C22.9613 29.0042 22.7289 29.2366 22.7289 29.5215C22.7289 29.8064 22.9613 30.0388 23.2462 30.0388C23.5311 30.0388 23.7635 29.8071 23.7635 29.5215Z" fill="#BD171D" stroke="#BD171D" stroke-width="0.5"/>
</svg>
