<svg width="34" height="34" viewBox="0 0 34 34" fill="none" xmlns="http://www.w3.org/2000/svg">
<g clip-path="url(#clip0_5215_42601)">
<path d="M31.0116 4.67055H27.364V2.98841C27.364 1.34061 26.0234 0 24.3755 0H9.62446C7.97665 0 6.63604 1.34061 6.63604 2.98841V4.67055H2.98841C1.34061 4.67055 0 6.01116 0 7.65896V26.341C0 27.9888 1.34061 29.3294 2.98841 29.3294H10.3373V32.0078H8.14586C7.59575 32.0078 7.14976 32.4538 7.14976 33.0039C7.14976 33.554 7.59575 34 8.14586 34H25.8541C26.4043 34 26.8502 33.554 26.8502 33.0039C26.8502 32.4538 26.4043 32.0078 25.8541 32.0078H23.6627V29.3294H31.0116C32.6594 29.3294 34 27.9888 34 26.341V7.65896C34 6.01116 32.6594 4.67055 31.0116 4.67055ZM8.62823 2.98841C8.62823 2.4391 9.07508 1.99219 9.62446 1.99219H24.3756C24.9249 1.99219 25.3718 2.4391 25.3718 2.98841V5.66532C25.3718 5.66572 25.3718 5.66618 25.3718 5.66658C25.3718 5.66698 25.3718 5.66744 25.3718 5.66784V19.3411H8.62823V2.98841ZM1.99219 7.65896C1.99219 7.10965 2.43904 6.66274 2.98841 6.66274H6.63604V19.368H5.63982C5.08971 19.368 4.64372 19.814 4.64372 20.3641C4.64372 20.9142 5.08971 21.3602 5.63982 21.3602H28.3602C28.9104 21.3602 29.3563 20.9142 29.3563 20.3641C29.3563 19.814 28.9104 19.368 28.3602 19.368H27.364V6.66274H31.0117C31.561 6.66274 32.0079 7.10965 32.0079 7.65896V23.3526H1.99219V7.65896ZM21.6706 32.0078H12.3294V29.3294H21.6706V32.0078ZM32.0078 26.341C32.0078 26.8903 31.561 27.3372 31.0116 27.3372H2.98841C2.4391 27.3372 1.99219 26.8903 1.99219 26.341V25.3447H32.0078V26.341Z" fill="#BD171D"/>
<path d="M22.9774 13.0612H21.9811V7.27539C21.9811 6.72528 21.5351 6.2793 20.985 6.2793C20.4349 6.2793 19.9889 6.72528 19.9889 7.27539V13.0612H17.9965V9.26771C17.9965 8.7176 17.5505 8.27162 17.0004 8.27162C16.4503 8.27162 16.0043 8.7176 16.0043 9.26771V13.0612H14.0119V11.26C14.0119 10.7099 13.5659 10.2639 13.0158 10.2639C12.4656 10.2639 12.0197 10.7099 12.0197 11.26V13.0612H11.0234C10.4733 13.0612 10.0273 13.5072 10.0273 14.0573C10.0273 14.6074 10.4733 15.0534 11.0234 15.0534H22.9774C23.5275 15.0534 23.9735 14.6074 23.9735 14.0573C23.9735 13.5072 23.5275 13.0612 22.9774 13.0612Z" fill="#BD171D"/>
</g>
<defs>
<clipPath id="clip0_5215_42601">
<rect width="34" height="34" fill="white"/>
</clipPath>
</defs>
</svg>
