<svg width="34" height="34" viewBox="0 0 34 34" fill="none" xmlns="http://www.w3.org/2000/svg">
<path fill-rule="evenodd" clip-rule="evenodd" d="M18.2159 1.62721C15.9033 1.62721 1.53346 1.62721 1.53346 1.62721V28.0134H18.1064C18.4007 28.0134 18.6397 28.2524 18.6397 28.5467C18.6397 28.8411 18.4007 29.0801 18.1064 29.0801H1.00013C0.705597 29.0801 0.466797 28.8413 0.466797 28.5467V1.09388C0.466797 0.79928 0.705597 0.560547 1.00013 0.560547H18.7493C18.8907 0.560547 19.0264 0.616747 19.1264 0.716747L22.5592 4.14955C22.6592 4.24955 22.7154 4.38521 22.7154 4.52668V18.1665C22.7154 18.4608 22.4765 18.6998 22.1821 18.6998C21.8877 18.6998 21.6487 18.4608 21.6487 18.1665V5.06001H18.7493C18.4547 5.06001 18.2159 4.82121 18.2159 4.52668V1.62721ZM20.8945 3.99335L19.2826 2.38141V3.99335H20.8945ZM5.28013 7.58768H8.86353C9.41433 7.58768 9.8644 8.03775 9.8644 8.58855V12.172C9.8644 12.7228 9.41433 13.1729 8.86353 13.1729H5.28013C4.72933 13.1729 4.27926 12.7228 4.27926 12.172V8.58855C4.27926 8.03775 4.72933 7.58768 5.28013 7.58768ZM5.34593 8.65435V12.1062H8.79773V8.65435H5.34593ZM5.7412 10.6652C5.53286 10.4573 5.53253 10.1193 5.74046 9.91095C5.9484 9.70261 6.28633 9.70228 6.49466 9.91021L6.8616 10.2763L7.60946 9.35148C7.79453 9.12261 8.1306 9.08701 8.35953 9.27208C8.5884 9.45721 8.624 9.79328 8.43886 10.0221L7.31866 11.4075C7.22366 11.525 7.08326 11.5967 6.93233 11.6047C6.7814 11.6128 6.6342 11.5564 6.5272 11.4497L5.7412 10.6652ZM5.28013 14.0375H8.86353C9.41433 14.0375 9.8644 14.4875 9.8644 15.0384V18.6218C9.8644 19.1726 9.41433 19.6227 8.86353 19.6227H5.28013C4.72933 19.6227 4.27926 19.1726 4.27926 18.6218V15.0384C4.27926 14.4875 4.72933 14.0375 5.28013 14.0375ZM5.34593 18.556H8.79773V15.1042L5.34593 15.1041V18.556ZM5.7408 17.1147C5.53266 16.9065 5.53266 16.5685 5.7408 16.3604C5.94893 16.1523 6.28693 16.1523 6.49506 16.3604L6.86193 16.7273L7.60946 15.8029C7.79453 15.5739 8.1306 15.5384 8.35953 15.7235C8.5884 15.9085 8.624 16.2447 8.43886 16.4735L7.31866 17.8589C7.2236 17.9765 7.08306 18.0482 6.93206 18.0561C6.78106 18.0641 6.6338 18.0076 6.52686 17.9007L5.7408 17.1147ZM5.28013 20.4873H8.86353C9.41386 20.4873 9.8644 20.9395 9.8644 21.4897V25.0732C9.8644 25.624 9.41433 26.0741 8.86353 26.0741H5.28013C4.72933 26.0741 4.27926 25.624 4.27926 25.0732V21.4897C4.27926 20.9395 4.7298 20.4873 5.28013 20.4873ZM5.34593 21.554V25.0074H8.79773V21.554H5.34593ZM5.7412 23.5664C5.53286 23.3585 5.53253 23.0205 5.74046 22.8121C5.9484 22.6038 6.28633 22.6035 6.49466 22.8114L6.8616 23.1775L7.60946 22.2527C7.79453 22.0238 8.1306 21.9882 8.35953 22.1733C8.5884 22.3584 8.624 22.6945 8.43886 22.9233L7.31866 24.3087C7.22366 24.4262 7.08326 24.4979 6.93233 24.5059C6.7814 24.514 6.6342 24.4576 6.5272 24.3509L5.7412 23.5664ZM12.1865 9.98641C11.8921 9.98641 11.6532 9.74741 11.6532 9.45308C11.6532 9.15868 11.8921 8.91975 12.1865 8.91975H18.0527C18.3471 8.91975 18.586 9.15868 18.586 9.45308C18.586 9.74741 18.3471 9.98641 18.0527 9.98641H12.1865ZM12.1865 11.8408C11.8921 11.8408 11.6532 11.6019 11.6532 11.3075C11.6532 11.0131 11.8921 10.7741 12.1865 10.7741H16.0053C16.2996 10.7741 16.5386 11.0131 16.5386 11.3075C16.5386 11.6019 16.2996 11.8408 16.0053 11.8408H12.1865ZM12.1865 16.4362C11.8921 16.4362 11.6532 16.1972 11.6532 15.9029C11.6532 15.6085 11.8921 15.3695 12.1865 15.3695H18.0527C18.3471 15.3695 18.586 15.6085 18.586 15.9029C18.586 16.1972 18.3471 16.4362 18.0527 16.4362H12.1865ZM12.1865 18.2907C11.8921 18.2907 11.6532 18.0517 11.6532 17.7573C11.6532 17.4629 11.8921 17.224 12.1865 17.224H16.0053C16.2996 17.224 16.5386 17.4629 16.5386 17.7573C16.5386 18.0517 16.2996 18.2907 16.0053 18.2907H12.1865ZM12.1865 22.8876C11.8921 22.8876 11.6532 22.6486 11.6532 22.3543C11.6532 22.0599 11.8921 21.8209 12.1865 21.8209H18.0527C18.3471 21.8209 18.586 22.0599 18.586 22.3543C18.586 22.6486 18.3471 22.8876 18.0527 22.8876H12.1865ZM12.1865 24.742C11.8921 24.742 11.6532 24.5031 11.6532 24.2087C11.6532 23.9143 11.8921 23.6753 12.1865 23.6753H16.0053C16.2996 23.6753 16.5386 23.9143 16.5386 24.2087C16.5386 24.5031 16.2996 24.742 16.0053 24.742H12.1865ZM4.8126 5.06001C4.51826 5.06001 4.27926 4.82101 4.27926 4.52668C4.27926 4.23228 4.51826 3.99335 4.8126 3.99335H14.9541C15.2485 3.99335 15.4874 4.23228 15.4874 4.52668C15.4874 4.82101 15.2485 5.06001 14.9541 5.06001H4.8126ZM27.4361 18.7995C27.957 18.9464 28.4583 19.1541 28.9311 19.4191L29.8899 18.9927C30.0916 18.903 30.3277 18.9469 30.4837 19.1029L31.9082 20.5273C32.0641 20.6832 32.1079 20.9189 32.0187 21.1205L31.5938 22.0796C31.8591 22.5527 32.0669 23.0547 32.2139 23.5773L33.1917 23.9536C33.3976 24.0329 33.5335 24.2307 33.5335 24.4514V26.4663C33.5335 26.6869 33.3976 26.8848 33.1917 26.964L32.2135 27.3405C32.0664 27.8614 31.8577 28.3627 31.5936 28.8354L32.0187 29.7951C32.1079 29.9967 32.0641 30.2324 31.9082 30.3883L30.4837 31.8127C30.3279 31.9686 30.0921 32.0125 29.8906 31.9233L28.9318 31.4985C28.4598 31.7635 27.9573 31.9713 27.4359 32.1182L27.0595 33.0963C26.9802 33.3021 26.7824 33.438 26.5617 33.438H24.5468C24.3262 33.438 24.1283 33.3021 24.0491 33.0963L23.6727 32.1183C23.1503 31.9711 22.6485 31.7623 22.1757 31.4981L21.2159 31.9233C21.0144 32.0125 20.7787 31.9686 20.6228 31.8127L19.1983 30.3883C19.0423 30.2322 18.9985 29.9961 19.0881 29.7945L19.5143 28.8359C19.2495 28.3641 19.0416 27.8619 18.8937 27.3407L17.9148 26.964C17.7089 26.8848 17.5731 26.6869 17.5731 26.4663V24.4514C17.5731 24.2307 17.7089 24.0329 17.9148 23.9536L18.8935 23.577C19.0415 23.0546 19.2494 22.5529 19.5145 22.08L19.0881 21.1211C18.9985 20.9195 19.0423 20.6834 19.1983 20.5273L20.6228 19.1029C20.7789 18.9469 21.0149 18.903 21.2166 18.9927L22.1755 19.4191C22.6483 19.154 23.1498 18.9463 23.6709 18.7994L24.0493 17.8189C24.1286 17.6133 24.3263 17.4776 24.5468 17.4776H26.5617C26.7825 17.4776 26.9804 17.6136 27.0596 17.8197L27.4361 18.7995ZM26.5387 19.438L26.1953 18.5443H24.9127L24.5675 19.4387C24.5043 19.6027 24.3643 19.7249 24.1933 19.7655C23.5911 19.9087 23.0169 20.1465 22.4891 20.4718C22.3392 20.5641 22.1534 20.5766 21.9926 20.5051L21.118 20.1162L20.2117 21.0225L20.6005 21.8971C20.6721 22.058 20.6596 22.2437 20.5673 22.3936C20.2417 22.9218 20.0038 23.4965 19.8587 24.101C19.8177 24.2717 19.6955 24.4113 19.5317 24.4743L18.6397 24.8176V26.1001L19.5317 26.4433C19.6953 26.5063 19.8176 26.6458 19.8586 26.8163C20.0037 27.4187 20.2414 27.9951 20.5668 28.5213C20.6595 28.6713 20.6721 28.8574 20.6005 29.0185L20.2117 29.8931L21.1184 30.7998L21.9933 30.4123C22.1535 30.3413 22.3385 30.3536 22.4879 30.4451C23.0161 30.7687 23.5906 31.0088 24.1949 31.152C24.3663 31.1926 24.5065 31.3151 24.5697 31.4794L24.913 32.3713H26.1955L26.5388 31.4794C26.602 31.3153 26.7421 31.1928 26.9133 31.1521C27.5151 31.0091 28.0911 30.7714 28.6167 30.4463C28.7665 30.3537 28.9523 30.341 29.1133 30.4123L29.9881 30.7998L30.8953 29.8927L30.5077 29.0178C30.4367 28.8575 30.449 28.6727 30.5406 28.5232C30.8642 27.995 31.1043 27.4204 31.2475 26.8178C31.2882 26.6467 31.4107 26.5065 31.5749 26.4433L32.4668 26.1001V24.8176L31.5749 24.4743C31.4105 24.4111 31.2881 24.2708 31.2475 24.0995C31.1044 23.4956 30.8665 22.9213 30.5413 22.3936C30.4491 22.244 30.4365 22.0585 30.5077 21.8978L30.8953 21.0229L29.9885 20.1162L29.1139 20.5051C28.9531 20.5766 28.7673 20.5641 28.6175 20.4718C28.0897 20.1465 27.5154 19.9087 26.9133 19.7655C26.742 19.7249 26.6019 19.6023 26.5387 19.438ZM25.5533 21.4101C27.7897 21.4101 29.6031 23.2213 29.6031 25.4578C29.6031 27.6942 27.7897 29.5076 25.5533 29.5076C23.3168 29.5076 21.5055 27.6943 21.5055 25.4578C21.5055 23.2213 23.3167 21.4101 25.5533 21.4101ZM25.5533 22.4767C23.9061 22.4767 22.5721 23.8107 22.5721 25.4578C22.5721 27.1051 23.906 28.4409 25.5533 28.4409C27.2006 28.4409 28.5364 27.1051 28.5364 25.4578C28.5364 23.8105 27.2005 22.4767 25.5533 22.4767ZM27.3873 25.962C27.6422 26.1092 27.7297 26.4356 27.5825 26.6905C27.4353 26.9455 27.1089 27.0329 26.8539 26.8857L25.2866 25.9809C25.1216 25.8856 25.0199 25.7095 25.0199 25.5189V23.7091C25.0199 23.4148 25.2589 23.1758 25.5533 23.1758C25.8476 23.1758 26.0866 23.4148 26.0866 23.7091V25.2111L27.3873 25.962Z" fill="#BD171D" stroke="#BD171D" stroke-width="0.5"/>
</svg>
