<svg width="34" height="34" viewBox="0 0 34 34" fill="none" xmlns="http://www.w3.org/2000/svg">
<g clip-path="url(#clip0_5215_42564)">
<path d="M0.71875 31.1641H2.66671" stroke="#BD171D" stroke-width="1.5" stroke-miterlimit="10" stroke-linecap="round" stroke-linejoin="round"/>
<path d="M19.457 8.52148V12.0521H14.543V8.52148" stroke="#BD171D" stroke-width="1.5" stroke-miterlimit="10" stroke-linecap="round" stroke-linejoin="round"/>
<path d="M12.373 9.71484H14.321" stroke="#BD171D" stroke-width="1.5" stroke-miterlimit="10" stroke-linecap="round" stroke-linejoin="round"/>
<path d="M21.6973 9.71484H19.6055" stroke="#BD171D" stroke-width="1.5" stroke-miterlimit="10" stroke-linecap="round" stroke-linejoin="round"/>
<path d="M19.457 9.7147V12.0527H21.3437C21.6221 12.0527 21.8477 11.8271 21.8477 11.5488V8.5332C21.8477 7.28623 20.8368 6.27539 19.5898 6.27539H14.4102C13.1632 6.27539 12.1523 7.28623 12.1523 8.5332V11.5488C12.1523 11.8272 12.378 12.0527 12.6563 12.0527H14.543V9.7147" stroke="#BD171D" stroke-width="1.5" stroke-miterlimit="10" stroke-linecap="round" stroke-linejoin="round"/>
<path d="M14.6758 2.39614V4.2409C14.6758 5.3645 15.5867 6.27539 16.7103 6.27539H17.2898C18.4134 6.27539 19.3242 5.36456 19.3242 4.2409V2.39614C19.3242 1.34785 18.4744 0.498047 17.4261 0.498047H16.5739C15.5256 0.498047 14.6758 1.34785 14.6758 2.39614Z" stroke="#BD171D" stroke-width="1.5" stroke-miterlimit="10" stroke-linecap="round" stroke-linejoin="round"/>
<path d="M18.9641 3.02148H15.0352" stroke="#BD171D" stroke-width="1.5" stroke-miterlimit="10" stroke-linecap="round" stroke-linejoin="round"/>
<path d="M27.7413 33.5013H26.1973V29.9707" stroke="#BD171D" stroke-width="1.5" stroke-miterlimit="10" stroke-linecap="round" stroke-linejoin="round"/>
<path d="M31.1119 29.9707V33.5013H30.1387" stroke="#BD171D" stroke-width="1.5" stroke-miterlimit="10" stroke-linecap="round" stroke-linejoin="round"/>
<path d="M24.0273 31.1641H25.9753" stroke="#BD171D" stroke-width="1.5" stroke-miterlimit="10" stroke-linecap="round" stroke-linejoin="round"/>
<path d="M33.3535 31.1641H31.2617" stroke="#BD171D" stroke-width="1.5" stroke-miterlimit="10" stroke-linecap="round" stroke-linejoin="round"/>
<path d="M31.1113 31.1639V33.502H32.998C33.2764 33.502 33.502 33.2763 33.502 32.998V29.9824C33.502 28.7354 32.4911 27.7246 31.2441 27.7246H26.0645C24.8175 27.7246 23.8066 28.7354 23.8066 29.9824V32.998C23.8066 33.2764 24.0323 33.502 24.3106 33.502H26.1973V31.1639" stroke="#BD171D" stroke-width="1.5" stroke-miterlimit="10" stroke-linecap="round" stroke-linejoin="round"/>
<path d="M26.3301 23.8454V25.6901C26.3301 26.8137 27.2409 27.7246 28.3646 27.7246H28.9441C30.0677 27.7246 30.9786 26.8137 30.9786 25.6901V23.8454C30.9786 22.7971 30.1288 21.9473 29.0805 21.9473H28.2283C27.1799 21.9473 26.3301 22.7971 26.3301 23.8454Z" stroke="#BD171D" stroke-width="1.5" stroke-miterlimit="10" stroke-linecap="round" stroke-linejoin="round"/>
<path d="M30.6184 24.4707H26.6895" stroke="#BD171D" stroke-width="1.5" stroke-miterlimit="10" stroke-linecap="round" stroke-linejoin="round"/>
<path d="M7.80273 29.9707V33.5013H2.88867V29.9707" stroke="#BD171D" stroke-width="1.5" stroke-miterlimit="10" stroke-linecap="round" stroke-linejoin="round"/>
<path d="M10.0449 31.1641H7.95312" stroke="#BD171D" stroke-width="1.5" stroke-miterlimit="10" stroke-linecap="round" stroke-linejoin="round"/>
<path d="M7.80273 31.1639V33.502H9.6894C9.96778 33.502 10.1934 33.2763 10.1934 32.998V29.9824C10.1934 28.7354 9.18252 27.7246 7.93555 27.7246H2.75586C1.50888 27.7246 0.498047 28.7354 0.498047 29.9824V32.998C0.498047 33.2764 0.723695 33.502 1.002 33.502H2.88867V31.1639" stroke="#BD171D" stroke-width="1.5" stroke-miterlimit="10" stroke-linecap="round" stroke-linejoin="round"/>
<path d="M3.02148 23.8454V25.6901C3.02148 26.8137 3.93238 27.7246 5.05597 27.7246H5.6355C6.75909 27.7246 7.66999 26.8137 7.66999 25.6901V23.8454C7.66999 22.7971 6.82019 21.9473 5.7719 21.9473H4.91957C3.87129 21.9473 3.02148 22.7971 3.02148 23.8454Z" stroke="#BD171D" stroke-width="1.5" stroke-miterlimit="10" stroke-linecap="round" stroke-linejoin="round"/>
<path d="M7.30985 24.4707H3.38086" stroke="#BD171D" stroke-width="1.5" stroke-miterlimit="10" stroke-linecap="round" stroke-linejoin="round"/>
<path d="M10.3594 17.2779V16.7881C10.3594 15.8718 11.1048 15.1289 12.0242 15.1289H21.9759C22.8953 15.1289 23.6407 15.8718 23.6407 16.7881V21.7521C23.6407 22.6685 22.8953 23.4114 21.9759 23.4114L18.4601 23.4065C18.37 23.4064 18.2867 23.4547 18.2421 23.5331L17.2681 25.2434C17.1501 25.4508 16.8509 25.4504 16.7335 25.2426L15.7679 23.5338C15.7234 23.4551 15.6399 23.4064 15.5494 23.4065L12.0242 23.4114C11.1047 23.4114 10.3594 22.6685 10.3594 21.7521V19.7008" stroke="#BD171D" stroke-width="1.5" stroke-miterlimit="10" stroke-linecap="round" stroke-linejoin="round"/>
<path d="M14.1855 17.2793H17.4458" stroke="#BD171D" stroke-width="1.5" stroke-miterlimit="10" stroke-linecap="round" stroke-linejoin="round"/>
<path d="M14.1855 19.2715H19.8135" stroke="#BD171D" stroke-width="1.5" stroke-miterlimit="10" stroke-linecap="round" stroke-linejoin="round"/>
<path d="M14.1855 21.2637H19.8135" stroke="#BD171D" stroke-width="1.5" stroke-miterlimit="10" stroke-linecap="round" stroke-linejoin="round"/>
<path d="M12.9902 28.9668C14.25 29.3891 15.598 29.6176 16.9998 29.6176C18.4017 29.6176 19.7497 29.3891 21.0095 28.9668" stroke="#BD171D" stroke-width="1.5" stroke-miterlimit="10" stroke-linecap="round" stroke-linejoin="round"/>
<path d="M23.9863 6.49219C27.1738 8.61586 29.3407 12.1513 29.5923 16.2048" stroke="#BD171D" stroke-width="1.5" stroke-miterlimit="10" stroke-linecap="round" stroke-linejoin="round"/>
<path d="M4.4082 16.2048C4.65988 12.1513 6.82672 8.61586 10.0142 6.49219" stroke="#BD171D" stroke-width="1.5" stroke-miterlimit="10" stroke-linecap="round" stroke-linejoin="round"/>
</g>
<defs>
<clipPath id="clip0_5215_42564">
<rect width="34" height="34" fill="white"/>
</clipPath>
</defs>
</svg>
