<svg width="114" height="114" viewBox="0 0 114 114" fill="none" xmlns="http://www.w3.org/2000/svg">
<path d="M56.86 113.72C88.2629 113.72 113.72 88.2629 113.72 56.86C113.72 25.4571 88.2629 0 56.86 0C25.4571 0 0 25.4571 0 56.86C0 88.2629 25.4571 113.72 56.86 113.72Z" fill="#C8102E"/>
<path d="M96.53 17.5C94.88 11.49 90.07 9.61 89.86 9.53L89.27 9.29999L77.6901 15.88L76 16.84L77.49 18.09C77.89 18.43 86.75 26.14 79.98 41.26C79.66 41.97 79.31 42.7 78.91 43.45C72.18 56.26 50.46 77.76 43.17 84.78L44.8 39.42H55.77L58.67 31.84H45.0801L45.25 27.19H57.67L60.5701 19.61H45.53L45.9 9.31L32.17 12.23L31.87 19.61H19.5701L16.66 27.19H31.5701L31.38 31.84H21.4601L18.55 39.42H31.0801L28.47 104.39L37.49 102.92L83.24 50.55L83.29 50.49C94.29 36.64 98.75 25.54 96.53 17.49V17.5Z" fill="#F2F2F2"/>
</svg>
