<svg width="34" height="34" viewBox="0 0 34 34" fill="none" xmlns="http://www.w3.org/2000/svg">
<path d="M18.5273 0.996094H31.8086V33.004H18.5273" stroke="#BD171D" stroke-width="1.99218" stroke-miterlimit="22.9256" stroke-linecap="round" stroke-linejoin="round"/>
<path d="M27.8242 6.375V6.38821V33.0039H2.19141V0.996094H22.4453" stroke="#BD171D" stroke-width="1.99218" stroke-miterlimit="22.9256" stroke-linecap="round" stroke-linejoin="round"/>
<path fill-rule="evenodd" clip-rule="evenodd" d="M22.4453 0.996094V6.375H27.8242L22.4453 0.996094Z" stroke="#BD171D" stroke-width="1.99218" stroke-miterlimit="22.9256" stroke-linecap="round" stroke-linejoin="round"/>
<path d="M14.8895 16.8691C11.5971 16.9326 8.93164 19.637 8.93164 22.9442C8.93164 26.2909 11.6611 29.0204 15.0078 29.0204C18.2282 29.0204 20.8773 26.4928 21.0724 23.32" stroke="#BD171D" stroke-width="1.99218" stroke-miterlimit="22.9256" stroke-linecap="round" stroke-linejoin="round"/>
<path fill-rule="evenodd" clip-rule="evenodd" d="M15.0078 22.9434V15.3398C19.2071 15.3398 22.6113 18.744 22.6113 22.9434H15.0078Z" stroke="#BD171D" stroke-width="1.99218" stroke-miterlimit="22.9256" stroke-linecap="round" stroke-linejoin="round"/>
<path d="M15.0078 22.9102L11.123 26.7949" stroke="#BD171D" stroke-width="1.99218" stroke-miterlimit="22.9256" stroke-linecap="round" stroke-linejoin="round"/>
<path d="M6.17578 4.98047H18.4609" stroke="#BD171D" stroke-width="1.99218" stroke-miterlimit="22.9256" stroke-linecap="round" stroke-linejoin="round"/>
<path d="M6.17578 8.96484H18.5273" stroke="#BD171D" stroke-width="1.99218" stroke-miterlimit="22.9256" stroke-linecap="round" stroke-linejoin="round"/>
<path d="M6.17578 12.9492H11.8867" stroke="#BD171D" stroke-width="1.99218" stroke-miterlimit="22.9256" stroke-linecap="round" stroke-linejoin="round"/>
</svg>
