<svg width="34" height="34" viewBox="0 0 34 34" fill="none" xmlns="http://www.w3.org/2000/svg">
<g clip-path="url(#clip0_5161_21053)">
<path d="M7.40216 13.6336C7.38609 13.981 7.09131 14.2497 6.7438 14.2335C6.39637 14.2174 6.12769 13.9227 6.14382 13.5752C6.15996 13.2277 6.45467 12.9591 6.80217 12.9752C7.14961 12.9914 7.41823 13.2861 7.40216 13.6336ZM32.5388 24.1131L30.6487 24.8458C30.4762 24.9127 30.2986 24.9443 30.1238 24.9443C29.5395 24.9443 28.9872 24.5905 28.7637 24.0139L28.5988 23.5887L27.0605 24.2305C27.1347 24.6662 27.0634 25.1192 26.847 25.5126C26.5904 25.9794 26.1652 26.3176 25.6501 26.465C25.6289 26.4712 25.6076 26.4769 25.5862 26.4822C25.7545 26.9893 25.7209 27.5602 25.4461 28.0597C25.0407 28.7969 24.2322 29.1749 23.444 29.0704C23.4676 29.4332 23.3923 29.8055 23.2056 30.1449C22.9497 30.6103 22.5262 30.9479 22.0132 31.0955C21.6925 31.1878 21.3622 31.1984 21.0468 31.1298C21.0571 31.4718 20.9794 31.82 20.8038 32.1394C20.5478 32.6048 20.1061 32.9544 19.5923 33.0984C19.4148 33.1482 19.2348 33.1728 19.0566 33.1728C18.7228 33.1728 18.3948 33.0865 18.0999 32.917L17.5788 32.6178C17.3205 32.9815 16.9506 33.2488 16.5147 33.3809C16.3192 33.4402 16.1195 33.4695 15.9211 33.4695C15.5926 33.4695 15.2675 33.3889 14.9705 33.2301C14.5299 32.9944 14.2047 32.6141 14.0343 32.1702C13.484 32.4042 12.8385 32.3935 12.281 32.0954C11.8862 31.8842 11.5826 31.5529 11.4012 31.1634C10.8212 31.4774 10.1006 31.5044 9.47841 31.1717C8.7004 30.7555 8.30395 29.9012 8.43039 29.0749C8.0882 29.0827 7.74428 29.0049 7.43071 28.8371C6.95451 28.5825 6.60555 28.1561 6.4481 27.6365C6.29065 27.117 6.34424 26.5686 6.59891 26.0924L7.10758 25.1413C6.99389 24.871 6.93784 24.5755 6.88412 24.2867C6.7867 23.7628 6.71087 23.4383 6.47924 23.3484C6.38806 23.3131 6.17185 23.2231 5.37915 22.8697L5.17482 23.3321C5.0179 23.6871 4.73123 23.9601 4.36765 24.1009C4.19626 24.1672 4.01763 24.2003 3.83959 24.2003C3.63991 24.2003 3.44089 24.1587 3.25322 24.0758L1.39916 23.2563C0.664443 22.9314 0.330818 22.0694 0.655545 21.3347L4.91212 11.7034C5.06904 11.3484 5.35578 11.0754 5.71935 10.9347C6.08313 10.794 6.47891 10.8029 6.83378 10.9599L8.68778 11.7793C9.04279 11.9362 9.31585 12.2229 9.4565 12.5865C9.59721 12.9501 9.58825 13.3459 9.4314 13.7009L9.11212 14.4233L10.3189 14.98C10.3318 14.986 10.3445 14.9924 10.3568 14.9994C10.7128 15.1998 11.0776 15.245 11.4746 15.2129C10.1865 13.6866 9.48671 11.7639 9.48671 9.70039V4.05473C9.48671 3.84223 9.61335 3.65019 9.80872 3.56645L16.7907 0.574182C16.9243 0.516939 17.0757 0.516939 17.2093 0.574182L24.1914 3.56645C24.3867 3.65012 24.5134 3.84223 24.5134 4.05473V9.70039C24.5134 11.8188 23.775 13.7909 22.4192 15.3364C23.1777 15.6267 23.7044 15.7614 24.1948 15.5063L25.2471 14.943L24.9575 14.1959C24.6671 13.4469 25.0403 12.6012 25.7893 12.3108L27.6793 11.5781C28.428 11.2878 29.274 11.6608 29.5644 12.4099L33.3706 22.2279C33.661 22.977 33.2878 23.8226 32.5388 24.1131ZM10.5493 9.70033C10.5493 11.7189 11.3113 13.5822 12.7003 14.9788C13.004 14.908 13.3257 14.8362 13.6648 14.7872C12.2111 13.5385 11.3462 11.7325 11.3462 9.70033V5.28079C11.3462 5.06829 11.4728 4.87618 11.6682 4.79251L16.7908 2.59712C16.9244 2.53987 17.0758 2.53987 17.2094 2.59712L22.3321 4.79251C22.5274 4.87624 22.6541 5.06829 22.6541 5.28079V9.70033C22.6541 11.6397 21.8565 13.4122 20.4661 14.6709C20.7768 14.7375 21.072 14.8274 21.3522 14.9258C22.7078 13.5353 23.451 11.6924 23.451 9.70039V4.40503L17.0001 1.64047L10.5493 4.40503V9.70033ZM18.7587 14.6073C20.5598 13.5637 21.5914 11.7801 21.5914 9.70033V5.63115L17.0001 3.6634L12.4087 5.63108V9.70033C12.4087 12.3875 14.2151 14.6081 16.924 15.2839C17.5783 14.9008 18.1889 14.6943 18.7587 14.6073ZM8.45961 13.2713C8.50184 13.1758 8.50397 13.0688 8.46572 12.9698C8.4274 12.8709 8.35376 12.7932 8.25833 12.751L6.40427 11.9316C6.20565 11.8439 5.9719 11.9339 5.88398 12.1329L1.62713 21.7641C1.53921 21.963 1.62953 22.1965 1.82848 22.2844L3.68254 23.1038C3.77803 23.146 3.88508 23.1481 3.98396 23.1098C4.08284 23.0715 4.1606 22.9978 4.20277 22.9024L8.45961 13.2713ZM8.98037 27.8096L10.1946 25.708C10.3943 25.2486 10.2086 24.7085 9.76562 24.4721C9.2956 24.2213 8.70936 24.3988 8.45841 24.8679L7.53563 26.5934C7.41477 26.8193 7.3896 27.0804 7.46471 27.3283C7.53988 27.5762 7.7057 27.7793 7.93161 27.9001C8.26823 28.0802 8.68041 28.0421 8.98037 27.8096ZM11.2892 29.833L12.6305 27.2353C12.7115 26.8234 12.5118 26.3919 12.141 26.194C11.8013 26.0127 11.3862 26.0525 11.086 26.2891L9.58333 28.928C9.33232 29.3974 9.50996 29.9836 9.97945 30.2347C10.4483 30.4854 11.0358 30.3053 11.2892 29.833ZM14.0043 30.892L15.1939 28.6055C15.2745 28.1939 15.0748 27.7628 14.7043 27.565C14.3348 27.3678 13.8681 27.4388 13.571 27.7298L12.2751 30.2394C12.2497 30.6167 12.4466 30.979 12.782 31.1584C13.199 31.3814 13.7189 31.2659 14.0043 30.892ZM16.7783 31.8971L17.6632 30.2424C17.8374 29.9167 17.8072 29.512 17.5862 29.2114C17.5017 29.0965 17.3944 29.0038 17.2672 28.9358C16.8979 28.7384 16.4307 28.8098 16.1335 29.1014L14.9672 31.3431C14.928 31.7322 15.1243 32.1075 15.4716 32.2931C15.6974 32.4139 15.9584 32.4391 16.2064 32.364C16.4543 32.2889 16.6575 32.1231 16.7783 31.8971ZM19.5074 30.3698C19.4788 30.3537 18.8278 29.9752 18.8278 29.9752C18.8039 30.2404 18.7292 30.5021 18.6002 30.7435L18.0946 31.6888L18.6289 31.9957C18.8321 32.1124 19.0725 32.1407 19.3055 32.0754C19.5465 32.0078 19.7533 31.8445 19.8728 31.6273C20.1168 31.1836 19.9529 30.6196 19.5074 30.3698ZM25.9331 24.1576C25.8487 23.9836 25.7146 23.8407 25.5454 23.7442L20.5186 20.879C19.665 20.3924 18.5986 20.8242 17.364 21.324C16.4409 21.6977 15.4033 22.1176 14.352 22.1177C13.3247 22.1178 12.2845 21.7171 11.3237 20.4809C11.199 20.3208 11.1493 20.1143 11.1878 19.9149C11.2262 19.7154 11.3491 19.5421 11.525 19.4394C12.9426 18.6121 14.1398 17.709 15.0835 16.7553C15.3352 16.5009 15.5815 16.2738 15.8225 16.0707C14.7357 15.5939 13.8062 15.811 12.8315 16.0393C11.8681 16.265 10.8722 16.4984 9.8554 15.9362L8.68247 15.3951L5.8084 21.8978C6.51995 22.2149 6.77787 22.3246 6.86353 22.3578C7.57176 22.6327 7.77297 23.3092 7.88739 23.8777C8.50304 23.273 9.46507 23.1073 10.2659 23.5347C10.8591 23.8513 11.2335 24.4268 11.3187 25.0522C11.7607 24.971 12.2274 25.0358 12.6412 25.2567C13.1385 25.5221 13.4867 25.9701 13.6342 26.4831C14.1421 26.3215 14.7073 26.3624 15.2044 26.6276C15.7017 26.893 16.0499 27.3409 16.1974 27.8539C16.7055 27.6922 17.271 27.733 17.768 27.9986C18.0053 28.1255 18.21 28.2939 18.3781 28.4997L21.0242 29.9975C21.2358 30.1151 21.4825 30.1424 21.7191 30.0744C21.9585 30.0054 22.1557 29.8486 22.2744 29.6328C22.5171 29.1916 22.352 28.6286 21.9063 28.3778C21.8773 28.3615 18.1928 26.2776 18.1928 26.2776C17.9371 26.1337 17.8465 25.8098 17.9904 25.554C18.1343 25.2984 18.4581 25.2077 18.7139 25.3515L23.2628 27.9112C23.7081 28.156 24.27 27.9929 24.5149 27.5475C24.7576 27.1063 24.5925 26.5433 24.1468 26.2925C24.1467 26.2925 24.147 26.2926 24.1468 26.2925C23.0794 25.6947 21.8693 25.0169 20.6837 24.3382C20.4291 24.1924 20.3409 23.8678 20.4866 23.6132C20.6323 23.3586 20.9567 23.2702 21.2116 23.4161C22.3934 24.0927 23.6013 24.7692 24.667 25.3662C24.8766 25.4835 25.1217 25.5111 25.3575 25.4436C25.5983 25.3747 25.7966 25.2173 25.9158 25.0007C26.06 24.7388 26.0662 24.4316 25.9331 24.1576ZM28.2145 22.5977L25.634 15.9411L24.6906 16.446C23.6668 16.9786 22.6648 16.5797 21.6957 16.1941C20.0867 15.5536 18.4227 14.8915 15.8387 17.5028C14.9127 18.4387 13.7659 19.3245 12.4258 20.1396C13.8017 21.6201 15.275 21.0235 16.9652 20.3393C18.331 19.7862 19.7436 19.2145 21.0447 19.956L26.0715 22.8212C26.2779 22.9388 26.4596 23.0896 26.6105 23.267L28.2145 22.5977ZM32.3799 22.612L28.5738 12.7939C28.5133 12.6378 28.3637 12.542 28.2055 12.542C28.1582 12.542 28.11 12.5506 28.0633 12.5687L26.1733 13.3014C25.9705 13.38 25.8695 13.609 25.9481 13.8118L29.7542 23.6299C29.8329 23.8327 30.062 23.9338 30.2647 23.8552L32.1548 23.1224C32.3576 23.0437 32.4585 22.8148 32.3799 22.612ZM27.6175 13.5929C27.2706 13.5929 26.9876 13.8758 26.9876 14.2228C26.9876 14.5697 27.2706 14.8527 27.6175 14.8527C27.9644 14.8527 28.2473 14.5697 28.2473 14.2228C28.2473 13.8758 27.9644 13.5929 27.6175 13.5929ZM17.2256 12.0961C16.9642 12.3574 16.6167 12.5013 16.247 12.5013C15.8774 12.5013 15.5298 12.3574 15.2685 12.0961L13.3793 10.2068C12.8398 9.66726 12.8397 8.7893 13.3793 8.24975C13.6406 7.98837 13.9881 7.84447 14.3578 7.84447C14.7275 7.84447 15.0751 7.98837 15.3364 8.24975L16.2432 9.15666L18.6629 6.71297C18.9226 6.45067 19.2691 6.30551 19.6384 6.30411H19.6438C20.0118 6.30411 20.3578 6.44682 20.6189 6.7064C21.1583 7.24283 21.1612 8.11926 20.6253 8.66014C20.2043 9.08501 19.7843 9.511 19.3644 9.937C18.6653 10.646 17.9423 11.3793 17.2256 12.0961ZM16.4742 11.3447C17.1884 10.6306 17.91 9.89875 18.6077 9.19099C19.0284 8.7644 19.4489 8.3378 19.8706 7.91227C19.9948 7.78683 19.9944 7.58389 19.8697 7.45978C19.8088 7.39935 19.728 7.3688 19.6425 7.36661C19.5574 7.36694 19.4776 7.40035 19.4178 7.46064L16.6226 10.2837C16.5232 10.3841 16.3878 10.4408 16.2464 10.4412C16.246 10.4412 16.2455 10.4412 16.2451 10.4412C16.1042 10.4412 15.9691 10.3852 15.8694 10.2856L14.585 9.00113C14.5244 8.94044 14.4436 8.90704 14.3577 8.90704C14.2719 8.90704 14.1911 8.94044 14.1305 9.00113C14.0052 9.12644 14.0051 9.33038 14.1305 9.45562L16.0197 11.3448C16.0803 11.4055 16.1611 11.4389 16.2469 11.4389C16.3329 11.4388 16.4136 11.4054 16.4742 11.3447Z" fill="#BD171D"/>
<path d="M24.1468 26.2925C24.5925 26.5433 24.7576 27.1063 24.5149 27.5475C24.27 27.9929 23.7081 28.156 23.2628 27.9112L18.7139 25.3515C18.4581 25.2077 18.1343 25.2984 17.9904 25.554C17.8465 25.8098 17.9371 26.1337 18.1928 26.2776C18.1928 26.2776 21.8773 28.3615 21.9063 28.3778C22.352 28.6286 22.5171 29.1916 22.2744 29.6328C22.1557 29.8486 21.9585 30.0054 21.7191 30.0744C21.4825 30.1424 21.2358 30.1151 21.0242 29.9975L18.3781 28.4997C18.21 28.2939 18.0053 28.1255 17.768 27.9986C17.271 27.733 16.7055 27.6922 16.1974 27.8539C16.0499 27.3409 15.7017 26.893 15.2044 26.6276C14.7073 26.3624 14.1421 26.3215 13.6342 26.4831C13.4867 25.9701 13.1385 25.5221 12.6412 25.2567C12.2274 25.0358 11.7607 24.971 11.3187 25.0522C11.2335 24.4268 10.8591 23.8513 10.2659 23.5347C9.46507 23.1073 8.50304 23.273 7.88739 23.8777C7.77297 23.3092 7.57176 22.6327 6.86353 22.3578C6.77787 22.3246 6.51995 22.2149 5.80841 21.8978L8.68247 15.3951L9.8554 15.9362C10.8722 16.4984 11.8681 16.265 12.8315 16.0393C13.8062 15.811 14.7357 15.5939 15.8225 16.0707C15.5815 16.2738 15.3352 16.5009 15.0835 16.7553C14.1398 17.709 12.9426 18.6121 11.525 19.4394C11.3491 19.5421 11.2262 19.7154 11.1878 19.9149C11.1493 20.1143 11.199 20.3208 11.3237 20.4809C12.2845 21.7171 13.3247 22.1178 14.352 22.1177C15.4033 22.1176 16.4409 21.6977 17.364 21.324C18.5986 20.8242 19.665 20.3924 20.5186 20.879L25.5454 23.7442C25.7146 23.8407 25.8487 23.9836 25.9331 24.1576C26.0662 24.4316 26.06 24.7388 25.9158 25.0007C25.7966 25.2173 25.5983 25.3747 25.3575 25.4436C25.1217 25.5111 24.8766 25.4835 24.667 25.3662C23.6013 24.7692 22.3934 24.0927 21.2116 23.4161C20.9567 23.2702 20.6323 23.3586 20.4866 23.6132C20.3409 23.8678 20.4291 24.1924 20.6837 24.3382C21.8693 25.0169 23.0794 25.6947 24.1468 26.2925ZM24.1468 26.2925C24.1467 26.2925 24.147 26.2926 24.1468 26.2925ZM7.40216 13.6336C7.38608 13.981 7.09131 14.2497 6.7438 14.2335C6.39637 14.2174 6.12769 13.9227 6.14382 13.5752C6.15996 13.2277 6.45467 12.9591 6.80217 12.9752C7.14961 12.9914 7.41823 13.2861 7.40216 13.6336ZM32.5388 24.1131L30.6487 24.8458C30.4762 24.9127 30.2986 24.9443 30.1238 24.9443C29.5395 24.9443 28.9872 24.5905 28.7637 24.0139L28.5988 23.5887L27.0605 24.2305C27.1347 24.6662 27.0634 25.1192 26.847 25.5126C26.5904 25.9794 26.1652 26.3176 25.6501 26.465C25.6289 26.4712 25.6076 26.4769 25.5862 26.4822C25.7545 26.9893 25.7209 27.5602 25.4461 28.0597C25.0407 28.7969 24.2322 29.1749 23.444 29.0704C23.4676 29.4332 23.3923 29.8055 23.2056 30.1449C22.9497 30.6103 22.5262 30.9479 22.0132 31.0955C21.6925 31.1878 21.3622 31.1984 21.0468 31.1298C21.0571 31.4718 20.9794 31.82 20.8038 32.1394C20.5478 32.6048 20.1061 32.9544 19.5923 33.0984C19.4148 33.1482 19.2348 33.1728 19.0566 33.1728C18.7228 33.1728 18.3948 33.0865 18.0999 32.917L17.5788 32.6178C17.3205 32.9815 16.9506 33.2488 16.5147 33.3809C16.3192 33.4402 16.1195 33.4695 15.9211 33.4695C15.5926 33.4695 15.2675 33.3889 14.9705 33.2301C14.5299 32.9944 14.2047 32.6141 14.0343 32.1702C13.484 32.4042 12.8385 32.3935 12.281 32.0954C11.8862 31.8842 11.5826 31.5529 11.4012 31.1634C10.8212 31.4774 10.1006 31.5044 9.47841 31.1717C8.7004 30.7555 8.30395 29.9012 8.43039 29.0749C8.0882 29.0827 7.74428 29.0049 7.43071 28.8371C6.95451 28.5825 6.60555 28.1561 6.4481 27.6365C6.29065 27.117 6.34424 26.5686 6.5989 26.0924L7.10758 25.1413C6.99389 24.871 6.93784 24.5755 6.88412 24.2867C6.7867 23.7628 6.71087 23.4383 6.47924 23.3484C6.38806 23.3131 6.17185 23.2231 5.37915 22.8697L5.17482 23.3321C5.0179 23.6871 4.73123 23.9601 4.36765 24.1009C4.19626 24.1672 4.01763 24.2003 3.83959 24.2003C3.63991 24.2003 3.44089 24.1587 3.25322 24.0758L1.39916 23.2563C0.664443 22.9314 0.330818 22.0694 0.655545 21.3347L4.91212 11.7034C5.06904 11.3484 5.35578 11.0754 5.71935 10.9347C6.08313 10.794 6.47891 10.8029 6.83378 10.9599L8.68778 11.7793C9.04279 11.9362 9.31585 12.2229 9.4565 12.5865C9.59721 12.9501 9.58825 13.3459 9.4314 13.7009L9.11212 14.4233L10.3189 14.98C10.3318 14.986 10.3445 14.9924 10.3568 14.9994C10.7128 15.1998 11.0776 15.245 11.4746 15.2129C10.1865 13.6866 9.48671 11.7639 9.48671 9.70039V4.05473C9.48671 3.84223 9.61335 3.65019 9.80872 3.56645L16.7907 0.574182C16.9243 0.516939 17.0757 0.516939 17.2093 0.574182L24.1914 3.56645C24.3867 3.65012 24.5134 3.84223 24.5134 4.05473V9.70039C24.5134 11.8188 23.7749 13.7909 22.4192 15.3364C23.1777 15.6267 23.7044 15.7614 24.1948 15.5063L25.2471 14.943L24.9575 14.1959C24.6671 13.4469 25.0403 12.6012 25.7893 12.3108L27.6793 11.5781C28.428 11.2878 29.2741 11.6608 29.5644 12.4099L33.3706 22.2279C33.661 22.977 33.2878 23.8226 32.5388 24.1131ZM10.5493 9.70033C10.5493 11.7189 11.3113 13.5822 12.7003 14.9788C13.004 14.908 13.3257 14.8362 13.6648 14.7872C12.2111 13.5385 11.3462 11.7325 11.3462 9.70033V5.28079C11.3462 5.06829 11.4728 4.87618 11.6682 4.79251L16.7908 2.59712C16.9244 2.53987 17.0758 2.53987 17.2094 2.59712L22.3321 4.79251C22.5274 4.87624 22.6541 5.06829 22.6541 5.28079V9.70033C22.6541 11.6397 21.8565 13.4122 20.4661 14.6709C20.7768 14.7375 21.072 14.8274 21.3522 14.9258C22.7078 13.5353 23.451 11.6924 23.451 9.70039V4.40503L17.0001 1.64047L10.5493 4.40503V9.70033ZM18.7587 14.6073C20.5598 13.5637 21.5914 11.7801 21.5914 9.70033V5.63115L17.0001 3.6634L12.4087 5.63108V9.70033C12.4087 12.3875 14.2151 14.6081 16.924 15.2839C17.5783 14.9008 18.1889 14.6943 18.7587 14.6073ZM8.45961 13.2713C8.50184 13.1758 8.50397 13.0688 8.46572 12.9698C8.4274 12.8709 8.35376 12.7932 8.25833 12.751L6.40427 11.9316C6.20565 11.8439 5.9719 11.9339 5.88398 12.1329L1.62713 21.7641C1.53921 21.963 1.62953 22.1965 1.82848 22.2844L3.68254 23.1038C3.77803 23.146 3.88508 23.1481 3.98396 23.1098C4.08284 23.0715 4.1606 22.9978 4.20277 22.9024L8.45961 13.2713ZM8.98037 27.8096L10.1946 25.708C10.3943 25.2486 10.2086 24.7085 9.76562 24.4721C9.2956 24.2213 8.70936 24.3988 8.45841 24.8679L7.53563 26.5934C7.41477 26.8193 7.3896 27.0804 7.46471 27.3283C7.53988 27.5762 7.7057 27.7793 7.93161 27.9001C8.26823 28.0802 8.68041 28.0421 8.98037 27.8096ZM11.2892 29.833L12.6305 27.2353C12.7115 26.8234 12.5118 26.3919 12.141 26.194C11.8013 26.0127 11.3862 26.0525 11.086 26.2891L9.58334 28.928C9.33232 29.3974 9.50996 29.9836 9.97945 30.2347C10.4483 30.4854 11.0358 30.3053 11.2892 29.833ZM14.0043 30.892L15.1939 28.6055C15.2745 28.1939 15.0748 27.7628 14.7043 27.565C14.3348 27.3678 13.8681 27.4388 13.571 27.7298L12.2751 30.2394C12.2497 30.6167 12.4466 30.979 12.782 31.1584C13.199 31.3814 13.7189 31.2659 14.0043 30.892ZM16.7783 31.8971L17.6632 30.2424C17.8374 29.9167 17.8072 29.512 17.5862 29.2114C17.5017 29.0965 17.3944 29.0038 17.2672 28.9358C16.8979 28.7384 16.4307 28.8098 16.1335 29.1014L14.9672 31.3431C14.928 31.7322 15.1243 32.1075 15.4716 32.2931C15.6974 32.4139 15.9584 32.4391 16.2064 32.364C16.4543 32.2889 16.6575 32.1231 16.7783 31.8971ZM19.5074 30.3698C19.4788 30.3537 18.8278 29.9752 18.8278 29.9752C18.8039 30.2404 18.7292 30.5021 18.6002 30.7435L18.0946 31.6888L18.6289 31.9957C18.8321 32.1124 19.0725 32.1407 19.3055 32.0754C19.5465 32.0078 19.7533 31.8445 19.8728 31.6273C20.1168 31.1836 19.9529 30.6196 19.5074 30.3698ZM28.2145 22.5977L25.634 15.9411L24.6906 16.446C23.6668 16.9786 22.6648 16.5797 21.6957 16.1941C20.0867 15.5536 18.4227 14.8915 15.8387 17.5028C14.9127 18.4387 13.7659 19.3245 12.4258 20.1396C13.8017 21.6201 15.275 21.0235 16.9652 20.3393C18.331 19.7862 19.7436 19.2145 21.0447 19.956L26.0715 22.8212C26.2779 22.9388 26.4596 23.0896 26.6105 23.267L28.2145 22.5977ZM32.3799 22.612L28.5738 12.7939C28.5133 12.6378 28.3637 12.542 28.2055 12.542C28.1582 12.542 28.11 12.5506 28.0633 12.5687L26.1733 13.3014C25.9705 13.38 25.8695 13.609 25.9481 13.8118L29.7542 23.6299C29.8329 23.8327 30.062 23.9338 30.2647 23.8552L32.1548 23.1224C32.3576 23.0437 32.4585 22.8148 32.3799 22.612ZM27.6175 13.5929C27.2706 13.5929 26.9876 13.8758 26.9876 14.2228C26.9876 14.5697 27.2706 14.8527 27.6175 14.8527C27.9644 14.8527 28.2473 14.5697 28.2473 14.2228C28.2473 13.8758 27.9644 13.5929 27.6175 13.5929ZM17.2256 12.0961C16.9642 12.3574 16.6167 12.5013 16.247 12.5013C15.8774 12.5013 15.5298 12.3574 15.2685 12.0961L13.3793 10.2068C12.8398 9.66726 12.8397 8.7893 13.3793 8.24975C13.6406 7.98837 13.9881 7.84447 14.3578 7.84447C14.7275 7.84447 15.0751 7.98837 15.3364 8.24975L16.2432 9.15666L18.6629 6.71297C18.9226 6.45067 19.2691 6.30551 19.6384 6.30411H19.6438C20.0118 6.30411 20.3578 6.44682 20.6189 6.7064C21.1583 7.24283 21.1612 8.11926 20.6253 8.66014C20.2043 9.08501 19.7843 9.511 19.3644 9.937C18.6653 10.646 17.9423 11.3793 17.2256 12.0961ZM16.4742 11.3447C17.1884 10.6306 17.9099 9.89875 18.6077 9.19099C19.0284 8.7644 19.4489 8.3378 19.8706 7.91227C19.9948 7.78683 19.9944 7.58389 19.8697 7.45978C19.8088 7.39935 19.728 7.3688 19.6425 7.36661C19.5574 7.36694 19.4776 7.40035 19.4178 7.46064L16.6226 10.2837C16.5232 10.3841 16.3878 10.4408 16.2464 10.4412C16.246 10.4412 16.2455 10.4412 16.2451 10.4412C16.1042 10.4412 15.9691 10.3852 15.8694 10.2856L14.585 9.00113C14.5244 8.94044 14.4436 8.90704 14.3577 8.90704C14.2719 8.90704 14.1911 8.94044 14.1305 9.00113C14.0052 9.12644 14.0051 9.33038 14.1305 9.45562L16.0197 11.3448C16.0803 11.4055 16.1611 11.4389 16.2469 11.4389C16.3329 11.4388 16.4136 11.4054 16.4742 11.3447Z" stroke="#BD171D" stroke-width="0.5"/>
</g>
<defs>
<clipPath id="clip0_5161_21053">
<rect width="34" height="34" fill="white"/>
</clipPath>
</defs>
</svg>
