<svg width="34" height="34" viewBox="0 0 34 34" fill="none" xmlns="http://www.w3.org/2000/svg">
<path d="M31.2301 30.5929V30.5928V10.4629H25.4927V30.5928H23.6558V19.0124H17.9185V30.5928H16.0816V15.7555H10.3442V30.5928H8.50731V23.4004H2.76994V30.5929H0V32.5851H34V30.5929H31.2301ZM6.51512 30.5929H4.76213V25.3925H6.51512V30.5929ZM14.0893 30.5928H12.3364V17.7477H14.0893V30.5928ZM21.6636 30.5928H19.9107V21.0046H21.6636V30.5928ZM29.2379 30.5928H27.4849V12.4551H29.2379V30.5928Z" fill="#BD171D"/>
<path d="M28.3622 1.41602C26.5438 1.41602 25.0644 2.89541 25.0644 4.71388C25.0644 5.33199 25.2356 5.91066 25.5327 6.40565L22.1264 10.2506C21.7171 10.068 21.2644 9.96562 20.788 9.96562C19.7934 9.96562 18.9009 10.4089 18.2957 11.1075L16.4953 10.3333C16.5059 10.2257 16.5116 10.1168 16.5116 10.0065C16.5116 8.18812 15.0322 6.70866 13.2138 6.70866C11.3953 6.70866 9.91596 8.18806 9.91596 10.0065C9.91596 10.5629 10.055 11.0873 10.2994 11.5476L7.13394 14.7131C6.68497 14.4838 6.17736 14.3535 5.6396 14.3535C3.8212 14.3535 2.3418 15.8329 2.3418 17.6513C2.3418 19.4697 3.82113 20.9491 5.63953 20.9491C7.45793 20.9491 8.9374 19.4698 8.9374 17.6513C8.9374 17.0949 8.79834 16.5705 8.55397 16.1103L11.7194 12.9448C12.1684 13.1741 12.676 13.3043 13.2138 13.3043C14.2084 13.3043 15.1009 12.8611 15.7061 12.1625L17.5065 12.9366C17.4958 13.0442 17.4901 13.1531 17.4901 13.2634C17.4901 15.0818 18.9695 16.5613 20.788 16.5613C22.6065 16.5613 24.0858 15.0819 24.0858 13.2634C24.0858 12.6453 23.9145 12.0666 23.6175 11.5717L27.0238 7.72673C27.4331 7.90929 27.8858 8.01168 28.3622 8.01168C30.1806 8.01168 31.66 6.53228 31.66 4.71388C31.66 2.89548 30.1806 1.41602 28.3622 1.41602ZM5.63953 18.957C4.91955 18.957 4.33392 18.3713 4.33392 17.6513C4.33392 16.9314 4.91962 16.3457 5.63953 16.3457C6.35944 16.3457 6.94521 16.9314 6.94521 17.6513C6.94521 18.3713 6.35951 18.957 5.63953 18.957ZM13.2138 11.3121C12.4938 11.3121 11.9081 10.7264 11.9081 10.0065C11.9081 9.28662 12.4939 8.70085 13.2138 8.70085C13.9337 8.70085 14.5194 9.28655 14.5194 10.0065C14.5194 10.7265 13.9337 11.3121 13.2138 11.3121ZM20.7881 14.5692C20.0681 14.5692 19.4824 13.9835 19.4824 13.2635C19.4824 12.5435 20.0681 11.9579 20.7881 11.9579C21.508 11.9579 22.0937 12.5436 22.0937 13.2635C22.0937 13.9834 21.508 14.5692 20.7881 14.5692ZM28.3623 6.01956C27.6424 6.01956 27.0566 5.43386 27.0566 4.71395C27.0566 3.99404 27.6424 3.40827 28.3623 3.40827C29.0822 3.40827 29.6679 3.99397 29.6679 4.71395C29.6679 5.43393 29.0822 6.01956 28.3623 6.01956Z" fill="#BD171D"/>
</svg>
