<svg width="34" height="34" viewBox="0 0 34 34" fill="none" xmlns="http://www.w3.org/2000/svg">
<g clip-path="url(#clip0_5161_21003)">
<path d="M5.37891 32.373H28.5547" stroke="#BD171D" stroke-width="1.99219" stroke-miterlimit="22.9256" stroke-linecap="round" stroke-linejoin="round"/>
<path d="M27.8242 23.9727V32.373H31.8086V23.707" stroke="#BD171D" stroke-width="1.99219" stroke-miterlimit="22.9256" stroke-linecap="round" stroke-linejoin="round"/>
<path d="M20.1875 19.0254H28.9531" stroke="#BD171D" stroke-width="1.99219" stroke-miterlimit="22.9256" stroke-linecap="round" stroke-linejoin="round"/>
<path d="M4.78125 19.0254H13.8789" stroke="#BD171D" stroke-width="1.99219" stroke-miterlimit="22.9256" stroke-linecap="round" stroke-linejoin="round"/>
<path d="M25.998 6.14258H28.1562C29.5258 6.14258 30.6465 7.26318 30.6465 8.63281C30.6465 10.0024 29.5259 11.123 28.1562 11.123H27.5586" stroke="#BD171D" stroke-width="1.99219" stroke-miterlimit="22.9256" stroke-linecap="round" stroke-linejoin="round"/>
<path d="M7.70312 6.14258H5.84375C4.47419 6.14258 3.35352 7.26318 3.35352 8.63281C3.35352 10.0024 4.47412 11.123 5.84375 11.123H6.44141" stroke="#BD171D" stroke-width="1.99219" stroke-miterlimit="22.9256" stroke-linecap="round" stroke-linejoin="round"/>
<path d="M20.1211 15.1406V18.5287C20.1211 20.2453 18.7166 21.6498 17 21.6498C15.2834 21.6498 13.8789 20.2453 13.8789 18.5287V15.0742" stroke="#BD171D" stroke-width="1.99219" stroke-miterlimit="22.9256" stroke-linecap="round" stroke-linejoin="round"/>
<path fill-rule="evenodd" clip-rule="evenodd" d="M15.7065 1.62695H18.2923C22.3434 1.62695 25.7631 4.30312 26.7367 8.23544L27.4224 11.0048C27.6711 12.0091 27.464 12.9777 26.8263 13.7924C26.1887 14.6072 25.2983 15.0411 24.2637 15.0411H9.73557C8.70103 15.0411 7.81072 14.6073 7.17309 13.7927C6.53545 12.978 6.32827 12.0096 6.57676 11.0054L7.2618 8.23683C8.23499 4.30386 11.655 1.62695 15.7065 1.62695Z" stroke="#BD171D" stroke-width="1.99219" stroke-miterlimit="22.9256" stroke-linecap="round" stroke-linejoin="round"/>
<path d="M11.0898 8.99805H22.9102" stroke="#BD171D" stroke-width="1.99219" stroke-miterlimit="22.9256" stroke-linecap="round" stroke-linejoin="round"/>
<path d="M11.7539 32.0413V26.5898H22.2461V32.0413" stroke="#BD171D" stroke-width="1.99219" stroke-miterlimit="22.9256" stroke-linecap="round" stroke-linejoin="round"/>
<path fill-rule="evenodd" clip-rule="evenodd" d="M27.8242 19.0254H30.5137C31.8832 19.0254 33.004 20.146 33.004 21.5156C33.004 22.8853 31.8834 24.0059 30.5137 24.0059H27.8242V19.0254Z" stroke="#BD171D" stroke-width="1.99219" stroke-miterlimit="22.9256" stroke-linecap="round" stroke-linejoin="round"/>
<path d="M2.19141 23.6406V32.373H6.17578V23.7734" stroke="#BD171D" stroke-width="1.99219" stroke-miterlimit="22.9256" stroke-linecap="round" stroke-linejoin="round"/>
<path fill-rule="evenodd" clip-rule="evenodd" d="M6.17585 19.0254H3.48633C2.11683 19.0254 0.996094 20.146 0.996094 21.5156C0.996094 22.8853 2.1167 24.0059 3.48633 24.0059H6.17585V19.0254Z" stroke="#BD171D" stroke-width="1.99219" stroke-miterlimit="22.9256" stroke-linecap="round" stroke-linejoin="round"/>
</g>
<defs>
<clipPath id="clip0_5161_21003">
<rect width="34" height="34" fill="white"/>
</clipPath>
</defs>
</svg>
