<svg width="34" height="34" viewBox="0 0 34 34" fill="none" xmlns="http://www.w3.org/2000/svg">
<path d="M16.9993 4.25C10.7377 4.25 5.66602 6.78583 5.66602 9.91667V24.0833C5.66602 27.2142 10.7518 29.75 16.9993 29.75C23.2468 29.75 28.3327 27.2142 28.3327 24.0833V9.91667C28.3327 6.78583 23.261 4.25 16.9993 4.25ZM25.4993 24.0833C25.4993 24.7917 22.4818 26.9167 16.9993 26.9167C11.5168 26.9167 8.49935 24.7917 8.49935 24.0833V20.9242C10.7802 22.0292 13.7693 22.6667 16.9993 22.6667C20.2293 22.6667 23.2185 22.0292 25.4993 20.9242V24.0833ZM25.4993 17.6375C23.6577 18.9833 20.4277 19.8333 16.9993 19.8333C13.571 19.8333 10.341 18.9833 8.49935 17.6375V13.6567C10.5818 14.8325 13.6135 15.5833 16.9993 15.5833C20.3852 15.5833 23.4168 14.8325 25.4993 13.6567V17.6375ZM16.9993 12.75C11.5168 12.75 8.49935 10.625 8.49935 9.91667C8.49935 9.20833 11.5168 7.08333 16.9993 7.08333C22.4818 7.08333 25.4993 9.20833 25.4993 9.91667C25.4993 10.625 22.4818 12.75 16.9993 12.75Z" fill="#BD171D"/>
</svg>
