<svg width="34" height="34" viewBox="0 0 34 34" fill="none" xmlns="http://www.w3.org/2000/svg">
<g clip-path="url(#clip0_5177_19793)">
<path d="M30.9453 28.4219C30.4414 28.4219 29.972 28.5709 29.5776 28.8264L24.8146 24.0634L25.3949 23.4831C25.5503 23.3277 25.594 23.0927 25.5048 22.8918L24.8958 21.5207C25.2815 20.8484 25.5784 20.1325 25.7808 19.3862L27.1799 18.8477C27.385 18.7688 27.5203 18.5717 27.5203 18.3519V15.6482C27.5203 15.4284 27.3849 15.2313 27.1799 15.1524L25.7812 14.614C25.5787 13.8672 25.2818 13.1512 24.896 12.4789L25.5048 11.1082C25.594 10.9074 25.5503 10.6723 25.3949 10.517L24.8147 9.9367L29.5777 5.17371C29.972 5.42911 30.4414 5.57812 30.9453 5.57812C32.3367 5.57812 33.4688 4.4461 33.4688 3.05469C33.4688 1.66328 32.3367 0.53125 30.9453 0.53125C29.5538 0.53125 28.4219 1.66328 28.4219 3.05469C28.4219 3.55858 28.5709 4.028 28.8264 4.42239L24.0634 9.18538L23.4831 8.60512C23.3277 8.44973 23.0926 8.40603 22.8918 8.49522L21.5207 9.10416C20.8484 8.71841 20.1326 8.42164 19.3862 8.21923L18.8476 6.82006C18.7687 6.61493 18.5716 6.47966 18.3518 6.47966H17.5312V5.52141C18.6684 5.27671 19.5234 4.26388 19.5234 3.05469C19.5234 1.66328 18.3914 0.53125 17 0.53125C15.6086 0.53125 14.4766 1.66328 14.4766 3.05469C14.4766 4.26388 15.3316 5.27671 16.4688 5.52141V6.47972H15.6482C15.4284 6.47972 15.2313 6.61506 15.1524 6.82012L14.6138 8.2193C13.8673 8.42177 13.1516 8.71854 12.4793 9.1043L11.1081 8.49535C10.9073 8.40617 10.6722 8.44986 10.5168 8.60525L9.93657 9.18551L5.17364 4.42239C5.42911 4.028 5.57812 3.55858 5.57812 3.05469C5.57812 1.66328 4.44616 0.53125 3.05469 0.53125C1.66328 0.53125 0.53125 1.66328 0.53125 3.05469C0.53125 4.44616 1.66328 5.57812 3.05469 5.57812C3.55858 5.57812 4.028 5.42911 4.42239 5.17364L9.18531 9.93657L8.60499 10.5169C8.4496 10.6723 8.4059 10.9073 8.49515 11.1082L9.10403 12.4792C8.71821 13.1514 8.42144 13.8673 8.21904 14.6139L6.82006 15.1524C6.61493 15.2313 6.47966 15.4284 6.47966 15.6482V18.3518C6.47966 18.5716 6.61499 18.7687 6.82006 18.8476L8.21877 19.386C8.42131 20.133 8.71814 20.849 9.1039 21.5212L8.49515 22.8918C8.4059 23.0926 8.4496 23.3277 8.60499 23.483L9.18531 24.0634L4.42239 28.8263C4.028 28.5709 3.55858 28.4219 3.05469 28.4219C1.66328 28.4219 0.53125 29.5539 0.53125 30.9453C0.53125 32.3367 1.66328 33.4688 3.05469 33.4688C4.44616 33.4688 5.57812 32.3367 5.57812 30.9453C5.57812 30.4414 5.42911 29.972 5.17364 29.5776L9.93657 24.8147L10.5168 25.3949C10.6722 25.5503 10.9072 25.594 11.1081 25.5048L12.4793 24.8959C13.1516 25.2816 13.8674 25.5784 14.6138 25.7808L15.1523 27.1799C15.2312 27.3851 15.4283 27.5203 15.6481 27.5203H16.4688V28.4787C15.3317 28.7234 14.4766 29.7362 14.4766 30.9454C14.4766 32.3368 15.6086 33.4688 17 33.4688C18.3915 33.4688 19.5234 32.3368 19.5234 30.9454C19.5234 29.7362 18.6683 28.7234 17.5312 28.4787V27.5203H18.3518C18.5716 27.5203 18.7686 27.385 18.8476 27.1799L19.3859 25.7812C20.1328 25.5787 20.8488 25.2819 21.5211 24.8961L22.8916 25.5048C23.0925 25.594 23.3275 25.5504 23.4829 25.395L24.0632 24.8148L28.8262 29.5777C28.5708 29.972 28.4219 30.4414 28.4219 30.9453C28.4219 32.3367 29.5539 33.4688 30.9453 33.4688C32.3367 33.4688 33.4688 32.3367 33.4688 30.9453C33.4688 29.5538 32.3367 28.4219 30.9453 28.4219ZM30.9453 1.59375C31.7509 1.59375 32.4062 2.24911 32.4062 3.05469C32.4062 3.86026 31.7509 4.51562 30.9453 4.51562C30.1397 4.51562 29.4844 3.86026 29.4844 3.05469C29.4844 2.24911 30.1397 1.59375 30.9453 1.59375ZM15.5391 3.05469C15.5391 2.24911 16.1944 1.59375 17 1.59375C17.8056 1.59375 18.4609 2.24911 18.4609 3.05469C18.4609 3.86026 17.8056 4.51562 17 4.51562C16.1944 4.51562 15.5391 3.86026 15.5391 3.05469ZM3.05469 4.51562C2.24911 4.51562 1.59375 3.86026 1.59375 3.05469C1.59375 2.24911 2.24911 1.59375 3.05469 1.59375C3.86026 1.59375 4.51562 2.24911 4.51562 3.05469C4.51562 3.86026 3.86026 4.51562 3.05469 4.51562ZM3.05469 32.4062C2.24911 32.4062 1.59375 31.7509 1.59375 30.9453C1.59375 30.1397 2.24911 29.4844 3.05469 29.4844C3.86026 29.4844 4.51562 30.1397 4.51562 30.9453C4.51562 31.7509 3.86026 32.4062 3.05469 32.4062ZM18.4609 30.9453C18.4609 31.7509 17.8056 32.4062 17 32.4062C16.1944 32.4062 15.5391 31.7509 15.5391 30.9453C15.5391 30.1397 16.1944 29.4844 17 29.4844C17.8056 29.4844 18.4609 30.1397 18.4609 30.9453ZM22.9896 24.3857L21.7014 23.8135C21.5413 23.7424 21.3564 23.7548 21.2072 23.8467C20.4811 24.2938 19.6934 24.6204 18.8658 24.8173C18.6954 24.8579 18.5559 24.9798 18.493 25.1433L17.9871 26.4578H16.0129L15.5067 25.1429C15.4438 24.9794 15.3044 24.8575 15.134 24.8169C14.3069 24.6201 13.5194 24.2935 12.7932 23.8464C12.6439 23.7545 12.4591 23.7422 12.299 23.8133L11.0102 24.3857L9.61423 22.9897L10.1864 21.7016C10.2575 21.5414 10.2451 21.3565 10.1532 21.2073C9.7062 20.4814 9.37962 19.6937 9.18259 18.8659C9.14202 18.6956 9.02009 18.556 8.8566 18.4931L7.54209 17.9871V16.0129L8.85687 15.5069C9.02036 15.444 9.14228 15.3044 9.18286 15.1341C9.37968 14.3068 9.7062 13.5192 10.1533 12.7932C10.2452 12.6439 10.2576 12.4591 10.1865 12.299L9.61416 11.0104L11.0102 9.61436L12.2989 10.1867C12.4589 10.2578 12.6439 10.2454 12.7931 10.1535C13.5192 9.7064 14.3067 9.37988 15.1339 9.18305C15.3042 9.14248 15.4438 9.02056 15.5067 8.85707L16.0129 7.54209H17.9871L18.4932 8.857C18.5561 9.02049 18.6956 9.14241 18.866 9.18299C19.693 9.37982 20.4806 9.70634 21.2068 10.1534C21.3559 10.2453 21.5409 10.2576 21.7009 10.1867L22.9896 9.61423L24.3856 11.0102L23.8135 12.2984C23.7424 12.4585 23.7548 12.6434 23.8467 12.7926C24.2938 13.5187 24.6204 14.3064 24.8173 15.134C24.8579 15.3044 24.9798 15.4439 25.1433 15.5068L26.4578 16.0127V17.9869L25.1429 18.4931C24.9794 18.556 24.8575 18.6954 24.8169 18.8658C24.6201 19.6928 24.2935 20.4804 23.8464 21.2066C23.7546 21.3558 23.7422 21.5407 23.8133 21.7008L24.3856 22.9895L22.9896 24.3857ZM30.9453 32.4062C30.1397 32.4062 29.4844 31.7509 29.4844 30.9453C29.4844 30.1397 30.1397 29.4844 30.9453 29.4844C31.7509 29.4844 32.4062 30.1397 32.4062 30.9453C32.4062 31.7509 31.7509 32.4062 30.9453 32.4062ZM17 11.7536C14.1071 11.7536 11.7536 14.1071 11.7536 17C11.7536 19.8929 14.1071 22.2464 17 22.2464C19.8929 22.2464 22.2464 19.8929 22.2464 17C22.2464 14.1071 19.8929 11.7536 17 11.7536ZM14.2951 20.1883C14.5546 18.916 15.674 17.9863 16.9993 17.986H17.0007C18.326 17.9863 19.4453 18.916 19.7049 20.1883C18.9749 20.8086 18.0308 21.184 17 21.184C15.9692 21.1839 15.0251 20.8085 14.2951 20.1883ZM15.8664 15.7899C15.8664 15.1648 16.375 14.6563 17 14.6563C17.625 14.6563 18.1336 15.1648 18.1336 15.7899C18.1336 16.4148 17.6253 16.9232 17.0005 16.9234C16.3756 16.9232 15.8664 16.4148 15.8664 15.7899ZM20.5221 19.254C20.1518 18.3765 19.4667 17.6744 18.6127 17.2784C18.9745 16.8868 19.1961 16.3638 19.1961 15.7899C19.1961 14.579 18.2109 13.5938 17 13.5938C15.7891 13.5938 14.8039 14.579 14.8039 15.7899C14.8039 16.3638 15.0255 16.8867 15.3872 17.2784C14.5331 17.6744 13.8481 18.3764 13.4778 19.254C13.0597 18.6028 12.816 17.8296 12.816 17C12.816 14.693 14.6929 12.8161 16.9999 12.8161C19.307 12.8161 21.1839 14.693 21.1839 17C21.1839 17.8296 20.9402 18.6028 20.5221 19.254Z" fill="#BD171D"/>
<path d="M17.0005 16.9234C17.6253 16.9232 18.1336 16.4148 18.1336 15.7899C18.1336 15.1648 17.625 14.6563 17 14.6563C16.375 14.6563 15.8664 15.1648 15.8664 15.7899C15.8664 16.4148 16.3756 16.9232 17.0005 16.9234ZM17.0005 16.9234C17.0003 16.9234 17.0006 16.9234 17.0005 16.9234ZM30.9453 28.4219C30.4414 28.4219 29.972 28.5709 29.5776 28.8264L24.8146 24.0634L25.3949 23.4831C25.5503 23.3277 25.594 23.0927 25.5048 22.8918L24.8958 21.5207C25.2815 20.8484 25.5784 20.1325 25.7808 19.3862L27.1799 18.8477C27.385 18.7688 27.5203 18.5717 27.5203 18.3519V15.6482C27.5203 15.4284 27.3849 15.2313 27.1799 15.1524L25.7812 14.614C25.5787 13.8672 25.2818 13.1512 24.896 12.4789L25.5048 11.1082C25.594 10.9074 25.5503 10.6723 25.3949 10.517L24.8147 9.9367L29.5777 5.17371C29.972 5.42911 30.4414 5.57812 30.9453 5.57812C32.3367 5.57812 33.4688 4.4461 33.4688 3.05469C33.4688 1.66328 32.3367 0.53125 30.9453 0.53125C29.5538 0.53125 28.4219 1.66328 28.4219 3.05469C28.4219 3.55858 28.5709 4.028 28.8264 4.42239L24.0634 9.18538L23.4831 8.60512C23.3277 8.44973 23.0926 8.40604 22.8918 8.49522L21.5207 9.10416C20.8484 8.71841 20.1326 8.42164 19.3862 8.21923L18.8476 6.82006C18.7687 6.61493 18.5716 6.47966 18.3518 6.47966H17.5312V5.52141C18.6684 5.27671 19.5234 4.26388 19.5234 3.05469C19.5234 1.66328 18.3914 0.53125 17 0.53125C15.6086 0.53125 14.4766 1.66328 14.4766 3.05469C14.4766 4.26388 15.3316 5.27671 16.4688 5.52141V6.47972H15.6482C15.4284 6.47972 15.2313 6.61506 15.1524 6.82012L14.6138 8.2193C13.8673 8.42177 13.1516 8.71854 12.4793 9.1043L11.1081 8.49535C10.9073 8.40617 10.6722 8.44986 10.5168 8.60525L9.93657 9.18551L5.17364 4.42239C5.42911 4.028 5.57812 3.55858 5.57812 3.05469C5.57812 1.66328 4.44616 0.53125 3.05469 0.53125C1.66328 0.53125 0.53125 1.66328 0.53125 3.05469C0.53125 4.44616 1.66328 5.57812 3.05469 5.57812C3.55858 5.57812 4.028 5.42911 4.42239 5.17364L9.18531 9.93657L8.60499 10.5169C8.4496 10.6723 8.4059 10.9073 8.49515 11.1082L9.10403 12.4792C8.71821 13.1514 8.42144 13.8673 8.21904 14.6139L6.82006 15.1524C6.61493 15.2313 6.47966 15.4284 6.47966 15.6482V18.3518C6.47966 18.5716 6.61499 18.7687 6.82006 18.8476L8.21877 19.386C8.42131 20.133 8.71814 20.849 9.1039 21.5212L8.49515 22.8918C8.4059 23.0926 8.4496 23.3277 8.60499 23.483L9.18531 24.0634L4.42239 28.8263C4.028 28.5709 3.55858 28.4219 3.05469 28.4219C1.66328 28.4219 0.53125 29.5539 0.53125 30.9453C0.53125 32.3367 1.66328 33.4688 3.05469 33.4688C4.44616 33.4688 5.57812 32.3367 5.57812 30.9453C5.57812 30.4414 5.42911 29.972 5.17364 29.5776L9.93657 24.8147L10.5168 25.3949C10.6722 25.5503 10.9072 25.594 11.1081 25.5048L12.4793 24.8959C13.1516 25.2816 13.8674 25.5784 14.6138 25.7808L15.1523 27.1799C15.2312 27.3851 15.4283 27.5203 15.6481 27.5203H16.4688V28.4787C15.3317 28.7234 14.4766 29.7362 14.4766 30.9454C14.4766 32.3368 15.6086 33.4688 17 33.4688C18.3915 33.4688 19.5234 32.3368 19.5234 30.9454C19.5234 29.7362 18.6683 28.7234 17.5312 28.4787V27.5203H18.3518C18.5716 27.5203 18.7686 27.385 18.8476 27.1799L19.3859 25.7812C20.1328 25.5787 20.8488 25.2819 21.5211 24.8961L22.8916 25.5048C23.0925 25.594 23.3275 25.5504 23.4829 25.395L24.0632 24.8148L28.8262 29.5777C28.5708 29.972 28.4219 30.4414 28.4219 30.9453C28.4219 32.3367 29.5539 33.4688 30.9453 33.4688C32.3367 33.4688 33.4688 32.3367 33.4688 30.9453C33.4688 29.5538 32.3367 28.4219 30.9453 28.4219ZM30.9453 1.59375C31.7509 1.59375 32.4062 2.24911 32.4062 3.05469C32.4062 3.86026 31.7509 4.51562 30.9453 4.51562C30.1397 4.51562 29.4844 3.86026 29.4844 3.05469C29.4844 2.24911 30.1397 1.59375 30.9453 1.59375ZM15.5391 3.05469C15.5391 2.24911 16.1944 1.59375 17 1.59375C17.8056 1.59375 18.4609 2.24911 18.4609 3.05469C18.4609 3.86026 17.8056 4.51562 17 4.51562C16.1944 4.51562 15.5391 3.86026 15.5391 3.05469ZM3.05469 4.51562C2.24911 4.51562 1.59375 3.86026 1.59375 3.05469C1.59375 2.24911 2.24911 1.59375 3.05469 1.59375C3.86026 1.59375 4.51562 2.24911 4.51562 3.05469C4.51562 3.86026 3.86026 4.51562 3.05469 4.51562ZM3.05469 32.4062C2.24911 32.4062 1.59375 31.7509 1.59375 30.9453C1.59375 30.1397 2.24911 29.4844 3.05469 29.4844C3.86026 29.4844 4.51562 30.1397 4.51562 30.9453C4.51562 31.7509 3.86026 32.4062 3.05469 32.4062ZM18.4609 30.9453C18.4609 31.7509 17.8056 32.4062 17 32.4062C16.1944 32.4062 15.5391 31.7509 15.5391 30.9453C15.5391 30.1397 16.1944 29.4844 17 29.4844C17.8056 29.4844 18.4609 30.1397 18.4609 30.9453ZM22.9896 24.3857L21.7014 23.8135C21.5413 23.7424 21.3564 23.7548 21.2072 23.8467C20.4811 24.2938 19.6934 24.6204 18.8658 24.8173C18.6954 24.8579 18.5559 24.9798 18.493 25.1433L17.9871 26.4578H16.0129L15.5067 25.1429C15.4438 24.9794 15.3044 24.8575 15.134 24.8169C14.3069 24.6201 13.5194 24.2935 12.7932 23.8464C12.6439 23.7545 12.4591 23.7422 12.299 23.8133L11.0102 24.3857L9.61423 22.9897L10.1864 21.7016C10.2575 21.5414 10.2451 21.3565 10.1532 21.2073C9.7062 20.4814 9.37962 19.6937 9.18259 18.8659C9.14202 18.6956 9.02009 18.556 8.8566 18.4931L7.54209 17.9871V16.0129L8.85687 15.5069C9.02036 15.444 9.14228 15.3044 9.18286 15.1341C9.37968 14.3068 9.7062 13.5192 10.1533 12.7932C10.2452 12.6439 10.2576 12.4591 10.1865 12.299L9.61416 11.0104L11.0102 9.61436L12.2989 10.1867C12.4589 10.2578 12.6439 10.2454 12.7931 10.1535C13.5192 9.7064 14.3067 9.37988 15.1339 9.18305C15.3042 9.14248 15.4438 9.02056 15.5067 8.85707L16.0129 7.54209H17.9871L18.4932 8.857C18.5561 9.02049 18.6956 9.14241 18.866 9.18299C19.693 9.37982 20.4806 9.70634 21.2068 10.1534C21.3559 10.2453 21.5409 10.2576 21.7009 10.1867L22.9896 9.61423L24.3856 11.0102L23.8135 12.2984C23.7424 12.4585 23.7548 12.6434 23.8467 12.7926C24.2938 13.5187 24.6204 14.3064 24.8173 15.134C24.8579 15.3044 24.9798 15.4439 25.1433 15.5068L26.4578 16.0127V17.9869L25.1429 18.4931C24.9794 18.556 24.8575 18.6954 24.8169 18.8658C24.6201 19.6928 24.2935 20.4804 23.8464 21.2066C23.7546 21.3558 23.7422 21.5407 23.8133 21.7008L24.3856 22.9895L22.9896 24.3857ZM30.9453 32.4062C30.1397 32.4062 29.4844 31.7509 29.4844 30.9453C29.4844 30.1397 30.1397 29.4844 30.9453 29.4844C31.7509 29.4844 32.4062 30.1397 32.4062 30.9453C32.4062 31.7509 31.7509 32.4062 30.9453 32.4062ZM17 11.7536C14.1071 11.7536 11.7536 14.1071 11.7536 17C11.7536 19.8929 14.1071 22.2464 17 22.2464C19.8929 22.2464 22.2464 19.8929 22.2464 17C22.2464 14.1071 19.8929 11.7536 17 11.7536ZM14.2951 20.1883C14.5546 18.916 15.674 17.9863 16.9993 17.986H17.0007C18.326 17.9863 19.4453 18.916 19.7049 20.1883C18.9749 20.8086 18.0308 21.184 17 21.184C15.9692 21.1839 15.0251 20.8085 14.2951 20.1883ZM20.5221 19.254C20.1518 18.3765 19.4667 17.6744 18.6127 17.2784C18.9745 16.8868 19.1961 16.3638 19.1961 15.7899C19.1961 14.579 18.2109 13.5938 17 13.5938C15.7891 13.5938 14.8039 14.579 14.8039 15.7899C14.8039 16.3638 15.0255 16.8867 15.3872 17.2784C14.5331 17.6744 13.8481 18.3764 13.4778 19.254C13.0597 18.6028 12.816 17.8296 12.816 17C12.816 14.693 14.6929 12.8161 16.9999 12.8161C19.307 12.8161 21.1839 14.693 21.1839 17C21.1839 17.8296 20.9402 18.6028 20.5221 19.254Z" stroke="#BD171D" stroke-width="0.5"/>
</g>
<defs>
<clipPath id="clip0_5177_19793">
<rect width="34" height="34" fill="white"/>
</clipPath>
</defs>
</svg>
