<svg width="34" height="34" viewBox="0 0 34 34" fill="none" xmlns="http://www.w3.org/2000/svg">
<path d="M31.0117 13.1191H28.7371V8.13281C28.7371 4.28809 25.6092 1.16016 21.7645 1.16016H12.2356C8.39089 1.16016 5.26296 4.28809 5.26296 8.13281V13.1191H2.98828C1.34054 13.1191 0 14.4597 0 16.1074V21.1631C0 22.6901 1.15142 23.9523 2.63148 24.1293V25.6414V25.9651C2.63148 28.7114 4.86572 30.9456 7.61195 30.9456H14.2554C14.6624 32.0501 15.7259 32.8399 16.9705 32.8399C18.5653 32.8399 19.8628 31.5433 19.8628 29.9495C19.8628 28.3557 18.5653 27.0591 16.9705 27.0591C15.7258 27.0591 14.6624 27.849 14.2554 28.9534H7.61195C5.96421 28.9534 4.62367 27.6129 4.62367 25.9651V25.6414V24.1514H6.25899C6.8091 24.1514 7.25508 23.7054 7.25508 23.1553V14.2373C7.25508 14.2369 7.25515 14.2364 7.25515 14.236V8.13281C7.25515 5.38658 9.48939 3.15234 12.2356 3.15234H21.7645C24.5107 3.15234 26.7449 5.38658 26.7449 8.13281V14.1152V14.2359V23.1553C26.7449 23.7054 27.1909 24.1514 27.741 24.1514H31.0117C32.6595 24.1514 34 22.8109 34 21.1631V16.1074C34 14.4597 32.6595 13.1191 31.0117 13.1191ZM17.8706 29.9495C17.8706 30.4448 17.4668 30.8477 16.9705 30.8477C16.4742 30.8477 16.0704 30.4448 16.0704 29.9495C16.0704 29.4543 16.4742 29.0513 16.9705 29.0513C17.4668 29.0513 17.8706 29.4543 17.8706 29.9495ZM32.0078 21.1631C32.0078 21.7124 31.561 22.1592 31.0117 22.1592H28.7371V15.1113H31.0117C31.561 15.1113 32.0078 15.5582 32.0078 16.1074V21.1631ZM1.99219 16.1074C1.99219 15.5582 2.43904 15.1113 2.98828 15.1113H5.26289V22.1592H2.98828C2.43904 22.1592 1.99219 21.7124 1.99219 21.1631V16.1074Z" fill="#BD171D"/>
</svg>
