<svg width="34" height="34" viewBox="0 0 34 34" fill="none" xmlns="http://www.w3.org/2000/svg">
<g clip-path="url(#clip0_5177_20002)">
<path d="M31.5274 23.2559L34 22.0191L31.5274 17.3713V16.277C31.5274 14.0296 30.7411 11.8389 29.3134 10.1084C28.0147 8.5342 26.2443 7.40556 24.2857 6.89337C22.1257 2.79796 17.8248 0 12.8829 0C5.77927 0 0 5.7812 0 12.8871C0 19.9255 5.66983 25.6641 12.6805 25.7727L14.4797 34H25.7759L27.4525 30.0472H29.1098C30.3838 30.0472 31.5114 29.2821 31.9825 28.0981C32.4005 27.0479 32.2178 25.8852 31.5274 25.0247V23.2559ZM1.99152 12.8871C1.99152 6.87969 6.87736 1.99219 12.8829 1.99219C18.8884 1.99219 23.7742 6.87969 23.7742 12.8871C23.7742 18.8946 18.8884 23.7821 12.8829 23.7821C6.87736 23.7821 1.99152 18.8946 1.99152 12.8871ZM29.8616 26.1503C30.1947 26.462 30.3009 26.9374 30.1322 27.3612C29.9645 27.7826 29.5633 28.0549 29.1099 28.0549H24.7531L23.4337 26.3294L21.8519 27.5398L23.7692 30.0472H25.2892L24.4576 32.0078H16.0827L14.6918 25.6477C20.9421 24.7653 25.7658 19.3791 25.7658 12.8872C25.7658 11.6744 25.5974 10.5002 25.2829 9.38666C27.8311 10.6689 29.5358 13.318 29.5358 16.277V17.8684L31.2823 21.1513L29.5358 22.0247V25.8453L29.8616 26.1503Z" fill="#BD171D"/>
<path d="M19.8528 18.1602V11.5195H15.8697V5.54297H9.89516V9.52734H5.91211V18.1602H19.8528ZM17.8612 13.5117V16.168H15.8697V13.5117H17.8612ZM9.89509 16.168H7.90357V11.5195H9.89509V16.168ZM11.8866 16.168V7.53516H13.8781V16.168H11.8866Z" fill="#BD171D"/>
</g>
<defs>
<clipPath id="clip0_5177_20002">
<rect width="34" height="34" fill="white"/>
</clipPath>
</defs>
</svg>
