<svg width="34" height="34" viewBox="0 0 34 34" fill="none" xmlns="http://www.w3.org/2000/svg">
<g clip-path="url(#clip0_5177_20023)">
<path d="M22.3341 30.8691C22.3341 30.8691 19.877 28.412 18.6916 27.2266C18.2915 26.826 18.0664 26.2835 18.0664 25.7175V24.4665C18.0664 22.6992 19.4993 21.2668 21.2661 21.2668H22.3341V24.4676V16.9991C22.3341 16.4331 22.5593 15.8905 22.9593 15.4904C23.3594 15.0898 23.902 14.8652 24.468 14.8652C25.0339 14.8652 25.5765 15.0898 25.9771 15.4904C26.3772 15.8905 26.6018 16.4331 26.6018 16.9991C26.6018 18.8608 26.6018 21.2668 26.6018 21.2668C26.6018 21.2668 29.6554 22.2847 31.5443 22.9141C32.4155 23.2049 33.0034 24.02 33.0034 24.9386C33.0034 26.0205 33.0034 27.4533 33.0034 28.4835C33.0034 29.2917 32.5468 30.0306 31.8239 30.3922C31.3305 30.6386 30.8695 30.8691 30.8695 30.8691V33.003H22.3341V30.8691Z" stroke="#BD171D" stroke-width="1.99219" stroke-miterlimit="10" stroke-linecap="round" stroke-linejoin="round"/>
<path d="M22.3353 21.2669C22.3353 21.2669 16.9206 21.2824 13.8063 21.2914C13.2392 21.293 12.6946 21.0689 12.2934 20.6683C11.8917 20.2682 11.666 19.7246 11.666 19.1576C11.666 17.2904 11.666 14.5964 11.666 12.7315C11.666 11.553 12.6214 10.5977 13.7998 10.5977C17.8883 10.5977 26.7822 10.5977 30.8707 10.5977C31.4367 10.5977 31.9792 10.8222 32.3799 11.2229C32.78 11.623 33.0045 12.1655 33.0045 12.7315C33.0045 14.5911 33.0045 17.2734 33.0045 19.1331C33.0045 19.699 32.78 20.2416 32.3799 20.6417C31.9792 21.0423 31.4367 21.2669 30.8707 21.2669C29.0089 21.2669 26.603 21.2669 26.603 21.2669" stroke="#BD171D" stroke-width="1.99219" stroke-miterlimit="10" stroke-linecap="round" stroke-linejoin="round"/>
<path d="M11.6654 13.7987C11.6654 13.7987 6.25069 13.8141 3.13637 13.8232C2.56932 13.8248 2.02466 13.6007 1.62343 13.2001C1.22174 12.8001 0.996094 12.2565 0.996094 11.6893C0.996094 9.56295 0.996094 6.3206 0.996094 4.19633C0.996094 3.01789 1.95148 2.0625 3.12993 2.0625C7.02419 2.0625 15.2395 2.0625 19.1338 2.0625C20.3123 2.0625 21.2677 3.01795 21.2677 4.19633C21.2677 6.72442 21.2677 10.5979 21.2677 10.5979H13.7992C13.2332 10.5979 12.6907 10.8225 12.2906 11.2231C11.8905 11.6232 11.6654 12.1657 11.6654 12.7317C11.6654 13.3196 11.6654 13.7987 11.6654 13.7987Z" stroke="#BD171D" stroke-width="1.99219" stroke-miterlimit="10" stroke-linecap="round" stroke-linejoin="round"/>
<path d="M33.0036 3.12993C33.0036 2.56395 32.779 2.02141 32.3789 1.62131C31.9782 1.22068 31.4358 0.996094 30.8698 0.996094C29.8663 0.996094 28.6725 0.996094 27.669 0.996094C27.1029 0.996094 26.5605 1.22068 26.1604 1.62131C25.7603 2.02141 25.5352 2.56395 25.5352 3.12993C25.5352 3.48148 25.5352 3.84532 25.5352 4.19688C25.5352 4.76286 25.7603 5.30539 26.1604 5.70549C26.5605 6.10612 27.103 6.33071 27.669 6.33071C28.6725 6.33071 29.8663 6.33071 30.8698 6.33071C31.4358 6.33071 31.9783 6.10612 32.3789 5.70549C32.779 5.30539 33.0036 4.76286 33.0036 4.19688C33.0036 3.84532 33.0036 3.48148 33.0036 3.12993Z" stroke="#BD171D" stroke-width="1.99219" stroke-miterlimit="10" stroke-linecap="round" stroke-linejoin="round"/>
<path d="M13.7996 21.2984C13.2336 21.2984 12.6911 21.0739 12.291 20.6738C11.8909 20.2737 11.6658 19.7306 11.6658 19.1646C11.6658 18.5772 11.6658 18.0977 11.6658 18.0977H6.3311C5.76505 18.0977 5.22258 18.3228 4.82248 18.7229C4.42238 19.123 4.19727 19.666 4.19727 20.2315C4.19727 20.9186 4.19727 21.6787 4.19727 22.3653C4.19727 22.9313 4.42238 23.4744 4.82248 23.8745C5.22258 24.2746 5.76512 24.4992 6.3311 24.4992C7.9192 24.4992 10.0776 24.4992 11.6657 24.4992C12.2317 24.4992 12.7742 24.2746 13.1749 23.8745C13.575 23.4744 13.7995 22.9313 13.7995 22.3653C13.7996 21.778 13.7996 21.2984 13.7996 21.2984Z" stroke="#BD171D" stroke-width="1.99219" stroke-miterlimit="10" stroke-linecap="round" stroke-linejoin="round"/>
</g>
<defs>
<clipPath id="clip0_5177_20023">
<rect width="34" height="34" fill="white"/>
</clipPath>
</defs>
</svg>
