<svg width="289" height="63" viewBox="0 0 289 63" fill="none" xmlns="http://www.w3.org/2000/svg">
<path d="M70.9109 51.5436C72.3571 65.4441 102.947 67.2623 106.16 53.8788C109.466 40.1067 99.2693 38.6736 96.5854 38.0039L95.8831 44.5378C95.8831 44.5378 98.5774 45.5961 97.9864 51.4013C97.7674 53.5422 96.1856 55.3397 94.0753 55.7734C89.7817 56.6582 83.0337 55.8463 80.9756 53.8754C78.9835 51.9704 78.7992 48.8336 79.3346 46.4844C80.0995 43.1359 79.2268 43.4725 79.2268 43.4725L70.9109 51.5436Z" fill="#1A1A1A"/>
<path d="M58.5522 3.49422C58.5522 1.18325 59.6265 0.0555188 63.2943 0C66.9655 0 68.0954 1.23876 68.0954 3.49422C68.0954 6.20076 66.9655 7.38401 63.2943 7.38401C59.623 7.38401 58.5522 6.20076 58.5522 3.49422ZM59.6821 28.0682C59.6821 22.093 59.6265 16.1178 59.4562 10.1461L63.3534 10.2571L67.2506 10.1461C67.0803 16.0068 67.0246 22.152 67.0246 28.0682C67.0246 33.9845 67.0803 40.0187 67.2506 45.9349H59.4562C59.6265 40.0152 59.6821 33.929 59.6821 28.0682Z" fill="#1A1A1A"/>
<path d="M80.4682 34.0405C82.1022 34.443 83.7953 34.6095 85.6657 34.6095C94.3571 34.6095 99.8884 30.3831 99.8884 22.6626C99.8884 19.3314 101.926 17.5895 107.794 17.645L107.85 8.9043C100.851 8.9043 99.4399 13.6997 99.4399 18.9428H98.9358C98.1953 13.6997 94.298 9.75443 85.1512 9.75443C76.797 9.75443 71.377 14.1474 71.377 22.2045C71.377 27.111 73.4038 30.6642 76.9082 32.6317C75.6636 35.1127 74.0296 37.3161 71.9367 39.058L73.011 42.3891H79.0011V42.9478C78.2745 43.26 73.3691 45.3941 71.6204 48.3366C71.4187 48.6731 71.0259 49.3324 70.859 50.304C70.7929 50.7273 70.7825 51.1194 70.8138 51.5011C70.8034 51.5219 70.8034 51.5358 70.8138 51.5462C70.8799 52.5976 71.2623 53.4339 71.4848 53.8815H80.9689C80.1414 53.1216 79.6373 52.2367 79.3801 51.2201C79.3453 51.1194 79.314 51.0084 79.3001 50.8835C79.2793 50.7724 79.2549 50.6475 79.2341 50.5365C79.1437 50.0333 79.1124 49.4955 79.1124 48.9264C79.1124 47.4274 79.3592 46.0429 79.7729 44.5994C79.9746 43.8603 80.2318 43.1143 80.5239 42.3301H86.2811C90.4912 42.3301 93.335 42.9547 95.1741 44.0512C96.9437 45.1026 97.785 46.5877 98.0075 48.3643C98.0075 48.3643 98.018 48.3747 98.018 48.3851C98.0632 48.7425 98.084 49.0999 98.084 49.4816C98.084 50.0507 98.0632 50.6649 98.018 51.2929C97.9415 52.1639 97.8059 53.0591 97.5799 53.8745H106.157C106.167 53.819 106.191 53.7635 106.202 53.708C106.383 53.0383 106.525 52.3096 106.626 51.574C106.772 50.6128 106.838 49.6412 106.838 48.7564C106.838 41.6465 102.371 37.3681 88.7077 37.3681C84.6992 37.3681 81.1948 37.7602 76.9604 38.6659L76.6788 38.0413C78.5387 36.8684 79.5018 35.5707 80.4648 34.0405H80.4682ZM80.2423 16.4028C81.8206 15.7886 83.4546 15.4972 84.9808 15.4972C90.0636 15.4972 92.1599 17.8116 92.1599 22.6626C92.1599 25.0325 91.8123 27 91.1413 28.9778C89.5629 29.6475 87.8594 29.8175 86.3923 29.8175C81.2505 29.8175 79.2236 27.5031 79.2236 22.6626C79.2236 20.3481 79.5609 18.4362 80.2423 16.4028Z" fill="#1A1A1A"/>
<path d="M109.15 36.8624C109.15 30.6617 112.707 26.4908 122.42 26.4908C126.484 26.4908 130.27 26.8864 133.49 27.2785V26.0397C133.49 18.3746 130.893 14.7659 124.906 14.7659C122.365 14.7659 120.275 15.3315 118.186 16.7403C117.452 19.1068 117 21.3067 116.886 24.2353L109.206 22.9966C110.506 14.1483 115.926 9.30078 125.751 9.30078C136.368 9.30078 140.884 14.6549 140.884 23.7843V36.1268C140.884 39.51 140.94 42.3275 141.11 45.8773H133.149L134.39 35.7312H133.768C132.075 41.6474 127.218 46.665 119.705 46.665C113.663 46.665 109.143 43.3963 109.143 36.8589L109.15 36.8624ZM133.49 32.9726V30.7172C129.989 30.6061 127.166 30.5471 123.495 30.5471C118.638 30.5471 116.548 32.4625 116.548 35.5057C116.548 38.7188 118.749 40.2976 122.083 40.2976C126.544 40.2976 129.933 38.2122 133.49 32.9692V32.9726Z" fill="#1A1A1A"/>
<path d="M146.7 27.7329C146.7 21.7022 146.7 16.1226 146.53 10.2029H154.38L153.532 18.6001H154.039C156.807 12.0627 161.041 9.4707 166.631 9.4707C174.878 9.4707 178.379 14.3737 178.379 23.8987C178.379 31.9003 178.379 38.6667 178.605 45.9362H170.755C170.925 38.7777 170.925 33.8747 170.925 25.3075C170.925 18.7701 169.061 15.7825 163.979 15.7825C159.463 15.7825 156.017 18.319 154.095 23.5031C154.095 34.4368 154.15 40.0755 154.376 45.9362H146.471C146.697 40.5821 146.697 33.9302 146.697 27.7295L146.7 27.7329Z" fill="#1A1A1A"/>
<path d="M198.129 32.2406C198.129 24.2355 198.074 17.4726 197.903 10.2031H205.753C205.583 17.3616 205.527 22.3201 205.527 30.8318C205.527 37.3692 207.391 40.3568 212.474 40.3568C217.049 40.3568 220.435 37.9348 222.358 32.6362C222.358 21.7025 222.358 16.1783 222.132 10.2031H230.037C229.811 15.6127 229.756 22.2646 229.756 28.4098C229.756 34.5551 229.811 40.1347 229.982 45.9399H222.132L222.98 37.5427H222.417C219.649 44.08 215.47 46.6721 209.824 46.6721C201.637 46.6721 198.136 41.7691 198.136 32.2441L198.129 32.2406Z" fill="#1A1A1A"/>
<path d="M183.319 3.49422C183.319 1.18325 184.393 0.0555188 188.061 0C191.732 0 192.862 1.23876 192.862 3.49422C192.862 6.20076 191.732 7.38401 188.061 7.38401C184.39 7.38401 183.319 6.20076 183.319 3.49422ZM184.449 28.0682C184.449 22.093 184.393 16.1178 184.223 10.1461L188.12 10.2571L192.017 10.1461C191.847 16.0068 191.791 22.152 191.791 28.0682C191.791 33.9845 191.847 40.0187 192.017 45.9349H184.223C184.393 40.0152 184.449 33.929 184.449 28.0682Z" fill="#1A1A1A"/>
<path d="M235.297 27.7329C235.297 21.7022 235.297 16.1226 235.127 10.2029H242.977L242.129 18.6001H242.636C245.404 12.0072 249.075 9.4707 254.61 9.4707C260.822 9.4707 264.379 12.6839 265.112 19.1102H265.676C268.443 12.0072 272.114 9.4707 277.645 9.4707C285.155 9.4707 288.77 14.2627 288.77 22.7709C288.77 31.9003 288.826 38.7222 288.996 45.9362H281.146C281.317 38.7777 281.372 33.8192 281.372 24.1242C281.372 18.319 279.057 15.838 274.652 15.7825C270.529 15.7825 267.65 18.2635 265.731 23.5031C265.731 32.0148 265.787 38.7777 265.957 45.9362H258.107C258.277 38.7777 258.333 33.8192 258.333 24.1242C258.333 18.319 256.018 15.838 251.613 15.7825C247.49 15.7825 244.611 18.319 242.692 23.5031C242.692 34.4368 242.748 40.0755 242.974 45.9362H235.068C235.294 40.5821 235.294 33.9302 235.294 27.7295L235.297 27.7329Z" fill="#1A1A1A"/>
<path d="M27.0682 54.4437C41.7173 54.4437 53.5927 42.591 53.5927 27.9699C53.5927 13.3488 41.7173 1.49609 27.0682 1.49609C12.4191 1.49609 0.543701 13.3488 0.543701 27.9699C0.543701 42.591 12.4191 54.4437 27.0682 54.4437Z" fill="#BD171D"/>
<path d="M45.0594 10.2028C44.2974 7.44569 42.0867 6.57816 41.9914 6.5425L41.7176 6.43951L36.3912 9.45807L35.6173 9.90174L36.2999 10.4761C36.4825 10.6306 40.5626 14.1761 37.447 21.1164C37.3001 21.4452 37.1374 21.7779 36.9548 22.1226C33.859 28.0052 23.8613 37.8769 20.5115 41.1015L21.2616 20.2686H26.3061L27.6397 16.7866H21.3846L21.46 14.6475H27.1714L28.5049 11.1654H21.5831L21.7537 6.43555L15.4391 7.77845L15.3042 11.1694H9.64448L8.30298 14.6514H15.1613L15.074 16.7906H10.5097L9.16821 20.2726H14.9351L13.7365 50.1096L17.888 49.4322L38.9393 25.3828L38.9631 25.355C44.0235 18.9931 46.0755 13.8948 45.0555 10.2028H45.0594Z" fill="#F3F3F3"/>
</svg>
