<svg width="19" height="21" viewBox="0 0 19 21" fill="none" xmlns="http://www.w3.org/2000/svg">
<path d="M11.5 1V0H12.5V1H11.5ZM12.2071 20.7071C11.8166 21.0976 11.1834 21.0976 10.7929 20.7071L4.42893 14.3431C4.03841 13.9526 4.03841 13.3195 4.42893 12.9289C4.81946 12.5384 5.45262 12.5384 5.84315 12.9289L11.5 18.5858L17.1569 12.9289C17.5474 12.5384 18.1805 12.5384 18.5711 12.9289C18.9616 13.3195 18.9616 13.9526 18.5711 14.3431L12.2071 20.7071ZM0 1L0 0H11.5V1V2H0L0 1ZM11.5 1H12.5L12.5 20H11.5H10.5L10.5 1H11.5Z" fill="#F9C751"/>
</svg>
