<svg width="162" height="162" viewBox="0 0 162 162" fill="none" xmlns="http://www.w3.org/2000/svg">
<path d="M66.5154 144.611C66.0487 144.499 65.6809 144.454 65.412 144.478C65.1432 144.501 64.9459 144.569 64.8202 144.681C64.6946 144.794 64.6131 144.928 64.5758 145.083C64.5161 145.332 64.5191 145.64 64.5847 146.007C64.64 146.371 64.7278 146.76 64.8482 147.172C64.9686 147.585 65.1031 147.985 65.2518 148.372C65.39 148.756 65.5175 149.093 65.6341 149.385L63.4879 150.17C63.1861 149.461 62.9453 148.773 62.7655 148.105C62.5832 147.447 62.4532 146.845 62.3755 146.3C62.2874 145.752 62.2442 145.292 62.2457 144.92C62.2423 144.568 62.18 144.279 62.0588 144.052C61.9248 143.833 61.7523 143.66 61.5416 143.533C61.3308 143.406 61.1113 143.315 60.8831 143.26C60.4889 143.166 60.2337 142.995 60.1175 142.748C59.9884 142.508 59.9599 142.238 60.032 141.937C60.1091 141.616 60.2827 141.372 60.5527 141.207C60.8099 141.049 61.146 141.02 61.5609 141.119C62.0173 141.229 62.4017 141.387 62.7142 141.593C63.0266 141.8 63.2698 142.066 63.4437 142.393C63.6177 142.72 63.7379 143.111 63.8043 143.566L62.9037 143.136C63.0563 142.865 63.3129 142.642 63.6734 142.465C64.021 142.296 64.4573 142.192 64.9821 142.153C65.494 142.122 66.0768 142.185 66.7302 142.342C67.0414 142.417 67.3827 142.526 67.754 142.67C68.115 142.811 68.4698 142.979 68.8183 143.172C69.1565 143.363 69.4561 143.577 69.7171 143.815L68.481 145.608C68.137 145.35 67.7986 145.138 67.4658 144.97C67.1227 144.8 66.8059 144.68 66.5154 144.611ZM61.5583 141.119L60.6345 143.166C60.0339 142.945 59.5624 142.806 59.2199 142.748C58.8775 142.69 58.6168 142.719 58.4377 142.835C58.2449 142.957 58.0914 143.173 57.9772 143.484C57.8741 143.764 57.7907 144.114 57.7271 144.534C57.6535 144.95 57.5994 145.391 57.5648 145.855C57.5202 146.316 57.4984 146.746 57.4996 147.144L55.2175 146.952C55.2126 146.564 55.233 146.122 55.2787 145.628C55.3244 145.133 55.3956 144.631 55.4923 144.121C55.5854 143.621 55.713 143.151 55.8751 142.71C56.1256 142.029 56.4402 141.514 56.8188 141.165C57.1938 140.826 57.6238 140.614 58.109 140.532C58.5841 140.445 59.1136 140.458 59.6973 140.571C60.2773 140.693 60.8977 140.876 61.5583 141.119ZM59.1316 136.271C59.4219 136.377 59.6335 136.575 59.7663 136.862C59.8929 137.136 59.9045 137.413 59.8014 137.693C59.6946 137.984 59.5023 138.197 59.2248 138.334C58.9372 138.467 58.6483 138.48 58.358 138.373C58.0777 138.27 57.8761 138.076 57.7533 137.792C57.6304 137.508 57.6224 137.221 57.7293 136.931C57.8324 136.651 58.021 136.447 58.2948 136.321C58.5724 136.184 58.8513 136.167 59.1316 136.271ZM61.7293 137.227C62.0196 137.333 62.2312 137.531 62.364 137.818C62.4905 138.092 62.5022 138.369 62.399 138.65C62.2922 138.94 62.1 139.153 61.8224 139.29C61.5349 139.423 61.2459 139.436 60.9556 139.329C60.6753 139.226 60.4738 139.032 60.3509 138.748C60.2281 138.464 60.2201 138.177 60.3269 137.887C60.4301 137.607 60.6186 137.403 60.8925 137.277C61.1701 137.14 61.449 137.123 61.7293 137.227ZM57.5449 135.782L57.397 137.922C56.8051 137.844 56.2421 137.815 55.7079 137.837C55.1642 137.854 54.666 137.923 54.2133 138.044C53.7607 138.165 53.3679 138.346 53.0351 138.586C52.6975 138.835 52.4342 139.151 52.2451 139.534C52.0465 139.935 51.9198 140.42 51.8651 140.988C51.8104 141.556 51.7892 142.152 51.8015 142.777L49.4759 142.752C49.4503 142.37 49.4605 141.977 49.5064 141.571C49.538 141.17 49.577 140.815 49.6233 140.504C49.6696 140.194 49.7021 139.984 49.7207 139.874C49.8137 139.349 49.7834 138.953 49.6295 138.687C49.4661 138.416 49.1215 138.15 48.5956 137.89C48.2322 137.71 48.0214 137.487 47.9629 137.22C47.8902 136.958 47.9224 136.688 48.0595 136.411C48.2061 136.115 48.4294 135.916 48.7295 135.814C49.0248 135.722 49.3589 135.769 49.7318 135.953C50.1239 136.147 50.4397 136.374 50.6794 136.636C50.9191 136.897 51.0754 137.182 51.1483 137.492C51.2117 137.797 51.194 138.11 51.0953 138.43L50.7135 137.866C51.0215 137.388 51.4252 136.993 51.9247 136.68C52.4193 136.354 52.9763 136.105 53.5957 135.936C54.2151 135.766 54.8635 135.67 55.5407 135.648C56.218 135.626 56.8861 135.671 57.5449 135.782ZM49.5414 144.605C49.8378 144.751 50.0415 144.977 50.1526 145.282C50.2541 145.582 50.2316 145.88 50.0851 146.177C49.9385 146.473 49.7128 146.677 49.408 146.788C49.0936 146.894 48.7882 146.874 48.4918 146.727C48.205 146.586 48.0132 146.36 47.9164 146.05C47.81 145.736 47.8301 145.431 47.9767 145.134C48.1233 144.838 48.3514 144.641 48.661 144.544C48.9611 144.443 49.2545 144.463 49.5414 144.605ZM49.7277 135.952L48.3437 137.72C48.1225 137.571 47.9246 137.502 47.75 137.513C47.5754 137.524 47.3561 137.602 47.0921 137.745C46.8282 137.889 46.4663 138.083 46.0066 138.326C45.4994 138.602 45.031 138.801 44.6015 138.923C44.166 139.054 43.7722 139.123 43.4201 139.13C43.0532 139.14 42.7265 139.1 42.4399 139.01C42.1386 138.923 41.8685 138.799 41.6296 138.638C41.3023 138.418 41.0447 138.141 40.8569 137.809C40.6544 137.48 40.5336 137.057 40.4946 136.543C40.4497 136.036 40.5014 135.415 40.6499 134.679C40.7499 134.168 40.7874 133.75 40.7623 133.424C40.7373 133.099 40.6631 132.836 40.5398 132.638C40.4076 132.433 40.2486 132.268 40.0628 132.143C39.7266 131.916 39.5474 131.667 39.525 131.395C39.4966 131.131 39.5689 130.871 39.7417 130.615C39.9264 130.34 40.1742 130.173 40.4852 130.112C40.7901 130.061 41.1107 130.148 41.4469 130.374C41.8804 130.666 42.2264 131.002 42.485 131.382C42.7435 131.762 42.8792 132.162 42.892 132.582L42.3105 132.615C42.5152 132.483 42.7658 132.369 43.0621 132.272C43.3495 132.17 43.6648 132.132 44.0078 132.157C44.342 132.176 44.6772 132.299 45.0134 132.526C45.2346 132.675 45.4658 132.895 45.707 133.186C45.9453 133.462 46.1582 133.805 46.3456 134.214C46.5182 134.626 46.621 135.094 46.654 135.618C47.0307 135.421 47.3803 135.303 47.703 135.263C48.0197 135.232 48.339 135.274 48.6609 135.388C48.9829 135.501 49.3385 135.69 49.7277 135.952ZM44.8296 136.665C44.8305 136.473 44.8138 136.269 44.7793 136.053C44.7448 135.836 44.6881 135.625 44.6092 135.417C44.5244 135.219 44.4187 135.032 44.2924 134.856C44.1571 134.675 44.0055 134.528 43.8374 134.415C43.6604 134.296 43.4698 134.264 43.2654 134.319C43.055 134.383 42.9106 134.588 42.832 134.934C42.7988 135.079 42.7743 135.249 42.7586 135.444C42.7281 135.642 42.7168 135.84 42.7247 136.038C42.7238 136.231 42.7511 136.41 42.8065 136.576C42.8531 136.736 42.9339 136.854 43.0489 136.932C43.1639 137.009 43.3071 137.054 43.4787 137.067C43.6502 137.08 43.8485 137.053 44.0737 136.986C44.2929 136.927 44.5449 136.821 44.8296 136.665ZM41.4637 130.386L39.8871 131.985C39.514 131.667 39.2152 131.475 38.9906 131.409C38.7591 131.352 38.5371 131.414 38.3245 131.598C38.105 131.789 37.8267 132.098 37.4896 132.526L32.7826 138.479L31.0673 137.014L35.8538 130.918C36.2395 130.434 36.6235 130.025 37.0059 129.693C37.3732 129.361 37.7726 129.148 38.204 129.054C38.6273 128.952 39.1081 129.005 39.6464 129.213C40.1766 129.413 40.7824 129.804 41.4637 130.386ZM36.893 126.461L28.8808 135.011L27.291 133.433L35.3031 124.883L36.893 126.461ZM29.2576 116.068L27.1449 116.92C26.7896 116.363 26.4334 115.843 26.0765 115.362C25.7196 114.882 25.3795 114.447 25.0561 114.058C24.7271 113.661 24.4308 113.325 24.1672 113.05C23.8979 112.766 23.6819 112.556 23.519 112.42C23.2252 112.177 22.9375 111.993 22.656 111.869C22.3746 111.745 22.1066 111.682 21.8522 111.679C21.5978 111.677 21.3806 111.733 21.2006 111.848C21.0747 111.928 20.9631 112.031 20.8658 112.156C20.7685 112.281 20.6916 112.419 20.6353 112.568C20.5732 112.709 20.545 112.854 20.5508 113.002C20.5419 113.146 20.5718 113.273 20.6406 113.381C20.7323 113.525 20.8779 113.634 21.0776 113.709C21.2715 113.776 21.4871 113.796 21.7243 113.772C21.9468 113.744 22.166 113.661 22.3819 113.523C22.5349 113.426 22.6682 113.278 22.7818 113.079C22.8954 112.88 22.9816 112.648 23.0404 112.383C23.0844 112.115 23.0962 111.835 23.0756 111.545L24.9071 112.901C24.8443 113.22 24.7712 113.532 24.6879 113.838C24.5899 114.141 24.4522 114.431 24.2748 114.708C24.0916 114.976 23.8426 115.211 23.5278 115.412C23.1139 115.675 22.68 115.838 22.226 115.899C21.7573 115.958 21.302 115.938 20.8602 115.84C20.4126 115.733 20.0137 115.563 19.6634 115.331C19.2985 115.096 19.0128 114.816 18.8065 114.492C18.4741 113.97 18.3213 113.423 18.348 112.849C18.3657 112.281 18.5189 111.748 18.8074 111.248C19.0903 110.739 19.4701 110.332 19.9469 110.029C20.3697 109.759 20.7991 109.599 21.2352 109.549C21.6712 109.499 22.104 109.533 22.5335 109.652C22.9483 109.767 23.3562 109.931 23.7572 110.143C24.1524 110.347 24.5236 110.572 24.8705 110.819C25.1185 110.99 25.4193 111.253 25.7729 111.61C26.1207 111.958 26.4952 112.377 26.8963 112.867C27.3007 113.343 27.7042 113.858 28.107 114.41C28.5188 114.958 28.9023 115.51 29.2576 116.068ZM23.1102 106.894C23.4426 107.416 23.7423 107.946 24.0092 108.484C24.2762 109.022 24.4932 109.542 24.6603 110.042C24.8217 110.534 24.9263 110.986 24.9739 111.398L22.9233 111.395C22.8234 111.08 22.6813 110.728 22.497 110.339C22.298 109.947 22.0815 109.548 21.8473 109.14C21.6074 108.724 21.37 108.332 21.135 107.963C20.9172 107.621 20.8525 107.321 20.9407 107.062C21.0142 106.8 21.1814 106.586 21.4423 106.42C21.7212 106.242 22.0153 106.188 22.3245 106.256C22.6248 106.331 22.8867 106.543 23.1102 106.894ZM29.2576 116.068C29.8765 117.039 30.3245 117.911 30.6013 118.683C30.8815 119.441 31.0213 120.117 31.0207 120.712C31.0055 121.303 30.8736 121.811 30.6251 122.235C30.3766 122.659 30.0319 123.011 29.5911 123.292C29.3032 123.475 29.001 123.636 28.6845 123.775C28.3532 123.91 28.0252 124.03 27.7005 124.136C27.37 124.232 27.0723 124.321 26.8072 124.401L26.124 122.465C26.3089 122.398 26.5101 122.327 26.7277 122.251C26.9453 122.176 27.1526 122.094 27.3497 122.007C27.5379 121.925 27.7039 121.838 27.8478 121.746C28.1807 121.534 28.4031 121.228 28.515 120.828C28.6121 120.425 28.5579 119.903 28.3523 119.262C28.1376 118.628 27.7352 117.847 27.1449 116.92L28.4303 115.722L29.2576 116.068ZM17.5429 115.278C17.7206 115.557 17.778 115.856 17.7151 116.174C17.6466 116.483 17.4728 116.727 17.1939 116.904C16.9151 117.082 16.6165 117.139 16.2982 117.076C15.9742 117.005 15.7234 116.829 15.5457 116.55C15.3738 116.281 15.3266 115.988 15.4042 115.673C15.476 115.349 15.6514 115.098 15.9303 114.921C16.2092 114.743 16.5061 114.693 16.8211 114.77C17.1304 114.839 17.371 115.008 17.5429 115.278ZM23.142 106.949L20.9533 107.452C20.8503 107.115 20.7405 106.848 20.6239 106.649C20.4972 106.454 20.3166 106.319 20.0822 106.246C19.8345 106.166 19.4962 106.135 19.0672 106.155C18.6249 106.168 18.0366 106.214 17.3025 106.294L17.0609 104.192C17.2978 104.165 17.5955 104.135 17.9539 104.103C18.3092 104.061 18.6093 104.003 18.8541 103.928C19.0479 103.869 19.2052 103.782 19.3262 103.666C19.4338 103.544 19.5003 103.379 19.5257 103.17C19.5378 102.955 19.4924 102.679 19.3893 102.342C19.3082 102.077 19.214 101.86 19.1068 101.692C18.9863 101.517 18.8089 101.393 18.5745 101.32C18.3268 101.239 17.9782 101.212 17.5288 101.238C17.0661 101.257 16.4571 101.326 15.7017 101.446L15.4049 99.3281C15.652 99.2971 15.9143 99.2614 16.192 99.221C16.4697 99.1807 16.7254 99.1415 16.9592 99.1034C17.1929 99.0653 17.3812 99.0244 17.524 98.9807C17.6566 98.9401 17.7732 98.8654 17.8737 98.7565C17.9609 98.6406 18.009 98.4697 18.018 98.2439C18.0238 98.0078 17.969 97.7011 17.8535 97.3237C17.713 96.8647 17.5131 96.5578 17.2538 96.4029C16.9811 96.241 16.6408 96.2224 16.2328 96.3473C15.9982 96.4191 15.7499 96.5007 15.4878 96.592C15.2155 96.6865 14.9158 96.8006 14.5886 96.9342C14.248 97.0607 13.8678 97.2217 13.448 97.4171L12.6909 95.4903C13.5463 95.1504 14.2353 94.8503 14.7579 94.59C15.2806 94.3296 15.6716 94.0761 15.9307 93.8295C16.1766 93.5757 16.315 93.2991 16.346 92.9996C16.374 92.6898 16.3208 92.3157 16.1866 91.8771C16.0679 91.4895 16.0857 91.1829 16.2397 90.9573C16.3804 90.7246 16.5987 90.563 16.8945 90.4724C17.2107 90.3757 17.5086 90.4016 17.7884 90.5502C18.0548 90.6918 18.2505 90.9666 18.3753 91.3746C18.4596 91.65 18.5215 91.9433 18.561 92.2547C18.6108 92.563 18.6115 92.8751 18.5632 93.1911C18.5047 93.5102 18.3756 93.8174 18.1759 94.1128C17.9763 94.4081 17.6759 94.6841 17.2748 94.9408L17.2823 94.6373C17.836 94.624 18.288 94.6976 18.6383 94.8581C18.9886 95.0186 19.2745 95.2602 19.4959 95.5829C19.7072 95.9086 19.8893 96.3214 20.0423 96.8212C20.1827 97.2802 20.2464 97.7069 20.2333 98.1013C20.2201 98.4958 20.1086 98.8422 19.8988 99.1407C19.6756 99.4321 19.3259 99.6563 18.8497 99.8132L18.6905 99.293C19.3241 99.3222 19.8192 99.4272 20.1757 99.6081C20.5323 99.7891 20.8091 100.056 21.0062 100.408C21.2033 100.761 21.3892 101.222 21.564 101.794C21.6702 102.14 21.7391 102.493 21.7707 102.851C21.7921 103.213 21.7057 103.568 21.5115 103.918C21.307 104.271 20.9175 104.602 20.343 104.911L20.0596 104.095C20.7269 104.125 21.2564 104.269 21.6482 104.529C22.0368 104.778 22.3441 105.108 22.5701 105.518C22.7859 105.932 22.9766 106.409 23.142 106.949ZM11.2695 101.999C11.3476 102.254 11.3194 102.508 11.1849 102.761C11.0473 103.004 10.8459 103.166 10.5807 103.247C10.3155 103.329 10.063 103.306 9.82322 103.178C9.58032 103.041 9.41985 102.844 9.34181 102.589C9.26065 102.324 9.28377 102.072 9.41117 101.832C9.53858 101.592 9.73488 101.431 10.0001 101.35C10.2653 101.269 10.5228 101.291 10.7728 101.415C11.0228 101.539 11.1884 101.734 11.2695 101.999ZM13.6637 102.605C13.7417 102.86 13.7135 103.114 13.579 103.367C13.4414 103.61 13.24 103.772 12.9748 103.853C12.7096 103.935 12.4571 103.911 12.2174 103.784C11.9744 103.646 11.814 103.45 11.7359 103.195C11.6548 102.93 11.6779 102.677 11.8053 102.438C11.9327 102.198 12.129 102.037 12.3942 101.956C12.6594 101.875 12.917 101.897 13.167 102.021C13.4169 102.145 13.5825 102.34 13.6637 102.605ZM12.9379 100.234C13.0159 100.489 12.9877 100.743 12.8532 100.996C12.7156 101.239 12.5142 101.401 12.249 101.482C11.9838 101.563 11.7314 101.54 11.4916 101.413C11.2487 101.275 11.0882 101.079 11.0102 100.824C10.929 100.558 10.9521 100.306 11.0795 100.066C11.2069 99.8264 11.4032 99.666 11.6684 99.5848C11.9336 99.5036 12.1912 99.5252 12.4412 99.6495C12.6912 99.7738 12.8567 99.9685 12.9379 100.234ZM18.3898 91.4265L16.1464 91.5269C16.1019 91.1454 16.0266 90.8213 15.9203 90.5545C15.814 90.2877 15.6385 90.0719 15.3938 89.9071C15.1385 89.7436 14.7809 89.6242 14.3211 89.5489C13.8601 89.463 13.2525 89.4103 12.4986 89.3908L12.6055 87.2682C12.7669 87.2708 12.956 87.281 13.1729 87.2987C13.3885 87.3058 13.6094 87.3122 13.8356 87.3181C14.0499 87.3146 14.2525 87.3017 14.4432 87.2795C14.6339 87.2573 14.7991 87.2004 14.9388 87.109C15.0785 87.0175 15.192 86.8861 15.2794 86.7149C15.355 86.5342 15.4039 86.3084 15.426 86.0374C15.4469 85.7557 15.4344 85.4189 15.3888 85.0269C15.3418 84.6243 15.4144 84.3258 15.6066 84.1316C15.7881 83.9386 16.0325 83.8242 16.3398 83.7884C16.6682 83.7502 16.9566 83.8293 17.2051 84.0259C17.4417 84.2131 17.5841 84.5133 17.6322 84.9265C17.6878 85.4032 17.7013 85.8419 17.6729 86.2426C17.6432 86.6327 17.5602 86.9806 17.424 87.2864C17.276 87.5829 17.0695 87.8379 16.8044 88.0513C16.5275 88.2554 16.1796 88.4033 15.7608 88.4951L15.6719 87.7323C16.2027 87.8637 16.639 88.0599 16.9808 88.3207C17.3108 88.5722 17.571 88.8694 17.7613 89.2123C17.9516 89.5553 18.0908 89.9203 18.1789 90.3074C18.2763 90.6826 18.3466 91.0556 18.3898 91.4265ZM10.7867 87.1419C10.8225 87.4491 10.7474 87.7264 10.5614 87.9736C10.3636 88.2114 10.1164 88.3476 9.81976 88.3822C9.51251 88.418 9.23529 88.3429 8.98809 88.1569C8.73967 87.9604 8.59755 87.7085 8.56173 87.4012C8.52716 87.1046 8.60876 86.8373 8.80656 86.5995C9.00435 86.3617 9.25688 86.2248 9.56413 86.189C9.86079 86.1544 10.1327 86.2301 10.3799 86.4161C10.6165 86.6033 10.7521 86.8452 10.7867 87.1419ZM11.0912 89.8931C11.1271 90.2004 11.052 90.4776 10.866 90.7248C10.6682 90.9626 10.421 91.0988 10.1243 91.1334C9.81708 91.1692 9.53986 91.0942 9.29266 90.9082C9.04424 90.7116 8.90212 90.4597 8.8663 90.1525C8.83173 89.8558 8.91333 89.5886 9.11113 89.3507C9.30893 89.1129 9.56145 88.9761 9.8687 88.9403C10.1654 88.9057 10.4373 88.9814 10.6845 89.1673C10.9211 89.3545 11.0567 89.5965 11.0912 89.8931ZM17.6329 84.936L15.3914 84.7978L15.3691 82.5099C15.3669 82.2859 15.3544 82.0887 15.3314 81.9182C15.2977 81.7479 15.2484 81.6097 15.1833 81.5037C15.1182 81.387 15.0373 81.3024 14.9408 81.25C14.8443 81.1976 14.7321 81.1721 14.6041 81.1733C14.4761 81.1745 14.2741 81.2459 13.9981 81.3872C13.7114 81.518 13.3675 81.804 12.9664 82.2453C12.7554 82.482 12.5339 82.7402 12.3019 83.0198C12.0592 83.2889 11.8324 83.5471 11.6215 83.7945C11.3999 84.042 11.2045 84.2466 11.0354 84.4082C10.8663 84.5699 10.7444 84.6511 10.6698 84.6518C10.5098 84.6533 10.3337 84.6444 10.1415 84.6249C9.94928 84.6055 9.77298 84.5752 9.61257 84.5341C9.45206 84.4823 9.33406 84.4141 9.25856 84.3295C9.08614 84.1499 8.88622 83.8851 8.6588 83.5353C8.42061 83.175 8.16575 82.7454 7.89421 82.2467C7.612 81.7481 7.31856 81.1909 7.01388 80.5752C6.69843 79.9489 6.38257 79.28 6.06629 78.5683L8.00931 77.6374C8.27101 78.2215 8.52707 78.7737 8.77749 79.294C9.01723 79.8143 9.25667 80.3027 9.49579 80.759C9.72414 81.2048 9.95219 81.6186 10.1799 82.0004C10.3969 82.3717 10.6134 82.7002 10.8295 82.9862L9.64358 82.7897C10.328 81.8763 10.945 81.1503 11.4944 80.6116C12.0438 80.0622 12.5358 79.652 12.9705 79.3811C13.3946 79.1103 13.7768 78.9306 14.1173 78.8419C14.4472 78.7534 14.7401 78.7079 14.996 78.7054C15.252 78.7029 15.53 78.7642 15.8299 78.8892C16.119 79.0038 16.3985 79.2197 16.6682 79.5371C16.9379 79.8438 17.1608 80.279 17.337 80.8427C17.5131 81.4063 17.6055 82.1308 17.6142 83.0161L17.6329 84.936ZM17.5918 76.4004L5.89406 75.7319L6.08595 73.5001L17.7837 74.1687L17.5918 76.4004ZM22.5094 76.9196L21.3702 77.0947C21.3384 76.7172 21.309 76.4363 21.2821 76.252C21.256 76.0571 21.2255 75.851 21.1907 75.6339L21.5755 75.8276C21.4561 76.0957 21.242 76.3449 20.9331 76.5753C20.6358 76.796 20.3064 76.8908 19.9451 76.8597C19.5625 76.8268 19.2616 76.7153 19.0424 76.5252C18.8232 76.335 18.6719 76.1025 18.5885 75.8277C18.5051 75.5529 18.4757 75.272 18.5004 74.9851C18.5141 74.8256 18.5375 74.6778 18.5706 74.5414C18.6047 74.3945 18.648 74.2644 18.7005 74.1511L19.8373 74.3774C19.807 74.4818 19.7766 74.5862 19.7462 74.6907C19.7158 74.7951 19.6951 74.9111 19.6841 75.0387C19.6723 75.1768 19.7038 75.308 19.7788 75.4322C19.8653 75.5467 19.9723 75.6094 20.0998 75.6204C20.2805 75.6359 20.4454 75.5859 20.5945 75.4702C20.7436 75.3546 20.8627 75.2149 20.9517 75.0513C21.0523 74.8779 21.1129 74.7333 21.1336 74.6173L21.1538 75.5023C21.1041 75.2089 21.0477 74.9311 20.9846 74.6687C20.9321 74.4073 20.873 74.1613 20.8072 73.9308L21.9026 73.7038C21.9754 73.9777 22.0494 74.2999 22.1247 74.6704C22.2114 75.0311 22.2862 75.4069 22.3489 75.7977C22.4126 76.1779 22.4661 76.5519 22.5094 76.9196ZM17.0178 66.3414C17.131 65.8749 17.1764 65.5072 17.1538 65.2383C17.1313 64.9694 17.064 64.772 16.9518 64.646C16.8397 64.52 16.7059 64.4381 16.5504 64.4004C16.3017 64.34 15.9938 64.3421 15.6269 64.4067C15.2625 64.4609 14.8737 64.5477 14.4606 64.667C14.0475 64.7862 13.6474 64.9196 13.2603 65.0671C12.8758 65.2043 12.5378 65.3308 12.2462 65.4466L11.467 63.2982C12.1764 62.9984 12.8655 62.7596 13.5343 62.5816C14.1928 62.4012 14.7947 62.2729 15.3401 62.1967C15.8879 62.1101 16.3482 62.0682 16.7207 62.0708C17.0726 62.0684 17.3619 62.0069 17.5887 61.8863C17.8077 61.7529 17.9812 61.5809 18.1091 61.3705C18.237 61.1601 18.3286 60.9408 18.384 60.7128C18.4796 60.3189 18.6512 60.0642 18.8987 59.9486C19.1384 59.8202 19.4086 59.7925 19.7092 59.8655C20.0305 59.9434 20.2736 60.1177 20.4385 60.3882C20.5955 60.6458 20.6237 60.982 20.523 61.3966C20.4123 61.8527 20.2533 62.2367 20.0458 62.5486C19.8384 62.8604 19.571 63.1029 19.2437 63.2759C18.9163 63.4489 18.5252 63.568 18.0703 63.6332L18.5026 62.7338C18.7727 62.8872 18.9957 63.1443 19.1715 63.5053C19.3395 63.8534 19.4421 64.2899 19.4793 64.8149C19.5087 65.3269 19.4441 65.9095 19.2856 66.5625C19.2102 66.8735 19.1 67.2144 18.955 67.5854C18.8126 67.946 18.6443 68.3003 18.4501 68.6483C18.2584 68.9859 18.0431 69.2849 17.8043 69.5453L16.0146 68.3041C16.2735 67.9608 16.4872 67.623 16.6557 67.2907C16.8267 66.9481 16.9474 66.6316 17.0178 66.3414ZM20.523 61.3944L18.4787 60.4649C18.7014 59.8649 18.8421 59.3937 18.9009 59.0515C18.9597 58.7092 18.9314 58.4484 18.8159 58.269C18.6942 58.0759 18.4783 57.9218 18.1683 57.8067C17.8883 57.7028 17.5385 57.6184 17.1188 57.5537C16.7028 57.4789 16.2625 57.4236 15.798 57.3877C15.3371 57.3418 14.9076 57.3189 14.5093 57.3189L14.7077 55.0374C15.096 55.0336 15.5374 55.0552 16.0319 55.1022C16.5265 55.1493 17.0286 55.2219 17.5383 55.3201C18.038 55.4145 18.5078 55.5434 18.9478 55.7067C19.6278 55.9591 20.142 56.2752 20.4903 56.6548C20.8286 57.0307 21.0386 57.4613 21.1201 57.9467C21.2053 58.422 21.1909 58.9514 21.0767 59.5348C20.9526 60.1145 20.768 60.7344 20.523 61.3944ZM25.3783 58.9811C25.2706 59.2711 25.0728 59.4822 24.7849 59.6142C24.5106 59.74 24.2335 59.7509 23.9535 59.647C23.6635 59.5393 23.4506 59.3465 23.3149 59.0686C23.1828 58.7806 23.1706 58.4916 23.2783 58.2016C23.3822 57.9216 23.5763 57.7206 23.8605 57.5986C24.1448 57.4765 24.4319 57.4693 24.7219 57.577C25.0019 57.6809 25.2048 57.87 25.3305 58.1442C25.4663 58.4222 25.4822 58.7011 25.3783 58.9811ZM24.415 61.5761C24.3074 61.8661 24.1096 62.0772 23.8216 62.2092C23.5474 62.335 23.2703 62.3459 22.9903 62.2419C22.7003 62.1343 22.4874 61.9415 22.3516 61.6636C22.2196 61.3756 22.2074 61.0866 22.315 60.7966C22.4189 60.5166 22.613 60.3156 22.8973 60.1936C23.1815 60.0715 23.4686 60.0643 23.7586 60.172C24.0386 60.2759 24.2415 60.465 24.3673 60.7392C24.503 61.0172 24.5189 61.2961 24.415 61.5761ZM25.8714 57.3949L23.7316 57.2418C23.8115 56.6501 23.8414 56.0872 23.8212 55.5529C23.8058 55.0091 23.738 54.5108 23.6178 54.0579C23.4977 53.6049 23.318 53.2117 23.0788 52.8783C22.8301 52.5401 22.5147 52.276 22.1327 52.086C21.7316 51.8864 21.2471 51.7586 20.6794 51.7025C20.1116 51.6464 19.5152 51.6238 18.8904 51.6346L18.9214 49.309C19.303 49.2844 19.6966 49.2955 20.1021 49.3424C20.5029 49.375 20.8584 49.4148 21.1685 49.4619C21.4787 49.5089 21.6887 49.5419 21.7984 49.5608C22.3233 49.6551 22.7192 49.6257 22.986 49.4725C23.2576 49.3098 23.5241 48.9658 23.7854 48.4405C23.9659 48.0776 24.1897 47.8672 24.4567 47.8095C24.7189 47.7374 24.9885 47.7702 25.2655 47.908C25.5615 48.0553 25.7599 48.2791 25.8607 48.5794C25.952 48.875 25.9049 49.209 25.7196 49.5815C25.5249 49.973 25.2965 50.2883 25.0346 50.5274C24.7728 50.7664 24.4869 50.922 24.1769 50.9942C23.8718 51.0568 23.5593 51.0384 23.2395 50.9389L23.804 50.5585C24.2816 50.8676 24.676 51.2723 24.9871 51.7725C25.3124 52.268 25.5592 52.8256 25.7275 53.4454C25.8957 54.0652 25.99 54.7137 26.0105 55.3911C26.0309 56.0684 25.9846 56.7364 25.8714 57.3949ZM17.0683 49.37C16.921 49.666 16.6948 49.8692 16.3898 49.9796C16.0894 50.0803 15.7913 50.0571 15.4952 49.9098C15.1991 49.7625 14.9959 49.5364 14.8856 49.2313C14.78 48.9167 14.8009 48.6113 14.9482 48.3153C15.0907 48.0288 15.3169 47.8375 15.6268 47.7415C15.9414 47.6359 16.2467 47.6567 16.5428 47.804C16.8388 47.9513 17.0349 48.1799 17.1309 48.4897C17.2317 48.7901 17.2108 49.0835 17.0683 49.37ZM25.7208 49.5775L23.9557 48.1891C24.1053 47.9683 24.1747 47.7706 24.1642 47.5959C24.1536 47.4213 24.0768 47.2018 23.9337 46.9375C23.7906 46.6732 23.598 46.3108 23.3558 45.8505C23.0813 45.3426 22.8835 44.8738 22.7624 44.4439C22.6324 44.0081 22.5642 43.6141 22.5579 43.262C22.5487 42.8951 22.5895 42.5685 22.6803 42.2822C22.7683 41.981 22.893 41.7112 23.0545 41.4728C23.2758 41.146 23.5528 40.8891 23.8855 40.7022C24.2153 40.5004 24.6378 40.3807 25.1528 40.343C25.659 40.2993 26.2799 40.3526 27.0155 40.5028C27.5266 40.6042 27.945 40.6427 28.2706 40.6184C28.5962 40.5941 28.8585 40.5206 29.0576 40.3978C29.2627 40.2661 29.4281 40.1075 29.5536 39.9221C29.7809 39.5864 30.0307 39.4078 30.303 39.3861C30.5666 39.3584 30.8264 39.4313 31.0825 39.6047C31.3563 39.7901 31.5232 40.0383 31.583 40.3494C31.6341 40.6545 31.546 40.9749 31.3187 41.3105C31.0257 41.7433 30.6889 42.0885 30.3083 42.3461C29.9278 42.6037 29.5274 42.7383 29.1072 42.7501L29.0759 42.1685C29.2076 42.3736 29.3211 42.6244 29.4166 42.921C29.5181 43.2087 29.5558 43.524 29.5296 43.867C29.5095 44.2012 29.3858 44.5361 29.1585 44.8717C29.009 45.0925 28.7884 45.3232 28.4967 45.5637C28.2199 45.8013 27.8766 46.0133 27.467 46.1997C27.0545 46.3713 26.5864 46.4729 26.0625 46.5046C26.258 46.8818 26.3753 47.2317 26.4144 47.5545C26.4446 47.8713 26.4024 48.1905 26.2877 48.5121C26.1729 48.8338 25.984 49.1889 25.7208 49.5775ZM25.0195 44.6777C25.2118 44.679 25.416 44.6628 25.6323 44.6288C25.8485 44.5949 26.0604 44.5387 26.2681 44.4603C26.4669 44.376 26.654 44.2708 26.8295 44.1449C27.0109 44.0101 27.1585 43.8588 27.2721 43.691C27.3917 43.5143 27.4241 43.3237 27.3694 43.1192C27.3058 42.9087 27.1013 42.7637 26.7557 42.6843C26.611 42.6507 26.4411 42.6258 26.2459 42.6096C26.0479 42.5786 25.8498 42.5668 25.6515 42.5743C25.4592 42.5729 25.28 42.5997 25.114 42.6547C24.9539 42.7009 24.835 42.7814 24.7572 42.8962C24.6795 43.0111 24.634 43.1542 24.621 43.3257C24.6079 43.4972 24.6346 43.6956 24.701 43.9209C24.7586 44.1403 24.8648 44.3925 25.0195 44.6777ZM31.3067 41.3273L29.7129 39.7452C30.0329 39.3732 30.226 39.0751 30.2924 38.8507C30.3506 38.6195 30.2885 38.3972 30.1061 38.184C29.9156 37.9638 29.6072 37.6845 29.1809 37.3459L23.2436 32.6185L24.7148 30.9082L30.7942 35.7157C31.2772 36.103 31.6843 36.4884 32.0157 36.8719C32.3459 37.2404 32.5575 37.6405 32.6505 38.0722C32.7504 38.4959 32.6957 38.9765 32.4865 39.5141C32.2843 40.0436 31.891 40.648 31.3067 41.3273ZM35.2458 36.7688L26.7116 28.7407L28.2925 27.1538L36.8268 35.1819L35.2458 36.7688ZM45.6582 29.16L44.8114 27.0449C45.3702 26.6911 45.8905 26.3364 46.3724 25.9808C46.8542 25.6253 47.2898 25.2863 47.6792 24.9641C48.0775 24.6361 48.4144 24.3408 48.6899 24.078C48.9744 23.8095 49.1852 23.594 49.3222 23.4315C49.5658 23.1383 49.7501 22.8512 49.8751 22.5701C50.0001 22.2889 50.0641 22.0212 50.0672 21.7667C50.0702 21.5123 50.0147 21.295 49.9006 21.1147C49.8207 20.9886 49.7183 20.8767 49.5933 20.779C49.4684 20.6814 49.3311 20.6042 49.1815 20.5474C49.041 20.4849 48.8966 20.4563 48.7486 20.4617C48.6038 20.4524 48.4773 20.4819 48.3692 20.5504C48.225 20.6417 48.115 20.7871 48.0393 20.9865C47.9726 21.1802 47.9512 21.3958 47.9752 21.6331C48.0025 21.8556 48.0846 22.0751 48.2216 22.2914C48.3186 22.4446 48.4663 22.5783 48.6649 22.6925C48.8634 22.8066 49.0951 22.8935 49.3601 22.953C49.6283 22.9978 49.9077 23.0103 50.1981 22.9905L48.8367 24.8183C48.5186 24.7545 48.2067 24.6806 47.9009 24.5965C47.5984 24.4976 47.3087 24.3591 47.0318 24.1809C46.7639 23.997 46.5301 23.7474 46.3304 23.432C46.0679 23.0174 45.9065 22.583 45.8462 22.1288C45.7892 21.6599 45.8103 21.2047 45.9095 20.7632C46.0177 20.3159 46.1883 19.9175 46.4215 19.5679C46.6579 19.2035 46.9384 18.9187 47.2628 18.7133C47.7855 18.3823 48.3336 18.231 48.907 18.2593C49.4747 18.2786 50.0082 18.4333 50.5074 18.7232C51.0156 19.0074 51.4209 19.3884 51.7233 19.866C51.9915 20.2896 52.15 20.7195 52.1989 21.1556C52.2478 21.5918 52.2125 22.0245 52.0929 22.4537C51.9765 22.8682 51.8116 23.2756 51.598 23.676C51.3933 24.0707 51.1671 24.4412 50.9192 24.7875C50.7477 25.035 50.4832 25.335 50.1256 25.6876C49.7772 26.0345 49.357 26.4078 48.8652 26.8075C48.3882 27.2106 47.8727 27.6127 47.3187 28.0139C46.7705 28.4242 46.217 28.8062 45.6582 29.16ZM54.8489 23.038C54.3262 23.369 53.7954 23.6672 53.2565 23.9326C52.7175 24.1981 52.1976 24.4137 51.6965 24.5794C51.2045 24.7395 50.7522 24.8427 50.3398 24.8892L50.3482 22.8387C50.6642 22.7396 51.0167 22.5985 51.4057 22.4153C51.7981 22.2174 52.1982 22.0019 52.6062 21.7689C53.0231 21.5302 53.4163 21.2938 53.7858 21.0599C54.1283 20.843 54.4287 20.7791 54.687 20.8681C54.9486 20.9423 55.1622 21.1101 55.3277 21.3714C55.5045 21.6508 55.5583 21.9451 55.4888 22.2541C55.4137 22.5542 55.2004 22.8155 54.8489 23.038ZM45.6582 29.16C44.6849 29.7762 43.8118 30.2217 43.0388 30.4964C42.2806 30.7745 41.6042 30.9124 41.0094 30.9102C40.418 30.8933 39.9106 30.76 39.4874 30.5103C39.0642 30.2606 38.7128 29.915 38.4333 29.4734C38.2507 29.185 38.0906 28.8824 37.9531 28.5654C37.8189 28.2338 37.6994 27.9055 37.5946 27.5804C37.4988 27.2497 37.4111 26.9517 37.3316 26.6865L39.2696 26.0086C39.3362 26.1937 39.4069 26.3951 39.4817 26.6129C39.5565 26.8307 39.6374 27.0382 39.7245 27.2356C39.8058 27.424 39.8922 27.5902 39.9835 27.7344C40.1946 28.0679 40.5 28.2911 40.8998 28.4041C41.3029 28.5024 41.825 28.4496 42.466 28.2457C43.1014 28.0329 43.8832 27.6326 44.8114 27.0449L46.0062 28.3337L45.6582 29.16ZM46.4804 17.4475C46.201 17.6244 45.9023 17.681 45.5842 17.6172C45.2751 17.5478 45.0321 17.3734 44.8552 17.094C44.6783 16.8146 44.6218 16.5159 44.6855 16.1978C44.7582 15.874 44.9343 15.6237 45.2137 15.4468C45.484 15.2756 45.7766 15.2292 46.0914 15.3077C46.4152 15.3804 46.6655 15.5565 46.8424 15.8359C47.0193 16.1152 47.0685 16.4123 46.9901 16.7271C46.9206 17.0362 46.7507 17.2763 46.4804 17.4475ZM54.7936 23.0696L54.2968 20.8796C54.6336 20.7774 54.9015 20.6683 55.1004 20.5523C55.2962 20.4261 55.431 20.2458 55.5049 20.0117C55.5859 19.7642 55.6171 19.4259 55.5985 18.9969C55.587 18.5545 55.5423 17.9661 55.4646 17.2318L57.5665 16.9957C57.5938 17.2327 57.6227 17.5304 57.6534 17.8889C57.6943 18.2444 57.7519 18.5446 57.8262 18.7896C57.885 18.9835 57.9718 19.1411 58.0866 19.2623C58.2085 19.3703 58.3736 19.4372 58.5821 19.4632C58.7978 19.4758 59.074 19.4311 59.4109 19.3289C59.6763 19.2485 59.8931 19.1549 60.0614 19.0481C60.2367 18.9281 60.3614 18.7509 60.4353 18.5168C60.5163 18.2693 60.5444 17.9208 60.5195 17.4713C60.5018 17.0086 60.4342 16.3993 60.3165 15.6436L62.4351 15.3523C62.4655 15.5995 62.5005 15.862 62.5401 16.1398C62.5797 16.4175 62.6183 16.6734 62.6558 16.9072C62.6932 17.1411 62.7336 17.3295 62.777 17.4724C62.8172 17.6051 62.8916 17.7218 63.0002 17.8227C63.1159 17.9102 63.2867 17.9587 63.5125 17.9683C63.7485 17.9747 64.0554 17.9207 64.4331 17.8062C64.8924 17.6669 65.1999 17.4678 65.3554 17.2089C65.5181 16.9366 65.5375 16.5963 65.4137 16.188C65.3426 15.9532 65.2616 15.7047 65.1709 15.4424C65.0772 15.1699 64.9639 14.8698 64.8311 14.5423C64.7055 14.2014 64.5455 13.8208 64.3512 13.4004L66.2799 12.6484C66.6176 13.5046 66.9159 14.1944 67.1749 14.7178C67.4339 15.2411 67.6864 15.6327 67.9323 15.8925C68.1854 16.139 68.4617 16.2782 68.7611 16.31C69.0708 16.3387 69.4451 16.2865 69.884 16.1534C70.2719 16.0358 70.5785 16.0543 70.8037 16.209C71.036 16.3503 71.1971 16.569 71.2868 16.865C71.3828 17.1814 71.3561 17.4793 71.2067 17.7587C71.0645 18.0248 70.7892 18.2197 70.3809 18.3435C70.1053 18.4271 69.8117 18.4882 69.5002 18.5269C69.1918 18.5758 68.8797 18.5757 68.5638 18.5266C68.2449 18.4673 67.938 18.3374 67.6432 18.137C67.3483 17.9366 67.0731 17.6355 66.8175 17.2337L67.121 17.242C67.1328 17.7957 67.0581 18.2475 66.8966 18.5974C66.7352 18.9473 66.4929 19.2325 66.1697 19.4532C65.8433 19.6636 65.4301 19.8446 64.9299 19.9962C64.4706 20.1355 64.0437 20.1981 63.6493 20.1839C63.2549 20.1697 62.9087 20.0574 62.6108 19.8467C62.3199 19.6228 62.0967 19.2725 61.941 18.7959L62.4616 18.638C62.4308 19.2715 62.3245 19.7664 62.1426 20.1224C61.9608 20.4785 61.6934 20.7546 61.3405 20.9508C60.9875 21.147 60.5253 21.3318 59.9536 21.5051C59.6066 21.6103 59.2538 21.6783 58.8953 21.7089C58.5336 21.7294 58.1783 21.6421 57.8294 21.4469C57.4773 21.2416 57.1472 20.8513 56.839 20.2759L57.6565 19.9946C57.6248 20.6619 57.4787 21.191 57.2183 21.5821C56.9681 21.97 56.6375 22.2765 56.2264 22.5014C55.8122 22.7162 55.3346 22.9056 54.7936 23.0696ZM59.7747 11.2101C59.5195 11.2874 59.2656 11.2586 59.0128 11.1234C58.7703 10.9852 58.6088 10.7834 58.5283 10.518C58.4478 10.2526 58.4716 10.0001 58.5996 9.76069C58.7379 9.51814 58.9346 9.35818 59.1898 9.2808C59.4552 9.20033 59.7076 9.22411 59.9471 9.35214C60.1865 9.48017 60.3465 9.67689 60.4269 9.94229C60.5074 10.2077 60.4852 10.4652 60.3602 10.7149C60.2353 10.9645 60.0401 11.1296 59.7747 11.2101ZM59.1626 13.6026C58.9074 13.68 58.6535 13.6511 58.4007 13.516C58.1582 13.3777 57.9966 13.1759 57.9162 12.9105C57.8357 12.6451 57.8595 12.3927 57.9875 12.1532C58.1258 11.9107 58.3225 11.7507 58.5777 11.6733C58.8431 11.5929 59.0955 11.6167 59.3349 11.7447C59.5744 11.8727 59.7344 12.0694 59.8148 12.3348C59.8953 12.6002 59.8731 12.8578 59.7481 13.1074C59.6232 13.3571 59.428 13.5221 59.1626 13.6026ZM61.5359 12.883C61.2807 12.9604 61.0268 12.9315 60.774 12.7964C60.5315 12.6581 60.37 12.4563 60.2895 12.1909C60.209 11.9255 60.2328 11.6731 60.3608 11.4336C60.4991 11.1911 60.6958 11.0311 60.951 10.9538C61.2164 10.8733 61.4688 10.8971 61.7082 11.0251C61.9477 11.1531 62.1077 11.3498 62.1881 11.6152C62.2686 11.8806 62.2464 12.1382 62.1214 12.3878C61.9965 12.6375 61.8013 12.8025 61.5359 12.883ZM70.3291 18.3578L70.2346 16.1141C70.6161 16.0707 70.9404 15.9961 71.2075 15.8906C71.4746 15.785 71.6909 15.6101 71.8563 15.3658C72.0205 15.1109 72.1409 14.7537 72.2174 14.2941C72.3045 13.8332 72.3587 13.2259 72.3802 12.4719L74.5026 12.5845C74.4995 12.7459 74.4888 12.935 74.4706 13.1518C74.4629 13.3673 74.4559 13.5882 74.4494 13.8144C74.4524 14.0288 74.4647 14.2314 74.4864 14.4221C74.5082 14.6129 74.5646 14.7782 74.6557 14.9182C74.7467 15.0581 74.8778 15.172 75.0488 15.2599C75.2293 15.3359 75.455 15.3854 75.726 15.4082C76.0076 15.4298 76.3444 15.4183 76.7366 15.3736C77.1393 15.3277 77.4375 15.4011 77.6312 15.5938C77.8237 15.7758 77.9375 16.0205 77.9725 16.3279C78.0099 16.6564 77.93 16.9447 77.7328 17.1926C77.545 17.4287 77.2444 17.5703 76.8311 17.6173C76.3541 17.6716 75.9154 17.684 75.5148 17.6545C75.1248 17.6238 74.7771 17.5399 74.4716 17.4029C74.1756 17.2542 73.9212 17.0469 73.7084 16.7813C73.505 16.5039 73.358 16.1556 73.2673 15.7365L74.0304 15.6496C73.8976 16.18 73.7003 16.6158 73.4385 16.957C73.1862 17.2863 72.8883 17.5457 72.5448 17.7351C72.2014 17.9245 71.836 18.0627 71.4487 18.1498C71.0732 18.2462 70.7 18.3156 70.3291 18.3578ZM74.6337 10.766C74.3263 10.801 74.0493 10.7252 73.8026 10.5386C73.5653 10.3401 73.4297 10.0926 73.3959 9.7958C73.3609 9.48846 73.4367 9.21143 73.6234 8.96473C73.8206 8.71682 74.0728 8.57537 74.3802 8.54036C74.6769 8.50657 74.944 8.58888 75.1813 8.7873C75.4186 8.98572 75.5547 9.23861 75.5898 9.54595C75.6235 9.8427 75.5471 10.1144 75.3605 10.3611C75.1727 10.5972 74.9304 10.7322 74.6337 10.766ZM71.8816 11.0633C71.5743 11.0983 71.2973 11.0225 71.0506 10.8359C70.8132 10.6375 70.6777 10.3899 70.6439 10.0931C70.6089 9.78578 70.6847 9.50875 70.8713 9.26205C71.0685 9.01414 71.3208 8.87269 71.6282 8.83768C71.9249 8.80389 72.1919 8.8862 72.4292 9.08462C72.6666 9.28304 72.8027 9.53593 72.8377 9.84327C72.8715 10.14 72.7951 10.4117 72.6085 10.6584C72.4207 10.8946 72.1784 11.0295 71.8816 11.0633ZM76.8216 17.6179L76.9685 15.377L79.2564 15.3636C79.4804 15.3623 79.6777 15.3505 79.8482 15.3281C80.0187 15.2951 80.1571 15.2463 80.2634 15.1817C80.3803 15.117 80.4652 15.0365 80.518 14.9402C80.5707 14.8439 80.5967 14.7317 80.596 14.6037C80.5952 14.4757 80.5247 14.2735 80.3844 13.9969C80.2547 13.7097 79.97 13.3647 79.5303 12.9619C79.2944 12.75 79.0371 12.5275 78.7584 12.2945C78.4903 12.0507 78.2329 11.8229 77.9863 11.611C77.7397 11.3884 77.5359 11.1923 77.3749 11.0226C77.2139 10.8529 77.1332 10.7307 77.1327 10.656C77.1318 10.496 77.1414 10.3199 77.1616 10.1278C77.1818 9.93569 77.2128 9.75951 77.2545 9.59926C77.3069 9.43895 77.3755 9.32121 77.4604 9.24604C77.6408 9.07431 77.9063 8.87542 78.2569 8.64935C78.6182 8.41256 79.0487 8.15936 79.5485 7.88975C80.0482 7.60947 80.6065 7.31819 81.2234 7.01589C81.8509 6.70286 82.5211 6.38958 83.2339 6.07606L84.1574 8.02266C83.5722 8.28211 83.019 8.53603 82.4978 8.78443C81.9765 9.02216 81.4873 9.25971 81.03 9.49707C80.5833 9.7237 80.1686 9.95014 79.7859 10.1764C79.4139 10.3919 79.0845 10.6072 78.7977 10.8222L78.9988 9.63701C79.9095 10.325 80.6331 10.9448 81.1697 11.4963C81.717 12.0477 82.1252 12.5414 82.3945 12.9771C82.6636 13.4022 82.8419 13.7852 82.9292 14.126C83.0165 14.4561 83.0609 14.7492 83.0624 15.0052C83.0639 15.2612 83.0015 15.5389 82.8753 15.8383C82.7596 16.127 82.5426 16.4056 82.2242 16.6742C81.9164 16.9427 81.4804 17.1639 80.9161 17.3379C80.3517 17.5119 79.6269 17.6015 78.7416 17.6067L76.8216 17.6179ZM85.3573 17.604L86.0169 5.90572L88.2488 6.09591L87.5892 17.7941L85.3573 17.604ZM84.8418 22.5219L84.6659 21.3829C85.0433 21.3508 85.3242 21.3212 85.5085 21.2941C85.7034 21.2679 85.9094 21.2373 86.1265 21.2023L85.9331 21.5872C85.665 21.468 85.4156 21.2541 85.1849 20.9454C84.964 20.6482 84.869 20.319 84.8998 19.9576C84.9324 19.575 85.0437 19.274 85.2337 19.0547C85.4236 18.8354 85.656 18.6839 85.9308 18.6002C86.2055 18.5166 86.4864 18.487 86.7733 18.5115C86.9328 18.525 87.0806 18.5484 87.217 18.5814C87.364 18.6153 87.4941 18.6585 87.6074 18.711L87.3821 19.848C87.2776 19.8177 87.1731 19.7873 87.0686 19.757C86.9642 19.7267 86.8482 19.7061 86.7206 19.6953C86.5825 19.6835 86.4513 19.7151 86.3272 19.7902C86.2127 19.8768 86.1501 19.9839 86.1392 20.1114C86.1238 20.2921 86.174 20.4569 86.2898 20.606C86.4055 20.755 86.5453 20.874 86.709 20.9628C86.8824 21.0633 87.0271 21.1238 87.1431 21.1444L86.2581 21.1653C86.5514 21.1154 86.8293 21.0587 87.0916 20.9955C87.353 20.9428 87.5989 20.8835 87.8294 20.8175L88.0572 21.9128C87.7833 21.9858 87.4612 22.06 87.0908 22.1355C86.7301 22.2225 86.3544 22.2976 85.9636 22.3606C85.5835 22.4246 85.2095 22.4783 84.8418 22.5219ZM95.4177 17.0552C95.8839 17.1697 96.2514 17.216 96.5204 17.1942C96.7894 17.1724 96.987 17.1056 97.1133 16.9939C97.2396 16.8821 97.3218 16.7485 97.36 16.5932C97.4211 16.3446 97.4198 16.0367 97.3562 15.6696C97.303 15.305 97.2173 14.916 97.0992 14.5026C96.9811 14.0891 96.8488 13.6887 96.7023 13.3012C96.5662 12.9163 96.4406 12.5779 96.3256 12.2861L98.4761 11.5127C98.774 12.223 99.0109 12.9127 99.187 13.5821C99.3657 14.241 99.4923 14.8433 99.567 15.3889C99.652 15.937 99.6927 16.3973 99.6891 16.7698C99.6906 17.1217 99.7512 17.4112 99.8712 17.6384C100.004 17.8577 100.175 18.0316 100.386 18.1601C100.596 18.2886 100.815 18.3808 101.043 18.4368C101.436 18.5335 101.69 18.7058 101.805 18.9537C101.933 19.1938 101.96 19.464 101.886 19.7644C101.807 20.0855 101.632 20.3281 101.361 20.4922C101.103 20.6485 100.767 20.6758 100.353 20.574C99.897 20.462 99.5135 20.3019 99.2022 20.0936C98.8909 19.8854 98.6492 19.6173 98.4771 19.2895C98.305 18.9616 98.187 18.5702 98.123 18.1151L99.0212 18.5499C98.8671 18.8196 98.6093 19.0419 98.2478 19.2167C97.8993 19.3837 97.4625 19.4851 96.9374 19.5209C96.4253 19.5489 95.8429 19.4827 95.1903 19.3224C94.8796 19.2461 94.5389 19.1349 94.1684 18.989C93.8082 18.8456 93.4544 18.6763 93.1069 18.4811C92.7698 18.2885 92.4714 18.0724 92.2117 17.8329L93.4578 16.0465C93.8003 16.3064 94.1375 16.5211 94.4694 16.6904C94.8116 16.8624 95.1277 16.9839 95.4177 17.0552ZM100.355 20.5739L101.292 18.5333C101.891 18.7583 102.362 18.901 102.704 18.9611C103.046 19.0212 103.307 18.9939 103.487 18.8792C103.68 18.7582 103.835 18.5429 103.952 18.2334C104.057 17.9538 104.142 17.6043 104.209 17.1848C104.285 16.7692 104.342 16.3291 104.38 15.8647C104.428 15.4041 104.452 14.9746 104.454 14.5764L106.735 14.7838C106.737 15.172 106.714 15.6133 106.665 16.1077C106.616 16.602 106.541 17.1039 106.441 17.6132C106.344 18.1125 106.214 18.5818 106.049 19.0212C105.794 19.7002 105.475 20.2131 105.094 20.5599C104.717 20.8968 104.286 21.105 103.8 21.1846C103.324 21.268 102.795 21.2514 102.212 21.1349C101.633 21.0085 101.014 20.8215 100.355 20.5739ZM102.749 25.4386C102.459 25.3299 102.249 25.1312 102.118 24.8428C101.993 24.568 101.984 24.2909 102.089 24.0113C102.197 23.7217 102.391 23.5096 102.67 23.3749C102.958 23.244 103.247 23.233 103.537 23.3417C103.816 23.4468 104.016 23.6417 104.137 23.9264C104.258 24.2111 104.264 24.4982 104.156 24.7878C104.051 25.0674 103.861 25.2695 103.586 25.3942C103.307 25.5289 103.028 25.5437 102.749 25.4386ZM100.158 24.4652C99.8681 24.3564 99.6578 24.1577 99.5269 23.8693C99.4023 23.5945 99.3924 23.3174 99.4975 23.0378C99.6063 22.7482 99.7999 22.5361 100.078 22.4014C100.367 22.2705 100.656 22.2595 100.945 22.3683C101.225 22.4733 101.425 22.6682 101.546 22.9529C101.667 23.2376 101.673 23.5248 101.564 23.8143C101.459 24.0939 101.269 24.296 100.995 24.4207C100.716 24.5554 100.437 24.5702 100.158 24.4652ZM104.342 25.9419L104.498 23.8023C105.089 23.8829 105.652 23.9133 106.187 23.8938C106.73 23.879 107.229 23.8117 107.682 23.692C108.135 23.5724 108.528 23.3931 108.862 23.1543C109.2 22.9059 109.465 22.5908 109.655 22.209C109.855 21.8081 109.984 21.3238 110.04 20.7561C110.097 20.1884 110.12 19.5921 110.11 18.9672L112.436 19.0008C112.46 19.3824 112.449 19.776 112.401 20.1815C112.368 20.5822 112.328 20.9377 112.281 21.2478C112.233 21.5579 112.2 21.7678 112.181 21.8775C112.086 22.4024 112.115 22.7983 112.268 23.0653C112.43 23.337 112.774 23.6038 113.299 23.8657C113.662 24.0467 113.872 24.2707 113.929 24.5377C114.001 24.8 113.968 25.0696 113.83 25.3464C113.682 25.6423 113.458 25.8405 113.158 25.9409C112.862 26.0318 112.528 25.9844 112.156 25.7987C111.765 25.6035 111.45 25.3748 111.211 25.1127C110.972 24.8505 110.817 24.5645 110.745 24.2545C110.683 23.9492 110.701 23.6368 110.801 23.3171L111.181 23.882C110.871 24.3593 110.466 24.7532 109.966 25.0638C109.47 25.3886 108.912 25.6348 108.292 25.8023C107.672 25.9698 107.023 26.0635 106.346 26.0832C105.669 26.1029 105.001 26.0558 104.342 25.9419ZM112.377 17.1476C112.081 17 111.878 16.7736 111.768 16.4684C111.668 16.168 111.691 15.8698 111.839 15.5739C111.986 15.278 112.213 15.0751 112.518 14.9651C112.833 14.8599 113.138 14.881 113.434 15.0286C113.72 15.1715 113.911 15.3979 114.007 15.7079C114.112 16.0226 114.091 16.3279 113.943 16.6238C113.796 16.9197 113.567 17.1155 113.257 17.2112C112.957 17.3117 112.663 17.2905 112.377 17.1476ZM112.159 25.7997L113.551 24.0371C113.772 24.1871 113.969 24.2569 114.144 24.2466C114.319 24.2364 114.538 24.16 114.803 24.0174C115.067 23.8748 115.43 23.6828 115.891 23.4415C116.399 23.1679 116.868 22.971 117.298 22.8506C117.735 22.7215 118.129 22.654 118.481 22.6483C118.848 22.6398 119.174 22.6812 119.46 22.7726C119.761 22.8611 120.031 22.9863 120.269 23.1482C120.595 23.3701 120.852 23.6476 121.038 23.9806C121.239 24.3108 121.358 24.7335 121.395 25.2486C121.438 25.7549 121.383 26.3757 121.232 27.111C121.129 27.6219 121.09 28.0402 121.114 28.3658C121.138 28.6915 121.211 28.954 121.333 29.1533C121.464 29.3586 121.623 29.5242 121.808 29.6502C122.143 29.8781 122.321 30.1282 122.342 30.4006C122.37 30.6641 122.296 30.9238 122.122 31.1796C121.937 31.4531 121.688 31.6195 121.377 31.6788C121.072 31.7293 120.751 31.6406 120.416 31.4127C119.984 31.1189 119.639 30.7814 119.382 30.4004C119.126 30.0194 118.992 29.6188 118.981 29.1986L119.562 29.1683C119.357 29.2996 119.106 29.4127 118.809 29.5077C118.521 29.6086 118.206 29.6457 117.863 29.6189C117.529 29.5982 117.194 29.4738 116.859 29.246C116.638 29.096 116.408 28.875 116.168 28.5829C115.931 28.3056 115.72 27.962 115.534 27.5521C115.363 27.1393 115.262 26.6709 115.232 26.147C114.854 26.3418 114.504 26.4584 114.181 26.4969C113.864 26.5266 113.545 26.4838 113.224 26.3685C112.902 26.2531 112.548 26.0635 112.159 25.7997ZM117.061 25.1073C117.059 25.2996 117.075 25.5039 117.108 25.7202C117.142 25.9364 117.198 26.1485 117.276 26.3563C117.36 26.5553 117.464 26.7426 117.59 26.9183C117.725 27.1 117.876 27.2478 118.043 27.3617C118.22 27.4817 118.41 27.5145 118.615 27.4601C118.825 27.3969 118.971 27.1926 119.051 26.8472C119.085 26.7025 119.11 26.5326 119.126 26.3375C119.158 26.1396 119.17 25.9415 119.163 25.7432C119.165 25.5509 119.138 25.3717 119.083 25.2055C119.037 25.0453 118.957 24.9263 118.842 24.8483C118.728 24.7703 118.585 24.7247 118.413 24.7113C118.242 24.6979 118.043 24.7242 117.818 24.7902C117.598 24.8474 117.346 24.9531 117.061 25.1073ZM120.4 31.401L121.991 29.816C122.361 30.138 122.658 30.3328 122.882 30.4004C123.113 30.4599 123.336 30.3991 123.55 30.2178C123.771 30.0285 124.052 29.7217 124.393 29.2972L129.153 23.3861L130.855 24.8667L126.014 30.9196C125.624 31.4003 125.237 31.8054 124.851 32.1346C124.481 32.4628 124.08 32.6722 123.648 32.7628C123.224 32.8603 122.743 32.803 122.207 32.5909C121.678 32.3857 121.076 31.9891 120.4 31.401ZM124.941 35.3616L132.979 26.836L134.564 28.4187L126.526 36.9443L124.941 35.3616ZM132.525 45.7923L134.642 44.9506C134.994 45.5102 135.347 46.0313 135.702 46.514C136.056 46.9968 136.394 47.4332 136.716 47.8233C137.043 48.2224 137.337 48.56 137.599 48.8362C137.867 49.1213 138.082 49.3326 138.244 49.4699C138.537 49.7143 138.823 49.8993 139.104 50.025C139.385 50.1507 139.653 50.2153 139.907 50.219C140.162 50.2226 140.379 50.1676 140.56 50.0539C140.686 49.9743 140.798 49.8722 140.896 49.7475C140.994 49.6228 141.072 49.4857 141.129 49.3362C141.191 49.1958 141.22 49.0516 141.215 48.9035C141.225 48.7587 141.196 48.6322 141.128 48.5239C141.037 48.3794 140.892 48.2691 140.692 48.1929C140.499 48.1258 140.283 48.1039 140.046 48.1273C139.823 48.1541 139.604 48.2357 139.387 48.3721C139.233 48.4687 139.099 48.6162 138.985 48.8144C138.87 49.0127 138.783 49.2442 138.723 49.509C138.677 49.7771 138.664 50.0565 138.683 50.347L136.859 48.9812C136.923 48.6632 136.998 48.3515 137.083 48.0459C137.182 47.7437 137.321 47.4543 137.5 47.1778C137.685 46.9103 137.935 46.6771 138.251 46.4782C138.666 46.2167 139.101 46.0563 139.555 45.9971C140.024 45.9412 140.479 45.9634 140.921 46.0637C141.368 46.1729 141.766 46.3446 142.115 46.5785C142.479 46.8159 142.763 47.097 142.967 47.4219C143.297 47.9454 143.447 48.4938 143.417 49.0672C143.397 49.6349 143.241 50.1679 142.95 50.6664C142.664 51.174 142.282 51.5784 141.804 51.8796C141.38 52.1468 140.949 52.3043 140.513 52.3522C140.077 52.4 139.644 52.3636 139.215 52.243C138.801 52.1257 138.394 51.9597 137.994 51.7451C137.6 51.5396 137.23 51.3125 136.884 51.0638C136.637 50.8916 136.338 50.6264 135.986 50.268C135.64 49.9187 135.268 49.4977 134.869 49.0049C134.467 48.5269 134.066 48.0105 133.667 47.4555C133.258 46.9063 132.877 46.3519 132.525 45.7923ZM138.624 54.9976C138.295 54.4741 137.998 53.9426 137.734 53.403C137.469 52.8635 137.255 52.343 137.091 51.8415C136.932 51.3491 136.83 50.8966 136.784 50.4841L138.835 50.4974C138.933 50.8136 139.073 51.1665 139.255 51.556C139.452 51.9488 139.667 52.3494 139.899 52.7579C140.137 53.1754 140.372 53.5692 140.605 53.9393C140.821 54.2823 140.884 54.5828 140.795 54.8409C140.72 55.1024 140.552 55.3155 140.29 55.4804C140.01 55.6566 139.716 55.7096 139.407 55.6394C139.107 55.5636 138.846 55.3496 138.624 54.9976ZM132.525 45.7923C131.911 44.8175 131.467 43.9433 131.194 43.1697C130.918 42.4109 130.782 41.7341 130.785 41.1393C130.804 40.5479 130.938 40.0409 131.189 39.6183C131.44 39.1957 131.786 38.8451 132.228 38.5666C132.517 38.3847 132.82 38.2254 133.137 38.0886C133.469 37.9552 133.798 37.8365 134.123 37.7325C134.454 37.6375 134.752 37.5505 135.018 37.4716L135.691 39.4112C135.506 39.4774 135.304 39.5477 135.086 39.6219C134.868 39.6961 134.661 39.7766 134.463 39.8632C134.275 39.9441 134.108 40.03 133.964 40.121C133.63 40.3313 133.406 40.6362 133.292 41.0357C133.193 41.4386 133.244 41.9608 133.446 42.6023C133.658 43.2382 134.056 44.0209 134.642 44.9506L133.35 46.1422L132.525 45.7923ZM144.235 46.6425C144.059 46.3627 144.003 46.0638 144.067 45.7459C144.138 45.437 144.313 45.1944 144.592 45.0182C144.872 44.842 145.171 44.7861 145.489 44.8506C145.813 44.9241 146.063 45.1008 146.239 45.3806C146.409 45.6514 146.455 45.944 146.376 46.2586C146.302 46.5823 146.126 46.8322 145.846 47.0084C145.566 47.1846 145.269 47.2331 144.954 47.1539C144.645 47.0837 144.406 46.9133 144.235 46.6425ZM138.594 54.9432L140.785 54.4534C140.886 54.7906 140.995 55.0588 141.11 55.2581C141.236 55.4542 141.415 55.5897 141.649 55.6643C141.897 55.7461 142.235 55.7784 142.664 55.7611C143.106 55.751 143.695 55.7083 144.429 55.6328L144.659 57.7355C144.422 57.762 144.124 57.79 143.765 57.8196C143.41 57.8593 143.109 57.916 142.864 57.9895C142.67 58.0476 142.512 58.1339 142.39 58.2483C142.282 58.3699 142.215 58.5349 142.188 58.7433C142.175 58.9589 142.218 59.2352 142.32 59.5724C142.399 59.8381 142.492 60.0552 142.598 60.2238C142.718 60.3996 142.894 60.5248 143.128 60.5994C143.376 60.6812 143.724 60.7104 144.174 60.687C144.636 60.6708 145.246 60.6051 146.002 60.4898L146.286 62.6094C146.039 62.6389 145.777 62.6731 145.499 62.7118C145.221 62.7506 144.965 62.7883 144.731 62.825C144.497 62.8618 144.308 62.9016 144.165 62.9444C144.033 62.9842 143.916 63.0583 143.814 63.1666C143.726 63.282 143.677 63.4526 143.667 63.6784C143.66 63.9144 143.713 64.2214 143.826 64.5995C143.964 65.0593 144.162 65.3674 144.421 65.5237C144.692 65.6873 145.033 65.7078 145.441 65.5853C145.676 65.5149 145.925 65.4347 146.188 65.3449C146.46 65.252 146.761 65.1397 147.089 65.008C147.43 64.8834 147.811 64.7246 148.232 64.5316L148.978 66.4628C148.121 66.7977 147.43 67.0938 146.906 67.3511C146.382 67.6085 145.989 67.8597 145.729 68.1048C145.481 68.3571 145.341 68.6329 145.309 68.9323C145.279 69.2419 145.33 69.6163 145.462 70.0557C145.578 70.4439 145.558 70.7504 145.403 70.9752C145.261 71.2071 145.042 71.3674 144.746 71.4562C144.429 71.5511 144.131 71.5235 143.852 71.3732C143.586 71.2301 143.392 70.9542 143.27 70.5455C143.187 70.2696 143.127 69.9759 143.089 69.6643C143.041 69.3557 143.042 69.0436 143.093 68.7279C143.153 68.4091 143.284 68.1027 143.485 67.8085C143.687 67.5143 143.989 67.24 144.391 66.9858L144.382 67.2892C143.828 67.2993 143.377 67.223 143.027 67.0605C142.678 66.898 142.393 66.6547 142.174 66.3308C141.964 66.0038 141.785 65.59 141.635 65.0893C141.497 64.6295 141.436 64.2024 141.451 63.8081C141.466 63.4137 141.58 63.0679 141.792 62.7707C142.016 62.4806 142.367 62.2584 142.845 62.1043L143.001 62.6254C142.367 62.5925 141.873 62.4846 141.517 62.3016C141.162 62.1187 140.887 61.8504 140.691 61.4968C140.496 61.1433 140.313 60.6804 140.142 60.1082C140.038 59.7608 139.971 59.4078 139.941 59.0492C139.922 58.6875 140.01 58.3325 140.207 57.9842C140.413 57.6328 140.804 57.3039 141.381 56.9975L141.659 57.816C140.992 57.7821 140.464 57.6343 140.073 57.3727C139.686 57.1212 139.381 56.7896 139.157 56.3778C138.944 55.963 138.756 55.4848 138.594 54.9432ZM150.437 59.9622C150.361 59.7068 150.39 59.4529 150.526 59.2006C150.665 58.9585 150.868 58.7976 151.133 58.718C151.399 58.6384 151.651 58.663 151.89 58.7917C152.132 58.9308 152.292 59.128 152.368 59.3834C152.448 59.6491 152.423 59.9014 152.295 60.1405C152.166 60.3795 151.969 60.5388 151.703 60.6185C151.437 60.6981 151.18 60.675 150.931 60.5493C150.681 60.4236 150.517 60.2279 150.437 59.9622ZM148.047 59.3425C147.97 59.087 148 58.8331 148.136 58.5808C148.275 58.3387 148.477 58.1779 148.743 58.0982C149.008 58.0186 149.261 58.0432 149.5 58.172C149.742 58.311 149.901 58.5082 149.978 58.7637C150.057 59.0293 150.033 59.2817 149.904 59.5207C149.775 59.7598 149.578 59.9191 149.312 59.9987C149.047 60.0783 148.789 60.0553 148.54 59.9296C148.291 59.8038 148.126 59.6081 148.047 59.3425ZM148.759 61.7181C148.682 61.4626 148.712 61.2087 148.848 60.9564C148.987 60.7143 149.189 60.5535 149.455 60.4738C149.72 60.3942 149.973 60.4188 150.212 60.5476C150.454 60.6866 150.613 60.8838 150.69 61.1393C150.769 61.4049 150.745 61.6573 150.616 61.8963C150.487 62.1354 150.29 62.2947 150.024 62.3743C149.759 62.4539 149.501 62.4309 149.252 62.3051C149.003 62.1794 148.838 61.9837 148.759 61.7181ZM143.256 70.4941L145.5 70.4051C145.542 70.7867 145.616 71.1112 145.721 71.3786C145.826 71.6459 146 71.8626 146.244 72.0287C146.499 72.1935 146.856 72.3147 147.315 72.3923C147.776 72.4805 148.383 72.5363 149.137 72.5596L149.019 74.6817C148.858 74.6782 148.669 74.6671 148.452 74.6483C148.236 74.6401 148.015 74.6326 147.789 74.6256C147.575 74.628 147.372 74.6398 147.181 74.6611C146.991 74.6823 146.825 74.7383 146.685 74.8291C146.545 74.9198 146.431 75.0506 146.342 75.2214C146.266 75.4017 146.216 75.6273 146.192 75.8982C146.17 76.1797 146.181 76.5166 146.224 76.9089C146.269 77.3117 146.195 77.6097 146.002 77.803C145.819 77.995 145.575 78.1082 145.267 78.1424C144.938 78.179 144.65 78.0984 144.403 77.9006C144.167 77.7122 144.027 77.4113 143.98 76.9979C143.927 76.5208 143.916 76.082 143.946 75.6815C143.978 75.2916 144.063 74.9441 144.201 74.639C144.35 74.3433 144.558 74.0894 144.824 73.8773C145.102 73.6746 145.451 73.5284 145.87 73.4388L145.955 74.202C145.425 74.0679 144.99 73.8695 144.649 73.607C144.32 73.3538 144.062 73.0553 143.873 72.7114C143.685 72.3675 143.547 72.0018 143.461 71.6142C143.366 71.2385 143.297 70.8651 143.256 70.4941ZM150.837 74.8173C150.803 74.5098 150.879 74.233 151.067 73.9867C151.266 73.7499 151.514 73.615 151.81 73.5819C152.118 73.5477 152.395 73.6241 152.641 73.8114C152.888 74.0092 153.029 74.2618 153.063 74.5692C153.096 74.8661 153.013 75.1329 152.814 75.3697C152.615 75.6065 152.362 75.7421 152.055 75.7763C151.758 75.8094 151.486 75.7323 151.24 75.5451C151.005 75.3567 150.87 75.1141 150.837 74.8173ZM150.547 72.0645C150.512 71.7571 150.589 71.4802 150.776 71.234C150.975 70.9972 151.223 70.8622 151.52 70.8291C151.827 70.7949 152.104 70.8714 152.35 71.0586C152.598 71.2564 152.739 71.5091 152.773 71.8165C152.806 72.1133 152.723 72.3801 152.524 72.617C152.325 72.8538 152.072 72.9893 151.764 73.0236C151.467 73.0566 151.196 72.9796 150.95 72.7923C150.714 72.6039 150.58 72.3613 150.547 72.0645ZM143.98 76.9884L146.22 77.1395L146.23 79.4275C146.23 79.6515 146.242 79.8488 146.264 80.0194C146.297 80.1899 146.345 80.3284 146.41 80.4348C146.474 80.5519 146.554 80.6369 146.651 80.6898C146.747 80.7428 146.859 80.769 146.987 80.7685C147.115 80.768 147.317 80.6979 147.594 80.5581C147.882 80.429 148.227 80.1449 148.631 79.706C148.843 79.4705 149.066 79.2136 149.3 78.9353C149.544 78.6677 149.772 78.4108 149.985 78.1646C150.208 77.9184 150.404 77.7149 150.574 77.5542C150.744 77.3936 150.867 77.3131 150.941 77.3128C151.101 77.3122 151.277 77.3221 151.469 77.3427C151.661 77.3633 151.838 77.3946 151.998 77.4366C152.158 77.4893 152.276 77.5582 152.351 77.6432C152.522 77.8239 152.72 78.0897 152.946 78.4408C153.182 78.8026 153.434 79.2336 153.703 79.7339C153.982 80.2341 154.272 80.7929 154.573 81.4104C154.885 82.0385 155.197 82.7093 155.509 83.4227L153.561 84.3425C153.303 83.7568 153.05 83.2031 152.803 82.6815C152.566 82.1597 152.329 81.67 152.093 81.2123C151.867 80.7651 151.641 80.35 151.416 79.9669C151.201 79.5944 150.986 79.2646 150.772 78.9775L151.957 79.1808C151.267 80.0902 150.646 80.8127 150.093 81.3482C149.541 81.8944 149.046 82.3017 148.61 82.5701C148.184 82.8384 147.801 83.016 147.46 83.1026C147.13 83.1893 146.837 83.2331 146.581 83.2341C146.325 83.2351 146.047 83.1722 145.748 83.0454C145.459 82.9292 145.181 82.7117 144.913 82.3927C144.645 82.0845 144.425 81.648 144.252 81.0834C144.079 80.5187 143.991 79.7937 143.987 78.9084L143.98 76.9884ZM143.972 85.524L155.666 86.2581L155.461 88.4888L143.767 87.7546L143.972 85.524ZM139.057 84.9772L140.197 84.8086C140.227 85.1862 140.255 85.4672 140.281 85.6517C140.306 85.8468 140.335 86.053 140.369 86.2703L139.985 86.0745C140.106 85.807 140.321 85.559 140.632 85.3304C140.93 85.1114 141.26 85.0184 141.621 85.0515C142.004 85.0865 142.304 85.1997 142.522 85.3911C142.74 85.5825 142.89 85.8158 142.972 86.0911C143.054 86.3664 143.082 86.6474 143.055 86.9342C143.041 87.0936 143.016 87.2413 142.983 87.3774C142.948 87.5242 142.904 87.6541 142.85 87.767L141.715 87.5344C141.746 87.4301 141.777 87.3259 141.808 87.2216C141.839 87.1173 141.86 87.0014 141.872 86.874C141.885 86.7359 141.854 86.6045 141.779 86.4799C141.694 86.3649 141.587 86.3016 141.459 86.2899C141.279 86.2734 141.114 86.3225 140.964 86.4373C140.814 86.5521 140.694 86.6911 140.604 86.8542C140.503 87.027 140.441 87.1714 140.42 87.2872L140.405 86.4021C140.453 86.6958 140.508 86.9739 140.569 87.2366C140.62 87.4984 140.678 87.7447 140.743 87.9755L139.646 88.1964C139.575 87.9221 139.502 87.5995 139.429 87.2286C139.345 86.8673 139.272 86.4911 139.211 86.1C139.15 85.7194 139.099 85.3452 139.057 84.9772ZM144.49 95.5861C144.374 96.0519 144.327 96.4193 144.348 96.6883C144.369 96.9574 144.435 97.1552 144.546 97.2818C144.658 97.4084 144.791 97.491 144.946 97.5296C145.195 97.5914 145.503 97.591 145.87 97.5284C146.235 97.4762 146.624 97.3916 147.038 97.2747C147.452 97.1577 147.852 97.0266 148.24 96.8812C148.625 96.7462 148.964 96.6215 149.256 96.5073L150.024 98.66C149.313 98.9559 148.622 99.1909 147.952 99.3651C147.293 99.5419 146.69 99.6669 146.145 99.74C145.596 99.8235 145.136 99.8629 144.763 99.8582C144.411 99.8587 144.122 99.9186 143.894 100.038C143.674 100.17 143.5 100.341 143.371 100.551C143.242 100.76 143.149 100.979 143.092 101.207C142.995 101.6 142.822 101.854 142.573 101.968C142.333 102.095 142.063 102.122 141.762 102.047C141.442 101.967 141.199 101.791 141.036 101.52C140.881 101.262 140.854 100.925 140.957 100.511C141.07 100.056 141.232 99.6727 141.441 99.3619C141.65 99.0512 141.919 98.8103 142.247 98.6391C142.575 98.4679 142.967 98.351 143.422 98.2883L142.985 99.1853C142.716 99.0304 142.494 98.772 142.32 98.4101C142.154 98.061 142.054 97.6239 142.02 97.0988C141.993 96.5866 142.061 96.0044 142.223 95.3523C142.301 95.0417 142.413 94.7014 142.56 94.3313C142.704 93.9715 142.874 93.6181 143.07 93.2712C143.264 92.9346 143.481 92.6368 143.721 92.3778L145.504 93.6289C145.243 93.9708 145.028 94.3074 144.857 94.6387C144.684 94.9804 144.562 95.2962 144.49 95.5861ZM140.957 100.513L142.996 101.454C142.77 102.053 142.627 102.523 142.566 102.865C142.505 103.207 142.532 103.468 142.646 103.648C142.767 103.842 142.982 103.997 143.291 104.114C143.571 104.22 143.92 104.306 144.339 104.373C144.755 104.45 145.195 104.508 145.659 104.547C146.12 104.596 146.549 104.621 146.947 104.623L146.736 106.904C146.347 106.905 145.906 106.881 145.412 106.831C144.918 106.781 144.416 106.706 143.907 106.604C143.408 106.507 142.938 106.375 142.499 106.21C141.821 105.953 141.309 105.634 140.962 105.253C140.626 104.875 140.419 104.443 140.34 103.957C140.258 103.481 140.275 102.952 140.393 102.369C140.52 101.79 140.709 101.171 140.957 100.513ZM136.088 102.898C136.197 102.608 136.396 102.399 136.685 102.268C136.96 102.144 137.237 102.135 137.517 102.24C137.806 102.35 138.018 102.544 138.152 102.822C138.282 103.111 138.293 103.4 138.184 103.689C138.078 103.969 137.883 104.169 137.598 104.289C137.313 104.41 137.026 104.415 136.736 104.306C136.457 104.2 136.255 104.01 136.131 103.735C135.997 103.456 135.983 103.177 136.088 102.898ZM137.066 100.308C137.176 100.019 137.375 99.8092 137.664 99.6788C137.939 99.5547 138.216 99.5454 138.495 99.6509C138.784 99.7603 138.996 99.9543 139.13 100.233C139.261 100.522 139.271 100.811 139.162 101.1C139.056 101.38 138.861 101.579 138.576 101.7C138.291 101.82 138.004 101.826 137.715 101.716C137.435 101.611 137.234 101.421 137.109 101.146C136.975 100.867 136.961 100.588 137.066 100.308ZM135.584 104.485L137.723 104.648C137.641 105.239 137.608 105.802 137.626 106.336C137.639 106.88 137.704 107.379 137.822 107.832C137.941 108.286 138.118 108.68 138.356 109.014C138.603 109.354 138.917 109.619 139.299 109.811C139.699 110.012 140.183 110.142 140.75 110.201C141.318 110.26 141.914 110.285 142.539 110.277L142.497 112.603C142.115 112.625 141.722 112.612 141.316 112.564C140.916 112.529 140.561 112.488 140.251 112.439C139.941 112.391 139.731 112.357 139.621 112.338C139.097 112.241 138.701 112.268 138.433 112.42C138.161 112.582 137.893 112.925 137.629 113.449C137.447 113.811 137.222 114.02 136.955 114.077C136.692 114.148 136.423 114.113 136.147 113.974C135.851 113.826 135.654 113.601 135.554 113.3C135.465 113.004 135.513 112.67 135.7 112.299C135.897 111.908 136.126 111.594 136.389 111.356C136.652 111.118 136.939 110.964 137.249 110.893C137.555 110.832 137.867 110.852 138.186 110.953L137.62 111.331C137.144 111.019 136.751 110.613 136.443 110.111C136.12 109.614 135.875 109.055 135.71 108.435C135.545 107.814 135.453 107.165 135.436 106.488C135.419 105.811 135.468 105.143 135.584 104.485ZM144.35 112.55C144.499 112.255 144.726 112.053 145.032 111.944C145.332 111.844 145.631 111.869 145.926 112.017C146.221 112.166 146.423 112.393 146.532 112.699C146.637 113.014 146.614 113.319 146.466 113.615C146.322 113.9 146.095 114.091 145.784 114.185C145.469 114.289 145.164 114.267 144.869 114.118C144.573 113.97 144.378 113.74 144.284 113.43C144.184 113.129 144.207 112.836 144.35 112.55ZM135.699 112.303L137.457 113.7C137.307 113.92 137.236 114.117 137.246 114.292C137.256 114.466 137.331 114.686 137.473 114.951C137.615 115.216 137.806 115.58 138.046 116.041C138.318 116.55 138.513 117.02 138.632 117.451C138.76 117.887 138.826 118.281 138.831 118.634C138.838 119 138.796 119.327 138.704 119.613C138.614 119.913 138.488 120.183 138.325 120.42C138.103 120.746 137.824 121.002 137.491 121.187C137.16 121.387 136.737 121.505 136.222 121.54C135.715 121.581 135.095 121.525 134.36 121.371C133.849 121.267 133.431 121.226 133.105 121.249C132.78 121.272 132.517 121.344 132.317 121.466C132.111 121.596 131.945 121.754 131.819 121.939C131.59 122.274 131.339 122.451 131.067 122.471C130.803 122.498 130.544 122.424 130.288 122.249C130.015 122.062 129.85 121.813 129.791 121.502C129.742 121.196 129.832 120.876 130.061 120.542C130.356 120.111 130.694 119.767 131.076 119.511C131.458 119.256 131.859 119.123 132.279 119.113L132.308 119.695C132.177 119.489 132.065 119.238 131.971 118.941C131.87 118.653 131.834 118.337 131.862 117.994C131.884 117.66 132.009 117.326 132.238 116.991C132.389 116.771 132.611 116.542 132.903 116.303C133.181 116.066 133.526 115.856 133.936 115.672C134.35 115.502 134.818 115.403 135.342 115.374C135.149 114.996 135.033 114.645 134.996 114.322C134.967 114.005 135.011 113.686 135.127 113.365C135.243 113.044 135.434 112.69 135.699 112.303ZM136.376 117.206C136.184 117.203 135.98 117.219 135.763 117.252C135.547 117.284 135.335 117.34 135.127 117.417C134.927 117.5 134.74 117.605 134.564 117.73C134.382 117.864 134.233 118.014 134.119 118.181C133.998 118.357 133.965 118.548 134.019 118.753C134.081 118.963 134.285 119.109 134.63 119.191C134.775 119.225 134.945 119.251 135.14 119.268C135.337 119.3 135.536 119.312 135.734 119.306C135.926 119.308 136.105 119.282 136.272 119.228C136.432 119.183 136.551 119.103 136.63 118.988C136.708 118.874 136.754 118.731 136.768 118.56C136.782 118.388 136.756 118.19 136.691 117.964C136.634 117.744 136.53 117.492 136.376 117.206ZM130.073 120.525L131.656 122.118C131.333 122.488 131.138 122.785 131.07 123.009C131.01 123.24 131.071 123.462 131.252 123.677C131.441 123.898 131.747 124.18 132.171 124.521L138.076 129.289L136.593 130.989L130.547 126.14C130.066 125.75 129.662 125.361 129.333 124.976C129.005 124.605 128.797 124.203 128.707 123.771C128.61 123.347 128.668 122.866 128.88 122.33C129.086 121.802 129.484 121.2 130.073 120.525ZM126.105 125.059L134.61 133.119L133.023 134.7L124.518 126.64L126.105 125.059ZM115.655 132.616L116.491 134.735C115.93 135.086 115.408 135.438 114.924 135.791C114.44 136.144 114.003 136.48 113.611 136.8C113.211 137.126 112.873 137.419 112.596 137.681C112.31 137.948 112.098 138.162 111.96 138.324C111.715 138.615 111.529 138.902 111.402 139.182C111.276 139.463 111.21 139.73 111.206 139.984C111.201 140.239 111.256 140.456 111.369 140.637C111.448 140.764 111.55 140.876 111.674 140.975C111.799 141.073 111.935 141.151 112.085 141.209C112.225 141.272 112.369 141.301 112.517 141.297C112.662 141.307 112.789 141.278 112.897 141.21C113.042 141.12 113.153 140.975 113.229 140.776C113.297 140.582 113.32 140.367 113.297 140.13C113.271 139.907 113.19 139.687 113.054 139.47C112.958 139.316 112.811 139.182 112.613 139.066C112.415 138.951 112.184 138.863 111.919 138.802C111.651 138.756 111.372 138.742 111.082 138.76L112.453 136.94C112.771 137.005 113.082 137.081 113.388 137.167C113.69 137.267 113.978 137.407 114.254 137.587C114.521 137.772 114.754 138.023 114.952 138.34C115.212 138.756 115.371 139.191 115.429 139.646C115.483 140.115 115.46 140.57 115.358 141.011C115.247 141.457 115.074 141.855 114.839 142.203C114.601 142.566 114.319 142.85 113.993 143.053C113.469 143.381 112.92 143.53 112.347 143.498C111.779 143.476 111.246 143.318 110.749 143.025C110.242 142.738 109.839 142.355 109.539 141.876C109.273 141.451 109.117 141.02 109.071 140.584C109.024 140.147 109.062 139.715 109.184 139.286C109.303 138.872 109.47 138.466 109.686 138.067C109.892 137.673 110.121 137.304 110.37 136.959C110.543 136.712 110.809 136.414 111.169 136.063C111.519 135.718 111.942 135.347 112.436 134.95C112.915 134.55 113.432 134.151 113.989 133.752C114.539 133.345 115.095 132.966 115.655 132.616ZM106.431 138.687C106.956 138.359 107.488 138.063 108.028 137.801C108.569 137.538 109.09 137.326 109.592 137.163C110.085 137.005 110.538 136.905 110.95 136.86L110.931 138.911C110.614 139.008 110.261 139.147 109.871 139.328C109.477 139.524 109.076 139.737 108.667 139.968C108.249 140.205 107.854 140.439 107.483 140.671C107.14 140.886 106.839 140.948 106.581 140.858C106.32 140.782 106.107 140.613 105.943 140.351C105.768 140.07 105.716 139.776 105.787 139.467C105.864 139.167 106.078 138.907 106.431 138.687ZM115.655 132.616C116.632 132.005 117.508 131.564 118.282 131.294C119.042 131.02 119.719 130.885 120.314 130.891C120.905 130.911 121.412 131.047 121.834 131.299C122.255 131.551 122.605 131.899 122.882 132.342C123.063 132.631 123.221 132.935 123.357 133.253C123.49 133.585 123.607 133.914 123.71 134.24C123.804 134.571 123.89 134.869 123.968 135.135L122.027 135.802C121.961 135.617 121.891 135.415 121.818 135.197C121.744 134.978 121.664 134.77 121.579 134.573C121.498 134.384 121.413 134.217 121.322 134.072C121.113 133.738 120.809 133.513 120.41 133.398C120.007 133.297 119.485 133.347 118.843 133.547C118.206 133.757 117.422 134.153 116.491 134.735L115.303 133.44L115.655 132.616ZM114.769 144.323C115.049 144.148 115.348 144.093 115.666 144.158C115.975 144.23 116.217 144.405 116.392 144.686C116.567 144.966 116.622 145.265 116.557 145.583C116.482 145.906 116.305 146.156 116.024 146.331C115.753 146.501 115.46 146.545 115.146 146.465C114.822 146.391 114.573 146.213 114.398 145.933C114.222 145.653 114.175 145.355 114.255 145.041C114.326 144.732 114.497 144.493 114.769 144.323ZM106.486 138.656L106.971 140.848C106.634 140.949 106.366 141.057 106.166 141.172C105.97 141.297 105.834 141.476 105.759 141.71C105.677 141.957 105.644 142.295 105.66 142.724C105.669 143.167 105.711 143.755 105.785 144.49L103.682 144.715C103.656 144.478 103.628 144.18 103.599 143.822C103.56 143.466 103.504 143.165 103.431 142.92C103.373 142.726 103.287 142.568 103.173 142.446C103.052 142.337 102.887 142.27 102.679 142.243C102.463 142.229 102.187 142.272 101.849 142.373C101.584 142.452 101.366 142.544 101.197 142.65C101.021 142.769 100.896 142.946 100.821 143.179C100.738 143.426 100.709 143.775 100.731 144.224C100.746 144.687 100.811 145.297 100.925 146.053L98.8046 146.333C98.7755 146.086 98.7418 145.823 98.7036 145.545C98.6654 145.267 98.6282 145.011 98.592 144.777C98.5557 144.543 98.5163 144.355 98.4737 144.212C98.4341 144.079 98.3603 143.962 98.2523 143.86C98.137 143.772 97.9665 143.723 97.7407 143.712C97.5047 143.704 97.1976 143.757 96.8193 143.869C96.3593 144.006 96.0508 144.204 95.8939 144.462C95.7298 144.733 95.7086 145.073 95.8303 145.482C95.9003 145.717 95.9799 145.966 96.0692 146.229C96.1616 146.502 96.2733 146.803 96.4044 147.131C96.5282 147.473 96.6863 147.854 96.8784 148.275L94.9458 149.017C94.6126 148.159 94.3178 147.468 94.0616 146.943C93.8053 146.419 93.5548 146.026 93.3102 145.765C93.0584 145.517 92.7829 145.376 92.4836 145.343C92.1741 145.313 91.7995 145.363 91.3599 145.494C90.9714 145.609 90.6649 145.589 90.4405 145.433C90.2089 145.291 90.049 145.071 89.9608 144.775C89.8665 144.458 89.8947 144.16 90.0455 143.882C90.1892 143.616 90.4655 143.423 90.8744 143.301C91.1504 143.219 91.4443 143.159 91.756 143.122C92.0647 143.075 92.3768 143.077 92.6924 143.127C93.011 143.188 93.3172 143.32 93.611 143.522C93.9048 143.724 94.1784 144.026 94.4319 144.429L94.1285 144.42C94.1195 143.866 94.1967 143.414 94.3599 143.065C94.5231 142.716 94.7669 142.432 95.0913 142.213C95.4187 142.005 95.8329 141.826 96.3338 141.677C96.7939 141.54 97.2211 141.479 97.6154 141.496C98.0098 141.512 98.3553 141.626 98.6522 141.838C98.9418 142.064 99.1633 142.415 99.3165 142.893L98.7951 143.048C98.8292 142.414 98.9381 141.92 99.1217 141.565C99.3054 141.21 99.5742 140.935 99.9282 140.741C100.282 140.546 100.745 140.364 101.318 140.194C101.665 140.09 102.019 140.024 102.377 139.995C102.739 139.977 103.094 140.066 103.442 140.263C103.793 140.47 104.121 140.862 104.426 141.439L103.607 141.716C103.642 141.049 103.791 140.52 104.054 140.131C104.306 139.744 104.638 139.439 105.05 139.217C105.466 139.004 105.944 138.817 106.486 138.656ZM101.443 150.489C101.699 150.413 101.953 150.444 102.205 150.58C102.447 150.719 102.607 150.922 102.686 151.188C102.765 151.454 102.74 151.706 102.611 151.945C102.472 152.187 102.274 152.346 102.018 152.422C101.753 152.501 101.5 152.476 101.262 152.346C101.023 152.217 100.864 152.02 100.785 151.754C100.706 151.488 100.729 151.231 100.855 150.982C100.982 150.733 101.178 150.568 101.443 150.489ZM102.068 148.1C102.324 148.024 102.577 148.054 102.829 148.191C103.071 148.33 103.232 148.533 103.311 148.799C103.39 149.064 103.365 149.317 103.236 149.556C103.096 149.797 102.898 149.956 102.643 150.032C102.377 150.111 102.125 150.086 101.886 149.957C101.647 149.828 101.488 149.63 101.409 149.364C101.33 149.099 101.354 148.841 101.48 148.592C101.606 148.343 101.802 148.179 102.068 148.1ZM99.6909 148.807C99.9465 148.731 100.2 148.762 100.452 148.898C100.694 149.037 100.855 149.24 100.934 149.506C101.013 149.772 100.988 150.024 100.859 150.263C100.719 150.505 100.521 150.664 100.266 150.74C100 150.819 99.7478 150.794 99.509 150.664C99.2702 150.535 99.1113 150.338 99.0322 150.072C98.9531 149.806 98.9767 149.549 99.1029 149.3C99.2291 149.051 99.4251 148.886 99.6909 148.807ZM90.9255 143.287L91.0083 145.531C90.6265 145.573 90.3018 145.646 90.0341 145.75C89.7665 145.854 89.5493 146.028 89.3826 146.271C89.2171 146.525 89.0949 146.882 89.016 147.341C88.9265 147.801 88.869 148.409 88.8436 149.162L86.7218 149.039C86.7257 148.877 86.7374 148.688 86.7568 148.472C86.7656 148.256 86.7738 148.035 86.7814 147.809C86.7796 147.595 86.7683 147.392 86.7476 147.201C86.7269 147.01 86.6713 146.845 86.581 146.704C86.4906 146.564 86.3602 146.449 86.1896 146.36C86.0096 146.283 85.7841 146.233 85.5132 146.209C85.2318 146.186 84.8949 146.195 84.5025 146.238C84.0995 146.282 83.8017 146.207 83.609 146.013C83.4175 145.83 83.305 145.585 83.2716 145.277C83.2359 144.948 83.3173 144.661 83.5158 144.414C83.7049 144.179 84.0062 144.039 84.4198 143.994C84.897 143.942 85.3358 143.932 85.7362 143.963C86.126 143.996 86.4733 144.082 86.778 144.22C87.0733 144.371 87.3266 144.579 87.538 144.846C87.7399 145.125 87.8851 145.474 87.9736 145.893L87.2101 145.976C87.3457 145.446 87.5452 145.012 87.8088 144.672C88.0628 144.344 88.3621 144.086 88.7065 143.898C89.051 143.711 89.417 143.574 89.8048 143.489C90.1808 143.395 90.5544 143.328 90.9255 143.287ZM86.5812 150.856C86.8887 150.823 87.1654 150.9 87.4111 151.088C87.6473 151.288 87.7816 151.536 87.8138 151.833C87.8472 152.141 87.77 152.417 87.5821 152.663C87.3835 152.91 87.1305 153.05 86.823 153.083C86.5261 153.116 86.2595 153.032 86.0232 152.832C85.787 152.633 85.6521 152.379 85.6187 152.071C85.5865 151.775 85.6643 151.503 85.8522 151.258C86.0413 151.022 86.2843 150.889 86.5812 150.856ZM89.3348 150.574C89.6423 150.54 89.9189 150.617 90.1646 150.805C90.4009 151.005 90.5351 151.253 90.5674 151.55C90.6008 151.858 90.5235 152.134 90.3356 152.38C90.1371 152.627 89.8841 152.767 89.5766 152.801C89.2796 152.833 89.013 152.749 88.7768 152.549C88.5405 152.35 88.4057 152.096 88.3723 151.789C88.34 151.492 88.4179 151.22 88.6058 150.975C88.7948 150.74 89.0378 150.606 89.3348 150.574ZM84.4286 143.993L84.2688 146.233L81.9808 146.233C81.7568 146.233 81.5595 146.244 81.3888 146.265C81.2181 146.297 81.0795 146.345 80.9728 146.409C80.8555 146.473 80.7701 146.553 80.7168 146.649C80.6635 146.745 80.6368 146.857 80.6368 146.985C80.6369 147.113 80.7062 147.316 80.8449 147.593C80.9729 147.881 81.2556 148.228 81.693 148.633C81.9276 148.847 82.1837 149.071 82.461 149.305C82.7277 149.551 82.9837 149.78 83.2291 149.993C83.4744 150.217 83.6771 150.415 83.8371 150.585C83.9971 150.756 84.0771 150.879 84.0771 150.953C84.0771 151.113 84.0665 151.289 84.0452 151.481C84.0238 151.673 83.9918 151.849 83.9492 152.009C83.8959 152.169 83.8265 152.287 83.7412 152.361C83.5599 152.532 83.2932 152.729 82.9413 152.953C82.5786 153.188 82.1466 153.439 81.6453 153.705C81.144 153.983 80.584 154.271 79.9654 154.57C79.3361 154.879 78.6641 155.188 77.9494 155.498L77.0373 153.546C77.6239 153.29 78.1786 153.039 78.7012 152.794C79.2239 152.559 79.7145 152.324 80.1732 152.09C80.6212 151.865 81.0372 151.641 81.4212 151.417C81.7945 151.204 82.1251 150.991 82.4131 150.777L82.2052 151.961C81.2985 151.268 80.5784 150.644 80.0451 150.09C79.501 149.535 79.0957 149.039 78.829 148.602C78.5623 148.175 78.3862 147.791 78.3009 147.45C78.2155 147.119 78.1728 146.826 78.1728 146.57C78.1728 146.314 78.2368 146.036 78.3648 145.738C78.4821 145.45 78.7007 145.172 79.0207 144.906C79.33 144.639 79.7673 144.42 80.3327 144.249C80.898 144.079 81.6233 143.993 82.5086 143.993L84.4286 143.993ZM75.8928 143.954L75.1356 155.647L72.9053 155.438L73.6626 143.746L75.8928 143.954ZM76.4493 139.041L76.6157 140.181C76.238 140.21 75.9569 140.238 75.7724 140.263C75.5772 140.288 75.371 140.317 75.1536 140.35L75.3502 139.966C75.6174 140.088 75.865 140.304 76.093 140.615C76.3114 140.914 76.4037 141.244 76.3699 141.605C76.3341 141.987 76.2203 142.287 76.0285 142.505C75.8367 142.722 75.6031 142.872 75.3277 142.953C75.0522 143.035 74.7711 143.062 74.4844 143.035C74.3251 143.02 74.1774 142.996 74.0413 142.961C73.8946 142.926 73.7648 142.882 73.652 142.829L73.8868 141.694C73.991 141.725 74.0953 141.756 74.1995 141.787C74.3037 141.818 74.4195 141.84 74.547 141.852C74.685 141.865 74.8164 141.834 74.9412 141.76C75.0564 141.674 75.1199 141.568 75.1318 141.441C75.1487 141.26 75.0999 141.095 74.9854 140.945C74.8709 140.795 74.7322 140.675 74.5692 140.584C74.3966 140.482 74.2524 140.421 74.1366 140.399L75.0217 140.386C74.728 140.433 74.4497 140.487 74.1869 140.549C73.925 140.599 73.6786 140.656 73.4476 140.72L73.229 139.623C73.5034 139.552 73.8262 139.481 74.1972 139.409C74.5586 139.325 74.9349 139.253 75.3262 139.193C75.7069 139.132 76.0812 139.081 76.4493 139.041Z" fill="#FDFFFC"/>
</svg>
