<svg width="146" height="144" viewBox="0 0 146 144" fill="none" xmlns="http://www.w3.org/2000/svg">
<path d="M57.1212 143.195C54.8637 142.706 54.1165 141.197 54.2762 139.47L56.2054 139.888C56.1071 140.87 56.5102 141.587 57.4953 141.801C58.2478 141.964 58.8996 141.733 59.0657 140.967C59.2378 140.173 58.8176 139.667 57.3898 138.985C55.414 138.055 54.6913 136.895 55.0207 135.377C55.4064 133.598 57.2542 132.939 59.1149 133.342C61.3724 133.832 62.6335 135.151 62.3811 137.173L60.4519 136.755C60.4722 135.671 59.7944 134.965 58.8366 134.757C57.9747 134.57 57.1897 134.887 57.0324 135.612C56.8603 136.406 57.252 136.978 58.5763 137.609C60.4046 138.493 61.4769 139.427 61.1001 141.165C60.7232 142.902 58.9272 143.587 57.1212 143.195ZM46.741 133.781C46.8023 133.61 46.8777 133.399 46.9889 133.171L51.972 134.953C52.3812 133.434 51.887 132.737 51.0434 132.435C50.2656 132.157 49.5432 132.39 49.1559 133.099L47.3367 132.448C48.277 130.941 49.8923 130.582 51.5401 131.171C53.4648 131.859 54.5255 133.591 53.6441 136.056C52.8758 138.205 50.9044 139.269 48.7556 138.501C46.6068 137.733 46.0576 135.693 46.741 133.781ZM49.2919 137.251C50.1356 137.552 50.9221 137.224 51.495 136.121L48.4103 135.018C48.133 136.167 48.4218 136.94 49.2919 137.251ZM39.0581 129.952C39.141 129.79 39.243 129.59 39.3827 129.379L44.094 131.789C44.696 130.336 44.296 129.581 43.4983 129.172C42.7629 128.796 42.0166 128.933 41.541 129.586L39.821 128.707C40.9481 127.333 42.5962 127.186 44.1542 127.983C45.9739 128.914 46.802 130.768 45.6097 133.099C44.5704 135.131 42.478 135.931 40.4464 134.892C38.4148 133.853 38.1336 131.759 39.0581 129.952ZM41.1397 133.721C41.9373 134.129 42.7596 133.905 43.4703 132.885L40.5538 131.393C40.1304 132.497 40.3171 133.301 41.1397 133.721ZM22.9824 125.061L29.0419 117.537L30.5466 118.749L27.7451 122.227C27.1128 123.012 26.3049 124.016 25.6508 124.783C26.4684 124.147 27.5489 123.364 28.4123 122.783L32.2802 120.146L33.9156 121.463L32.176 125.832C31.7902 126.78 31.2549 128.003 30.8058 128.917C31.4163 128.115 32.2154 127.122 32.8477 126.337L35.6492 122.859L37.1538 124.071L31.0942 131.594L28.7174 129.68L31.9608 122.171L25.3156 126.94L22.9824 125.061ZM19.8241 118.891C18.1783 117.038 18.4928 114.905 20.1883 113.398C21.8733 111.901 24.0393 111.831 25.6851 113.684C27.331 115.536 27.006 117.679 25.321 119.176C23.6255 120.682 21.4699 120.743 19.8241 118.891ZM24.6699 114.585C23.8982 113.717 22.7111 113.835 21.5179 114.895C20.3143 115.964 20.0676 117.12 20.8393 117.989C21.6111 118.857 22.7877 118.748 23.9913 117.679C25.1845 116.619 25.4417 115.454 24.6699 114.585ZM13.7948 111.266C13.6647 111.084 13.5867 110.95 13.5234 110.789L14.7886 109.887C15.6322 111.263 16.6769 111.498 18.3069 110.335L21.0882 108.352L22.2099 109.925L16.1457 114.249L15.024 112.676L16.1297 111.888L14.9448 112.011C14.4599 111.909 14.0386 111.608 13.7948 111.266ZM12.531 101.635C12.6893 101.545 12.8842 101.435 13.1172 101.335L15.7279 105.938C17.0297 105.055 17.1106 104.204 16.6685 103.425C16.261 102.706 15.5622 102.411 14.8059 102.695L13.8528 101.014C15.5493 100.486 17.0071 101.269 17.8705 102.791C18.8789 104.569 18.5512 106.574 16.2739 107.865C14.289 108.991 12.1008 108.51 10.975 106.525C9.84919 104.54 10.7652 102.636 12.531 101.635ZM12.1977 105.928C12.6397 106.708 13.4498 106.972 14.6043 106.511L12.9881 103.661C12.0274 104.351 11.7418 105.125 12.1977 105.928ZM1.97864 89.9266C1.40077 87.69 2.41226 86.3442 4.02697 85.7101L4.52079 87.6213C3.59997 87.9749 3.14014 88.6577 3.3923 89.6336C3.58493 90.3791 4.08445 90.8574 4.84352 90.6612C5.6297 90.4581 5.89321 89.855 5.86039 88.2729C5.80246 86.09 6.51315 84.9231 8.01774 84.5344C9.77987 84.0791 11.1997 85.4329 11.676 87.2764C12.2539 89.5129 11.6426 91.2325 9.72269 91.9166L9.22888 90.0053C10.2065 89.5359 10.532 88.6131 10.2869 87.6642C10.0662 86.8103 9.43024 86.2516 8.71183 86.4372C7.92565 86.6404 7.59087 87.2474 7.62278 88.7141C7.65574 90.7444 7.30325 92.1224 5.58178 92.5672C3.86031 93.012 2.44094 91.7158 1.97864 89.9266ZM5.7251 76.4185C5.90574 76.3963 6.12807 76.369 6.3816 76.3661L7.02691 81.6186C8.56784 81.3023 8.96883 80.5478 8.85957 79.6585C8.75885 78.8387 8.22689 78.2975 7.41948 78.2697L7.18389 76.3522C8.95303 76.5157 9.99916 77.7977 10.2126 79.5346C10.4618 81.5633 9.39022 83.2889 6.79175 83.6081C4.52678 83.8864 2.69055 82.6027 2.41228 80.3377C2.13402 78.0728 3.71025 76.6661 5.7251 76.4185ZM3.77039 80.2555C3.87965 81.1448 4.52619 81.7001 5.76948 81.7167L5.37001 78.4651C4.21815 78.7336 3.65772 79.3384 3.77039 80.2555ZM5.6897 67.8374C5.8717 67.8385 6.0957 67.8399 6.34752 67.8695L6.31459 73.1614C7.88334 73.0452 8.37769 72.3482 8.38327 71.4522C8.3884 70.6263 7.93016 70.0214 7.13296 69.8904L7.14498 67.9585C8.87859 68.3473 9.75187 69.7527 9.74098 71.5027C9.72826 73.5466 8.44444 75.1207 5.82649 75.1044C3.54454 75.0902 1.88789 73.5819 1.90209 71.2999C1.91629 69.018 3.65974 67.8248 5.6897 67.8374ZM3.25954 71.3924C3.25396 72.2883 3.82403 72.9219 5.05496 73.0976L5.07535 69.8216C3.89859 69.9403 3.26529 70.4684 3.25954 71.3924ZM2.79134 51.2885L12.239 53.3028L11.8361 55.1923L7.4683 54.2611C6.48246 54.0509 5.22277 53.7823 4.24277 53.5447C5.17898 53.9877 6.36569 54.5986 7.27361 55.1071L11.372 57.3694L10.9341 59.4233L6.24984 59.8417C5.23007 59.9249 3.8974 59.9986 2.87854 60.0104C3.87022 60.1932 5.11622 60.4589 6.10206 60.6691L10.4699 61.6003L10.067 63.4898L0.619372 61.4755L1.25578 58.4906L9.41993 57.9982L2.16661 54.2186L2.79134 51.2885ZM6.87597 45.6843C7.78783 43.3801 9.83393 42.6993 11.9428 43.5339C14.0386 44.3633 15.0777 46.2651 14.1659 48.5692C13.254 50.8734 11.1949 51.5491 9.09904 50.7196C6.99017 49.8851 5.96411 47.9884 6.87597 45.6843ZM12.9031 48.0695C13.3307 46.9891 12.6901 45.9827 11.2061 45.3954C9.70906 44.803 8.56628 45.1035 8.13868 46.184C7.71109 47.2645 8.3387 48.2657 9.83573 48.8581C11.3197 49.4454 12.4756 49.15 12.9031 48.0695ZM11.0015 36.8431C11.1066 36.6453 11.1913 36.5159 11.3072 36.3872L12.6794 37.1166C11.8249 38.4857 12.0809 39.5254 13.8487 40.465L16.8651 42.0682L15.9584 43.7742L9.38163 40.2787L10.2884 38.5727L11.4875 39.21L10.8487 38.2046C10.7228 37.7255 10.8044 37.214 11.0015 36.8431ZM19.0489 31.4109C19.2 31.5124 19.3859 31.6372 19.5795 31.801L16.6296 36.1945C18.0017 36.964 18.7987 36.6559 19.2981 35.9121C19.7586 35.2263 19.7106 34.469 19.1183 33.9195L20.1952 32.3155C21.4258 33.5971 21.3777 35.251 20.4022 36.7039C19.2628 38.4009 17.3232 39.0041 15.1497 37.5448C13.2551 36.2727 12.707 34.1004 13.979 32.2058C15.2511 30.3112 17.3635 30.2794 19.0489 31.4109ZM15.0597 33.0325C14.5602 33.7764 14.6856 34.6194 15.6148 35.4457L17.4409 32.7258C16.3943 32.1749 15.5747 32.2654 15.0597 33.0325ZM24.7352 16.7147C26.4727 15.1926 28.1297 15.4906 29.4224 16.6475L27.9375 17.9482C27.2075 17.2849 26.3909 17.1813 25.6327 17.8455C25.0535 18.3529 24.8511 19.0141 25.3677 19.6039C25.9027 20.2146 26.5599 20.1787 27.9581 19.4377C29.8817 18.4041 31.2435 18.5139 32.2675 19.6829C33.4668 21.0519 32.8963 22.9289 31.4641 24.1835C29.7265 25.7057 27.9158 25.9332 26.4412 24.5262L27.9261 23.2255C28.7851 23.8874 29.7557 23.7631 30.4929 23.1173C31.1563 22.5361 31.3692 21.7168 30.8803 21.1587C30.3452 20.5479 29.6524 20.522 28.3569 21.2102C26.5584 22.1529 25.1691 22.4579 23.9975 21.1205C22.826 19.7831 23.3451 17.9324 24.7352 16.7147ZM38.4803 13.9803C38.5815 14.1316 38.706 14.3178 38.8228 14.5428L34.4242 17.4852C35.4007 18.7184 36.255 18.7365 36.9998 18.2383C37.6863 17.779 37.9298 17.0603 37.5909 16.327L39.1967 15.2528C39.8477 16.9059 39.1745 18.4174 37.7199 19.3904C36.021 20.5269 33.9977 20.3475 32.5421 18.1715C31.2733 16.2747 31.5921 14.0571 33.4889 12.7883C35.3856 11.5195 37.3516 12.293 38.4803 13.9803ZM34.1741 13.9637C33.4293 14.4619 33.2248 15.2893 33.7702 16.4067L36.4932 14.5853C35.7346 13.6779 34.9421 13.45 34.1741 13.9637ZM46.1039 10.0678C46.1853 10.2306 46.2856 10.4309 46.3734 10.6687L41.6412 13.0377C42.4558 14.3834 43.3011 14.5082 44.1023 14.1071C44.8409 13.7374 45.1724 13.0548 44.9279 12.2848L46.6555 11.4199C47.0946 13.1415 46.2375 14.5569 44.6727 15.3403C42.8449 16.2553 40.86 15.8242 39.688 13.4832C38.6665 11.4426 39.2602 9.28229 41.3008 8.26075C43.3414 7.23921 45.1951 8.25258 46.1039 10.0678ZM41.8336 9.51269C41.0324 9.91378 40.726 10.7091 41.1273 11.886L44.0567 10.4194C43.4176 9.42426 42.6598 9.09906 41.8336 9.51269ZM59.6147 0.0488785L62.0523 9.39629L60.1828 9.88379L59.0559 5.56231C58.8015 4.58693 58.4765 3.34061 58.2493 2.35816C58.2733 3.3936 58.2596 4.72823 58.2124 5.76779L58.0288 10.4455L55.9968 10.9754L53.5216 6.97654C52.9899 6.10244 52.3262 4.94443 51.8586 4.03912C52.1401 5.00744 52.4615 6.24021 52.7159 7.21559L53.8428 11.5371L51.9733 12.0246L49.5358 2.67717L52.489 1.90705L56.5912 8.9829L56.7157 0.804866L59.6147 0.0488785ZM66.4682 1.19055C68.9369 0.975539 70.461 2.50105 70.6578 4.76049C70.8534 7.00599 69.6172 8.78597 67.1485 9.00098C64.6798 9.21599 63.1545 7.67654 62.9589 5.43104C62.7622 3.17159 63.9996 1.40556 66.4682 1.19055ZM67.0307 7.6481C68.1883 7.54728 68.8018 6.52418 68.6633 4.9342C68.5237 3.33028 67.7437 2.4426 66.5861 2.54343C65.4285 2.64425 64.8137 3.6534 64.9534 5.25733C65.0919 6.84731 65.8731 7.74893 67.0307 7.6481ZM76.1568 0.885212C76.3807 0.888875 76.5345 0.905392 76.7018 0.950134L76.6764 2.50393C75.0684 2.36561 74.2588 3.06647 74.2261 5.0682L74.1702 8.48374L72.2385 8.45215L72.3603 1.00515L74.292 1.03674L74.2698 2.39456L74.8747 1.36831C75.2441 1.03831 75.7368 0.878344 76.1568 0.885212ZM84.6631 5.6058C84.641 5.78645 84.6137 6.00878 84.5552 6.25549L79.3026 5.6107C79.2366 7.18237 79.8717 7.754 80.761 7.86318C81.5809 7.96382 82.2347 7.57861 82.457 6.80191L84.3746 7.03731C83.7879 8.71432 82.2908 9.41917 80.5539 9.20594C78.5251 8.95689 77.1101 7.49963 77.4291 4.90114C77.7072 2.63614 79.397 1.16507 81.662 1.44312C83.927 1.72116 84.9105 3.59093 84.6631 5.6058ZM81.4131 2.78076C80.5238 2.67159 79.8286 3.16456 79.5117 4.36691L82.7633 4.76606C82.7815 3.58347 82.3303 2.89335 81.4131 2.78076ZM100.349 4.0736C102.49 4.93876 102.971 6.55224 102.521 8.22755L100.691 7.48823C100.954 6.53761 100.678 5.76195 99.7436 5.38443C99.0296 5.09604 98.3481 5.21332 98.0545 5.94026C97.7503 6.69316 98.0786 7.26361 99.3702 8.1779C101.16 9.42923 101.675 10.6945 101.093 12.1353C100.412 13.8229 98.479 14.1595 96.7136 13.4464C94.5717 12.5812 93.5525 11.0673 94.1441 9.11692L95.9744 9.85624C95.7706 10.9215 96.319 11.7318 97.2277 12.0989C98.0455 12.4292 98.8728 12.25 99.1507 11.562C99.4549 10.8091 99.1658 10.179 97.9676 9.33264C96.3155 8.15196 95.4172 7.04923 96.0831 5.40064C96.749 3.75205 98.6351 3.38147 100.349 4.0736ZM108.982 15.1305C108.893 15.2888 108.782 15.4836 108.633 15.689L104.03 13.078C103.366 14.5041 103.733 15.2756 104.513 15.7177C105.231 16.1252 105.983 16.0204 106.486 15.3885L108.167 16.3417C106.981 17.6652 105.328 17.7416 103.806 16.8782C102.028 15.8697 101.281 13.9811 102.573 11.7039C103.698 9.71898 105.823 9.00895 107.808 10.1348C109.793 11.2607 109.984 13.3648 108.982 15.1305ZM107.065 11.2746C106.286 10.8325 105.455 11.021 104.701 12.0097L107.55 13.626C108.021 12.5409 107.869 11.7305 107.065 11.2746ZM115.897 20.205C115.788 20.3506 115.653 20.5298 115.48 20.7146L111.246 17.5402C110.406 18.8703 110.672 19.6823 111.389 20.2197C112.05 20.7152 112.809 20.7067 113.388 20.1438L114.934 21.3027C113.59 22.465 111.941 22.3308 110.541 21.2811C108.905 20.055 108.404 18.0866 109.974 15.992C111.343 14.1661 113.541 13.7318 115.367 15.1006C117.193 16.4695 117.115 18.5807 115.897 20.205ZM114.485 16.1368C113.768 15.5993 112.92 15.6807 112.046 16.5656L114.668 18.5308C115.272 17.5143 115.224 16.6911 114.485 16.1368ZM130.916 27.7299L123.676 34.1247L122.397 32.6766L125.744 29.7202C126.5 29.0529 127.465 28.2003 128.239 27.554C127.326 28.0429 126.129 28.6332 125.18 29.0603L120.923 31.0082L119.533 29.4342L121.984 25.4204C122.524 24.5513 123.257 23.4363 123.854 22.6104C123.117 23.2987 122.162 24.142 121.407 24.8093L118.059 27.7657L116.781 26.3177L124.021 19.9229L126.041 22.2105L121.579 29.0651L128.933 25.4844L130.916 27.7299ZM132.99 34.3437C134.3 36.447 133.631 38.4969 131.706 39.6961C129.793 40.8879 127.646 40.5923 126.335 38.4891C125.025 36.3858 125.706 34.3285 127.62 33.1367C129.545 31.9375 131.68 32.2404 132.99 34.3437ZM127.488 37.771C128.103 38.7573 129.293 38.8407 130.647 37.9968C132.014 37.1455 132.452 36.048 131.837 35.0617C131.223 34.0754 130.045 33.9847 128.678 34.8359C127.324 35.6798 126.874 36.7847 127.488 37.771ZM137.649 42.878C137.746 43.0797 137.801 43.2245 137.836 43.394L136.436 44.0698C135.837 42.5713 134.847 42.1632 133.044 43.0339L129.968 44.5195L129.128 42.7797L135.835 39.5407L136.675 41.2804L135.452 41.871L136.641 41.9499C137.102 42.1316 137.466 42.4998 137.649 42.878ZM137.248 52.6077C137.077 52.6689 136.866 52.7442 136.619 52.8025L134.841 47.8183C133.406 48.4639 133.18 49.2879 133.481 50.1318C133.759 50.9097 134.396 51.3215 135.19 51.1719L135.839 52.9916C134.077 53.219 132.776 52.1968 132.188 50.5486C131.501 48.6235 132.169 46.7054 134.635 45.8255C136.784 45.0586 138.857 45.9096 139.624 48.0588C140.391 50.2081 139.16 51.9255 137.248 52.6077ZM138.317 48.4361C138.015 47.5922 137.263 47.1918 136.046 47.4476L137.147 50.533C138.212 50.0192 138.627 49.3064 138.317 48.4361ZM145.655 65.9343C145.843 68.2366 144.617 69.3905 142.918 69.7404L142.757 67.773C143.725 67.5813 144.294 66.9869 144.212 65.9822C144.149 65.2148 143.738 64.6585 142.957 64.7225C142.147 64.7888 141.785 65.3382 141.548 66.9028C141.233 69.0636 140.334 70.0925 138.785 70.2193C136.971 70.3679 135.803 68.792 135.648 66.8944C135.459 64.5921 136.354 63.0017 138.362 62.6546L138.524 64.622C137.48 64.9182 137.002 65.772 137.082 66.7487C137.154 67.6278 137.686 68.2866 138.425 68.226C139.235 68.1598 139.668 67.6186 139.886 66.1679C140.2 64.1617 140.782 62.8638 142.554 62.7187C144.326 62.5736 145.504 64.0925 145.655 65.9343ZM139.678 78.6006C139.497 78.5921 139.273 78.5816 139.022 78.5419L139.27 73.2557C137.698 73.3081 137.176 73.9844 137.134 74.8794C137.095 75.7045 137.529 76.3275 138.32 76.4907L138.229 78.4206C136.513 77.9617 135.697 76.5219 135.779 74.7738C135.875 72.7321 137.222 71.2115 139.837 71.3341C142.116 71.441 143.71 73.0153 143.604 75.2948C143.497 77.5743 141.706 78.6957 139.678 78.6006ZM142.251 75.1473C142.293 74.2523 141.749 73.5961 140.526 73.3706L140.373 76.643C141.554 76.5722 142.208 76.0703 142.251 75.1473ZM138.273 87.0639C138.094 87.0323 137.873 86.9933 137.63 86.9219L138.551 81.7106C136.985 81.5619 136.38 82.166 136.224 83.0483C136.081 83.8617 136.431 84.5349 137.195 84.7978L136.859 86.7003C135.215 86.0261 134.59 84.494 134.894 82.7707C135.25 80.7579 136.78 79.4216 139.358 79.8771C141.605 80.2741 142.985 82.0391 142.588 84.2863C142.191 86.5335 140.272 87.4171 138.273 87.0639ZM141.265 83.9673C141.421 83.085 140.966 82.3647 139.782 81.9849L139.212 85.211C140.392 85.2915 141.105 84.8772 141.265 83.9673ZM138.297 103.874L129.331 100.277L130.051 98.4839L134.196 100.147C135.131 100.522 136.326 101.002 137.252 101.403C136.405 100.807 135.34 100.002 134.532 99.3465L130.88 96.418L131.662 94.469L136.349 94.856C137.368 94.9481 138.693 95.1029 139.699 95.2651C138.753 94.9158 137.571 94.4414 136.635 94.066L132.49 92.4031L133.21 90.61L142.175 94.207L141.039 97.0395L132.91 96.1315L139.412 101.093L138.297 103.874ZM133.314 108.699C132.022 110.813 129.89 111.134 127.954 109.952C126.031 108.776 125.332 106.725 126.625 104.61C127.917 102.496 130.061 102.182 131.984 103.358C133.92 104.54 134.606 106.584 133.314 108.699ZM127.783 105.319C127.177 106.31 127.637 107.411 128.998 108.243C130.372 109.083 131.55 108.982 132.156 107.991C132.761 106.999 132.314 105.905 130.94 105.066C129.579 104.234 128.389 104.327 127.783 105.319ZM127.783 116.687C127.646 116.865 127.542 116.978 127.406 117.086L126.174 116.139C127.243 114.931 127.163 113.863 125.575 112.643L122.866 110.562L124.043 109.03L129.95 113.567L128.773 115.1L127.696 114.272L128.159 115.37C128.204 115.863 128.039 116.354 127.783 116.687ZM118.918 120.701C118.786 120.576 118.624 120.421 118.461 120.227L122.112 116.396C120.89 115.406 120.052 115.574 119.434 116.223C118.864 116.821 118.783 117.576 119.274 118.217L117.941 119.616C116.945 118.145 117.272 116.523 118.48 115.256C119.89 113.776 121.903 113.51 123.799 115.316C125.451 116.89 125.623 119.124 124.049 120.776C122.475 122.428 120.387 122.102 118.918 120.701ZM123.124 119.778C123.742 119.13 123.761 118.278 122.985 117.306L120.725 119.678C121.663 120.398 122.486 120.447 123.124 119.778ZM116.038 130.721C114.18 132.093 112.553 131.658 111.362 130.398L112.95 129.225C113.622 129.947 114.427 130.118 115.238 129.519C115.857 129.062 116.114 128.42 115.648 127.789C115.166 127.136 114.508 127.117 113.053 127.739C111.05 128.609 109.702 128.386 108.779 127.136C107.698 125.672 108.423 123.849 109.954 122.718C111.813 121.346 113.636 121.27 114.988 122.795L113.4 123.967C112.599 123.236 111.622 123.279 110.833 123.861C110.124 124.385 109.844 125.184 110.284 125.781C110.767 126.434 111.455 126.518 112.803 125.94C114.674 125.15 116.084 124.962 117.14 126.392C118.196 127.822 117.525 129.623 116.038 130.721ZM102.117 132.303C102.029 132.144 101.92 131.948 101.822 131.714L106.45 129.146C105.579 127.836 104.729 127.747 103.945 128.182C103.223 128.583 102.921 129.279 103.198 130.038L101.509 130.975C100.997 129.274 101.793 127.824 103.323 126.974C105.11 125.983 107.112 126.329 108.382 128.618C109.489 130.613 108.988 132.797 106.993 133.904C104.997 135.012 103.102 134.078 102.117 132.303ZM106.407 132.676C107.191 132.241 107.463 131.434 107.012 130.275L104.148 131.865C104.828 132.832 105.599 133.124 106.407 132.676ZM94.1673 135.546C94.1003 135.377 94.0179 135.168 93.9512 134.924L98.8719 132.976C98.1778 131.565 97.3466 131.367 96.5134 131.696C95.7454 132 95.3556 132.651 95.5321 133.44L93.7357 134.151C93.4484 132.397 94.4256 131.062 96.0528 130.418C97.9534 129.666 99.8932 130.268 100.857 132.703C101.696 134.825 100.916 136.925 98.7945 137.765C96.6726 138.604 94.9143 137.433 94.1673 135.546ZM98.3729 136.471C99.206 136.141 99.5806 135.376 99.2835 134.168L96.2373 135.374C96.7872 136.421 97.5137 136.811 98.3729 136.471ZM79.8616 144.374L78.2272 134.854L80.1314 134.527L80.887 138.928C81.0575 139.922 81.2755 141.191 81.4184 142.189C81.4824 141.156 81.6095 139.827 81.7448 138.795L82.3253 134.15L84.395 133.795L86.5214 137.989C86.9769 138.906 87.5398 140.116 87.9288 141.058C87.7306 140.069 87.5151 138.813 87.3445 137.82L86.5889 133.418L88.4931 133.091L90.1275 142.612L87.1195 143.128L83.6334 135.73L82.8144 143.867L79.8616 144.374ZM73.1631 142.671C70.6851 142.685 69.2895 141.041 69.2763 138.773C69.2632 136.52 70.6395 134.845 73.1175 134.831C75.5954 134.817 76.9911 136.475 77.0042 138.728C77.0174 140.996 75.6411 142.656 73.1631 142.671ZM73.1254 136.189C71.9634 136.196 71.269 137.166 71.2783 138.762C71.2877 140.372 71.9932 141.32 73.1552 141.313C74.3172 141.306 75.0116 140.35 75.0022 138.74C74.993 137.144 74.2873 136.182 73.1254 136.189ZM63.4519 142.168C63.229 142.145 63.0773 142.116 62.9144 142.057L63.0721 140.511C64.6624 140.786 65.5287 140.156 65.7319 138.165L66.0786 134.766L68.0006 134.962L67.2448 142.372L65.3227 142.176L65.4606 140.825L64.7705 141.796C64.3742 142.093 63.8697 142.21 63.4519 142.168Z" fill="#FDFFFC"/>
</svg>
