<svg width="34" height="34" viewBox="0 0 34 34" fill="none" xmlns="http://www.w3.org/2000/svg">
<g clip-path="url(#clip0_5177_20923)">
<path d="M30.8701 0H3.12991C1.40906 0 0 1.39142 0 3.12991V26.6024C0 28.3233 1.39142 29.7324 3.12991 29.7324H12.8032V32.0078H10.5985C10.0484 32.0078 9.60245 32.4537 9.60245 33.0039C9.60245 33.5541 10.0484 34 10.5985 34H23.4015C23.9516 34 24.3976 33.5541 24.3976 33.0039C24.3976 32.4537 23.9516 32.0078 23.4015 32.0078H21.1968V29.7324H30.8701C32.5909 29.7324 34 28.3409 34 26.6022V3.12991C34 1.40906 32.6086 0 30.8701 0ZM19.2046 32.0078H14.7954V29.7324H19.2046V32.0078ZM32.0078 26.6024C32.0078 27.2289 31.5004 27.7402 30.8701 27.7402H3.12991C2.50346 27.7402 1.99219 27.2328 1.99219 26.6024V24.3976H32.0078V26.6024ZM32.0078 22.4054H1.99219V3.12991C1.99219 2.50346 2.49957 1.99219 3.12991 1.99219H30.8701C31.4965 1.99219 32.0078 2.49957 32.0078 3.12991V22.4054Z" fill="#BD171D"/>
<path d="M24.8607 7.54885L17.3923 4.34812C17.1418 4.24073 16.858 4.24073 16.6074 4.34812L9.13904 7.54885C8.77277 7.70579 8.53516 8.06609 8.53516 8.46453V16.9998C8.53516 17.3982 8.77277 17.7586 9.13904 17.9152L16.6074 21.1162C16.7527 21.1785 17.0536 21.2615 17.3923 21.1162L24.8607 17.9152C25.227 17.7586 25.4646 17.3982 25.4646 16.9998V8.46453C25.4646 8.06609 25.227 7.70579 24.8607 7.54885ZM16.0038 18.6901L11.5779 16.7931L16.0038 15.2125V18.6901ZM16.0038 13.0971L10.5273 15.053V9.97501L16.0038 12.3221V13.0971ZM16.0038 10.1545L12.0601 8.46453L16.0038 6.77428V10.1545ZM17.996 6.77428L21.9396 8.46453L17.996 10.1545V6.77428ZM17.996 18.6901V15.2125L22.4218 16.7931L17.996 18.6901ZM23.4724 15.053L17.996 13.0971V12.3221L23.4724 9.97501V15.053Z" fill="#BD171D"/>
</g>
<defs>
<clipPath id="clip0_5177_20923">
<rect width="34" height="34" fill="white"/>
</clipPath>
</defs>
</svg>
