<svg width="34" height="34" viewBox="0 0 34 34" fill="none" xmlns="http://www.w3.org/2000/svg">
<path d="M10.5704 21.3145L7.95174 23.9331L7.214 23.1954C6.81583 22.7969 6.16992 22.7969 5.77148 23.1954C5.37305 23.5938 5.37305 24.2397 5.77148 24.6381L7.23061 26.097C7.62878 26.4952 8.27469 26.4954 8.67313 26.097L12.0132 22.7572C12.4116 22.3588 12.4116 21.7129 12.0132 21.3145C11.6147 20.916 10.9688 20.916 10.5704 21.3145Z" fill="#BD171D"/>
<path d="M14.0532 9.25723H21.9052C22.4686 9.25723 22.9251 8.80043 22.9251 8.23701C22.9251 7.6736 22.4686 7.2168 21.9052 7.2168H14.0532C13.49 7.2168 13.0332 7.6736 13.0332 8.23701C13.0332 8.80043 13.4897 9.25723 14.0532 9.25723Z" fill="#BD171D"/>
<path d="M10.5704 5.21289L7.95174 7.83153L7.214 7.0938C6.81583 6.69536 6.16992 6.69536 5.77148 7.0938C5.37305 7.49197 5.37305 8.13788 5.77148 8.53632L7.23061 9.99544C7.62878 10.3936 8.27469 10.3939 8.67313 9.99544L12.0132 6.65541C12.4116 6.25697 12.4116 5.61107 12.0132 5.21289C11.6147 4.81445 10.9688 4.81445 10.5704 5.21289Z" fill="#BD171D"/>
<path d="M14.0532 17.308H21.9052C22.4686 17.308 22.9251 16.8512 22.9251 16.2878C22.9251 15.7244 22.4686 15.2676 21.9052 15.2676H14.0532C13.49 15.2676 13.0332 15.7244 13.0332 16.2878C13.0332 16.8512 13.4897 17.308 14.0532 17.308Z" fill="#BD171D"/>
<path d="M10.5704 13.2637L7.95174 15.8823L7.214 15.1446C6.81583 14.7461 6.16992 14.7461 5.77148 15.1446C5.37305 15.543 5.37305 16.1889 5.77148 16.5871L7.23061 18.0462C7.62878 18.4447 8.27469 18.4447 8.67313 18.0462L12.0132 14.7062C12.4116 14.308 12.4116 13.6621 12.0132 13.2637C11.6147 12.8652 10.9688 12.8652 10.5704 13.2637Z" fill="#BD171D"/>
<path d="M27.0437 19.194V1.02022C27.0437 0.456284 26.5866 0 26.0235 0H2.08272C1.51956 0 1.0625 0.456284 1.0625 1.02022V30.6784C1.0625 31.2415 1.51956 31.6986 2.08272 31.6986H20.0376C21.401 33.1165 23.3161 34 25.4339 34C29.564 34 32.9243 30.6397 32.9243 26.5096C32.9243 22.9317 30.4026 19.9317 27.0437 19.194ZM3.10268 29.6584V2.04018H25.0035V19.0314C22.1973 19.1911 19.7994 20.9029 18.6576 23.3192H14.0527C13.4895 23.3192 13.0327 23.7763 13.0327 24.3394C13.0327 24.9031 13.4895 25.3597 14.0527 25.3597H18.0319C17.8101 26.7801 17.9995 28.2865 18.6386 29.6584H3.10268ZM25.4339 31.9598C22.4287 31.9598 19.9836 29.5139 19.9836 26.5096C19.9836 23.5052 22.4282 21.0593 25.4339 21.0593C28.4382 21.0593 30.8841 23.5042 30.8841 26.5096C30.8841 29.515 28.4393 31.9598 25.4339 31.9598Z" fill="#BD171D"/>
<path d="M29.5849 23.5781C29.1865 23.1797 28.5403 23.1797 28.1418 23.5781C27.7844 23.9353 24.7969 26.9231 24.4428 27.2772L22.7235 25.5579C22.4081 25.2424 21.9383 25.1776 21.5606 25.3594C20.9344 25.6577 20.7796 26.4997 21.281 27.0004L23.7212 29.4411C24.1287 29.8457 24.773 29.8325 25.1645 29.4411L29.5849 25.0206C29.9828 24.6222 29.9828 23.976 29.5849 23.5781Z" fill="#BD171D"/>
</svg>
