<svg width="34" height="34" viewBox="0 0 34 34" fill="none" xmlns="http://www.w3.org/2000/svg">
<g clip-path="url(#clip0_5177_21176)">
<path d="M27.9175 0H6.08255C2.72863 0 0 2.72863 0 6.08255V27.9175C0 31.2714 2.72863 34 6.08255 34H27.9175C31.2714 34 34 31.2714 34 27.9175V6.08255C34 2.72863 31.2714 0 27.9175 0ZM32.0078 27.9175C32.0078 30.1729 30.1729 32.0078 27.9175 32.0078H6.08255C3.82713 32.0078 1.99219 30.1729 1.99219 27.9175V6.08255C1.99219 3.82713 3.82713 1.99219 6.08255 1.99219H27.9175C30.1729 1.99219 32.0078 3.82713 32.0078 6.08255V27.9175Z" fill="#BD171D"/>
<path d="M28.736 7.46782H13.5648C13.1477 6.22901 11.9759 5.33398 10.5983 5.33398C9.22062 5.33398 8.04888 6.22901 7.63179 7.46782H5.26367C4.71356 7.46782 4.26758 7.9138 4.26758 8.46391C4.26758 9.01402 4.71356 9.46 5.26367 9.46H7.63185C8.04895 10.6988 9.22069 11.5938 10.5984 11.5938C11.976 11.5938 13.1478 10.6988 13.5649 9.46H28.7361C29.2862 9.46 29.7322 9.01402 29.7322 8.46391C29.7322 7.9138 29.2862 7.46782 28.736 7.46782ZM10.5983 9.60165C9.97095 9.60165 9.46055 9.09125 9.46055 8.46391C9.46055 7.83657 9.97095 7.32617 10.5983 7.32617C11.2256 7.32617 11.736 7.83657 11.736 8.46391C11.736 9.09125 11.2256 9.60165 10.5983 9.60165Z" fill="#BD171D"/>
<path d="M28.736 16.003H26.3678C25.9507 14.7642 24.7789 13.8691 23.4013 13.8691C22.0237 13.8691 20.852 14.7642 20.4349 16.003H5.26367C4.71356 16.003 4.26758 16.449 4.26758 16.9991C4.26758 17.5492 4.71356 17.9952 5.26367 17.9952H20.4349C20.852 19.234 22.0238 20.129 23.4014 20.129C24.779 20.129 25.9508 19.234 26.3679 17.9952H28.7361C29.2862 17.9952 29.7322 17.5492 29.7322 16.9991C29.7322 16.449 29.2862 16.003 28.736 16.003ZM23.4014 18.1368C22.7741 18.1368 22.2637 17.6264 22.2637 16.9991C22.2637 16.3717 22.7741 15.8613 23.4014 15.8613C24.0287 15.8613 24.5391 16.3717 24.5391 16.9991C24.5391 17.6264 24.0287 18.1368 23.4014 18.1368Z" fill="#BD171D"/>
<path d="M28.736 24.5401H17.8325C17.4154 23.3013 16.2437 22.4062 14.866 22.4062C13.4884 22.4062 12.3166 23.3013 11.8995 24.5401H5.26367C4.71356 24.5401 4.26758 24.9861 4.26758 25.5362C4.26758 26.0863 4.71356 26.5323 5.26367 26.5323H11.8995C12.3166 27.7711 13.4884 28.6661 14.866 28.6661C16.2437 28.6661 17.4154 27.7711 17.8325 26.5323H28.7361C29.2862 26.5323 29.7322 26.0863 29.7322 25.5362C29.7322 24.9861 29.2862 24.5401 28.736 24.5401ZM14.866 26.674C14.2387 26.674 13.7283 26.1636 13.7283 25.5362C13.7283 24.9089 14.2387 24.3985 14.866 24.3985C15.4934 24.3985 16.0038 24.9088 16.0038 25.5362C16.0038 26.1635 15.4934 26.674 14.866 26.674Z" fill="#BD171D"/>
</g>
<defs>
<clipPath id="clip0_5177_21176">
<rect width="34" height="34" fill="white"/>
</clipPath>
</defs>
</svg>
