<svg width="34" height="34" viewBox="0 0 34 34" fill="none" xmlns="http://www.w3.org/2000/svg">
<g clip-path="url(#clip0_5177_21043)">
<mask id="mask0_5177_21043" style="mask-type:luminance" maskUnits="userSpaceOnUse" x="0" y="0" width="34" height="34">
<path d="M0 3.8147e-06H34V34H0V3.8147e-06Z" fill="white"/>
</mask>
<g mask="url(#mask0_5177_21043)">
<path d="M33.0039 3.12828C33.0039 2.56236 32.7791 2.01956 32.3789 1.6194C31.9787 1.21923 31.436 0.994445 30.8701 0.994445H3.12993C2.56401 0.994445 2.02127 1.21923 1.62111 1.6194C1.22088 2.01956 0.996094 2.56236 0.996094 3.12828V22.333C0.996094 22.8989 1.22088 23.4417 1.62111 23.8418C2.02127 24.242 2.56401 24.4668 3.12993 24.4668H30.8701C31.436 24.4668 31.9787 24.242 32.3789 23.8418C32.7791 23.4417 33.0039 22.8989 33.0039 22.333V3.12828Z" stroke="#BD171D" stroke-width="1.99219" stroke-miterlimit="10" stroke-linecap="round" stroke-linejoin="round"/>
<path d="M23.4005 8.46461C25.756 8.46461 27.6683 10.3769 27.6683 12.7323C27.6683 15.0877 25.756 17 23.4005 17C21.0452 17 19.1328 15.0877 19.1328 12.7323C19.1328 10.3769 21.0452 8.46461 23.4005 8.46461Z" stroke="#BD171D" stroke-width="1.99219" stroke-miterlimit="10" stroke-linecap="round" stroke-linejoin="round"/>
<path d="M12.7316 16.4283C12.1036 16.7919 11.3748 17 10.5978 17C8.24238 17 6.33008 15.0878 6.33008 12.7323C6.33008 10.3769 8.24238 8.46461 10.5978 8.46461C11.3748 8.46461 12.1036 8.67272 12.7316 9.03636C11.4564 9.7746 10.5978 11.154 10.5978 12.7323C10.5978 14.3107 11.4564 15.6901 12.7316 16.4283Z" stroke="#BD171D" stroke-width="1.99219" stroke-miterlimit="10" stroke-linecap="round" stroke-linejoin="round"/>
<path d="M16.9992 16.4283C16.3712 16.7919 15.6424 17 14.8654 17C12.51 17 10.5977 15.0878 10.5977 12.7323C10.5977 10.3769 12.51 8.46461 14.8654 8.46461C15.6424 8.46461 16.3712 8.67272 16.9992 9.03636C15.724 9.7746 14.8654 11.154 14.8654 12.7323C14.8654 14.3107 15.724 15.6901 16.9992 16.4283Z" stroke="#BD171D" stroke-width="1.99219" stroke-miterlimit="10" stroke-linecap="round" stroke-linejoin="round"/>
<path d="M21.2668 16.4283C20.6388 16.7919 19.91 17 19.133 17C16.7775 17 14.8652 15.0878 14.8652 12.7323C14.8652 10.3769 16.7775 8.46461 19.133 8.46461C19.91 8.46461 20.6388 8.67272 21.2668 9.03636C19.9916 9.7746 19.133 11.154 19.133 12.7323C19.133 14.3107 19.9916 15.6901 21.2668 16.4283Z" stroke="#BD171D" stroke-width="1.99219" stroke-miterlimit="10" stroke-linecap="round" stroke-linejoin="round"/>
<path d="M0.996094 30.8691H5.26382" stroke="#BD171D" stroke-width="1.99219" stroke-miterlimit="10" stroke-linecap="round" stroke-linejoin="round"/>
<path d="M9.53125 30.8691H33.0037" stroke="#BD171D" stroke-width="1.99219" stroke-miterlimit="10" stroke-linecap="round" stroke-linejoin="round"/>
<path d="M7.3975 28.7362C8.57522 28.7362 9.53134 29.6923 9.53134 30.87C9.53134 32.0478 8.57522 33.0039 7.3975 33.0039C6.21979 33.0039 5.26367 32.0478 5.26367 30.87C5.26367 29.6923 6.21979 28.7362 7.3975 28.7362Z" stroke="#BD171D" stroke-width="1.99219" stroke-miterlimit="10" stroke-linecap="round" stroke-linejoin="round"/>
</g>
</g>
<defs>
<clipPath id="clip0_5177_21043">
<rect width="34" height="34" fill="white"/>
</clipPath>
</defs>
</svg>
