<svg width="34" height="34" viewBox="0 0 34 34" fill="none" xmlns="http://www.w3.org/2000/svg">
<path d="M33.0037 1.25H0.996321C0.446086 1.25 0 1.69609 0 2.24632V27.7521C0 28.3024 0.446086 28.7485 0.996321 28.7485H10.5024V30.7567H8.49809C7.94785 30.7567 7.50177 31.2028 7.50177 31.753C7.50177 32.3033 7.94785 32.7494 8.49809 32.7494H25.502C26.0522 32.7494 26.4983 32.3033 26.4983 31.753C26.4983 31.2028 26.0522 30.7567 25.502 30.7567H23.4976V28.7485H33.0037C33.5539 28.7485 34 28.3024 34 27.7521V2.24632C34 1.69609 33.5539 1.25 33.0037 1.25ZM21.5049 30.7567H12.4951V28.7485H21.5049V30.7567ZM32.0074 26.7558C30.3043 26.7558 3.00285 26.7558 1.99264 26.7558V3.24264H32.0074V26.7558Z" fill="#BD171D"/>
<path d="M10.0073 17.9934C10.1356 21.7401 13.223 24.7487 17.0004 24.7487C20.7778 24.7487 23.8651 21.7401 23.9933 17.9934C25.8085 16.7279 26.9987 14.6254 26.9987 12.2497C26.9987 7.10898 21.6135 3.72999 17.0004 5.92887C12.3921 3.73225 7.00195 7.10241 7.00195 12.2497C7.00202 14.6254 8.19223 16.7279 10.0073 17.9934ZM13.3274 14.3557C13.6639 15.4196 14.2483 16.3742 15.0124 17.1517C14.065 17.3471 13.0361 17.2715 12.0747 16.8693C12.2461 15.9094 12.6913 15.0434 13.3274 14.3557ZM17.0004 8.24658C17.8961 8.91963 18.5596 9.8856 18.8472 11.0011C17.6767 10.6805 16.3961 10.6609 15.1538 11.0011C15.4413 9.8856 16.1048 8.91963 17.0004 8.24658ZM21.9261 16.8693C20.9651 17.2712 19.9362 17.3472 18.9884 17.1516C19.7525 16.3741 20.3369 15.4196 20.6734 14.3557C21.3095 15.0434 21.7547 15.9094 21.9261 16.8693ZM15.0754 13.1315C16.3048 12.6173 17.6959 12.6172 18.9254 13.1315C18.6986 14.4014 17.9927 15.5072 17.0004 16.253C16.0081 15.5072 15.3022 14.4013 15.0754 13.1315ZM17.0004 22.7561C14.6715 22.7561 12.7091 21.1572 12.153 18.9996C13.7435 19.4352 15.4703 19.2998 17.0004 18.5705C18.5277 19.2984 20.254 19.4361 21.8477 18.9996C21.2917 21.1573 19.3292 22.7561 17.0004 22.7561ZM25.0061 12.2498C25.0061 13.5592 24.5001 14.7522 23.6741 15.6451C23.2033 14.1567 22.2474 12.8821 20.9928 12.0074C20.9308 10.1961 20.1772 8.55757 18.9884 7.34783C22.1 6.70574 25.0061 9.09458 25.0061 12.2498ZM15.0125 7.34777C13.8236 8.5575 13.0701 10.196 13.008 12.0073C11.7534 12.882 10.7975 14.1566 10.3267 15.645C7.06578 12.1201 10.2163 6.35822 15.0125 7.34777Z" fill="#BD171D"/>
<path d="M4.99632 20.7465H6.9968C7.54704 20.7465 7.99312 20.3005 7.99312 19.7502C7.99312 19.2 7.54704 18.7539 6.9968 18.7539H4.99632C4.44609 18.7539 4 19.2 4 19.7502C4 20.3005 4.44609 20.7465 4.99632 20.7465Z" fill="#BD171D"/>
<path d="M4.99632 24.7485H8.99722C9.54745 24.7485 9.99354 24.3024 9.99354 23.7522C9.99354 23.2019 9.54745 22.7559 8.99722 22.7559H4.99632C4.44609 22.7559 4 23.2019 4 23.7522C4 24.3024 4.44609 24.7485 4.99632 24.7485Z" fill="#BD171D"/>
<path d="M26.0059 19.7502C26.0059 20.3005 26.4519 20.7465 27.0022 20.7465H29.0027C29.5529 20.7465 29.999 20.3005 29.999 19.7502C29.999 19.2 29.5529 18.7539 29.0027 18.7539H27.0022C26.4519 18.7539 26.0059 19.2 26.0059 19.7502Z" fill="#BD171D"/>
<path d="M29.0031 22.7559H25.0022C24.4519 22.7559 24.0059 23.2019 24.0059 23.7522C24.0059 24.3024 24.4519 24.7485 25.0022 24.7485H29.0031C29.5533 24.7485 29.9994 24.3024 29.9994 23.7522C29.9994 23.2019 29.5534 22.7559 29.0031 22.7559Z" fill="#BD171D"/>
</svg>
