<svg width="34" height="34" viewBox="0 0 34 34" fill="none" xmlns="http://www.w3.org/2000/svg">
<g clip-path="url(#clip0_5161_18736)">
<path d="M20.918 16.9336H4.98047" stroke="#BD171D" stroke-width="1.99219" stroke-miterlimit="10" stroke-linecap="square"/>
<path d="M20.918 20.918H10.957" stroke="#BD171D" stroke-width="1.99219" stroke-miterlimit="10" stroke-linecap="square"/>
<path d="M20.918 24.9023H4.98047" stroke="#BD171D" stroke-width="1.99219" stroke-miterlimit="10" stroke-linecap="square"/>
<mask id="mask0_5161_18736" style="mask-type:luminance" maskUnits="userSpaceOnUse" x="0" y="0" width="34" height="34">
<path d="M0 1C0 0.44772 0.447715 3.8147e-06 1 3.8147e-06H33C33.5523 3.8147e-06 34 0.44772 34 1V33C34 33.5523 33.5523 34 33 34H1C0.447716 34 0 33.5523 0 33V1Z" fill="white"/>
</mask>
<g mask="url(#mask0_5161_18736)">
<path d="M1.99609 0.994926C1.44381 0.994926 0.996094 1.44264 0.996094 1.99493V27.8855C0.996094 28.4378 1.44381 28.8855 1.99609 28.8855H3.98047C4.53275 28.8855 4.98047 29.3333 4.98047 29.8855V29.9293C4.98047 30.7602 5.93496 31.2287 6.59222 30.7204L8.69465 29.0945C8.86981 28.959 9.08498 28.8855 9.3064 28.8855H23.9023C24.4546 28.8855 24.9023 28.4378 24.9023 27.8855V1.99493C24.9023 1.44264 24.4546 0.994926 23.9023 0.994926H1.99609Z" stroke="#BD171D" stroke-width="1.99219" stroke-miterlimit="10" stroke-linecap="square"/>
</g>
<path d="M11.4081 6.70017C10.7432 6.36772 9.96094 6.85121 9.96094 7.5946V10.3351C9.96094 11.0785 10.7433 11.562 11.4082 11.2295L14.1486 9.85927C14.8857 9.49075 14.8857 8.43894 14.1486 8.07042L11.4081 6.70017Z" stroke="#BD171D" stroke-width="1.99219" stroke-miterlimit="10" stroke-linecap="square"/>
<mask id="mask1_5161_18736" style="mask-type:luminance" maskUnits="userSpaceOnUse" x="0" y="0" width="34" height="34">
<path d="M0 1C0 0.44772 0.447715 3.8147e-06 1 3.8147e-06H33C33.5523 3.8147e-06 34 0.44772 34 1V33C34 33.5523 33.5523 34 33 34H1C0.447716 34 0 33.5523 0 33V1Z" fill="white"/>
</mask>
<g mask="url(#mask1_5161_18736)">
<path d="M33.0039 14.9414C33.0039 19.634 32.3131 23.2903 31.745 25.5035C31.5206 26.3779 30.5028 26.3779 30.2784 25.5035C29.7104 23.2903 29.0195 19.634 29.0195 14.9414" stroke="#BD171D" stroke-width="1.99219" stroke-miterlimit="10" stroke-linecap="square"/>
<path d="M33.0039 13.9414C33.0039 14.4937 32.5562 14.9414 32.0039 14.9414H30.0195C29.4672 14.9414 29.0195 14.4937 29.0195 13.9414V4.98047C29.0195 3.88018 29.9115 2.98828 31.0117 2.98828C32.1119 2.98828 33.0039 3.88018 33.0039 4.98047V13.9414Z" stroke="#BD171D" stroke-width="1.99219" stroke-miterlimit="10" stroke-linecap="square"/>
<path d="M4.98047 20.918H6.97266" stroke="#BD171D" stroke-width="1.99219" stroke-miterlimit="10" stroke-linecap="square"/>
</g>
</g>
<defs>
<clipPath id="clip0_5161_18736">
<rect width="34" height="34" fill="white"/>
</clipPath>
</defs>
</svg>
