<svg width="34" height="34" viewBox="0 0 34 34" fill="none" xmlns="http://www.w3.org/2000/svg">
<g clip-path="url(#clip0_5161_18689)">
<path d="M13.1726 2.02539L11.764 3.43407L12.8911 4.56125C12.8993 9.42497 10.9657 14.1401 7.54677 17.5591C7.53794 17.5679 7.52911 17.5767 7.52028 17.5855L3.27665 21.8291C1.36568 23.6544 1.32497 27.0289 3.27672 28.8961C4.89597 30.5826 7.78869 30.8531 9.7071 29.4341L16.556 34.0002L21.5661 28.99L20.1574 27.5814L20.1573 27.5814C19.89 27.8489 19.4676 27.8907 19.1529 27.6809L14.5965 24.6433C14.598 24.6418 14.5995 24.6402 14.6011 24.6386C18.0284 21.2113 22.75 19.2722 27.6113 19.2815L28.7386 20.4088L30.1473 19.0001L24.2914 13.1442L26.463 9.65759L22.5151 5.70974L19.0285 7.88149L13.1726 2.02539ZM4.68539 27.4875C3.55868 26.4109 3.49911 24.376 4.68533 23.2379L8.22465 19.6986L12.4742 23.9482L8.93493 27.4875C7.85828 28.6141 5.82346 28.6738 4.68539 27.4875ZM16.3022 31.4367L11.2028 28.037L13.16 26.0798L18.0479 29.3384C18.1196 29.3863 18.1932 29.4305 18.2679 29.4708L16.3022 31.4367ZM13.9003 22.5569L9.61639 18.273C12.5687 15.0208 14.3889 10.8494 14.7957 6.46584L25.7067 17.3769C21.329 17.7833 17.1579 19.6037 13.9003 22.5569ZM22.2253 8.23723L23.9355 9.94739L22.8452 11.6979L20.4749 9.32762L22.2253 8.23723Z" fill="#BD171D"/>
<path d="M25.9141 4.84766L29.3799 1.38186L30.7883 2.79034L27.3225 6.25613L25.9141 4.84766Z" fill="#BD171D"/>
<path d="M22.6152 0H24.6074V4.00994H22.6152V0Z" fill="#BD171D"/>
<path d="M28.1621 7.56445H32.172V9.55664H28.1621V7.56445Z" fill="#BD171D"/>
</g>
<defs>
<clipPath id="clip0_5161_18689">
<rect width="34" height="34" fill="white"/>
</clipPath>
</defs>
</svg>
