<svg width="34" height="34" viewBox="0 0 34 34" fill="none" xmlns="http://www.w3.org/2000/svg">
<path d="M17.0005 0.53125C9.76522 0.53125 3.87891 6.41763 3.87891 13.6529C3.87891 13.7938 3.93489 13.9289 4.0345 14.0286C4.13411 14.1282 4.26924 14.1842 4.41016 14.1842L9.68055 14.1841C9.97394 14.1841 10.2118 13.9462 10.2118 13.6529C10.2118 9.90961 13.2572 6.86421 17.0005 6.86421C20.7438 6.86421 23.7892 9.90961 23.7892 13.6529C23.7892 13.9463 24.0271 14.1842 24.3205 14.1842H29.5909C29.8843 14.1842 30.1222 13.9463 30.1222 13.6529C30.1221 6.41763 24.2358 0.53125 17.0005 0.53125ZM16.4693 5.81991C15.4258 5.88997 14.4376 6.16463 13.5445 6.6043L11.4379 2.95568C12.9554 2.16338 14.6613 1.68479 16.4693 1.60597V5.81991ZM17.5318 1.60597C19.3397 1.68479 21.0457 2.16332 22.5631 2.95561L20.4566 6.60423C19.5635 6.16456 18.5752 5.88997 17.5318 5.81991V1.60597ZM9.16704 13.1217H4.95289C5.03172 11.3136 5.51077 9.60766 6.30313 8.09014L9.95222 10.1969C9.51248 11.09 9.23716 12.0782 9.16704 13.1217ZM10.4849 9.27762L6.83618 7.17108C7.78193 5.69321 9.041 4.43454 10.5189 3.48879L12.6251 7.13701C11.7812 7.70552 11.0534 8.43366 10.4849 9.27762ZM21.3759 7.13695L23.4822 3.48872C24.9601 4.43448 26.2191 5.69314 27.1649 7.17101L23.5162 9.27755C22.9476 8.43366 22.2198 7.70552 21.3759 7.13695ZM24.8339 13.1216C24.7638 12.0781 24.4885 11.09 24.0488 10.1969L27.6979 8.09014C28.4903 9.60766 28.9693 11.3136 29.0481 13.1217L24.8339 13.1216ZM20.1713 10.4821C19.9638 10.2747 19.6275 10.2747 19.42 10.4821L17.8353 12.0669C17.5858 11.935 17.3019 11.86 17.0006 11.86C16.0119 11.86 15.2076 12.6643 15.2076 13.653C15.2076 14.6416 16.0119 15.446 17.0006 15.446C17.9892 15.446 18.7936 14.6416 18.7936 13.653C18.7936 13.3517 18.7185 13.0678 18.5867 12.8183L20.1714 11.2335C20.3788 11.0259 20.3787 10.6895 20.1713 10.4821ZM17.0005 14.3834C16.5978 14.3834 16.27 14.0557 16.27 13.6529C16.27 13.2502 16.5978 12.9225 17.0005 12.9225C17.4033 12.9225 17.731 13.2502 17.731 13.6529C17.731 14.0557 17.4033 14.3834 17.0005 14.3834ZM15.6745 22.5269H12.5794C12.286 22.5269 12.0481 22.7648 12.0481 23.0582V32.9374C12.0481 33.2308 12.286 33.4687 12.5794 33.4687H15.6745C15.9679 33.4687 16.2058 33.2308 16.2058 32.9374V23.0582C16.2058 22.7649 15.9679 22.5269 15.6745 22.5269ZM15.1433 32.4062H13.1106V23.5894H15.1433V32.4062ZM21.4218 23.8169H18.3266C18.0332 23.8169 17.7953 24.0548 17.7953 24.3482V32.9375C17.7953 33.2309 18.0332 33.4688 18.3266 33.4688H21.4218C21.7152 33.4688 21.953 33.2309 21.953 32.9375V24.3482C21.953 24.0548 21.7152 23.8169 21.4218 23.8169ZM20.8905 32.4062H18.8578V24.8794H20.8905V32.4062ZM27.169 18.4668H24.0738C23.7804 18.4668 23.5425 18.7047 23.5425 18.9981V32.9374C23.5425 33.2308 23.7804 33.4687 24.0738 33.4687H27.169C27.4624 33.4687 27.7002 33.2308 27.7002 32.9374V18.9981C27.7002 18.7047 27.4624 18.4668 27.169 18.4668ZM26.6377 32.4062H24.605V19.5293H26.6377V32.4062ZM9.92725 26.3591H6.83212C6.53874 26.3591 6.30087 26.597 6.30087 26.8903V32.9374C6.30087 33.2308 6.53874 33.4687 6.83212 33.4687H9.92725C10.2206 33.4687 10.4585 33.2308 10.4585 32.9374V26.8903C10.4585 26.597 10.2207 26.3591 9.92725 26.3591ZM9.396 32.4062H7.36337V27.4216H9.396V32.4062ZM14.2907 18.7031L19.7272 20.465L24.2229 15.9309L23.7969 15.9682C23.5045 15.9934 23.2469 15.7776 23.2213 15.4853C23.1956 15.1931 23.4118 14.9354 23.7041 14.9097L25.575 14.7456C25.7333 14.7314 25.8902 14.7897 26.0015 14.9037C26.1128 15.0176 26.167 15.1756 26.1493 15.3339L25.9406 17.2003C25.9102 17.4718 25.6803 17.6726 25.4133 17.6726C25.3936 17.6726 25.3737 17.6714 25.3536 17.6692C25.062 17.6366 24.8521 17.3738 24.8847 17.0822L24.9238 16.7328L20.2514 21.4451C20.1103 21.5875 19.901 21.6383 19.7104 21.5765L14.231 19.8006L8.70604 24.1027C8.60909 24.1782 8.49414 24.2148 8.37999 24.2148C8.22181 24.2148 8.06522 24.1444 7.9605 24.0099C7.78027 23.7784 7.82178 23.4446 8.05327 23.2643L13.8005 18.7891C13.9396 18.681 14.1231 18.6487 14.2907 18.7031Z" fill="#BD171D" stroke="#BD171D" stroke-width="0.5"/>
</svg>
