<svg width="34" height="34" viewBox="0 0 34 34" fill="none" xmlns="http://www.w3.org/2000/svg">
<path d="M33.0039 13.8789H31.8086V6.24219C31.8086 4.59445 30.4681 3.25391 28.8203 3.25391H5.17969C3.53195 3.25391 2.19141 4.59445 2.19141 6.24219V13.8789H0.996094C0.445984 13.8789 0 14.3249 0 14.875C0 15.4251 0.445984 15.8711 0.996094 15.8711H2.19141V23.5078C2.19141 25.1556 3.53195 26.4961 5.17969 26.4961H12.5367L11.9722 28.7539H10.625C10.0749 28.7539 9.62891 29.1999 9.62891 29.75C9.62891 30.3001 10.0749 30.7461 10.625 30.7461H23.375C23.9251 30.7461 24.3711 30.3001 24.3711 29.75C24.3711 29.1999 23.9251 28.7539 23.375 28.7539H22.0278L21.4633 26.4961H28.8203C30.4681 26.4961 31.8086 25.1556 31.8086 23.5078V15.8711H33.0039C33.554 15.8711 34 15.4251 34 14.875C34 14.3249 33.554 13.8789 33.0039 13.8789ZM4.18359 17.7839C4.53395 17.9204 4.91446 17.9961 5.3125 17.9961H6.90625C8.27893 17.9961 9.44662 17.1049 9.86339 15.8711H12.2852V17.5312C12.2852 18.0814 12.7311 18.5273 13.2812 18.5273H20.7188C21.2689 18.5273 21.7148 18.0814 21.7148 17.5312V15.8711H24.1366C24.5534 17.1049 25.7211 17.9961 27.0938 17.9961H28.6875C29.0855 17.9961 29.466 17.9204 29.8164 17.7839V20.2539H4.18359V17.7839ZM4.18359 14.875C4.18359 14.2525 4.69001 13.7461 5.3125 13.7461H6.90625C7.52874 13.7461 8.03516 14.2525 8.03516 14.875C8.03516 15.4975 7.52874 16.0039 6.90625 16.0039H5.3125C4.69001 16.0039 4.18359 15.4975 4.18359 14.875ZM14.2773 12.6836H16.0039V13.8125C16.0039 14.3626 16.4499 14.8086 17 14.8086C17.5501 14.8086 17.9961 14.3626 17.9961 13.8125V12.6836H19.7227V16.5352H14.2773V12.6836ZM18.1289 10.6914H15.8711V10.0273C15.8711 9.42159 16.3565 8.96484 17 8.96484C17.6435 8.96484 18.1289 9.42159 18.1289 10.0273V10.6914ZM25.9648 14.875C25.9648 14.2525 26.4713 13.7461 27.0938 13.7461H28.6875C29.31 13.7461 29.8164 14.2525 29.8164 14.875C29.8164 15.4975 29.31 16.0039 28.6875 16.0039H27.0938C26.4713 16.0039 25.9648 15.4975 25.9648 14.875ZM5.17969 5.24609H28.8203C29.3696 5.24609 29.8164 5.69294 29.8164 6.24219V11.9661C29.466 11.8296 29.0855 11.7539 28.6875 11.7539H27.0938C25.7211 11.7539 24.5534 12.6451 24.1366 13.8789H21.7148V11.6875C21.7148 11.1374 21.2689 10.6914 20.7188 10.6914H20.1211V10.0273C20.1211 8.31446 18.7501 6.97266 17 6.97266C15.2499 6.97266 13.8789 8.31446 13.8789 10.0273V10.6914H13.2812C12.7311 10.6914 12.2852 11.1374 12.2852 11.6875V13.8789H9.86339C9.44662 12.6451 8.27893 11.7539 6.90625 11.7539H5.3125C4.91446 11.7539 4.53395 11.8296 4.18359 11.9661V6.24219C4.18359 5.69294 4.63044 5.24609 5.17969 5.24609ZM19.9742 28.7539H14.0258L14.5903 26.4961H19.4097L19.9742 28.7539ZM28.8203 24.5039C27.6934 24.5039 5.97384 24.5039 5.17969 24.5039C4.63044 24.5039 4.18359 24.0571 4.18359 23.5078V22.2461H29.8164V23.5078C29.8164 24.0571 29.3696 24.5039 28.8203 24.5039Z" fill="#BD171D"/>
</svg>
