<svg width="34" height="34" viewBox="0 0 34 34" fill="none" xmlns="http://www.w3.org/2000/svg">
<g clip-path="url(#clip0_5177_19380)">
<path d="M11.1029 21.1424C9.43898 20.2869 8.30078 18.553 8.30078 16.5533C8.30078 13.7053 10.6096 11.3965 13.4576 11.3965C16.3057 11.3965 18.6145 13.7053 18.6145 16.5533C18.6145 19.4014 16.3057 21.7102 13.4576 21.7102" stroke="#BD171D" stroke-width="1.5" stroke-miterlimit="10" stroke-linecap="round" stroke-linejoin="round"/>
<path d="M12.9759 16.5073L12.1042 15.6357C11.8449 15.3764 11.4244 15.3764 11.1651 15.6357L10.6457 16.1551C10.3863 16.4144 10.3863 16.8349 10.6457 17.0942L12.1541 18.6027C12.6728 19.1213 13.5137 19.1213 14.0324 18.6027L16.0446 16.5905C16.3039 16.3312 16.3039 15.9107 16.0446 15.6514L15.5251 15.132C15.2658 14.8727 14.8453 14.8727 14.586 15.132L13.2107 16.5073C13.1458 16.5722 13.0407 16.5722 12.9759 16.5073Z" stroke="#BD171D" stroke-width="1.5" stroke-miterlimit="10" stroke-linecap="round" stroke-linejoin="round"/>
<path d="M5.21094 21.2656L8.74501 24.7997" stroke="#BD171D" stroke-width="1.5" stroke-miterlimit="10" stroke-linecap="round" stroke-linejoin="round"/>
<path d="M1.16081 26.1402C0.318511 26.8702 0.272425 28.1615 1.0606 28.9497C1.84878 29.7379 3.14011 29.6918 3.87012 28.8495L8.01413 24.0679L5.94239 21.9961L1.16081 26.1402Z" stroke="#BD171D" stroke-width="1.5" stroke-miterlimit="10" stroke-linecap="round" stroke-linejoin="round"/>
<path d="M18.611 11.4953C15.8135 8.64714 11.1843 8.62337 8.35889 11.4439C5.98964 13.8091 5.60714 17.4101 7.21152 20.1743C7.37302 20.4525 7.31923 20.8053 7.07612 21.016L5.94336 21.9978L8.0151 24.0696L8.9918 22.9426C9.20158 22.7006 9.5548 22.6363 9.83164 22.7974C12.595 24.4054 16.1972 24.0258 18.5645 21.6585C21.3683 18.8546 21.3838 14.3183 18.611 11.4953Z" stroke="#BD171D" stroke-width="1.5" stroke-miterlimit="10" stroke-linecap="round" stroke-linejoin="round"/>
<path d="M28.7144 4.99181C27.1577 3.43512 25.0464 2.56055 22.8449 2.56055H21.9668C24.3507 2.56055 26.2832 4.49304 26.2832 6.87695V9.78017H29.2569C31.6409 9.78017 33.5028 11.7127 33.5028 14.0966V13.2185C33.5028 11.017 32.6283 8.90566 31.0716 7.34897L28.7144 4.99181Z" stroke="#BD171D" stroke-width="1.5" stroke-miterlimit="10" stroke-linecap="round" stroke-linejoin="round"/>
<path d="M21.9667 2.56055H11.8086C11.2585 2.56055 10.8125 3.00653 10.8125 3.55664V9.8394" stroke="#BD171D" stroke-width="1.5" stroke-miterlimit="10" stroke-linecap="round" stroke-linejoin="round"/>
<path d="M10.8125 29.8019V30.444C10.8125 30.9941 11.2585 31.4401 11.8086 31.4401H32.5066C33.0567 31.4401 33.5027 30.9941 33.5027 30.444V14.0977" stroke="#BD171D" stroke-width="1.5" stroke-miterlimit="10" stroke-linecap="round" stroke-linejoin="round"/>
<path d="M10.8125 23.2715V27.4768" stroke="#BD171D" stroke-width="1.5" stroke-miterlimit="10" stroke-linecap="round" stroke-linejoin="round"/>
<path d="M26.2786 6.68555H14.2383C14.0549 6.68555 13.9062 6.83423 13.9062 7.01758V9.35601" stroke="#BD171D" stroke-width="1.5" stroke-miterlimit="10" stroke-linecap="round" stroke-linejoin="round"/>
<path d="M24.8516 9.78125H26.282" stroke="#BD171D" stroke-width="1.5" stroke-miterlimit="10" stroke-linecap="round" stroke-linejoin="round"/>
<path d="M15.9473 9.78125H22.5282" stroke="#BD171D" stroke-width="1.5" stroke-miterlimit="10" stroke-linecap="round" stroke-linejoin="round"/>
<path d="M20.1777 13.9062H30.4081" stroke="#BD171D" stroke-width="1.5" stroke-miterlimit="10" stroke-linecap="round" stroke-linejoin="round"/>
<path d="M20.6641 17H30.4075" stroke="#BD171D" stroke-width="1.5" stroke-miterlimit="10" stroke-linecap="round" stroke-linejoin="round"/>
<path d="M19.752 20.0938H30.4078" stroke="#BD171D" stroke-width="1.5" stroke-miterlimit="10" stroke-linecap="round" stroke-linejoin="round"/>
<path d="M13.9062 26.2832H27.3141" stroke="#BD171D" stroke-width="1.5" stroke-miterlimit="10" stroke-linecap="round" stroke-linejoin="round"/>
<path d="M16.3086 23.1875H30.4084" stroke="#BD171D" stroke-width="1.5" stroke-miterlimit="10" stroke-linecap="round" stroke-linejoin="round"/>
</g>
<defs>
<clipPath id="clip0_5177_19380">
<rect width="34" height="34" fill="white"/>
</clipPath>
</defs>
</svg>
