<svg width="34" height="34" viewBox="0 0 34 34" fill="none" xmlns="http://www.w3.org/2000/svg">
<g clip-path="url(#clip0_5177_19207)">
<path d="M33.6427 15.2204C33.069 13.3823 31.8085 11.9445 30.2315 11.1003V4.43273C30.2315 4.17647 30.0238 3.96875 29.7675 3.96875H0.497184C0.240922 3.96875 0.0332031 4.17647 0.0332031 4.43273V23.5004C0.0332031 23.7567 0.240922 23.9644 0.497184 23.9644H11.0774V27.2238H8.64463C8.38837 27.2238 8.18065 27.4315 8.18065 27.6877C8.18065 27.944 8.38837 28.1517 8.64463 28.1517H21.6201C21.8763 28.1517 22.0841 27.944 22.0841 27.6877C22.0841 27.4315 21.8763 27.2238 21.6201 27.2238H19.1873V23.9644H24.5061C25.2667 24.2395 26.0772 24.3869 26.9041 24.3869C26.9733 24.3869 27.0426 24.3851 27.112 24.383L28.5888 29.062C28.7754 29.6518 29.3224 30.0306 29.9088 30.0305C30.044 30.0305 30.1814 30.0104 30.3168 29.9681L30.7701 29.8271C31.4969 29.6 31.9041 28.8237 31.6777 28.0963L30.2565 23.5396C31.4869 22.8787 32.4926 21.8675 33.1556 20.6036C34.0317 18.9331 34.2047 17.0213 33.6427 15.2204ZM29.3035 4.89671V10.6857C27.9014 10.1759 26.3284 10.1029 24.7978 10.5798C23.4312 11.0062 22.2859 11.8127 21.4411 12.8464C21.4319 12.8459 21.4228 12.845 21.4134 12.845H17.6901V8.59189C17.6901 8.33563 17.4824 8.12791 17.2261 8.12791H13.0387C12.7824 8.12791 12.5747 8.33563 12.5747 8.59189V10.2882H9.31527V6.47665C9.31527 6.22039 9.10755 6.01267 8.85129 6.01267H4.66205C4.40579 6.01267 4.19807 6.22039 4.19807 6.47665V18.9505C4.19807 19.2068 4.40579 19.4145 4.66205 19.4145H8.85129H13.0387H17.226H20.1534C20.1546 19.4186 20.1558 19.4227 20.1571 19.4269C20.2912 19.8566 20.4639 20.2634 20.6683 20.6469H0.961164V4.89671H29.3035ZM19.9333 18.4865H17.69V13.7731H20.799C19.9907 15.1638 19.6553 16.8244 19.9333 18.4865ZM9.31527 18.4865V11.2163H12.5746V18.4865H9.31527ZM8.38724 18.4865H5.12603V6.94063H8.38724V18.4865ZM13.5026 9.05593H16.7621V18.4865H13.5026V9.05593ZM18.2593 27.2238H12.0055V23.9645H18.2593V27.2238ZM0.961164 23.0364V21.5749H21.2608C21.6864 22.1381 22.1898 22.6296 22.7516 23.0364H0.961164ZM30.7916 28.3724C30.866 28.6114 30.7322 28.8666 30.4938 28.9411L30.0405 29.0822C29.8039 29.1562 29.5493 29.0216 29.4736 28.7824L28.0558 24.2903C28.3725 24.2376 28.6892 24.1638 29.004 24.0655C29.1397 24.0231 29.2732 23.9766 29.4051 23.9268L30.7916 28.3724ZM32.3337 20.1725C31.5727 21.6234 30.292 22.6913 28.7275 23.1796C28.1213 23.3688 27.5075 23.4588 26.9035 23.4588C24.29 23.4587 21.8617 21.7737 21.043 19.1507C21.0136 19.0562 20.9868 18.9616 20.9621 18.8667C20.9583 18.846 20.9533 18.8258 20.9469 18.8061C20.1673 15.6793 21.9597 12.4377 25.074 11.4658C28.3027 10.4597 31.7491 12.2682 32.7567 15.4969C33.245 17.0611 33.0947 18.7216 32.3337 20.1725ZM29.4536 16.1598L27.3326 12.4871C27.2497 12.3436 27.0965 12.2552 26.9308 12.2552C26.765 12.2552 26.6118 12.3436 26.529 12.4871L22.2871 19.8345C22.2042 19.978 22.2043 20.1549 22.2871 20.2984C22.3699 20.442 22.5231 20.5304 22.6889 20.5304H31.1707C31.3364 20.5304 31.4896 20.442 31.5725 20.2985C31.6553 20.155 31.6554 19.9782 31.5727 19.8346L29.4536 16.1598ZM23.4926 19.6024L26.9309 13.6471L28.6498 16.6237L30.3676 19.6024H23.4926ZM27.3948 15.3643V17.2523C27.3948 17.5085 27.1871 17.7162 26.9309 17.7162C26.6746 17.7162 26.4669 17.5085 26.4669 17.2523V15.3643C26.4669 15.108 26.6746 14.9003 26.9309 14.9003C27.1871 14.9003 27.3948 15.108 27.3948 15.3643ZM27.3948 18.3738V18.4884C27.3948 18.7447 27.1871 18.9524 26.9309 18.9524C26.6746 18.9524 26.4669 18.7447 26.4669 18.4884V18.3738C26.4669 18.1175 26.6746 17.9098 26.9309 17.9098C27.1871 17.9098 27.3948 18.1175 27.3948 18.3738Z" fill="#BD171D" stroke="#BD171D" stroke-width="0.5"/>
</g>
<defs>
<clipPath id="clip0_5177_19207">
<rect width="34" height="34" fill="white"/>
</clipPath>
</defs>
</svg>
