<svg width="34" height="34" viewBox="0 0 34 34" fill="none" xmlns="http://www.w3.org/2000/svg">
<g clip-path="url(#clip0_5177_19502)">
<mask id="mask0_5177_19502" style="mask-type:luminance" maskUnits="userSpaceOnUse" x="0" y="0" width="34" height="34">
<path d="M0 3.8147e-06H34V34H0V3.8147e-06Z" fill="white"/>
</mask>
<g mask="url(#mask0_5177_19502)">
<path d="M24.0035 2.5782L25.1252 6.41064L21.1777 7.01367" stroke="#BD171D" stroke-width="1.99219" stroke-miterlimit="10" stroke-linecap="round" stroke-linejoin="round"/>
<path d="M9.99478 31.4219L8.87305 27.5894L12.8205 26.9863" stroke="#BD171D" stroke-width="1.99219" stroke-miterlimit="10" stroke-linecap="round" stroke-linejoin="round"/>
<path d="M8.87305 27.5891C13.0281 30.7747 18.8564 31.3387 23.673 28.5579C28.4896 25.777 30.9153 20.4476 30.234 15.2563" stroke="#BD171D" stroke-width="1.99219" stroke-miterlimit="10" stroke-linecap="round" stroke-linejoin="round"/>
<path d="M25.1263 6.40747C20.9712 3.22189 15.1429 2.65784 10.3263 5.43866C5.50979 8.21956 3.08403 13.5491 3.76536 18.7402" stroke="#BD171D" stroke-width="1.99219" stroke-miterlimit="10" stroke-linecap="round" stroke-linejoin="round"/>
<path d="M17 30.3477V33.0039" stroke="#BD171D" stroke-width="1.99219" stroke-miterlimit="10" stroke-linecap="round" stroke-linejoin="round"/>
<path d="M17 3.65234V0.996094" stroke="#BD171D" stroke-width="1.99219" stroke-miterlimit="10" stroke-linecap="round" stroke-linejoin="round"/>
<path d="M30.3477 17H33.0039" stroke="#BD171D" stroke-width="1.99219" stroke-miterlimit="10" stroke-linecap="round" stroke-linejoin="round"/>
<path d="M3.65234 17H0.996094" stroke="#BD171D" stroke-width="1.99219" stroke-miterlimit="10" stroke-linecap="round" stroke-linejoin="round"/>
<path d="M21.2363 13.6797V20.3203" stroke="#BD171D" stroke-width="1.66016" stroke-miterlimit="10" stroke-linecap="round" stroke-linejoin="round"/>
<path d="M25.832 13.6797V20.3203" stroke="#BD171D" stroke-width="1.66016" stroke-miterlimit="10" stroke-linecap="round" stroke-linejoin="round"/>
<path d="M21.2363 16.8867H25.8317" stroke="#BD171D" stroke-width="1.66016" stroke-miterlimit="10" stroke-linecap="round" stroke-linejoin="round"/>
<path d="M17.8225 18.3604H13.6523C13.6523 18.3604 15.8602 14.3583 16.2246 13.9113C16.593 13.4593 16.9419 13.7412 16.9751 14.1399C17.0083 14.5387 16.9585 20.3203 16.9585 20.3203" stroke="#BD171D" stroke-width="1.66016" stroke-miterlimit="10" stroke-linecap="round" stroke-linejoin="round"/>
<path d="M11.7459 20.3053C11.7459 20.3053 8.57703 20.3451 8.42695 20.2951C8.27688 20.245 8.66761 19.9807 10.7453 17.0121C11.1332 16.4578 11.3468 15.9901 11.4377 15.5982L11.4699 15.3463C11.4699 14.4258 10.7237 13.6797 9.80329 13.6797C8.9934 13.6797 8.31845 14.2574 8.16797 15.0232" stroke="#BD171D" stroke-width="1.66016" stroke-miterlimit="10" stroke-linecap="round" stroke-linejoin="round"/>
</g>
</g>
<defs>
<clipPath id="clip0_5177_19502">
<rect width="34" height="34" fill="white"/>
</clipPath>
</defs>
</svg>
