<svg width="34" height="34" viewBox="0 0 34 34" fill="none" xmlns="http://www.w3.org/2000/svg">
<path d="M7.0805 12.7493V2.41601C7.0805 1.86373 7.52822 1.41602 8.0805 1.41602H27.2108C27.476 1.41602 27.7304 1.52137 27.9179 1.70891L32.2904 6.08146C32.478 6.26899 32.5833 6.52335 32.5833 6.78856V31.5827C32.5833 32.135 32.1356 32.5827 31.5833 32.5827H5.66667M25.5 1.41602V7.49935C25.5 8.05163 25.9477 8.49935 26.5 8.49935H32.5833M4.25 26.916L10.6262 20.5398C11.0168 20.1493 11.6499 20.1493 12.0404 20.5398L16.2929 24.7922C16.6834 25.1828 17.3166 25.1828 17.7071 24.7922L26.2083 16.291M26.9167 24.0827V16.5827C26.9167 16.0304 26.469 15.5827 25.9167 15.5827H18.4167" stroke="#BD171D" stroke-width="2.83333"/>
</svg>
