<svg width="34" height="34" viewBox="0 0 34 34" fill="none" xmlns="http://www.w3.org/2000/svg">
<path d="M7.08269 26.9173C6.6813 26.9173 6.34508 26.7813 6.07402 26.5093C5.80297 26.2373 5.66696 25.9011 5.66602 25.5007C5.66508 25.1002 5.80108 24.764 6.07402 24.492C6.34697 24.22 6.68319 24.084 7.08269 24.084H8.49935V14.1673C8.49935 12.2076 9.08963 10.4665 10.2702 8.94407C11.4507 7.42163 12.9855 6.42382 14.8744 5.95065V4.95899C14.8744 4.36871 15.0812 3.86721 15.4949 3.45449C15.9085 3.04177 16.41 2.83493 16.9994 2.83399C17.5887 2.83304 18.0907 3.03988 18.5053 3.45449C18.9199 3.8691 19.1262 4.3706 19.1244 4.95899V5.95065C21.0132 6.42288 22.548 7.42068 23.7285 8.94407C24.9091 10.4675 25.4994 12.2085 25.4994 14.1673V24.084H26.916C27.3174 24.084 27.6541 24.22 27.9261 24.492C28.1981 24.764 28.3336 25.1002 28.3327 25.5007C28.3317 25.9011 28.1957 26.2378 27.9247 26.5107C27.6536 26.7837 27.3174 26.9192 26.916 26.9173H7.08269ZM16.9994 31.1673C16.2202 31.1673 15.5534 30.8901 14.999 30.3357C14.4446 29.7813 14.167 29.1141 14.166 28.334H19.8327C19.8327 29.1132 19.5555 29.7804 19.0011 30.3357C18.4467 30.8911 17.7795 31.1683 16.9994 31.1673ZM11.3327 24.084H22.666V14.1673C22.666 12.609 22.1112 11.275 21.0014 10.1652C19.8917 9.05552 18.5577 8.50065 16.9994 8.50065C15.441 8.50065 14.107 9.05552 12.9973 10.1652C11.8875 11.275 11.3327 12.609 11.3327 14.1673V24.084Z" fill="#BD171D"/>
</svg>
