<svg width="34" height="34" viewBox="0 0 34 34" fill="none" xmlns="http://www.w3.org/2000/svg">
<path d="M28.334 5.66602H5.66732C4.09482 5.66602 2.84815 6.92685 2.84815 8.49935L2.83398 25.4993C2.83398 27.0718 4.09482 28.3327 5.66732 28.3327H28.334C29.9065 28.3327 31.1673 27.0718 31.1673 25.4993V8.49935C31.1673 6.92685 29.9065 5.66602 28.334 5.66602ZM26.9173 25.4993H7.08398C6.30482 25.4993 5.66732 24.8618 5.66732 24.0827V16.9993H28.334V24.0827C28.334 24.8618 27.6965 25.4993 26.9173 25.4993ZM28.334 11.3327H5.66732V9.91602C5.66732 9.13685 6.30482 8.49935 7.08398 8.49935H26.9173C27.6965 8.49935 28.334 9.13685 28.334 9.91602V11.3327Z" fill="#BD171D"/>
</svg>
