<svg width="34" height="34" viewBox="0 0 34 34" fill="none" xmlns="http://www.w3.org/2000/svg">
<path d="M29.7507 17.3117C29.7507 9.53417 23.7157 4.25 17.0007 4.25C10.3565 4.25 4.25065 9.42083 4.25065 17.3967C3.40065 17.8783 2.83398 18.785 2.83398 19.8333V22.6667C2.83398 24.225 4.10898 25.5 5.66732 25.5C6.44648 25.5 7.08398 24.8625 7.08398 24.0833V17.2692C7.08398 11.8433 11.2632 7.0975 16.689 6.94167C18.0169 6.90128 19.3394 7.12786 20.5781 7.60799C21.8169 8.08811 22.9466 8.812 23.9005 9.73677C24.8543 10.6615 25.6128 11.7684 26.131 12.9916C26.6492 14.2149 26.9166 15.5298 26.9173 16.8583V26.9167H17.0007C16.2215 26.9167 15.584 27.5542 15.584 28.3333C15.584 29.1125 16.2215 29.75 17.0007 29.75H26.9173C28.4757 29.75 29.7507 28.475 29.7507 26.9167V25.1883C30.5865 24.7492 31.1673 23.885 31.1673 22.865V19.6067C31.1673 18.615 30.5865 17.7508 29.7507 17.3117Z" fill="#BD171D"/>
<path d="M12.7507 19.8333C13.5331 19.8333 14.1673 19.1991 14.1673 18.4167C14.1673 17.6343 13.5331 17 12.7507 17C11.9682 17 11.334 17.6343 11.334 18.4167C11.334 19.1991 11.9682 19.8333 12.7507 19.8333Z" fill="#BD171D"/>
<path d="M21.2507 19.8333C22.0331 19.8333 22.6673 19.1991 22.6673 18.4167C22.6673 17.6343 22.0331 17 21.2507 17C20.4682 17 19.834 17.6343 19.834 18.4167C19.834 19.1991 20.4682 19.8333 21.2507 19.8333Z" fill="#BD171D"/>
<path d="M25.5002 15.6258C25.1624 13.6342 24.1308 11.8263 22.5881 10.5221C21.0454 9.21796 19.0911 8.50166 17.071 8.5C12.7785 8.5 8.16016 12.0558 8.52849 17.6375C10.2758 16.9232 11.819 15.7873 13.0204 14.3313C14.2218 12.8753 15.0439 11.1445 15.4135 9.29333C17.2693 13.0192 21.0802 15.5833 25.5002 15.6258Z" fill="#BD171D"/>
</svg>
