<svg width="34" height="34" viewBox="0 0 34 34" fill="none" xmlns="http://www.w3.org/2000/svg">
<path d="M9.91667 9.91602H7.08333C6.33189 9.91602 5.61122 10.2145 5.07986 10.7459C4.54851 11.2772 4.25 11.9979 4.25 12.7493V23.0827C4.25 23.635 4.69772 24.0827 5.25 24.0827H6.08333C6.63562 24.0827 7.08333 23.635 7.08333 23.0827V19.416C7.08333 18.8637 7.53105 18.416 8.08333 18.416H8.91667C9.46895 18.416 9.91667 18.8637 9.91667 19.416V23.0827C9.91667 23.635 10.3644 24.0827 10.9167 24.0827H11.75C12.3023 24.0827 12.75 23.635 12.75 23.0827V12.7493C12.75 11.9979 12.4515 11.2772 11.9201 10.7459C11.3888 10.2145 10.6681 9.91602 9.91667 9.91602ZM9.91667 15.5827H8.08333C7.53105 15.5827 7.08333 15.135 7.08333 14.5827V13.7493C7.08333 13.1971 7.53105 12.7493 8.08333 12.7493H9.91667M19.8333 9.91602H15.1667C14.6144 9.91602 14.1667 10.3637 14.1667 10.916V23.0827C14.1667 23.635 14.6144 24.0827 15.1667 24.0827H16C16.5523 24.0827 17 23.635 17 23.0827V19.416C17 18.8637 17.4477 18.416 18 18.416H19.8333C20.5848 18.416 21.3054 18.1175 21.8368 17.5862C22.3682 17.0548 22.6667 16.3341 22.6667 15.5827V12.7493C22.6667 11.9979 22.3682 11.2772 21.8368 10.7459C21.3054 10.2145 20.5848 9.91602 19.8333 9.91602ZM19.8333 15.5827H18C17.4477 15.5827 17 15.135 17 14.5827V13.7493C17 13.1971 17.4477 12.7493 18 12.7493H19.8333M29.0417 12.7493C28.6505 12.7493 28.3333 13.0665 28.3333 13.4577V20.541C28.3333 20.9322 28.6505 21.2493 29.0417 21.2493C29.4329 21.2493 29.75 21.5665 29.75 21.9577V23.0827C29.75 23.635 29.3023 24.0827 28.75 24.0827H25.0833C24.531 24.0827 24.0833 23.635 24.0833 23.0827V21.9577C24.0833 21.5665 24.4005 21.2493 24.7917 21.2493C25.1829 21.2493 25.5 20.9322 25.5 20.541V13.4577C25.5 13.0665 25.1829 12.7493 24.7917 12.7493C24.4005 12.7493 24.0833 12.4322 24.0833 12.041V10.916C24.0833 10.3637 24.531 9.91602 25.0833 9.91602H28.75C29.3023 9.91602 29.75 10.3637 29.75 10.916V12.041C29.75 12.4322 29.4329 12.7493 29.0417 12.7493Z" fill="#BD171D"/>
</svg>
