<svg width="34" height="34" viewBox="0 0 34 34" fill="none" xmlns="http://www.w3.org/2000/svg">
<path d="M17 8.49935C20.7117 8.49935 23.9133 11.1343 24.6358 14.7752L25.0608 16.9002L27.2283 17.056C28.2933 17.1276 29.2916 17.6 30.0223 18.378C30.753 19.1561 31.1619 20.182 31.1667 21.2493C31.1667 23.5868 29.2542 25.4993 26.9167 25.4993H8.5C5.36917 25.4993 2.83333 22.9635 2.83333 19.8327C2.83333 16.9285 5.00083 14.506 7.87667 14.2085L9.3925 14.0527L10.1008 12.7068C10.7525 11.4387 11.7413 10.3749 12.9586 9.6326C14.1758 8.89025 15.5742 8.49812 17 8.49935ZM17 5.66602C12.9058 5.66602 9.35 7.98935 7.57917 11.3893C5.497 11.6144 3.57143 12.6009 2.17244 14.1594C0.773459 15.7179 -0.000243244 17.7384 5.73647e-08 19.8327C5.73647e-08 24.5218 3.81083 28.3327 8.5 28.3327H26.9167C30.8267 28.3327 34 25.1593 34 21.2493C34 17.5093 31.0958 14.4777 27.4125 14.2227C26.9366 11.8111 25.6383 9.63957 23.7392 8.07895C21.8401 6.51833 19.4581 5.66546 17 5.66602Z" fill="#BD171D"/>
</svg>
