<svg width="34" height="34" viewBox="0 0 34 34" fill="none" xmlns="http://www.w3.org/2000/svg">
<g clip-path="url(#clip0_5146_18724)">
<path d="M11.6875 22.3125L7.4375 19.975V15.1938L11.6875 12.8563L15.9375 15.1938V19.975L11.6875 22.3125ZM9.5625 18.7L11.6875 19.8688L13.8125 18.7V16.3625L11.6875 15.1938L9.5625 16.3625V18.7ZM6.375 31.875L2.125 29.5375V24.7562L6.375 22.3125L10.625 24.65V29.4313L6.375 31.875ZM4.25 28.2625L6.375 29.4313L8.5 28.2625V25.925L6.375 24.7562L4.25 25.925V28.2625ZM17 31.875L12.75 29.5375V24.7562L17 22.4188L21.25 24.7562V29.5375L17 31.875ZM14.875 28.2625L17 29.4313L19.125 28.2625V25.925L17 24.7562L14.875 25.925V28.2625ZM27.625 31.875L23.375 29.5375V24.7562L27.625 22.4188L31.875 24.7562V29.5375L27.625 31.875ZM25.5 28.2625L27.625 29.4313L29.75 28.2625V25.925L27.625 24.7562L25.5 25.925V28.2625ZM26.1375 12.325L23.375 15.0875V9.9875L26.5625 8.18125V3.4L22.3125 1.0625L18.0625 3.4V8.18125L21.25 9.9875V14.9813L18.4875 12.2188L17 13.8125L22.3125 19.125L27.625 13.8125L26.1375 12.325ZM20.1875 4.675L22.3125 3.50625L24.4375 4.675V7.0125L22.3125 8.18125L20.1875 7.0125V4.675Z" fill="#BD171D"/>
</g>
<defs>
<clipPath id="clip0_5146_18724">
<rect width="34" height="34" fill="white"/>
</clipPath>
</defs>
</svg>
