<svg width="34" height="34" viewBox="0 0 34 34" fill="none" xmlns="http://www.w3.org/2000/svg">
<path d="M32.2177 26.5901C32.1932 26.2368 32.308 25.8801 32.5742 25.6466L33.1423 25.1483C33.501 24.8336 33.5874 24.3092 33.3486 23.896L32.7527 22.8652C32.5143 22.4527 32.0181 22.2657 31.5668 22.4182L30.8209 22.6703C30.4904 22.782 30.1295 22.7072 29.8397 22.5129C29.6564 22.39 29.4655 22.2788 29.2682 22.18C28.959 22.0251 28.7174 21.7514 28.6496 21.4123L28.4944 20.6366C28.4009 20.1691 27.9905 19.8327 27.5139 19.8327H26.319C25.8429 19.8327 25.4327 20.1685 25.3387 20.6353L25.1849 21.3991C25.1168 21.7377 24.8754 22.0108 24.5666 22.1654C24.369 22.2643 24.1778 22.3757 23.9943 22.4987C23.7045 22.6931 23.3436 22.7679 23.0131 22.6562L22.2672 22.4041C21.8159 22.2516 21.3196 22.4386 21.0812 22.851L20.4854 23.8819C20.2465 24.295 20.3329 24.8194 20.6917 25.1341L21.2577 25.6305C21.5251 25.8651 21.6393 26.2237 21.6147 26.5785C21.5998 26.7938 21.5998 27.0099 21.6147 27.2252C21.6393 27.58 21.5251 27.9386 21.2577 28.1732L20.6917 28.6696C20.3329 28.9843 20.2465 29.5087 20.4854 29.9218L21.0812 30.9527C21.3196 31.3651 21.8159 31.5521 22.2672 31.3996L23.0131 31.1475C23.3436 31.0358 23.7045 31.1106 23.9943 31.305C24.1774 31.4277 24.368 31.5388 24.5651 31.6375C24.8746 31.7927 25.1164 32.0668 25.1839 32.4065L25.3404 33.1942C25.4333 33.6622 25.844 33.9993 26.3212 33.9993H27.5149C27.9911 33.9993 28.4013 33.6636 28.4953 33.1967L28.649 32.4329C28.7172 32.0943 28.9586 31.8213 29.2674 31.6666C29.465 31.5677 29.6561 31.4563 29.8397 31.3333C30.1295 31.139 30.4904 31.0642 30.8209 31.1759L31.5668 31.4279C32.0181 31.5805 32.5143 31.3934 32.7527 30.981L33.3486 29.9501C33.5874 29.537 33.501 29.0126 33.1423 28.6979L32.5742 28.1996C32.308 27.9661 32.1932 27.6094 32.2177 27.2561C32.2331 27.0344 32.2331 26.8118 32.2177 26.5901ZM26.917 29.7493C26.3566 29.7493 25.8088 29.5832 25.3429 29.2718C24.8769 28.9605 24.5138 28.518 24.2993 28.0003C24.0849 27.4826 24.0288 26.9129 24.1381 26.3633C24.2474 25.8136 24.5173 25.3088 24.9135 24.9125C25.3098 24.5163 25.8146 24.2464 26.3642 24.1371C26.9138 24.0278 27.4835 24.0839 28.0013 24.2984C28.519 24.5128 28.9615 24.876 29.2728 25.3419C29.5842 25.8078 29.7503 26.3556 29.7503 26.916C29.7481 27.6668 29.4489 28.3861 28.918 28.917C28.3871 29.4479 27.6677 29.7471 26.917 29.7493ZM32.5837 14.5827C32.5837 15.135 32.1359 15.5827 31.5837 15.5827H2.41699C1.86471 15.5827 1.41699 15.135 1.41699 14.5827V2.41602C1.41699 1.86373 1.86471 1.41602 2.41699 1.41602H31.5837C32.1359 1.41602 32.5837 1.86373 32.5837 2.41602V14.5827ZM4.25033 11.7493C4.25033 12.3016 4.69804 12.7493 5.25033 12.7493H28.7503C29.3026 12.7493 29.7503 12.3016 29.7503 11.7493V5.24935C29.7503 4.69706 29.3026 4.24935 28.7503 4.24935H5.25033C4.69804 4.24935 4.25033 4.69706 4.25033 5.24935V11.7493ZM18.417 8.08268C18.417 7.5304 17.9693 7.08268 17.417 7.08268H6.66699C6.11471 7.08268 5.66699 7.5304 5.66699 8.08268V8.91602C5.66699 9.4683 6.11471 9.91602 6.66699 9.91602H17.417C17.9693 9.91602 18.417 9.4683 18.417 8.91602V8.08268ZM22.667 7.08268C22.3868 7.08268 22.1129 7.16577 21.8799 7.32143C21.647 7.4771 21.4654 7.69835 21.3582 7.95721C21.2509 8.21608 21.2229 8.50092 21.2775 8.77573C21.3322 9.05053 21.4671 9.30296 21.6653 9.50108C21.8634 9.69921 22.1158 9.83413 22.3906 9.88879C22.6654 9.94346 22.9503 9.9154 23.2091 9.80818C23.468 9.70095 23.6892 9.51938 23.8449 9.28641C24.0006 9.05344 24.0837 8.77954 24.0837 8.49935C24.0837 8.12363 23.9344 7.76329 23.6687 7.49761C23.4031 7.23194 23.0427 7.08268 22.667 7.08268ZM26.917 7.08268C26.6368 7.08268 26.3629 7.16577 26.1299 7.32143C25.897 7.4771 25.7154 7.69835 25.6082 7.95721C25.5009 8.21608 25.4729 8.50092 25.5275 8.77573C25.5822 9.05053 25.7171 9.30296 25.9153 9.50108C26.1134 9.69921 26.3658 9.83413 26.6406 9.88879C26.9154 9.94346 27.2003 9.9154 27.4591 9.80818C27.718 9.70095 27.9392 9.51938 28.0949 9.28641C28.2506 9.05344 28.3337 8.77954 28.3337 8.49935C28.3337 8.12363 28.1844 7.76329 27.9187 7.49761C27.6531 7.23194 27.2927 7.08268 26.917 7.08268Z" fill="#BD171D"/>
<path d="M17.6568 30.4541C17.4988 30.0414 17.1141 29.7493 16.6722 29.7493H5.25033C4.69804 29.7493 4.25033 29.3016 4.25033 28.7493V22.2493C4.25033 21.6971 4.69804 21.2493 5.25033 21.2493H18.2641C18.5907 21.2493 18.8941 21.0877 19.0949 20.8301C19.104 20.8186 19.113 20.807 19.1221 20.7955C19.75 19.9977 19.2199 18.416 18.2047 18.416H2.41699C1.86471 18.416 1.41699 18.8637 1.41699 19.416V31.5827C1.41699 32.135 1.86471 32.5827 2.41699 32.5827H16.8681C17.6764 32.5827 18.1731 31.6539 17.8465 30.9144C17.7794 30.7627 17.7162 30.6092 17.6568 30.4541Z" fill="#BD171D"/>
<path d="M5.66699 26.9173H17.0003C17.0013 25.9577 17.1416 25.0033 17.4168 24.084H5.66699V26.9173Z" fill="#BD171D"/>
</svg>
