<svg width="34" height="34" viewBox="0 0 34 34" fill="none" xmlns="http://www.w3.org/2000/svg">
<g clip-path="url(#clip0_5177_20815)">
<path d="M6.97266 4.05078C5.32492 4.05078 3.98438 5.39132 3.98438 7.03906V11.0234C3.98438 11.5735 4.43036 12.0195 4.98047 12.0195C5.53058 12.0195 5.97656 11.5735 5.97656 11.0234V10.0273H7.96875V11.0234C7.96875 11.5735 8.41473 12.0195 8.96484 12.0195C9.51495 12.0195 9.96094 11.5735 9.96094 11.0234V7.03906C9.96094 5.39132 8.62039 4.05078 6.97266 4.05078ZM5.97656 8.03516V7.03906C5.97656 6.48982 6.42341 6.04297 6.97266 6.04297C7.5219 6.04297 7.96875 6.48982 7.96875 7.03906V8.03516H5.97656Z" fill="#BD171D"/>
<path d="M13.9453 4.05078H12.9492C12.3991 4.05078 11.9531 4.49677 11.9531 5.04688V11.0234C11.9531 11.5735 12.3991 12.0195 12.9492 12.0195H13.9453C16.1423 12.0195 17.9297 10.2321 17.9297 8.03516C17.9297 5.83817 16.1423 4.05078 13.9453 4.05078ZM13.9453 10.0273V6.04297C15.0438 6.04297 15.9375 6.93666 15.9375 8.03516C15.9375 9.13365 15.0438 10.0273 13.9453 10.0273Z" fill="#BD171D"/>
<path d="M33.0039 16.0039C33.554 16.0039 34 15.5579 34 15.0078V1.0625C34 0.512391 33.554 0.0664062 33.0039 0.0664062H0.996094C0.445984 0.0664062 0 0.512391 0 1.0625V15.0078C0 15.5579 0.445984 16.0039 0.996094 16.0039H17.658L18.1692 17.9961H14.9414C14.3913 17.9961 13.9453 18.4421 13.9453 18.9922V32.9375C13.9453 33.4876 14.3913 33.9336 14.9414 33.9336H33.0039C33.554 33.9336 34 33.4876 34 32.9375V18.9922C34 18.4421 33.554 17.9961 33.0039 17.9961H29.1633L25.0899 16.0039H33.0039ZM1.99219 14.0117V2.05859H32.0078V14.0117H21.0165L18.5303 12.7958C17.7686 12.4232 16.9171 13.1164 17.1278 13.9381L17.1467 14.0117H1.99219V14.0117ZM32.0078 31.9414H15.9375V19.9883H18.6805L20.1663 25.7781C20.3483 26.4871 21.2095 26.7642 21.7708 26.2941L23.1882 25.1067L24.698 26.9166C25.0504 27.339 25.6802 27.3966 26.1032 27.0416L29.5382 24.1593C29.9587 23.8064 30.0144 23.1797 29.6627 22.7582L28.1503 20.945L29.2922 19.9883H32.0078V31.9414ZM25.9836 21.4579L27.4966 23.2716L25.5878 24.8733L24.0784 23.064C23.7249 22.6402 23.0951 22.5856 22.6739 22.9385L21.703 23.7519L19.594 15.5337L27.1159 19.2125L26.1087 20.0562C25.6878 20.409 25.6318 21.036 25.9836 21.4579Z" fill="#BD171D"/>
<path d="M10.957 17.9961H0.996094C0.445984 17.9961 0 18.4421 0 18.9922V32.9375C0 33.4876 0.445984 33.9336 0.996094 33.9336H10.957C11.5071 33.9336 11.9531 33.4876 11.9531 32.9375V18.9922C11.9531 18.4421 11.5071 17.9961 10.957 17.9961ZM9.96094 31.9414H1.99219V19.9883H9.96094V31.9414Z" fill="#BD171D"/>
<path d="M20.918 7.03906H28.8867C29.4368 7.03906 29.8828 6.59308 29.8828 6.04297C29.8828 5.49286 29.4368 5.04688 28.8867 5.04688H20.918C20.3679 5.04688 19.9219 5.49286 19.9219 6.04297C19.9219 6.59308 20.3679 7.03906 20.918 7.03906Z" fill="#BD171D"/>
<path d="M20.918 11.0234H28.8867C29.4368 11.0234 29.8828 10.5775 29.8828 10.0273C29.8828 9.47723 29.4368 9.03125 28.8867 9.03125H20.918C20.3679 9.03125 19.9219 9.47723 19.9219 10.0273C19.9219 10.5775 20.3679 11.0234 20.918 11.0234Z" fill="#BD171D"/>
</g>
<defs>
<clipPath id="clip0_5177_20815">
<rect width="34" height="34" fill="white"/>
</clipPath>
</defs>
</svg>
