<svg width="34" height="34" viewBox="0 0 34 34" fill="none" xmlns="http://www.w3.org/2000/svg">
<g clip-path="url(#clip0_5177_20913)">
<path d="M19.9883 14.9414V6.04297C20.5384 6.04297 20.9844 5.59698 20.9844 5.04688V0.996094C20.9844 0.445984 20.5384 0 19.9883 0H2.05859C1.50848 0 1.0625 0.445984 1.0625 0.996094V5.04688C1.0625 5.59698 1.50848 6.04297 2.05859 6.04297V14.9414C2.05859 15.4915 2.50458 15.9375 3.05469 15.9375H18.9922C19.5423 15.9375 19.9883 15.4915 19.9883 14.9414ZM18.9922 4.05078H14.0117V1.99219H18.9922V4.05078ZM10.0273 1.99219H12.0195V7.4533L11.4927 7.20236C11.2266 7.07552 10.918 7.0732 10.65 7.19571L10.0273 7.4804V1.99219ZM3.05469 1.99219H8.03516V4.05078H3.05469V1.99219ZM4.05078 13.9453V6.04297H8.03516V9.03125C8.03516 9.75926 8.78953 10.2369 9.44549 9.93716L11.0556 9.20085L12.5872 9.93052C13.2473 10.245 14.0117 9.76285 14.0117 9.03125V6.04297H17.9961V13.9453H4.05078Z" fill="#BD171D"/>
<path d="M32.0078 19.9883H28.9531V9.09766C28.9531 8.54755 28.5071 8.10156 27.957 8.10156H23.9727C23.4225 8.10156 22.9766 8.54755 22.9766 9.09766V19.9883H13.6975L11.911 16.4814C11.5459 15.7647 10.5201 15.7542 10.1428 16.4683L8.28305 19.9883H1.99219C1.44208 19.9883 0.996094 20.4343 0.996094 20.9844V33.0039C0.996094 33.554 1.44208 34 1.99219 34H32.0078C32.5579 34 33.0039 33.554 33.0039 33.0039V20.9844C33.0039 20.4343 32.5579 19.9883 32.0078 19.9883ZM26.0016 26.7256L24.9688 24.7266V14.0117H26.9609V24.7406L26.0016 26.7256ZM26.9609 10.0938V12.0195H24.9688V10.0938H26.9609ZM31.0117 32.0078H2.98828V21.9805H8.88336C9.25265 21.9805 9.59159 21.7762 9.76411 21.4497L11.0074 19.0964L12.1995 21.4365C12.3696 21.7702 12.7125 21.9804 13.087 21.9804H22.9766V24.9687C22.9766 25.1278 23.0147 25.2846 23.0877 25.426L24.3954 27.957H6.04297C5.49286 27.957 5.04688 28.403 5.04688 28.9531C5.04688 29.5032 5.49286 29.9492 6.04297 29.9492C31.9911 29.9478 24.7219 29.9683 26.0445 29.9492C26.4219 29.9441 26.7638 29.7264 26.9281 29.3866L28.8538 25.4022C28.9192 25.267 28.9531 25.1188 28.9531 24.9688V21.9805H31.0117V32.0078Z" fill="#BD171D"/>
<path d="M6.04297 25.9648H19.9883C20.5384 25.9648 20.9844 25.5189 20.9844 24.9688C20.9844 24.4186 20.5384 23.9727 19.9883 23.9727H6.04297C5.49286 23.9727 5.04688 24.4186 5.04688 24.9688C5.04688 25.5189 5.49286 25.9648 6.04297 25.9648Z" fill="#BD171D"/>
</g>
<defs>
<clipPath id="clip0_5177_20913">
<rect width="34" height="34" fill="white"/>
</clipPath>
</defs>
</svg>
