<svg width="34" height="34" viewBox="0 0 34 34" fill="none" xmlns="http://www.w3.org/2000/svg">
<path d="M31.61 11.9532L25.4309 10.1471L25.4057 10.1402C25.2187 10.0908 25.0209 10.0908 24.834 10.1402L23.3647 10.5695V4.66484C23.3648 1.60238 17.8035 0 12.3098 0C6.81621 0 1.25488 1.60238 1.25488 4.66484V29.3352C1.25488 32.3978 6.81621 34 12.3098 34C17.8035 34 23.3648 32.3976 23.3648 29.3352V27.7377L23.4563 27.7915L23.5121 27.822C24.0155 28.0761 24.5677 28.2031 25.1199 28.2031C25.6721 28.2031 26.2243 28.0761 26.7277 27.822L26.7561 27.8077L30.8204 25.4189C32.0082 24.8052 32.7447 23.5973 32.7447 22.258V13.4422C32.7445 12.7471 32.2788 12.1373 31.61 11.9532ZM5.53789 3.00541C7.33125 2.35131 9.73622 1.99099 12.3098 1.99099C14.8833 1.99099 17.2883 2.35131 19.0818 3.00541C20.6565 3.57983 21.3737 4.26826 21.3737 4.66484C21.3737 5.06135 20.6564 5.74979 19.0818 6.3242C17.2883 6.9783 14.8834 7.33862 12.3098 7.33862C9.73622 7.33862 7.33125 6.9783 5.53782 6.3242C3.96313 5.74979 3.24594 5.06135 3.24594 4.66484C3.24588 4.26826 3.96313 3.57983 5.53789 3.00541ZM3.24581 7.45198C5.35208 8.69165 8.84412 9.32955 12.3097 9.32955C15.7754 9.32955 19.2674 8.69165 21.3737 7.45198V11.1513L18.6297 11.9532C18.0266 12.1192 17.5899 12.6318 17.5097 13.2405C15.9664 13.6079 14.1971 13.801 12.343 13.801C9.76943 13.801 7.36446 13.4407 5.57102 12.7866C3.99627 12.2122 3.27908 11.5238 3.27908 11.1272C3.27908 11.0404 3.26679 10.9566 3.24588 10.8763L3.24581 7.45198ZM3.24581 13.8948C5.3485 15.1473 8.859 15.792 12.3429 15.792C14.1639 15.792 15.919 15.6172 17.4951 15.2835V19.4425C15.9624 19.799 14.1523 19.9931 12.3098 19.9931C9.73629 19.9931 7.33125 19.6327 5.53782 18.9786C3.96306 18.4042 3.24588 17.7158 3.24588 17.3193L3.24581 13.8948ZM3.24581 20.1065C5.35215 21.3462 8.84419 21.9841 12.3098 21.9841C14.152 21.9841 15.9186 21.8113 17.4952 21.4818V22.258C17.4952 23.4949 18.1236 24.6193 19.1554 25.2674C17.4375 25.9401 14.9912 26.3345 12.3429 26.3345C9.76936 26.3345 7.36439 25.9742 5.57102 25.3201C3.99627 24.7457 3.27908 24.0573 3.27908 23.6607C3.27908 23.5739 3.26679 23.4901 3.24588 23.4097L3.24581 20.1065ZM19.0818 30.9946C17.2883 31.6487 14.8834 32.009 12.3098 32.009C9.73622 32.009 7.33125 31.6487 5.53782 30.9946C3.96306 30.4202 3.24588 29.7317 3.24588 29.3352V26.4282C5.34856 27.6808 8.85906 28.3255 12.3429 28.3255C15.9739 28.3255 19.2248 27.6418 21.222 26.4784L21.3737 26.5675V29.3352H21.3738C21.3738 29.7317 20.6565 30.4202 19.0818 30.9946ZM29.8925 23.657L29.864 23.6714L25.8053 26.0569C25.3739 26.265 24.8656 26.265 24.4342 26.0569L20.4029 23.6875L20.3471 23.657C19.816 23.3889 19.4861 22.8528 19.4861 22.258V14.0354C19.4861 14.0352 19.4861 14.0351 19.4861 14.035V13.7772L22.6621 12.8489C22.6636 12.8484 22.6652 12.848 22.6667 12.8475L25.1198 12.1304L30.7534 13.7771V22.2579C30.7535 22.8528 30.4236 23.3889 29.8925 23.657Z" fill="#BD171D"/>
<path d="M28.7716 16.5967C28.3982 16.1932 27.7683 16.1687 27.3649 16.5421L24.0026 19.6534L22.9035 18.5544C22.5148 18.1656 21.8845 18.1656 21.4957 18.5544C21.1069 18.9431 21.1069 19.5734 21.4957 19.9623L23.2719 21.7385C23.2804 21.747 23.2896 21.7542 23.2983 21.7624C23.3105 21.7738 23.3227 21.7852 23.3353 21.7958C23.3491 21.8074 23.3633 21.8182 23.3776 21.8289C23.3905 21.8387 23.4034 21.8487 23.4168 21.8578C23.4318 21.8681 23.4474 21.8773 23.4629 21.8867C23.4761 21.8947 23.4892 21.9028 23.5026 21.9102C23.5193 21.9192 23.5363 21.927 23.5534 21.9351C23.5664 21.9412 23.5792 21.9477 23.5924 21.9532C23.6107 21.9608 23.6294 21.9672 23.648 21.9737C23.6605 21.9781 23.6728 21.9829 23.6854 21.9868C23.7056 21.993 23.726 21.9976 23.7465 22.0025C23.758 22.0052 23.7693 22.0086 23.7809 22.0108C23.804 22.0154 23.8274 22.0185 23.8506 22.0214C23.8598 22.0225 23.8689 22.0244 23.878 22.0254C23.9106 22.0286 23.9433 22.0303 23.976 22.0303H23.9762H23.9763C24.0075 22.0303 24.0385 22.0287 24.0695 22.0258C24.0782 22.025 24.0869 22.0233 24.0956 22.0222C24.1179 22.0196 24.1401 22.0168 24.1621 22.0126C24.173 22.0106 24.1837 22.0075 24.1946 22.005C24.2142 22.0007 24.2339 21.9963 24.2532 21.9907C24.2652 21.9873 24.2769 21.9829 24.2888 21.979C24.3067 21.973 24.3247 21.9672 24.3423 21.9602C24.3549 21.9552 24.3672 21.9494 24.3795 21.9439C24.3961 21.9366 24.4125 21.9293 24.4287 21.921C24.4415 21.9145 24.454 21.9071 24.4666 21.8999C24.4817 21.8913 24.4969 21.8827 24.5117 21.8733C24.5244 21.8651 24.5368 21.8562 24.5492 21.8475C24.5633 21.8375 24.5774 21.8275 24.5911 21.8167C24.6032 21.8072 24.6149 21.797 24.6266 21.7868C24.6351 21.7795 24.644 21.7729 24.6523 21.7652L28.7175 18.0035C29.1207 17.6301 29.145 17.0002 28.7716 16.5967Z" fill="#BD171D"/>
</svg>
