<svg width="34" height="34" viewBox="0 0 34 34" fill="none" xmlns="http://www.w3.org/2000/svg">
<path d="M33.0776 14.7756C31.8503 13.5483 29.8532 13.5484 28.6259 14.7756C28.2687 15.1329 28.0161 15.5556 27.8668 16.0054H21.1366C20.8259 15.6992 20.4701 15.4388 20.0805 15.2343C20.7332 14.5035 21.1309 13.5405 21.1309 12.4859C21.1309 12.3432 21.1236 12.202 21.1093 12.0629L25.4442 7.35172C25.853 7.5346 26.2927 7.6267 26.7328 7.6267C27.5389 7.6267 28.3449 7.31984 28.9586 6.70619C30.1859 5.47888 30.1859 3.4818 28.9586 2.25449C27.7313 1.02718 25.7342 1.02732 24.5069 2.25449C23.4933 3.26811 23.3177 4.80639 23.9783 6.00289L20.2985 10.0022C19.5438 9.00243 18.3461 8.35484 16.9998 8.35484C15.6535 8.35484 14.4558 9.00243 13.7012 10.0022L10.0213 6.00289C10.682 4.80646 10.5064 3.26817 9.49275 2.25449C8.26544 1.02718 6.26836 1.02712 5.04105 2.25449C3.81374 3.4818 3.81374 5.47888 5.04105 6.70619C5.6547 7.31984 6.4608 7.6267 7.2669 7.6267C7.7069 7.6267 8.14671 7.5346 8.55543 7.35172L12.8903 12.0629C12.8761 12.202 12.8688 12.3431 12.8688 12.4859C12.8688 13.5405 13.2665 14.5035 13.9191 15.2343C13.5295 15.4389 13.1738 15.6992 12.8631 16.0054H6.13282C5.98354 15.5556 5.73107 15.1329 5.37374 14.7756C4.1465 13.5483 2.14942 13.5482 0.922042 14.7755C0.327446 15.3702 0 16.1607 0 17.0015C0 17.8423 0.327446 18.6328 0.922042 19.2274C1.5357 19.841 2.34179 20.1479 3.14789 20.1479C3.95406 20.1479 4.76009 19.841 5.37381 19.2274C5.73107 18.8701 5.98361 18.4474 6.13289 17.9975H11.6959C11.595 18.3682 11.5402 18.7576 11.5402 19.1598V22.9345C11.5402 23.0824 11.5525 23.2275 11.5754 23.3691L8.55556 26.6512C7.39805 26.1333 5.98985 26.348 5.04118 27.2967C3.81387 28.524 3.81387 30.5211 5.04118 31.7484C5.65484 32.3621 6.46093 32.6689 7.26703 32.6689C8.07319 32.6689 8.87923 32.3621 9.49295 31.7484C10.5066 30.7348 10.6822 29.1965 10.0215 28.0001L12.6621 25.1302C13.1096 25.4555 13.6596 25.6481 14.2539 25.6481H19.7461C20.3404 25.6481 20.8903 25.4555 21.3379 25.1302L23.9785 28.0001C23.3179 29.1965 23.4934 30.7348 24.5071 31.7484C25.1207 32.3621 25.9268 32.6689 26.733 32.6689C27.5391 32.6689 28.3451 32.3621 28.9588 31.7484C30.1861 30.5211 30.1861 28.524 28.9588 27.2967C28.0101 26.348 26.602 26.1334 25.4445 26.6512L22.4246 23.3691C22.4475 23.2275 22.4598 23.0824 22.4598 22.9345V19.1598C22.4598 18.7576 22.405 18.3682 22.3041 17.9975H27.8671C28.0164 18.4473 28.2689 18.87 28.6262 19.2274C29.2398 19.841 30.0459 20.1479 30.8521 20.1479C31.6582 20.1479 32.4642 19.841 33.078 19.2274C33.6726 18.6328 34 17.8423 34 17.0015C33.9997 16.1607 33.6722 15.3702 33.0776 14.7756ZM25.9156 3.66315C26.1408 3.43784 26.4368 3.32521 26.7327 3.32521C27.0287 3.32521 27.3246 3.43784 27.55 3.66315C28.0005 4.11378 28.0005 4.8469 27.55 5.29753C27.0995 5.74802 26.3662 5.74816 25.9156 5.29753C25.465 4.8469 25.465 4.11378 25.9156 3.66315ZM8.08415 5.29753C7.63346 5.74816 6.90021 5.74802 6.44971 5.29753C5.99915 4.8469 5.99915 4.11378 6.44971 3.66315C6.67502 3.43784 6.97099 3.32521 7.26696 3.32521C7.56287 3.32521 7.85884 3.43784 8.08415 3.66315C8.53471 4.11378 8.53471 4.8469 8.08415 5.29753ZM3.96508 17.8186C3.51445 18.2693 2.7812 18.2692 2.3307 17.8186C2.11243 17.6004 1.99217 17.3101 1.99217 17.0015C1.99217 16.6929 2.11243 16.4025 2.3307 16.1843C2.55602 15.9589 2.85199 15.8463 3.14796 15.8463C3.44379 15.8463 3.73976 15.959 3.96508 16.1843C4.41564 16.6349 4.41564 17.368 3.96508 17.8186ZM8.08415 30.3397C7.63346 30.7904 6.90021 30.7902 6.44971 30.3397C5.99915 29.8891 5.99915 29.156 6.44971 28.7054C6.67502 28.4801 6.97099 28.3674 7.26696 28.3674C7.56287 28.3674 7.85884 28.4801 8.08415 28.7054C8.53471 29.156 8.53471 29.8891 8.08415 30.3397ZM16.9998 10.3469C18.1793 10.3469 19.1388 11.3065 19.1388 12.4859C19.1388 13.6654 18.1793 14.6249 16.9998 14.6249C15.8204 14.6249 14.8609 13.6654 14.8609 12.4859C14.8609 11.3065 15.8204 10.3469 16.9998 10.3469ZM20.4675 22.9345C20.4675 23.3323 20.1438 23.656 19.746 23.656H14.2538C13.8559 23.656 13.5323 23.3323 13.5323 22.9345V19.1598C13.5323 17.8149 14.6265 16.7208 15.9713 16.7208H18.0284C19.3732 16.7207 20.4675 17.8149 20.4675 19.1598V22.9345ZM25.9156 28.7054C26.1409 28.4801 26.4369 28.3674 26.7328 28.3674C27.0287 28.3674 27.3246 28.4801 27.55 28.7054C28.0005 29.156 28.0005 29.8891 27.55 30.3397C27.0995 30.7903 26.3662 30.7904 25.9156 30.3397C25.465 29.8891 25.465 29.156 25.9156 28.7054ZM31.669 17.8186C31.2185 18.2693 30.4852 18.2693 30.0346 17.8187C29.584 17.3681 29.584 16.635 30.0346 16.1843C30.2599 15.959 30.5559 15.8464 30.8518 15.8464C31.1477 15.8464 31.4437 15.959 31.669 16.1844C31.8873 16.4026 32.0076 16.6929 32.0076 17.0016C32.0075 17.3101 31.8872 17.6004 31.669 17.8186Z" fill="#BD171D"/>
</svg>
