<svg width="34" height="34" viewBox="0 0 34 34" fill="none" xmlns="http://www.w3.org/2000/svg">
<mask id="mask0_5220_42617" style="mask-type:luminance" maskUnits="userSpaceOnUse" x="0" y="0" width="34" height="34">
<path d="M0 3.8147e-06H34V34H0V3.8147e-06Z" fill="white"/>
</mask>
<g mask="url(#mask0_5220_42617)">
<path d="M16.9977 31.7877L9.10469 26.2791L12.4486 24.0476C13.585 25.268 15.2049 26.0325 17 26.0325C18.7951 26.0325 20.415 25.268 21.5513 24.0476L24.8608 26.256L16.9977 31.7877ZM8.24533 13.7371L16.0039 8.90727V13.6731C13.0462 14.1512 10.7805 16.7224 10.7805 19.8129C10.7805 20.7324 10.9811 21.6059 11.3407 22.3921L8.24533 24.4576V13.7371ZM12.7726 19.8129C12.7726 17.4819 14.6691 15.5856 17 15.5856C19.331 15.5856 21.2274 17.4819 21.2274 19.8129C21.2274 22.1439 19.331 24.0403 17 24.0403C14.6691 24.0403 12.7726 22.1439 12.7726 19.8129ZM25.6772 13.7371V24.406L22.6593 22.3921C23.019 21.6059 23.2195 20.7324 23.2195 19.8129C23.2195 16.7224 20.9538 14.1512 17.9961 13.6731V8.95555L25.6772 13.7371ZM33.0039 27.3183C32.4538 27.3183 32.0078 27.7643 32.0078 28.3144V28.6305L27.6694 25.7353V13.1839C27.6694 12.8398 27.4919 12.5201 27.1997 12.3382L17.9961 6.60882V3.53335L18.1192 3.66603C18.3155 3.8774 18.5821 3.98438 18.8495 3.98438C19.092 3.98438 19.3352 3.89632 19.527 3.71835C19.9301 3.34409 19.9536 2.71389 19.5793 2.31061L17.73 0.31842C17.5415 0.115417 17.277 3.8147e-06 17 3.8147e-06C16.723 3.8147e-06 16.4585 0.115417 16.27 0.31842L14.4207 2.31061C14.0464 2.71389 14.0699 3.34409 14.473 3.71835C14.8762 4.09262 15.5065 4.06918 15.8809 3.66603L16.0039 3.53335V6.56061L6.72284 12.3382C6.43071 12.5201 6.25314 12.8398 6.25314 13.1839V25.7871L1.99219 28.6305V28.3144C1.99219 27.7643 1.5462 27.3183 0.996094 27.3183C0.445984 27.3183 0 27.7643 0 28.3144V30.4926C0 30.8897 0.235743 31.2487 0.600048 31.4066L2.59223 32.2699C2.72126 32.3258 2.8556 32.3523 2.98775 32.3523C3.37277 32.3523 3.73947 32.1277 3.9023 31.7519C4.12104 31.2472 3.88915 30.6606 3.38433 30.4419L3.07043 30.306L7.32521 27.4666L16.4299 33.8208C16.6012 33.9403 16.8006 34 17 34C17.2007 34 17.4012 33.9395 17.5732 33.8186L26.6377 27.4419L30.9296 30.306L30.6157 30.4419C30.1109 30.6606 29.879 31.2472 30.0978 31.7519C30.2606 32.1277 30.6272 32.3523 31.0122 32.3523C31.1444 32.3523 31.2788 32.3258 31.4078 32.2699L33.3999 31.4066C33.7643 31.2487 34 30.8897 34 30.4926V28.3144C34 27.7643 33.554 27.3183 33.0039 27.3183Z" fill="#BD171D"/>
</g>
</svg>
