<svg width="34" height="34" viewBox="0 0 34 34" fill="none" xmlns="http://www.w3.org/2000/svg">
<path d="M17.0003 4.25C10.7387 4.25 5.66699 6.78583 5.66699 9.91667V24.0833C5.66699 27.2142 10.7528 29.75 17.0003 29.75C23.2478 29.75 28.3337 27.2142 28.3337 24.0833V9.91667C28.3337 6.78583 23.262 4.25 17.0003 4.25ZM25.5003 24.0833C25.5003 24.7917 22.4828 26.9167 17.0003 26.9167C11.5178 26.9167 8.50033 24.7917 8.50033 24.0833V20.9242C10.7812 22.0292 13.7703 22.6667 17.0003 22.6667C20.2303 22.6667 23.2195 22.0292 25.5003 20.9242V24.0833ZM25.5003 17.6375C23.6587 18.9833 20.4287 19.8333 17.0003 19.8333C13.572 19.8333 10.342 18.9833 8.50033 17.6375V13.6567C10.5828 14.8325 13.6145 15.5833 17.0003 15.5833C20.3862 15.5833 23.4178 14.8325 25.5003 13.6567V17.6375ZM17.0003 12.75C11.5178 12.75 8.50033 10.625 8.50033 9.91667C8.50033 9.20833 11.5178 7.08333 17.0003 7.08333C22.4828 7.08333 25.5003 9.20833 25.5003 9.91667C25.5003 10.625 22.4828 12.75 17.0003 12.75Z" fill="#BD171D"/>
</svg>
